<svg width="21" height="20" viewBox="0 0 21 20" fill="none" xmlns="http://www.w3.org/2000/svg">
<mask id="mask0_154_211" style="mask-type:alpha" maskUnits="userSpaceOnUse" x="1" y="1" width="18" height="18">
<path d="M2.4611 8.61038C2.27691 8.61038 2.10026 8.53721 1.97002 8.40697C1.83977 8.27672 1.7666 8.10007 1.7666 7.91588V2.36125C1.7666 2.17706 1.83977 2.00041 1.97002 1.87016C2.10026 1.73992 2.27691 1.66675 2.4611 1.66675H8.01712C8.20132 1.66675 8.37797 1.73992 8.50821 1.87016C8.63845 2.00041 8.71163 2.17706 8.71163 2.36125V7.91588C8.71163 8.10007 8.63845 8.27672 8.50821 8.40697C8.37797 8.53721 8.20132 8.61038 8.01712 8.61038H2.4611ZM12.1841 8.61038C11.9999 8.61038 11.8233 8.53721 11.693 8.40697C11.5628 8.27672 11.4896 8.10007 11.4896 7.91588V2.36125C11.4896 2.17706 11.5628 2.00041 11.693 1.87016C11.8233 1.73992 11.9999 1.66675 12.1841 1.66675H17.7388C17.923 1.66675 18.0996 1.73992 18.2299 1.87016C18.3601 2.00041 18.4333 2.17706 18.4333 2.36125V7.91588C18.4333 8.10007 18.3601 8.27672 18.2299 8.40697C18.0996 8.53721 17.923 8.61038 17.7388 8.61038H12.1841ZM2.4611 18.3334C2.27691 18.3334 2.10026 18.2602 1.97002 18.13C1.83977 17.9998 1.7666 17.8231 1.7666 17.6389V12.0829C1.7666 11.8987 1.83977 11.7221 1.97002 11.5918C2.10026 11.4616 2.27691 11.3884 2.4611 11.3884H8.01712C8.20132 11.3884 8.37797 11.4616 8.50821 11.5918C8.63845 11.7221 8.71163 11.8987 8.71163 12.0829V17.6389C8.71163 17.8231 8.63845 17.9998 8.50821 18.13C8.37797 18.2602 8.20132 18.3334 8.01712 18.3334H2.4611ZM12.1841 18.3334C11.9999 18.3334 11.8233 18.2602 11.693 18.13C11.5628 17.9998 11.4896 17.8231 11.4896 17.6389V12.0829C11.4896 11.8987 11.5628 11.7221 11.693 11.5918C11.8233 11.4616 11.9999 11.3884 12.1841 11.3884H17.7388C17.923 11.3884 18.0996 11.4616 18.2299 11.5918C18.3601 11.7221 18.4333 11.8987 18.4333 12.0829V17.6389C18.4333 17.8231 18.3601 17.9998 18.2299 18.13C18.0996 18.2602 17.923 18.3334 17.7388 18.3334H12.1841Z" fill="black"/>
</mask>
<g mask="url(#mask0_154_211)">
<rect x="0.0998535" y="-0.000976562" width="20" height="20" fill="#D4D6DD"/>
</g>
</svg>
