<svg width="23" height="22" viewBox="0 0 23 22" fill="none" xmlns="http://www.w3.org/2000/svg">
<path d="M8.4624 5.5H19.4624" stroke="#D4D6DD" stroke-width="3" stroke-linecap="round" stroke-linejoin="round"/>
<path d="M8.46289 11H19.4624" stroke="#D4D6DD" stroke-width="3" stroke-linecap="round" stroke-linejoin="round"/>
<path d="M8.46289 16.5H19.4624" stroke="#D4D6DD" stroke-width="3" stroke-linecap="round" stroke-linejoin="round"/>
<path d="M4.68115 12.375C5.44054 12.375 6.05615 11.7594 6.05615 11C6.05615 10.2406 5.44054 9.625 4.68115 9.625C3.92176 9.625 3.30615 10.2406 3.30615 11C3.30615 11.7594 3.92176 12.375 4.68115 12.375Z" fill="#D4D6DD"/>
<path d="M4.68115 6.875C5.44054 6.875 6.05615 6.25939 6.05615 5.5C6.05615 4.74061 5.44054 4.125 4.68115 4.125C3.92176 4.125 3.30615 4.74061 3.30615 5.5C3.30615 6.25939 3.92176 6.875 4.68115 6.875Z" fill="#D4D6DD"/>
<path d="M4.68115 17.875C5.44054 17.875 6.05615 17.2594 6.05615 16.5C6.05615 15.7406 5.44054 15.125 4.68115 15.125C3.92176 15.125 3.30615 15.7406 3.30615 16.5C3.30615 17.2594 3.92176 17.875 4.68115 17.875Z" fill="#D4D6DD"/>
</svg>
