<svg width="21" height="20" viewBox="0 0 21 20" fill="none" xmlns="http://www.w3.org/2000/svg">
<mask id="mask0_136_425" style="mask-type:alpha" maskUnits="userSpaceOnUse" x="0" y="0" width="21" height="20">
<path d="M11.95 10C11.95 10.6914 11.3914 11.25 10.7 11.25C10.0085 11.25 9.44995 10.6914 9.44995 10C9.44995 9.30859 10.0085 8.75 10.7 8.75C11.3914 8.75 11.95 9.30859 11.95 10ZM0.699951 10C0.699951 4.47656 5.17651 0 10.7 0C16.2234 0 20.7 4.47656 20.7 10C20.7 15.5234 16.2234 20 10.7 20C5.17651 20 0.699951 15.5234 0.699951 10ZM13.3992 11.9805L15.5671 6.34375C15.8601 5.55078 15.114 4.83984 14.3562 5.13281L8.71948 7.30078C8.38745 7.42578 8.12573 7.6875 8.00073 8.01953L5.83276 13.6563C5.53979 14.4141 6.25073 15.1602 7.0437 14.8672L12.6804 12.6992C13.0125 12.5742 13.2742 12.3125 13.3992 11.9805V11.9805Z" fill="black"/>
</mask>
<g mask="url(#mask0_136_425)">
<rect x="0.699951" y="-0.000976562" width="20" height="20" fill="#FFCC00"/>
</g>
</svg>
