<svg width="80" height="80" viewBox="0 0 80 80" fill="none" xmlns="http://www.w3.org/2000/svg">
<g filter="url(#filter0_d_516_7938)">
<circle cx="40" cy="40" r="30" fill="white"/>
<circle cx="40" cy="40" r="29.5" stroke="#D4D6DD"/>
</g>
<path d="M40 34H51C51.2652 34 51.5196 34.1054 51.7071 34.2929C51.8946 34.4804 52 34.7348 52 35V49C52 49.2652 51.8946 49.5196 51.7071 49.7071C51.5196 49.8946 51.2652 50 51 50H29C28.735 49.9992 28.4811 49.8936 28.2937 49.7062C28.1064 49.5189 28.0008 49.265 28 49V37" stroke="#5F5F5F" stroke-width="2" stroke-linecap="round" stroke-linejoin="round"/>
<path d="M35.6667 37H28V32C28 31.7348 28.1054 31.4804 28.2929 31.2929C28.4804 31.1054 28.7348 31 29 31H35.6667C35.883 31 36.0936 31.0702 36.2667 31.2L40 34L36.2667 36.8C36.0936 36.9298 35.883 37 35.6667 37Z" stroke="#5F5F5F" stroke-width="2" stroke-linecap="round" stroke-linejoin="round"/>
<path d="M36.9995 42.5H42.9995" stroke="#5F5F5F" stroke-width="2" stroke-linecap="round" stroke-linejoin="round"/>
<path d="M39.9995 39.5V45.5" stroke="#5F5F5F" stroke-width="2" stroke-linecap="round" stroke-linejoin="round"/>
<defs>
<filter id="filter0_d_516_7938" x="0" y="0" width="80" height="80" filterUnits="userSpaceOnUse" color-interpolation-filters="sRGB">
<feFlood flood-opacity="0" result="BackgroundImageFix"/>
<feColorMatrix in="SourceAlpha" type="matrix" values="0 0 0 0 0 0 0 0 0 0 0 0 0 0 0 0 0 0 127 0" result="hardAlpha"/>
<feOffset/>
<feGaussianBlur stdDeviation="5"/>
<feComposite in2="hardAlpha" operator="out"/>
<feColorMatrix type="matrix" values="0 0 0 0 0 0 0 0 0 0 0 0 0 0 0 0 0 0 0.08 0"/>
<feBlend mode="normal" in2="BackgroundImageFix" result="effect1_dropShadow_516_7938"/>
<feBlend mode="normal" in="SourceGraphic" in2="effect1_dropShadow_516_7938" result="shape"/>
</filter>
</defs>
</svg>
