<svg width="31" height="32" viewBox="0 0 31 32" fill="none" xmlns="http://www.w3.org/2000/svg">
<path d="M10.5298 22.7427H20.0698" stroke="#5F5F5F" stroke-width="1.5" stroke-linecap="round" stroke-linejoin="round"/>
<path d="M15.2997 16.3826C16.4705 16.3826 17.4197 15.4334 17.4197 14.2626C17.4197 13.0917 16.4705 12.1426 15.2997 12.1426C14.1288 12.1426 13.1797 13.0917 13.1797 14.2626C13.1797 15.4334 14.1288 16.3826 15.2997 16.3826Z" stroke="#5F5F5F" stroke-width="1.5" stroke-linecap="round" stroke-linejoin="round"/>
<path d="M20.6 14.2626C20.6 19.0326 15.3 22.7426 15.3 22.7426C15.3 22.7426 10 19.0326 10 14.2626C10 12.857 10.5584 11.5089 11.5523 10.515C12.5463 9.52104 13.8944 8.96265 15.3 8.96265C16.7056 8.96265 18.0537 9.52104 19.0477 10.515C20.0416 11.5089 20.6 12.857 20.6 14.2626V14.2626Z" stroke="#5F5F5F" stroke-width="1.5" stroke-linecap="round" stroke-linejoin="round"/>
<circle cx="15.0745" cy="16.0371" r="14.0745" stroke="#5F5F5F" stroke-width="2"/>
</svg>
