<svg width="13" height="13" viewBox="0 0 13 13" fill="none" xmlns="http://www.w3.org/2000/svg">
<mask id="mask0_168_789" style="mask-type:alpha" maskUnits="userSpaceOnUse" x="0" y="1" width="13" height="11">
<path d="M3.65633 1.1936C1.71856 1.1936 0.135498 2.63087 0.135498 4.41735C0.135498 5.08725 0.281614 6.17584 1.08713 7.46578C1.89043 8.75215 3.32818 10.2048 5.85428 11.6383L5.85694 11.6398C6.05074 11.7486 6.27323 11.8062 6.50008 11.8062C6.72694 11.8062 6.94943 11.7486 7.14323 11.6398L7.14588 11.6383C9.67198 10.2048 11.1097 8.75215 11.913 7.46578C12.7185 6.17584 12.8647 5.08725 12.8647 4.41735C12.8647 2.63087 11.2816 1.1936 9.34383 1.1936C8.32294 1.1936 7.45923 1.69782 6.90101 2.1249C6.75144 2.23934 6.61709 2.3534 6.50008 2.45958C6.38307 2.3534 6.24873 2.23934 6.09915 2.1249C5.54093 1.69782 4.67722 1.1936 3.65633 1.1936Z" fill="#006FFD"/>
</mask>
<g mask="url(#mask0_168_789)">
<rect y="0.5" width="13" height="12" fill="#FF7272"/>
</g>
</svg>
