<svg width="45" height="77" viewBox="0 0 45 77" fill="none" xmlns="http://www.w3.org/2000/svg">
<path d="M23 2.03125V6.78125M33.0763 6.20498L29.7175 9.56374M37.25 16.2812H32.5M33.0763 26.3575L29.7175 22.9988M23 30.5312V25.7812M12.9237 26.3575L16.2825 22.9988M8.75 16.2812H13.5M12.9237 6.20498L16.2825 9.56374" stroke="#5F5F5F" stroke-width="3" stroke-linecap="round" stroke-linejoin="round"/>
<path fill-rule="evenodd" clip-rule="evenodd" d="M5.3125 42.5938C2.46478 42.5938 0.15625 44.9023 0.15625 47.75V71.8125C0.15625 74.6602 2.46478 76.9688 5.3125 76.9688H39.6875C42.5352 76.9688 44.8438 74.6602 44.8438 71.8125V47.75C44.8438 44.9023 42.5352 42.5938 39.6875 42.5938H5.3125ZM3.59375 47.75C3.59375 46.8008 4.36326 46.0312 5.3125 46.0312H39.6875C40.6367 46.0312 41.4062 46.8008 41.4062 47.75V71.8125C41.4062 72.7617 40.6367 73.5312 39.6875 73.5312H5.3125C4.36326 73.5312 3.59375 72.7617 3.59375 71.8125V47.75Z" fill="#5F5F5F"/>
<path d="M9.01255 68.3808C9.63706 63.5379 12.7048 58.0625 15.7725 58.0625C17.4912 58.0625 18.3506 58.9219 19.21 59.7812C20.0694 60.6406 20.9287 61.5 22.6475 61.5C24.3662 61.5 25.2256 59.3516 26.085 57.2031C26.9444 55.0547 27.8037 52.9062 29.5225 52.9062C32.684 52.9062 35.8455 61.6292 36.3328 68.3784C36.4012 69.3252 35.628 70.0938 34.6787 70.0938H10.6162C9.66701 70.0938 8.89115 69.3222 9.01255 68.3808Z" fill="#5F5F5F"/>
</svg>
