<svg width="38" height="34" viewBox="0 0 38 34" fill="none" xmlns="http://www.w3.org/2000/svg">
<path d="M27.6642 1.73166C27.589 1.44476 27.4761 1.36279 27.2128 1.36279H11.0351C10.8093 1.36279 10.6965 1.44476 10.6212 1.69068C10.4082 2.55241 10.1707 3.38734 9.92839 4.23881L9.92839 4.23883C9.87107 4.44029 9.81348 4.64268 9.75589 4.84656C9.6054 5.42036 9.37967 5.5843 8.85295 5.5843C8.5255 5.5843 8.20226 5.5889 7.88042 5.59347H7.88037C7.2408 5.60256 6.60673 5.61157 5.95601 5.5843C5.65503 5.5843 5.57978 5.66628 5.73027 5.99416C6.29461 7.26471 7.23518 7.87949 8.55197 7.87949H30.0345C31.1631 7.83851 32.1789 7.05978 32.5928 5.91219C32.7057 5.62529 32.668 5.5843 32.4047 5.5843H29.4325C28.9058 5.5843 28.68 5.42002 28.5295 4.84622L28.5294 4.84619C28.2285 3.82167 27.9276 2.79716 27.6642 1.73166Z" fill="#D09E88"/>
<path d="M36.1196 11.6377C34.0419 11.6377 31.9642 11.6377 29.8864 11.6377C29.6047 11.6377 29.5695 11.569 29.5695 11.3284C29.6047 10.5034 29.5695 9.71281 29.5695 8.88784C29.5695 8.6816 29.6047 8.57848 29.8512 8.5441C31.7177 8.26911 33.1967 6.5848 33.2319 4.76298C33.2319 4.24738 32.9854 3.97239 32.4572 3.97239C31.4359 3.97239 30.4147 3.97239 29.3934 3.97239C29.1469 3.97239 29.0413 3.90364 28.9708 3.66302C28.7243 2.80368 28.4426 1.94433 28.1961 1.08499C28.0552 0.56938 27.8439 0.431885 27.2805 0.431885C25.6253 0.431885 23.9702 0.431885 22.3151 0.431885C21.7164 0.431885 21.329 0.947492 21.5755 1.42873C21.7164 1.70372 21.9629 1.80684 22.2799 1.80684C23.7237 1.80684 25.1323 1.80684 26.5762 1.80684C26.8227 1.80684 26.9283 1.87558 26.9988 2.1162C27.2453 3.00992 27.527 3.86927 27.8087 4.72861C27.9496 5.20984 28.1609 5.34734 28.6539 5.34734C29.5695 5.34734 30.4851 5.34734 31.4359 5.34734C31.6824 5.34734 31.7177 5.38171 31.612 5.62233C31.2246 6.5848 30.2738 7.2379 29.2173 7.27227C28.7948 7.27227 28.337 7.27227 27.9144 7.27227C21.646 7.27227 15.3776 7.27227 9.1092 7.27227C7.87666 7.27227 6.99626 6.75667 6.46803 5.69108C6.32717 5.41609 6.3976 5.34734 6.67932 5.34734C7.59493 5.38171 8.47532 5.34734 9.39093 5.34734C9.88395 5.34734 10.0952 5.20984 10.2361 4.72861C10.5178 3.83489 10.7996 2.97555 11.0461 2.08183C11.1165 1.87558 11.2221 1.80684 11.4334 1.80684C12.8773 1.80684 14.2859 1.80684 15.7297 1.80684C16.258 1.80684 16.5749 1.56622 16.5749 1.15373C16.5749 0.706875 16.258 0.466259 15.7297 0.466259C14.0746 0.466259 12.4195 0.466259 10.7643 0.466259C10.2713 0.466259 10.06 0.638128 9.88395 1.08499C9.60222 1.97871 9.3205 2.83805 9.07399 3.73177C9.00356 3.93801 8.93313 4.00676 8.68662 4.00676C7.66536 4.00676 6.64411 4.00676 5.62285 4.00676C5.0594 4.00676 4.77768 4.28175 4.81289 4.83173C4.84811 6.65354 6.32717 8.30349 8.15838 8.57848C8.40489 8.61285 8.44011 8.71597 8.44011 8.92222C8.44011 9.74719 8.44011 10.5378 8.44011 11.3628C8.44011 11.6034 8.40489 11.6721 8.12317 11.6721C6.08066 11.6721 4.00293 11.6721 1.96043 11.6721C1.25611 11.6721 0.939173 11.9815 1.0096 12.7033C1.25611 14.6626 2.94646 16.2438 5.0594 16.2782C5.65807 16.2782 6.25674 16.2782 6.8554 16.2782C7.0667 16.2782 7.10191 16.347 7.10191 16.5188C7.10191 17.7219 7.10191 18.925 7.10191 20.1625C7.10191 20.3687 7.03148 20.4031 6.8554 20.4031C6.46803 20.4031 6.08066 20.4031 5.69329 20.4031C5.20027 20.4031 4.98897 20.5406 4.84811 21.0218C4.07337 23.3936 3.29862 25.7998 2.52388 28.1715C2.06607 29.5809 1.60827 31.0246 1.15047 32.4339C0.903957 33.1901 1.18568 33.5682 1.99564 33.5682C13.3351 33.5682 24.6745 33.5682 36.0492 33.5682C36.4718 33.5682 36.7887 33.4307 37 33.087C37 32.9495 37 32.812 37 32.6745C36.6126 31.6433 36.2957 30.5777 35.9435 29.5121C35.0279 26.6935 34.1123 23.8404 33.1967 21.0218C33.0206 20.5062 32.8446 20.3687 32.3163 20.3687C31.9289 20.3687 31.5768 20.3687 31.1894 20.3687C31.0133 20.3687 30.9429 20.3343 30.9429 20.1281C30.9429 18.925 30.9429 17.7219 30.9429 16.4845C30.9429 16.2438 31.0486 16.2438 31.2246 16.2438C31.9642 16.2438 32.7037 16.3126 33.4784 16.2095C35.2392 15.9688 36.5774 14.697 36.9296 13.0127C36.9296 12.944 36.9296 12.8752 37 12.8408C37 12.6002 37 12.394 37 12.1534C36.7887 11.7409 36.6478 11.6377 36.1196 11.6377ZM4.53117 32.1933C4.00293 32.1589 3.4747 32.1933 2.94647 32.1933C2.8056 32.1933 2.69996 32.1933 2.77039 31.987C3.43948 29.9246 4.10858 27.8278 4.77768 25.731C4.77768 25.731 4.81289 25.731 4.84811 25.731C4.84811 26.2466 4.84811 26.7622 4.84811 27.2435C4.84811 28.7903 4.84811 30.3371 4.84811 31.8495C4.84811 32.1245 4.77768 32.1933 4.53117 32.1933ZM33.1967 25.731C33.2319 25.731 33.2319 25.731 33.2671 25.731C33.9362 27.8622 34.6406 29.9934 35.3449 32.1933C34.6406 32.1933 34.0067 32.1933 33.3376 32.1933C33.1615 32.1933 33.2319 32.0558 33.2319 31.9527C33.1967 29.8902 33.1967 27.7934 33.1967 25.731ZM25.6253 10.0909C25.6253 9.67844 25.6253 9.26595 25.6253 8.85347C25.6253 8.6816 25.6606 8.61285 25.8719 8.61285C26.541 8.61285 27.2101 8.61285 27.9144 8.61285C28.0904 8.61285 28.1609 8.64722 28.1609 8.85347C28.1609 9.71281 28.1609 10.5378 28.1609 11.3971C28.1609 11.569 28.1257 11.6721 27.9144 11.6377C27.2453 11.6377 26.5762 11.6377 25.8719 11.6377C25.6253 11.6377 25.6253 11.569 25.6253 11.3628C25.6253 10.9159 25.6253 10.5034 25.6253 10.0909ZM21.6812 8.85347C21.6812 8.6816 21.7164 8.61285 21.9277 8.61285C22.5968 8.61285 23.2659 8.61285 23.9702 8.61285C24.2167 8.61285 24.2519 8.6816 24.2167 8.88784C24.2167 9.30033 24.2167 9.74719 24.2167 10.1597C24.2167 10.5722 24.1815 10.9503 24.2167 11.3628C24.2167 11.6034 24.1463 11.6721 23.8998 11.6377C23.2659 11.6377 22.5968 11.6377 21.9629 11.6377C21.7516 11.6377 21.646 11.6034 21.6812 11.3628C21.6812 10.5378 21.6812 9.67844 21.6812 8.85347ZM17.9835 8.61285C18.6879 8.61285 19.357 8.61285 20.0613 8.61285C20.2374 8.61285 20.3078 8.6816 20.3078 8.85347C20.3078 9.30033 20.3078 9.71281 20.3078 10.1597C20.3078 10.5722 20.3078 11.019 20.3078 11.4315C20.3078 11.6034 20.2374 11.6721 20.0613 11.6721C19.357 11.6721 18.6879 11.6721 17.9835 11.6721C17.8075 11.6721 17.737 11.6034 17.737 11.4315C17.737 10.5722 17.737 9.71281 17.737 8.85347C17.737 8.64722 17.8075 8.61285 17.9835 8.61285ZM14.0394 8.61285C14.7437 8.61285 15.448 8.61285 16.1523 8.61285C16.3284 8.61285 16.3636 8.64722 16.3636 8.81909C16.3636 9.26595 16.3636 9.67844 16.3636 10.1253C16.3636 10.5722 16.3636 10.9846 16.3636 11.4315C16.3636 11.6034 16.3284 11.6377 16.1523 11.6377C15.448 11.6377 14.7437 11.6377 14.0394 11.6377C13.8633 11.6377 13.8281 11.6034 13.8281 11.4315C13.8281 10.5722 13.8281 9.71281 13.8281 8.81909C13.8281 8.64722 13.8633 8.61285 14.0394 8.61285ZM10.0952 8.61285C10.7996 8.61285 11.5039 8.61285 12.2082 8.61285C12.4195 8.61285 12.4195 8.71597 12.4195 8.85347C12.4195 9.26595 12.4195 9.71281 12.4195 10.1253C12.4195 10.5722 12.4195 10.9846 12.4195 11.4315C12.4195 11.6034 12.3843 11.6377 12.2082 11.6377C11.5039 11.6377 10.7996 11.6377 10.0952 11.6377C9.91916 11.6377 9.88395 11.6034 9.88395 11.4315C9.88395 10.5722 9.88395 9.71281 9.88395 8.81909C9.88395 8.64722 9.91916 8.61285 10.0952 8.61285ZM22.2446 32.1933C21.1882 32.1933 20.1317 32.1933 19.04 32.1933C17.9483 32.1933 16.8919 32.1933 15.8002 32.1933C15.5537 32.1933 15.4832 32.1589 15.4832 31.9183C15.4832 30.8871 15.4832 29.8559 15.4832 28.7903C15.4832 26.8653 17.0327 25.3529 18.9696 25.3529C20.9064 25.3529 22.4559 26.8653 22.4912 28.7903C22.4912 29.8559 22.4912 30.8871 22.4912 31.9527C22.5264 32.1589 22.4559 32.1933 22.2446 32.1933ZM31.4359 21.7436C31.7177 21.7436 31.7881 21.778 31.7881 22.0874C31.7881 25.3185 31.7881 28.584 31.7881 31.8152C31.7881 32.0902 31.7529 32.1589 31.4359 32.1589C29.0413 32.1589 26.6466 32.1589 24.2519 32.1589C24.0054 32.1589 23.935 32.1245 23.935 31.8495C23.9702 30.8183 23.935 29.7871 23.935 28.7559C23.935 26.2466 22.0333 24.1842 19.533 23.9436C17.0327 23.703 14.7789 25.3185 14.2155 27.7247C14.145 28.0684 14.1098 28.4122 14.1098 28.7559C14.1098 29.7871 14.1098 30.8183 14.1098 31.8839C14.1098 32.0902 14.0394 32.1589 13.8281 32.1589C11.3982 32.1589 8.96834 32.1589 6.53846 32.1589C6.29195 32.1589 6.25674 32.0902 6.25674 31.8839C6.25674 28.584 6.25674 25.3185 6.25674 22.0186C6.25674 21.7436 6.36238 21.7436 6.57368 21.7436C10.7291 21.7436 14.8846 21.7436 19.0752 21.7436C23.1602 21.778 27.3157 21.778 31.4359 21.7436ZM8.47532 18.3063C8.47532 17.7219 8.47532 17.1032 8.47532 16.5188C8.47532 16.347 8.51054 16.2438 8.72183 16.2782C9.60222 16.2782 10.4826 16.2782 11.363 16.2782C11.5391 16.2782 11.6095 16.347 11.5743 16.5188C11.5743 17.7563 11.5743 18.9594 11.5743 20.1968C11.5743 20.3687 11.5039 20.4374 11.3278 20.4374C10.4474 20.4374 9.56701 20.4374 8.68662 20.4374C8.47532 20.4374 8.44011 20.3687 8.47532 20.1968C8.51054 19.5437 8.47532 18.925 8.47532 18.3063ZM16.0819 20.1281C16.0819 20.2999 16.0467 20.4031 15.8354 20.3687C14.955 20.3687 14.1098 20.3687 13.2294 20.3687C12.9829 20.3687 12.9829 20.2999 12.9829 20.0937C12.9829 19.5093 12.9829 18.8906 12.9829 18.3063C12.9829 17.6875 12.9829 17.1032 12.9829 16.4845C12.9829 16.3126 13.0181 16.2438 13.2294 16.2438C14.1098 16.2438 14.955 16.2438 15.8354 16.2438C16.0115 16.2438 16.0819 16.2782 16.0819 16.4845C16.0467 17.7219 16.0819 18.925 16.0819 20.1281ZM20.5543 20.1281C20.5543 20.2999 20.5191 20.3687 20.3078 20.3687C19.4274 20.3687 18.5822 20.3687 17.7018 20.3687C17.4553 20.3687 17.4553 20.2656 17.4553 20.0937C17.4553 19.475 17.4553 18.8906 17.4553 18.2719C17.4553 17.6875 17.4553 17.0688 17.4553 16.4845C17.4553 16.3126 17.4905 16.2438 17.7018 16.2438C18.5822 16.2438 19.4274 16.2438 20.3078 16.2438C20.4839 16.2438 20.5543 16.2782 20.5543 16.4845C20.5543 17.7219 20.5543 18.925 20.5543 20.1281ZM25.0619 18.3063C25.0619 18.925 25.0619 19.5093 25.0619 20.1281C25.0619 20.3343 25.0267 20.4031 24.8154 20.4031C23.935 20.4031 23.0898 20.4031 22.2094 20.4031C21.9981 20.4031 21.9629 20.3343 21.9629 20.1625C21.9629 18.9594 21.9629 17.7563 21.9629 16.5188C21.9629 16.3126 22.0333 16.2782 22.2094 16.2782C23.0898 16.2782 23.935 16.2782 24.8154 16.2782C25.0267 16.2782 25.0619 16.347 25.0619 16.5188C25.0619 17.1376 25.0619 17.7219 25.0619 18.3063ZM26.4353 16.5188C26.4353 16.347 26.4705 16.2782 26.6818 16.2782C27.5622 16.2782 28.4074 16.2782 29.2878 16.2782C29.5343 16.2782 29.5343 16.347 29.5343 16.5532C29.5343 17.1719 29.5343 17.7563 29.5343 18.375C29.5343 18.9594 29.5343 19.5437 29.5343 20.1281C29.5343 20.3343 29.4991 20.4374 29.2526 20.4031C28.4074 20.4031 27.5622 20.4031 26.6818 20.4031C26.5057 20.4031 26.4353 20.3687 26.4353 20.1625C26.4705 18.9594 26.4705 17.7219 26.4353 16.5188ZM35.3449 13.3564C34.8871 14.3189 34.0771 14.8345 33.0206 14.9033C32.915 14.9033 32.8446 14.9033 32.7389 14.9033C23.5828 14.9033 14.462 14.9033 5.30591 14.9033C4.07337 14.9033 3.19297 14.3877 2.66474 13.3221C2.52388 13.0471 2.59431 12.9783 2.87603 12.9783C8.26403 12.9783 13.652 12.9783 19.0048 12.9783C24.3576 12.9783 29.7104 12.9783 35.0631 12.9783C35.5209 12.9783 35.5209 13.0127 35.3449 13.3564Z" fill="#6C6C6C" stroke="#6C6C6C" stroke-width="0.5" stroke-miterlimit="10"/>
<path d="M31.4356 21.7443C31.7173 21.7443 31.7878 21.7787 31.7878 22.0881C31.7878 25.3192 31.7878 28.5847 31.7878 31.8159C31.7878 32.0909 31.7526 32.1596 31.4356 32.1596C29.041 32.1596 26.6463 32.1596 24.2516 32.1596C24.0051 32.1596 23.9347 32.1252 23.9347 31.8502C23.9699 30.819 23.9347 29.7878 23.9347 28.7566C23.9347 26.2473 22.033 24.1849 19.5327 23.9443C17.0324 23.7036 14.7786 25.3192 14.2152 27.7254C14.1447 28.0691 14.1095 28.4128 14.1095 28.7566C14.1095 29.7878 14.1095 30.819 14.1095 31.8846C14.1095 32.0908 14.0391 32.1596 13.8278 32.1596C11.3979 32.1596 8.96803 32.1596 6.53815 32.1596C6.29164 32.1596 6.25642 32.0908 6.25642 31.8846C6.25642 28.5847 6.25642 25.3192 6.25642 22.0193C6.25642 21.7443 6.36207 21.7443 6.57336 21.7443C10.7288 21.7443 14.8843 21.7443 19.0749 21.7443C23.1599 21.7787 27.3154 21.7787 31.4356 21.7443ZM35.3446 13.3571C34.8867 14.3196 34.0768 14.8352 33.0203 14.9039C32.9147 14.9039 32.8442 14.9039 32.7386 14.9039C23.5825 14.9039 14.4617 14.9039 5.3056 14.9039C4.07305 14.9039 3.19266 14.3883 2.66443 13.3227C2.52356 13.0478 2.59399 12.979 2.87572 12.979C8.26371 12.979 13.6517 12.979 19.0045 12.979C24.3573 12.979 29.71 12.979 35.0628 12.979C35.5206 12.979 35.5206 13.0134 35.3446 13.3571Z" fill="#D09E88"/>
</svg>
