<svg width="41" height="41" viewBox="0 0 41 41" fill="none" xmlns="http://www.w3.org/2000/svg">
<mask id="path-1-outside-1_185_332" maskUnits="userSpaceOnUse" x="-0.0205078" y="-0.0102539" width="41" height="41" fill="black">
<rect fill="white" x="-0.0205078" y="-0.0102539" width="41" height="41"/>
<path d="M39.1554 14.1752C38.8876 14.1752 38.8258 14.237 38.8258 14.5048C38.8464 16.2354 38.8258 17.966 38.8258 19.676C38.8258 22.9311 38.8258 26.1657 38.8258 29.4208C38.8258 29.565 38.9082 29.7504 38.6197 29.7504C37.2188 29.7298 35.8178 29.7298 34.4375 29.7504C34.2109 29.7504 34.2109 29.6268 34.2109 29.462C34.2109 28.6585 34.2109 27.855 34.2109 27.0722C34.2109 26.8249 34.2109 26.5983 34.1491 26.3511C33.943 25.4652 33.3044 24.9501 32.5627 24.5175C32.1094 24.2496 32.1094 24.2496 32.4597 23.8788C32.8099 23.4874 33.3044 23.1371 33.4898 22.6633C33.6752 22.1894 33.5516 21.6126 33.531 21.0769C33.5104 19.7172 33.634 18.3368 33.4486 16.9771C33.0984 14.1958 30.5643 11.8471 27.783 11.7029C24.0334 11.4969 21.1079 14.237 21.0873 17.9866C21.0667 19.4493 21.0873 20.9327 21.0873 22.3954C21.0873 22.6221 21.1491 22.7869 21.2933 22.9311C21.7053 23.3638 22.0968 23.7964 22.4882 24.2496C22.241 24.3939 22.0556 24.4969 21.8495 24.6205C20.8194 25.218 20.3044 26.0626 20.3456 27.2782C20.3868 28.0199 20.3456 28.7409 20.3456 29.4826C20.3456 29.668 20.325 29.7504 20.0984 29.7504C19.6245 29.7298 19.1507 29.7298 18.6974 29.7504C18.4708 29.7504 18.4296 29.668 18.4296 29.462C18.4502 29.0088 18.4296 28.5555 18.4296 28.0817C18.4296 27.2164 18.4296 27.237 17.5643 27.237C17.3171 27.237 17.2758 27.3194 17.2758 27.546C17.2964 28.1435 17.2552 28.7409 17.2964 29.3384C17.3171 29.6474 17.2552 29.771 16.9256 29.7298C16.4518 29.6886 15.9573 29.7298 15.4835 29.7298C14.7006 29.7298 14.7212 29.7298 14.7006 30.5127C14.7006 30.8218 14.783 30.8836 15.0714 30.8836C18.6768 30.8836 22.2822 30.8836 25.8876 30.8836C26.7529 30.8836 26.7529 30.8836 26.7323 29.9977C26.7323 29.771 26.6499 29.7298 26.4438 29.7298C26.0318 29.7504 25.6403 29.7298 25.2283 29.7298C24.363 29.7298 24.363 29.7298 24.363 28.8851C24.363 27.9786 24.363 27.9787 23.4565 28.0199C23.2711 28.0199 23.2093 28.0817 23.2299 28.2671C23.2505 28.6585 23.2299 29.05 23.2299 29.4414C23.2505 29.668 23.1887 29.7504 22.9415 29.7504C22.5706 29.7298 22.1792 29.7298 21.8083 29.7504C21.5405 29.771 21.4993 29.668 21.4993 29.4208C21.5199 28.6379 21.5199 27.8756 21.4993 27.0928C21.4787 26.5159 21.7053 26.0832 22.1792 25.7742C23.1887 25.0943 24.3424 24.6823 25.4343 24.0848C25.5579 24.8677 25.661 25.6094 25.7434 26.3511C25.764 26.5983 25.867 26.6395 26.073 26.6395C26.8765 26.6189 27.68 26.6189 28.4629 26.6395C28.7513 26.6395 28.8337 26.5365 28.8543 26.2893C28.9367 25.6506 29.0191 25.0325 29.1015 24.4145C29.1221 24.2084 29.1633 24.0848 29.4106 24.229C29.8638 24.4763 30.3377 24.6823 30.8115 24.9089C31.3678 25.1974 31.9652 25.4446 32.4803 25.8154C32.8717 26.1038 33.0778 26.4747 33.0778 26.9897C33.0571 27.6284 33.0778 28.2671 33.0778 28.8851C33.0778 29.7298 33.0778 29.7298 32.2537 29.7298C31.3884 29.7298 31.3884 29.7298 31.3884 28.8851C31.3884 27.9786 31.3884 27.9787 30.4819 28.0199C30.2965 28.0199 30.2346 28.0611 30.2346 28.2465C30.2552 28.3907 30.2346 28.5555 30.2346 28.6997C30.2346 29.0294 30.3377 29.462 30.1728 29.6474C30.008 29.8535 29.5548 29.6886 29.2251 29.7092C29.0397 29.7092 28.8543 29.7092 28.6483 29.7092C27.8654 29.7092 27.8654 29.7092 27.8448 30.4921C27.8448 30.7806 27.9066 30.863 28.2156 30.863C31.512 30.8424 34.7877 30.863 38.0841 30.863C38.8464 30.863 38.8464 30.863 38.8464 31.6252V31.6664C38.8464 32.4287 38.7022 32.5729 37.9399 32.5729C26.3202 32.5729 14.68 32.5729 3.06032 32.5729C2.9367 32.5729 2.83369 32.5729 2.71008 32.5729C2.33924 32.5317 2.13322 32.3257 2.13322 31.9549C2.13322 31.7283 2.15382 31.5016 2.13322 31.275C2.09201 30.9454 2.17442 30.863 2.52466 30.863C5.90342 30.8836 9.30279 30.863 12.6816 30.863C13.5674 30.863 13.5674 30.863 13.5468 29.9771C13.5468 29.7298 13.4438 29.7092 13.2584 29.7298C12.5991 29.7298 11.9399 29.7092 11.2806 29.7504C10.9716 29.771 10.9304 29.668 10.9304 29.4002C10.951 28.9676 10.9304 28.5349 10.9304 28.1023C10.9304 27.237 10.9304 27.2576 10.0651 27.2576C9.81784 27.2576 9.77664 27.34 9.77664 27.5666C9.79724 28.1847 9.77664 28.7821 9.79724 29.4002C9.79724 29.668 9.75604 29.7916 9.447 29.771C9.03496 29.7504 8.60231 29.7504 8.19027 29.771C7.90184 29.7916 7.86063 29.6886 7.86063 29.4208C7.88124 28.4113 7.90184 27.4224 7.86063 26.4129C7.81943 25.5888 8.19027 25.0325 8.87014 24.6411C10.0239 23.9818 11.2394 23.4668 12.4343 22.8693C12.5579 22.8075 12.6816 22.8075 12.8052 22.8487C13.6705 23.1371 14.5152 23.1371 15.3804 22.8487C15.5041 22.8075 15.6277 22.7869 15.7513 22.8487C16.9462 23.4462 18.1617 23.9612 19.3155 24.6411C19.6245 24.8265 19.7481 24.8059 19.9541 24.5175C20.3868 23.92 20.4074 23.8994 19.7481 23.5492C18.7798 23.0341 17.8115 22.5603 16.8226 22.0658C17.111 21.7568 17.4201 21.4683 17.6261 21.1181C17.8527 20.7473 18.0175 20.3558 18.1411 19.9438C18.3266 19.2845 18.2442 18.6046 18.2854 17.9454C18.306 17.6363 18.1617 17.2655 18.3472 17.0801C18.4914 16.9359 18.8828 17.0183 19.1507 17.0389C19.3773 17.0595 19.4185 16.9771 19.4185 16.7504C19.3979 16.1324 19.4185 15.5349 19.4185 14.9168C19.4185 13.3923 18.4914 12.4652 16.9462 12.4446C14.7212 12.4446 12.4961 12.4446 10.2917 12.4446C10.0239 12.4446 9.94146 12.5064 9.94146 12.7948C9.96206 14.6902 9.98266 16.6062 9.94146 18.5016C9.92086 19.9026 10.3329 21.0975 11.3836 22.0452C11.4042 22.0658 11.3836 22.0864 11.4042 22.107C11.2806 22.1688 11.1776 22.21 11.0746 22.2718C10.1063 22.7663 9.11737 23.1577 8.21087 23.7346C7.26317 24.3321 6.74811 25.1561 6.78932 26.3305C6.83052 27.3606 6.78932 28.4113 6.80992 29.462C6.80992 29.6886 6.74811 29.7504 6.52149 29.7504C5.16174 29.7298 3.802 29.7504 2.44225 29.7504C2.23623 29.7504 2.15382 29.7092 2.17442 29.4826C2.19502 28.7203 2.17442 27.958 2.19502 27.1958C2.19502 26.9279 2.11261 26.8661 1.88599 26.8867C1.61816 26.9073 1.32973 26.8455 1.0619 26.9279V32.4081C1.28853 33.3352 1.67997 33.6855 2.64827 33.8503C2.9161 33.8915 3.20453 33.8915 3.47236 33.8915C7.67521 33.8915 11.8987 33.8915 16.1015 33.8915C16.2045 33.8915 16.3075 33.8915 16.4106 33.8915C16.6784 33.8709 16.699 33.9945 16.6372 34.2211C16.493 34.6332 16.3694 35.0452 16.2251 35.4367C16.0603 35.9105 16.0397 35.9311 15.5247 35.9311C14.5152 35.9311 13.5262 35.9311 12.5167 35.9311C11.6514 35.9311 10.9304 36.5698 10.7861 37.4145C10.6625 38.1768 10.7243 38.939 10.7037 39.7013C10.7037 39.8249 10.7243 39.9279 10.8068 40.0103H15.9779C16.0809 39.8867 16.0809 39.7425 16.1015 39.5777C16.1221 38.8154 16.0603 38.7536 15.298 38.7536C14.4121 38.7536 13.5262 38.7536 12.6403 38.7536C12.1871 38.7536 12.1459 38.7124 12.1459 38.2592C12.1459 38.1973 12.1459 38.1355 12.1459 38.0737C12.1459 37.3939 12.2077 37.3321 12.8876 37.3321C14.8448 37.3321 16.8226 37.3321 18.7798 37.3321C19.4597 37.3321 19.5421 37.2496 19.5215 36.5698C19.5215 36.5286 19.5215 36.4874 19.5215 36.4462C19.5009 36.0753 19.4185 35.9723 19.0476 35.9517C18.6562 35.9311 18.2648 35.9517 17.8733 35.9517C17.6467 35.9517 17.5437 35.8487 17.6261 35.6221C17.7909 35.1688 17.9351 34.7156 18.0793 34.2417C18.1617 33.9945 18.306 33.9121 18.5532 33.8915C19.8923 33.8915 21.2109 33.8915 22.55 33.8915C22.7972 33.8915 22.9415 33.9945 23.0239 34.2417C23.1681 34.695 23.3123 35.1276 23.4771 35.5809C23.5595 35.8281 23.4977 35.9517 23.2299 35.9517C23.0651 35.9517 22.8591 35.9517 22.7972 36.1165C22.6736 36.4462 22.653 36.7964 22.7766 37.126C22.8797 37.4145 23.1887 37.3321 23.4153 37.3321C24.7957 37.3321 26.1554 37.3321 27.5358 37.3321C27.8242 37.3321 28.1126 37.3321 28.401 37.3321C28.8337 37.3527 28.9367 37.4557 28.9573 37.8883C28.9573 37.9707 28.9573 38.0325 28.9573 38.1149C28.9573 38.7536 28.9573 38.7536 28.298 38.7536C24.8163 38.7536 21.3551 38.7536 17.8733 38.7536C17.6879 38.7536 17.5231 38.7536 17.3377 38.7742C17.1934 38.7948 17.0492 38.8566 17.0286 39.0214C16.9874 39.3511 16.905 39.7013 17.111 40.0103H30.2758C30.1934 39.3099 30.2552 38.5888 30.2346 37.8883C30.214 36.714 29.5342 36.0135 28.3598 36.0135C27.3091 36.0135 26.279 36.0135 25.2283 36.0135C25.1047 36.0135 24.9399 36.0753 24.8781 35.8899C24.6514 35.1894 24.4042 34.489 24.1776 33.7473H24.6308C29.1015 33.7473 33.5722 33.7473 38.0429 33.7473C39.3614 33.7473 40.0207 33.088 40.0207 31.7489C40.0207 26.1657 40.0207 20.5825 40.0207 14.9993C39.9795 14.1752 39.9795 14.1958 39.1554 14.1752ZM27.886 24.8059C27.783 25.5064 27.783 25.5064 27.0413 25.5064C26.7941 25.5064 26.7117 25.4446 26.6911 25.1974C26.6911 25.0325 26.6499 24.8471 26.6293 24.6823C26.5674 24.126 26.5674 24.126 27.1443 24.126C27.1855 24.126 27.2473 24.126 27.2885 24.126C27.989 24.126 27.989 24.126 27.886 24.8059ZM26.9177 22.9723C25.6404 22.8487 24.5896 21.7362 24.4866 20.397C24.466 20.088 24.4866 19.7996 24.4866 19.4905C24.4866 19.4905 24.4866 19.4905 24.5072 19.4905C24.5072 19.0991 24.3836 18.6252 24.5484 18.3368C24.7133 18.0484 25.2489 18.0484 25.5785 17.8424C26.3202 17.3891 26.9795 17.4303 27.7006 17.966C28.3598 18.4604 29.1221 18.8313 29.8638 19.2433C30.0286 19.3257 30.0904 19.4287 30.0904 19.6348C30.0698 20.0674 30.111 20.5206 29.9874 20.9533C29.596 22.2924 28.3392 23.1165 26.9177 22.9723ZM31.1823 23.5698C31.0587 23.7346 30.9351 23.7346 30.7703 23.6522C30.4819 23.4874 30.1934 23.3638 29.8432 23.1783C30.9969 22.1688 31.2648 20.8915 31.2442 19.4699C31.2236 18.9137 31.0793 18.6046 30.5849 18.3368C29.39 17.6981 28.2362 16.9977 27.0619 16.2972C26.8353 16.1736 26.6705 16.153 26.4438 16.256C25.4961 16.6474 24.5484 17.0389 23.6007 17.4097C23.4359 17.4715 23.3329 17.5539 23.3329 17.76C23.3535 18.6046 23.3329 19.4287 23.3535 20.2734C23.3741 21.4271 23.848 22.3748 24.7132 23.1783C24.363 23.3432 24.0334 23.508 23.7037 23.6728C23.5595 23.7552 23.4977 23.6934 23.4153 23.5904C23.0445 23.1783 22.6736 22.7869 22.3028 22.3748C22.2204 22.2924 22.1792 22.1894 22.1998 22.0658C22.1998 20.5413 22.1586 18.9961 22.241 17.4715C22.3646 14.9993 24.5278 12.9184 27.0001 12.836C29.6784 12.7536 31.9446 14.5666 32.3155 17.1213C32.4597 18.1514 32.3567 19.2021 32.3773 20.2322C32.3773 20.3558 32.3773 20.4794 32.3773 20.6031C32.3773 21.1387 32.5215 21.7568 32.3361 22.2306C32.0888 22.7457 31.5532 23.1165 31.1823 23.5698ZM11.157 13.6601C11.3424 13.4541 11.7545 13.5983 12.0635 13.5983C12.8052 13.5983 13.5262 13.5983 14.2679 13.5983C15.195 13.5983 16.1221 13.5983 17.0492 13.5983C17.8321 13.5983 18.2854 14.0516 18.2854 14.8138C18.2854 15.1435 18.3884 15.5967 18.2236 15.8027C18.0381 16.0088 17.5849 15.8645 17.2346 15.8645C15.6277 15.8645 14.0207 15.8645 12.3931 15.8645C11.5278 15.8645 11.0746 15.4113 11.0746 14.5666C11.0952 14.2576 10.951 13.8455 11.157 13.6601ZM11.0952 19.0167C11.0746 18.275 11.0952 17.5127 11.0952 16.7298C11.6926 17.0801 12.3107 17.0389 12.9288 17.0389C14.2267 17.0389 15.5453 17.0389 16.8432 17.0389C17.0698 17.0389 17.1522 17.0801 17.1316 17.3273C17.0904 18.0896 17.214 18.8519 17.0492 19.5935C16.699 21.0975 15.3186 22.0658 13.7529 21.9216C12.3107 21.7568 11.1364 20.5 11.0952 19.0167ZM1.84479 25.7742C2.05081 25.7742 2.13322 25.7124 2.11261 25.5064C2.09201 25.0531 2.11261 24.5999 2.11261 24.126C2.11261 19.5523 2.11261 14.958 2.11261 10.3844C2.11261 9.8075 2.29803 9.62208 2.85429 9.62208C3.22513 9.62208 3.61658 9.64268 3.98742 9.62208C4.33765 9.60147 4.39946 9.70448 4.39946 10.0341C4.37886 16.0088 4.39946 21.9628 4.39946 27.9374C4.39946 28.6379 4.39946 28.5967 5.12054 28.6379C5.51198 28.6585 5.55319 28.5349 5.55319 28.1847C5.53258 19.676 5.55318 11.1466 5.53258 2.63792C5.53258 2.30829 5.57379 2.18467 5.94463 2.20528C6.87173 2.24648 7.79883 2.20528 8.72593 2.20528C9.55002 2.20528 9.52941 2.20528 9.55002 1.36059C9.55002 1.11336 9.46761 1.05155 9.22038 1.05155C7.71642 1.07215 6.23306 1.07215 4.7291 1.05155C4.42006 1.05155 4.37886 1.13396 4.37886 1.40179C4.39946 3.62683 4.37886 5.85187 4.39946 8.05631C4.39946 8.42715 4.29645 8.50956 3.96681 8.46835C3.55477 8.44775 3.12212 8.46835 2.71008 8.46835C2.23623 8.46835 1.82418 8.63317 1.47395 8.9628C1.22672 9.18943 1.12371 9.51906 0.979492 9.78689V25.7742C1.26792 25.7124 1.55635 25.7536 1.84479 25.7742ZM11.1364 2.18467C19.0888 2.16407 27.0413 2.18467 34.9938 2.16407C35.3028 2.16407 35.4058 2.20528 35.4058 2.55551C35.3852 6.82017 35.4058 11.0848 35.4058 15.3495V27.8344C35.4058 28.5967 35.4058 28.5761 36.1681 28.5967C36.4977 28.6173 36.5595 28.5143 36.5595 28.2053C36.5595 22.1688 36.5595 16.1324 36.5595 10.0753C36.5595 9.99292 36.5595 9.8899 36.5595 9.8075C36.5389 9.62208 36.6213 9.58087 36.8068 9.58087C37.26 9.60147 37.6926 9.58087 38.1459 9.58087C38.661 9.58087 38.867 9.76629 38.867 10.2813C38.867 10.8994 38.867 11.5175 38.867 12.1561C38.867 13.042 38.867 13.0214 39.7323 13.0214C39.9383 13.0214 40.0207 12.9596 40.0001 12.7536C39.9795 11.9089 40.0001 11.0436 40.0001 10.1989C40.0001 9.18943 39.279 8.46835 38.2901 8.44775C37.8575 8.42715 37.4248 8.42715 36.9922 8.44775C36.6625 8.46835 36.5595 8.38594 36.5801 8.0357C36.6007 5.83127 36.5801 3.64743 36.6007 1.44299C36.6007 1.09276 36.5389 0.989746 36.1681 0.989746C27.9272 1.01035 19.6657 0.989746 11.4248 0.989746C10.7449 0.989746 10.7655 0.989746 10.7243 1.69022C10.6625 2.10227 10.7449 2.18467 11.1364 2.18467ZM20.7164 4.10068C20.531 4.2449 20.428 4.2449 20.2426 4.10068C19.8923 3.79165 19.4803 3.58563 19.0476 3.46201C17.6467 3.02937 16.2045 3.79165 15.8749 5.1926C15.6483 6.18151 15.9573 7.0674 16.6372 7.78848C17.8527 9.04521 19.0888 10.2813 20.325 11.5175C20.4074 11.5999 20.4692 11.6617 20.5928 11.5381C21.8701 10.2195 23.2299 8.98341 24.466 7.60306C24.9193 7.088 25.1459 6.44933 25.1459 6.03729C25.1459 4.43032 24.0952 3.359 22.756 3.3384C21.9732 3.3178 21.3139 3.60623 20.7164 4.10068ZM23.9304 6.20211C23.8274 6.55234 23.6419 6.84078 23.3741 7.1086C22.4676 8.0357 21.5405 8.9422 20.634 9.8693C20.4898 10.0135 20.4074 9.99292 20.2838 9.8693C19.3979 8.9216 18.4914 8.0357 17.5849 7.12921C17.1316 6.67596 16.9462 6.22271 16.9462 5.74886C16.9462 4.90417 17.7085 4.3067 18.5532 4.51273C19.2537 4.67754 19.7687 5.13079 20.2014 5.66645C20.428 5.95488 20.531 5.91368 20.737 5.66645C21.1491 5.13079 21.6641 4.67754 22.344 4.53333C22.859 4.40971 23.3123 4.53333 23.6625 4.90417C24.0334 5.27501 24.0746 5.72826 23.9304 6.20211ZM34.0255 9.04521C34.2109 9.04521 34.2727 9.00401 34.2521 8.81859C34.2315 8.32414 34.2521 7.82968 34.2521 7.33523C34.2521 7.0468 34.2521 6.75837 34.2521 6.46994C34.2521 5.60464 34.2521 5.62525 33.3868 5.62525C33.1808 5.62525 33.119 5.68705 33.119 5.89307C33.1396 6.65536 33.119 7.41764 33.119 8.17992C33.119 9.08642 33.119 9.06582 34.0255 9.04521ZM33.2838 3.3178C33.1396 3.3384 33.119 3.40021 33.119 3.50322C33.119 3.62683 33.119 3.72984 33.119 3.85345C33.119 4.47152 33.119 4.47152 33.7164 4.47152C33.7782 4.47152 33.84 4.47152 33.9018 4.47152C34.1697 4.51273 34.2727 4.43032 34.2521 4.14189C34.2521 3.25599 34.1903 3.19418 33.2838 3.3178ZM13.4644 6.05789C13.5056 6.79957 13.485 6.79957 13.9177 6.79957C14.6182 6.79957 14.6182 6.79957 14.6182 6.34632C14.6182 5.64585 14.6182 5.64585 14.0619 5.64585C13.7941 5.68705 13.4232 5.50163 13.4644 6.05789ZM27.0413 5.64585C26.3408 5.70765 26.3408 5.66645 26.3408 6.07849C26.3408 6.79957 26.3408 6.79957 26.8147 6.79957C27.4946 6.79957 27.4945 6.79957 27.4945 6.07849C27.4739 5.91368 27.577 5.60464 27.0413 5.64585ZM21.6229 36.7552C21.5611 36.0341 21.6023 36.0341 21.1491 36.0341C20.4692 36.0341 20.4692 36.0341 20.4692 36.4874C20.4692 37.1672 20.4692 37.1672 21.0461 37.1672C21.3345 37.1672 21.6847 37.3115 21.6229 36.7552Z"/>
</mask>
<path d="M39.1554 14.1752C38.8876 14.1752 38.8258 14.237 38.8258 14.5048C38.8464 16.2354 38.8258 17.966 38.8258 19.676C38.8258 22.9311 38.8258 26.1657 38.8258 29.4208C38.8258 29.565 38.9082 29.7504 38.6197 29.7504C37.2188 29.7298 35.8178 29.7298 34.4375 29.7504C34.2109 29.7504 34.2109 29.6268 34.2109 29.462C34.2109 28.6585 34.2109 27.855 34.2109 27.0722C34.2109 26.8249 34.2109 26.5983 34.1491 26.3511C33.943 25.4652 33.3044 24.9501 32.5627 24.5175C32.1094 24.2496 32.1094 24.2496 32.4597 23.8788C32.8099 23.4874 33.3044 23.1371 33.4898 22.6633C33.6752 22.1894 33.5516 21.6126 33.531 21.0769C33.5104 19.7172 33.634 18.3368 33.4486 16.9771C33.0984 14.1958 30.5643 11.8471 27.783 11.7029C24.0334 11.4969 21.1079 14.237 21.0873 17.9866C21.0667 19.4493 21.0873 20.9327 21.0873 22.3954C21.0873 22.6221 21.1491 22.7869 21.2933 22.9311C21.7053 23.3638 22.0968 23.7964 22.4882 24.2496C22.241 24.3939 22.0556 24.4969 21.8495 24.6205C20.8194 25.218 20.3044 26.0626 20.3456 27.2782C20.3868 28.0199 20.3456 28.7409 20.3456 29.4826C20.3456 29.668 20.325 29.7504 20.0984 29.7504C19.6245 29.7298 19.1507 29.7298 18.6974 29.7504C18.4708 29.7504 18.4296 29.668 18.4296 29.462C18.4502 29.0088 18.4296 28.5555 18.4296 28.0817C18.4296 27.2164 18.4296 27.237 17.5643 27.237C17.3171 27.237 17.2758 27.3194 17.2758 27.546C17.2964 28.1435 17.2552 28.7409 17.2964 29.3384C17.3171 29.6474 17.2552 29.771 16.9256 29.7298C16.4518 29.6886 15.9573 29.7298 15.4835 29.7298C14.7006 29.7298 14.7212 29.7298 14.7006 30.5127C14.7006 30.8218 14.783 30.8836 15.0714 30.8836C18.6768 30.8836 22.2822 30.8836 25.8876 30.8836C26.7529 30.8836 26.7529 30.8836 26.7323 29.9977C26.7323 29.771 26.6499 29.7298 26.4438 29.7298C26.0318 29.7504 25.6403 29.7298 25.2283 29.7298C24.363 29.7298 24.363 29.7298 24.363 28.8851C24.363 27.9786 24.363 27.9787 23.4565 28.0199C23.2711 28.0199 23.2093 28.0817 23.2299 28.2671C23.2505 28.6585 23.2299 29.05 23.2299 29.4414C23.2505 29.668 23.1887 29.7504 22.9415 29.7504C22.5706 29.7298 22.1792 29.7298 21.8083 29.7504C21.5405 29.771 21.4993 29.668 21.4993 29.4208C21.5199 28.6379 21.5199 27.8756 21.4993 27.0928C21.4787 26.5159 21.7053 26.0832 22.1792 25.7742C23.1887 25.0943 24.3424 24.6823 25.4343 24.0848C25.5579 24.8677 25.661 25.6094 25.7434 26.3511C25.764 26.5983 25.867 26.6395 26.073 26.6395C26.8765 26.6189 27.68 26.6189 28.4629 26.6395C28.7513 26.6395 28.8337 26.5365 28.8543 26.2893C28.9367 25.6506 29.0191 25.0325 29.1015 24.4145C29.1221 24.2084 29.1633 24.0848 29.4106 24.229C29.8638 24.4763 30.3377 24.6823 30.8115 24.9089C31.3678 25.1974 31.9652 25.4446 32.4803 25.8154C32.8717 26.1038 33.0778 26.4747 33.0778 26.9897C33.0571 27.6284 33.0778 28.2671 33.0778 28.8851C33.0778 29.7298 33.0778 29.7298 32.2537 29.7298C31.3884 29.7298 31.3884 29.7298 31.3884 28.8851C31.3884 27.9786 31.3884 27.9787 30.4819 28.0199C30.2965 28.0199 30.2346 28.0611 30.2346 28.2465C30.2552 28.3907 30.2346 28.5555 30.2346 28.6997C30.2346 29.0294 30.3377 29.462 30.1728 29.6474C30.008 29.8535 29.5548 29.6886 29.2251 29.7092C29.0397 29.7092 28.8543 29.7092 28.6483 29.7092C27.8654 29.7092 27.8654 29.7092 27.8448 30.4921C27.8448 30.7806 27.9066 30.863 28.2156 30.863C31.512 30.8424 34.7877 30.863 38.0841 30.863C38.8464 30.863 38.8464 30.863 38.8464 31.6252V31.6664C38.8464 32.4287 38.7022 32.5729 37.9399 32.5729C26.3202 32.5729 14.68 32.5729 3.06032 32.5729C2.9367 32.5729 2.83369 32.5729 2.71008 32.5729C2.33924 32.5317 2.13322 32.3257 2.13322 31.9549C2.13322 31.7283 2.15382 31.5016 2.13322 31.275C2.09201 30.9454 2.17442 30.863 2.52466 30.863C5.90342 30.8836 9.30279 30.863 12.6816 30.863C13.5674 30.863 13.5674 30.863 13.5468 29.9771C13.5468 29.7298 13.4438 29.7092 13.2584 29.7298C12.5991 29.7298 11.9399 29.7092 11.2806 29.7504C10.9716 29.771 10.9304 29.668 10.9304 29.4002C10.951 28.9676 10.9304 28.5349 10.9304 28.1023C10.9304 27.237 10.9304 27.2576 10.0651 27.2576C9.81784 27.2576 9.77664 27.34 9.77664 27.5666C9.79724 28.1847 9.77664 28.7821 9.79724 29.4002C9.79724 29.668 9.75604 29.7916 9.447 29.771C9.03496 29.7504 8.60231 29.7504 8.19027 29.771C7.90184 29.7916 7.86063 29.6886 7.86063 29.4208C7.88124 28.4113 7.90184 27.4224 7.86063 26.4129C7.81943 25.5888 8.19027 25.0325 8.87014 24.6411C10.0239 23.9818 11.2394 23.4668 12.4343 22.8693C12.5579 22.8075 12.6816 22.8075 12.8052 22.8487C13.6705 23.1371 14.5152 23.1371 15.3804 22.8487C15.5041 22.8075 15.6277 22.7869 15.7513 22.8487C16.9462 23.4462 18.1617 23.9612 19.3155 24.6411C19.6245 24.8265 19.7481 24.8059 19.9541 24.5175C20.3868 23.92 20.4074 23.8994 19.7481 23.5492C18.7798 23.0341 17.8115 22.5603 16.8226 22.0658C17.111 21.7568 17.4201 21.4683 17.6261 21.1181C17.8527 20.7473 18.0175 20.3558 18.1411 19.9438C18.3266 19.2845 18.2442 18.6046 18.2854 17.9454C18.306 17.6363 18.1617 17.2655 18.3472 17.0801C18.4914 16.9359 18.8828 17.0183 19.1507 17.0389C19.3773 17.0595 19.4185 16.9771 19.4185 16.7504C19.3979 16.1324 19.4185 15.5349 19.4185 14.9168C19.4185 13.3923 18.4914 12.4652 16.9462 12.4446C14.7212 12.4446 12.4961 12.4446 10.2917 12.4446C10.0239 12.4446 9.94146 12.5064 9.94146 12.7948C9.96206 14.6902 9.98266 16.6062 9.94146 18.5016C9.92086 19.9026 10.3329 21.0975 11.3836 22.0452C11.4042 22.0658 11.3836 22.0864 11.4042 22.107C11.2806 22.1688 11.1776 22.21 11.0746 22.2718C10.1063 22.7663 9.11737 23.1577 8.21087 23.7346C7.26317 24.3321 6.74811 25.1561 6.78932 26.3305C6.83052 27.3606 6.78932 28.4113 6.80992 29.462C6.80992 29.6886 6.74811 29.7504 6.52149 29.7504C5.16174 29.7298 3.802 29.7504 2.44225 29.7504C2.23623 29.7504 2.15382 29.7092 2.17442 29.4826C2.19502 28.7203 2.17442 27.958 2.19502 27.1958C2.19502 26.9279 2.11261 26.8661 1.88599 26.8867C1.61816 26.9073 1.32973 26.8455 1.0619 26.9279V32.4081C1.28853 33.3352 1.67997 33.6855 2.64827 33.8503C2.9161 33.8915 3.20453 33.8915 3.47236 33.8915C7.67521 33.8915 11.8987 33.8915 16.1015 33.8915C16.2045 33.8915 16.3075 33.8915 16.4106 33.8915C16.6784 33.8709 16.699 33.9945 16.6372 34.2211C16.493 34.6332 16.3694 35.0452 16.2251 35.4367C16.0603 35.9105 16.0397 35.9311 15.5247 35.9311C14.5152 35.9311 13.5262 35.9311 12.5167 35.9311C11.6514 35.9311 10.9304 36.5698 10.7861 37.4145C10.6625 38.1768 10.7243 38.939 10.7037 39.7013C10.7037 39.8249 10.7243 39.9279 10.8068 40.0103H15.9779C16.0809 39.8867 16.0809 39.7425 16.1015 39.5777C16.1221 38.8154 16.0603 38.7536 15.298 38.7536C14.4121 38.7536 13.5262 38.7536 12.6403 38.7536C12.1871 38.7536 12.1459 38.7124 12.1459 38.2592C12.1459 38.1973 12.1459 38.1355 12.1459 38.0737C12.1459 37.3939 12.2077 37.3321 12.8876 37.3321C14.8448 37.3321 16.8226 37.3321 18.7798 37.3321C19.4597 37.3321 19.5421 37.2496 19.5215 36.5698C19.5215 36.5286 19.5215 36.4874 19.5215 36.4462C19.5009 36.0753 19.4185 35.9723 19.0476 35.9517C18.6562 35.9311 18.2648 35.9517 17.8733 35.9517C17.6467 35.9517 17.5437 35.8487 17.6261 35.6221C17.7909 35.1688 17.9351 34.7156 18.0793 34.2417C18.1617 33.9945 18.306 33.9121 18.5532 33.8915C19.8923 33.8915 21.2109 33.8915 22.55 33.8915C22.7972 33.8915 22.9415 33.9945 23.0239 34.2417C23.1681 34.695 23.3123 35.1276 23.4771 35.5809C23.5595 35.8281 23.4977 35.9517 23.2299 35.9517C23.0651 35.9517 22.8591 35.9517 22.7972 36.1165C22.6736 36.4462 22.653 36.7964 22.7766 37.126C22.8797 37.4145 23.1887 37.3321 23.4153 37.3321C24.7957 37.3321 26.1554 37.3321 27.5358 37.3321C27.8242 37.3321 28.1126 37.3321 28.401 37.3321C28.8337 37.3527 28.9367 37.4557 28.9573 37.8883C28.9573 37.9707 28.9573 38.0325 28.9573 38.1149C28.9573 38.7536 28.9573 38.7536 28.298 38.7536C24.8163 38.7536 21.3551 38.7536 17.8733 38.7536C17.6879 38.7536 17.5231 38.7536 17.3377 38.7742C17.1934 38.7948 17.0492 38.8566 17.0286 39.0214C16.9874 39.3511 16.905 39.7013 17.111 40.0103H30.2758C30.1934 39.3099 30.2552 38.5888 30.2346 37.8883C30.214 36.714 29.5342 36.0135 28.3598 36.0135C27.3091 36.0135 26.279 36.0135 25.2283 36.0135C25.1047 36.0135 24.9399 36.0753 24.8781 35.8899C24.6514 35.1894 24.4042 34.489 24.1776 33.7473H24.6308C29.1015 33.7473 33.5722 33.7473 38.0429 33.7473C39.3614 33.7473 40.0207 33.088 40.0207 31.7489C40.0207 26.1657 40.0207 20.5825 40.0207 14.9993C39.9795 14.1752 39.9795 14.1958 39.1554 14.1752ZM27.886 24.8059C27.783 25.5064 27.783 25.5064 27.0413 25.5064C26.7941 25.5064 26.7117 25.4446 26.6911 25.1974C26.6911 25.0325 26.6499 24.8471 26.6293 24.6823C26.5674 24.126 26.5674 24.126 27.1443 24.126C27.1855 24.126 27.2473 24.126 27.2885 24.126C27.989 24.126 27.989 24.126 27.886 24.8059ZM26.9177 22.9723C25.6404 22.8487 24.5896 21.7362 24.4866 20.397C24.466 20.088 24.4866 19.7996 24.4866 19.4905C24.4866 19.4905 24.4866 19.4905 24.5072 19.4905C24.5072 19.0991 24.3836 18.6252 24.5484 18.3368C24.7133 18.0484 25.2489 18.0484 25.5785 17.8424C26.3202 17.3891 26.9795 17.4303 27.7006 17.966C28.3598 18.4604 29.1221 18.8313 29.8638 19.2433C30.0286 19.3257 30.0904 19.4287 30.0904 19.6348C30.0698 20.0674 30.111 20.5206 29.9874 20.9533C29.596 22.2924 28.3392 23.1165 26.9177 22.9723ZM31.1823 23.5698C31.0587 23.7346 30.9351 23.7346 30.7703 23.6522C30.4819 23.4874 30.1934 23.3638 29.8432 23.1783C30.9969 22.1688 31.2648 20.8915 31.2442 19.4699C31.2236 18.9137 31.0793 18.6046 30.5849 18.3368C29.39 17.6981 28.2362 16.9977 27.0619 16.2972C26.8353 16.1736 26.6705 16.153 26.4438 16.256C25.4961 16.6474 24.5484 17.0389 23.6007 17.4097C23.4359 17.4715 23.3329 17.5539 23.3329 17.76C23.3535 18.6046 23.3329 19.4287 23.3535 20.2734C23.3741 21.4271 23.848 22.3748 24.7132 23.1783C24.363 23.3432 24.0334 23.508 23.7037 23.6728C23.5595 23.7552 23.4977 23.6934 23.4153 23.5904C23.0445 23.1783 22.6736 22.7869 22.3028 22.3748C22.2204 22.2924 22.1792 22.1894 22.1998 22.0658C22.1998 20.5413 22.1586 18.9961 22.241 17.4715C22.3646 14.9993 24.5278 12.9184 27.0001 12.836C29.6784 12.7536 31.9446 14.5666 32.3155 17.1213C32.4597 18.1514 32.3567 19.2021 32.3773 20.2322C32.3773 20.3558 32.3773 20.4794 32.3773 20.6031C32.3773 21.1387 32.5215 21.7568 32.3361 22.2306C32.0888 22.7457 31.5532 23.1165 31.1823 23.5698ZM11.157 13.6601C11.3424 13.4541 11.7545 13.5983 12.0635 13.5983C12.8052 13.5983 13.5262 13.5983 14.2679 13.5983C15.195 13.5983 16.1221 13.5983 17.0492 13.5983C17.8321 13.5983 18.2854 14.0516 18.2854 14.8138C18.2854 15.1435 18.3884 15.5967 18.2236 15.8027C18.0381 16.0088 17.5849 15.8645 17.2346 15.8645C15.6277 15.8645 14.0207 15.8645 12.3931 15.8645C11.5278 15.8645 11.0746 15.4113 11.0746 14.5666C11.0952 14.2576 10.951 13.8455 11.157 13.6601ZM11.0952 19.0167C11.0746 18.275 11.0952 17.5127 11.0952 16.7298C11.6926 17.0801 12.3107 17.0389 12.9288 17.0389C14.2267 17.0389 15.5453 17.0389 16.8432 17.0389C17.0698 17.0389 17.1522 17.0801 17.1316 17.3273C17.0904 18.0896 17.214 18.8519 17.0492 19.5935C16.699 21.0975 15.3186 22.0658 13.7529 21.9216C12.3107 21.7568 11.1364 20.5 11.0952 19.0167ZM1.84479 25.7742C2.05081 25.7742 2.13322 25.7124 2.11261 25.5064C2.09201 25.0531 2.11261 24.5999 2.11261 24.126C2.11261 19.5523 2.11261 14.958 2.11261 10.3844C2.11261 9.8075 2.29803 9.62208 2.85429 9.62208C3.22513 9.62208 3.61658 9.64268 3.98742 9.62208C4.33765 9.60147 4.39946 9.70448 4.39946 10.0341C4.37886 16.0088 4.39946 21.9628 4.39946 27.9374C4.39946 28.6379 4.39946 28.5967 5.12054 28.6379C5.51198 28.6585 5.55319 28.5349 5.55319 28.1847C5.53258 19.676 5.55318 11.1466 5.53258 2.63792C5.53258 2.30829 5.57379 2.18467 5.94463 2.20528C6.87173 2.24648 7.79883 2.20528 8.72593 2.20528C9.55002 2.20528 9.52941 2.20528 9.55002 1.36059C9.55002 1.11336 9.46761 1.05155 9.22038 1.05155C7.71642 1.07215 6.23306 1.07215 4.7291 1.05155C4.42006 1.05155 4.37886 1.13396 4.37886 1.40179C4.39946 3.62683 4.37886 5.85187 4.39946 8.05631C4.39946 8.42715 4.29645 8.50956 3.96681 8.46835C3.55477 8.44775 3.12212 8.46835 2.71008 8.46835C2.23623 8.46835 1.82418 8.63317 1.47395 8.9628C1.22672 9.18943 1.12371 9.51906 0.979492 9.78689V25.7742C1.26792 25.7124 1.55635 25.7536 1.84479 25.7742ZM11.1364 2.18467C19.0888 2.16407 27.0413 2.18467 34.9938 2.16407C35.3028 2.16407 35.4058 2.20528 35.4058 2.55551C35.3852 6.82017 35.4058 11.0848 35.4058 15.3495V27.8344C35.4058 28.5967 35.4058 28.5761 36.1681 28.5967C36.4977 28.6173 36.5595 28.5143 36.5595 28.2053C36.5595 22.1688 36.5595 16.1324 36.5595 10.0753C36.5595 9.99292 36.5595 9.8899 36.5595 9.8075C36.5389 9.62208 36.6213 9.58087 36.8068 9.58087C37.26 9.60147 37.6926 9.58087 38.1459 9.58087C38.661 9.58087 38.867 9.76629 38.867 10.2813C38.867 10.8994 38.867 11.5175 38.867 12.1561C38.867 13.042 38.867 13.0214 39.7323 13.0214C39.9383 13.0214 40.0207 12.9596 40.0001 12.7536C39.9795 11.9089 40.0001 11.0436 40.0001 10.1989C40.0001 9.18943 39.279 8.46835 38.2901 8.44775C37.8575 8.42715 37.4248 8.42715 36.9922 8.44775C36.6625 8.46835 36.5595 8.38594 36.5801 8.0357C36.6007 5.83127 36.5801 3.64743 36.6007 1.44299C36.6007 1.09276 36.5389 0.989746 36.1681 0.989746C27.9272 1.01035 19.6657 0.989746 11.4248 0.989746C10.7449 0.989746 10.7655 0.989746 10.7243 1.69022C10.6625 2.10227 10.7449 2.18467 11.1364 2.18467ZM20.7164 4.10068C20.531 4.2449 20.428 4.2449 20.2426 4.10068C19.8923 3.79165 19.4803 3.58563 19.0476 3.46201C17.6467 3.02937 16.2045 3.79165 15.8749 5.1926C15.6483 6.18151 15.9573 7.0674 16.6372 7.78848C17.8527 9.04521 19.0888 10.2813 20.325 11.5175C20.4074 11.5999 20.4692 11.6617 20.5928 11.5381C21.8701 10.2195 23.2299 8.98341 24.466 7.60306C24.9193 7.088 25.1459 6.44933 25.1459 6.03729C25.1459 4.43032 24.0952 3.359 22.756 3.3384C21.9732 3.3178 21.3139 3.60623 20.7164 4.10068ZM23.9304 6.20211C23.8274 6.55234 23.6419 6.84078 23.3741 7.1086C22.4676 8.0357 21.5405 8.9422 20.634 9.8693C20.4898 10.0135 20.4074 9.99292 20.2838 9.8693C19.3979 8.9216 18.4914 8.0357 17.5849 7.12921C17.1316 6.67596 16.9462 6.22271 16.9462 5.74886C16.9462 4.90417 17.7085 4.3067 18.5532 4.51273C19.2537 4.67754 19.7687 5.13079 20.2014 5.66645C20.428 5.95488 20.531 5.91368 20.737 5.66645C21.1491 5.13079 21.6641 4.67754 22.344 4.53333C22.859 4.40971 23.3123 4.53333 23.6625 4.90417C24.0334 5.27501 24.0746 5.72826 23.9304 6.20211ZM34.0255 9.04521C34.2109 9.04521 34.2727 9.00401 34.2521 8.81859C34.2315 8.32414 34.2521 7.82968 34.2521 7.33523C34.2521 7.0468 34.2521 6.75837 34.2521 6.46994C34.2521 5.60464 34.2521 5.62525 33.3868 5.62525C33.1808 5.62525 33.119 5.68705 33.119 5.89307C33.1396 6.65536 33.119 7.41764 33.119 8.17992C33.119 9.08642 33.119 9.06582 34.0255 9.04521ZM33.2838 3.3178C33.1396 3.3384 33.119 3.40021 33.119 3.50322C33.119 3.62683 33.119 3.72984 33.119 3.85345C33.119 4.47152 33.119 4.47152 33.7164 4.47152C33.7782 4.47152 33.84 4.47152 33.9018 4.47152C34.1697 4.51273 34.2727 4.43032 34.2521 4.14189C34.2521 3.25599 34.1903 3.19418 33.2838 3.3178ZM13.4644 6.05789C13.5056 6.79957 13.485 6.79957 13.9177 6.79957C14.6182 6.79957 14.6182 6.79957 14.6182 6.34632C14.6182 5.64585 14.6182 5.64585 14.0619 5.64585C13.7941 5.68705 13.4232 5.50163 13.4644 6.05789ZM27.0413 5.64585C26.3408 5.70765 26.3408 5.66645 26.3408 6.07849C26.3408 6.79957 26.3408 6.79957 26.8147 6.79957C27.4946 6.79957 27.4945 6.79957 27.4945 6.07849C27.4739 5.91368 27.577 5.60464 27.0413 5.64585ZM21.6229 36.7552C21.5611 36.0341 21.6023 36.0341 21.1491 36.0341C20.4692 36.0341 20.4692 36.0341 20.4692 36.4874C20.4692 37.1672 20.4692 37.1672 21.0461 37.1672C21.3345 37.1672 21.6847 37.3115 21.6229 36.7552Z" fill="#6C6C6C"/>
<path d="M39.1554 14.1752C38.8876 14.1752 38.8258 14.237 38.8258 14.5048C38.8464 16.2354 38.8258 17.966 38.8258 19.676C38.8258 22.9311 38.8258 26.1657 38.8258 29.4208C38.8258 29.565 38.9082 29.7504 38.6197 29.7504C37.2188 29.7298 35.8178 29.7298 34.4375 29.7504C34.2109 29.7504 34.2109 29.6268 34.2109 29.462C34.2109 28.6585 34.2109 27.855 34.2109 27.0722C34.2109 26.8249 34.2109 26.5983 34.1491 26.3511C33.943 25.4652 33.3044 24.9501 32.5627 24.5175C32.1094 24.2496 32.1094 24.2496 32.4597 23.8788C32.8099 23.4874 33.3044 23.1371 33.4898 22.6633C33.6752 22.1894 33.5516 21.6126 33.531 21.0769C33.5104 19.7172 33.634 18.3368 33.4486 16.9771C33.0984 14.1958 30.5643 11.8471 27.783 11.7029C24.0334 11.4969 21.1079 14.237 21.0873 17.9866C21.0667 19.4493 21.0873 20.9327 21.0873 22.3954C21.0873 22.6221 21.1491 22.7869 21.2933 22.9311C21.7053 23.3638 22.0968 23.7964 22.4882 24.2496C22.241 24.3939 22.0556 24.4969 21.8495 24.6205C20.8194 25.218 20.3044 26.0626 20.3456 27.2782C20.3868 28.0199 20.3456 28.7409 20.3456 29.4826C20.3456 29.668 20.325 29.7504 20.0984 29.7504C19.6245 29.7298 19.1507 29.7298 18.6974 29.7504C18.4708 29.7504 18.4296 29.668 18.4296 29.462C18.4502 29.0088 18.4296 28.5555 18.4296 28.0817C18.4296 27.2164 18.4296 27.237 17.5643 27.237C17.3171 27.237 17.2758 27.3194 17.2758 27.546C17.2964 28.1435 17.2552 28.7409 17.2964 29.3384C17.3171 29.6474 17.2552 29.771 16.9256 29.7298C16.4518 29.6886 15.9573 29.7298 15.4835 29.7298C14.7006 29.7298 14.7212 29.7298 14.7006 30.5127C14.7006 30.8218 14.783 30.8836 15.0714 30.8836C18.6768 30.8836 22.2822 30.8836 25.8876 30.8836C26.7529 30.8836 26.7529 30.8836 26.7323 29.9977C26.7323 29.771 26.6499 29.7298 26.4438 29.7298C26.0318 29.7504 25.6403 29.7298 25.2283 29.7298C24.363 29.7298 24.363 29.7298 24.363 28.8851C24.363 27.9786 24.363 27.9787 23.4565 28.0199C23.2711 28.0199 23.2093 28.0817 23.2299 28.2671C23.2505 28.6585 23.2299 29.05 23.2299 29.4414C23.2505 29.668 23.1887 29.7504 22.9415 29.7504C22.5706 29.7298 22.1792 29.7298 21.8083 29.7504C21.5405 29.771 21.4993 29.668 21.4993 29.4208C21.5199 28.6379 21.5199 27.8756 21.4993 27.0928C21.4787 26.5159 21.7053 26.0832 22.1792 25.7742C23.1887 25.0943 24.3424 24.6823 25.4343 24.0848C25.5579 24.8677 25.661 25.6094 25.7434 26.3511C25.764 26.5983 25.867 26.6395 26.073 26.6395C26.8765 26.6189 27.68 26.6189 28.4629 26.6395C28.7513 26.6395 28.8337 26.5365 28.8543 26.2893C28.9367 25.6506 29.0191 25.0325 29.1015 24.4145C29.1221 24.2084 29.1633 24.0848 29.4106 24.229C29.8638 24.4763 30.3377 24.6823 30.8115 24.9089C31.3678 25.1974 31.9652 25.4446 32.4803 25.8154C32.8717 26.1038 33.0778 26.4747 33.0778 26.9897C33.0571 27.6284 33.0778 28.2671 33.0778 28.8851C33.0778 29.7298 33.0778 29.7298 32.2537 29.7298C31.3884 29.7298 31.3884 29.7298 31.3884 28.8851C31.3884 27.9786 31.3884 27.9787 30.4819 28.0199C30.2965 28.0199 30.2346 28.0611 30.2346 28.2465C30.2552 28.3907 30.2346 28.5555 30.2346 28.6997C30.2346 29.0294 30.3377 29.462 30.1728 29.6474C30.008 29.8535 29.5548 29.6886 29.2251 29.7092C29.0397 29.7092 28.8543 29.7092 28.6483 29.7092C27.8654 29.7092 27.8654 29.7092 27.8448 30.4921C27.8448 30.7806 27.9066 30.863 28.2156 30.863C31.512 30.8424 34.7877 30.863 38.0841 30.863C38.8464 30.863 38.8464 30.863 38.8464 31.6252V31.6664C38.8464 32.4287 38.7022 32.5729 37.9399 32.5729C26.3202 32.5729 14.68 32.5729 3.06032 32.5729C2.9367 32.5729 2.83369 32.5729 2.71008 32.5729C2.33924 32.5317 2.13322 32.3257 2.13322 31.9549C2.13322 31.7283 2.15382 31.5016 2.13322 31.275C2.09201 30.9454 2.17442 30.863 2.52466 30.863C5.90342 30.8836 9.30279 30.863 12.6816 30.863C13.5674 30.863 13.5674 30.863 13.5468 29.9771C13.5468 29.7298 13.4438 29.7092 13.2584 29.7298C12.5991 29.7298 11.9399 29.7092 11.2806 29.7504C10.9716 29.771 10.9304 29.668 10.9304 29.4002C10.951 28.9676 10.9304 28.5349 10.9304 28.1023C10.9304 27.237 10.9304 27.2576 10.0651 27.2576C9.81784 27.2576 9.77664 27.34 9.77664 27.5666C9.79724 28.1847 9.77664 28.7821 9.79724 29.4002C9.79724 29.668 9.75604 29.7916 9.447 29.771C9.03496 29.7504 8.60231 29.7504 8.19027 29.771C7.90184 29.7916 7.86063 29.6886 7.86063 29.4208C7.88124 28.4113 7.90184 27.4224 7.86063 26.4129C7.81943 25.5888 8.19027 25.0325 8.87014 24.6411C10.0239 23.9818 11.2394 23.4668 12.4343 22.8693C12.5579 22.8075 12.6816 22.8075 12.8052 22.8487C13.6705 23.1371 14.5152 23.1371 15.3804 22.8487C15.5041 22.8075 15.6277 22.7869 15.7513 22.8487C16.9462 23.4462 18.1617 23.9612 19.3155 24.6411C19.6245 24.8265 19.7481 24.8059 19.9541 24.5175C20.3868 23.92 20.4074 23.8994 19.7481 23.5492C18.7798 23.0341 17.8115 22.5603 16.8226 22.0658C17.111 21.7568 17.4201 21.4683 17.6261 21.1181C17.8527 20.7473 18.0175 20.3558 18.1411 19.9438C18.3266 19.2845 18.2442 18.6046 18.2854 17.9454C18.306 17.6363 18.1617 17.2655 18.3472 17.0801C18.4914 16.9359 18.8828 17.0183 19.1507 17.0389C19.3773 17.0595 19.4185 16.9771 19.4185 16.7504C19.3979 16.1324 19.4185 15.5349 19.4185 14.9168C19.4185 13.3923 18.4914 12.4652 16.9462 12.4446C14.7212 12.4446 12.4961 12.4446 10.2917 12.4446C10.0239 12.4446 9.94146 12.5064 9.94146 12.7948C9.96206 14.6902 9.98266 16.6062 9.94146 18.5016C9.92086 19.9026 10.3329 21.0975 11.3836 22.0452C11.4042 22.0658 11.3836 22.0864 11.4042 22.107C11.2806 22.1688 11.1776 22.21 11.0746 22.2718C10.1063 22.7663 9.11737 23.1577 8.21087 23.7346C7.26317 24.3321 6.74811 25.1561 6.78932 26.3305C6.83052 27.3606 6.78932 28.4113 6.80992 29.462C6.80992 29.6886 6.74811 29.7504 6.52149 29.7504C5.16174 29.7298 3.802 29.7504 2.44225 29.7504C2.23623 29.7504 2.15382 29.7092 2.17442 29.4826C2.19502 28.7203 2.17442 27.958 2.19502 27.1958C2.19502 26.9279 2.11261 26.8661 1.88599 26.8867C1.61816 26.9073 1.32973 26.8455 1.0619 26.9279V32.4081C1.28853 33.3352 1.67997 33.6855 2.64827 33.8503C2.9161 33.8915 3.20453 33.8915 3.47236 33.8915C7.67521 33.8915 11.8987 33.8915 16.1015 33.8915C16.2045 33.8915 16.3075 33.8915 16.4106 33.8915C16.6784 33.8709 16.699 33.9945 16.6372 34.2211C16.493 34.6332 16.3694 35.0452 16.2251 35.4367C16.0603 35.9105 16.0397 35.9311 15.5247 35.9311C14.5152 35.9311 13.5262 35.9311 12.5167 35.9311C11.6514 35.9311 10.9304 36.5698 10.7861 37.4145C10.6625 38.1768 10.7243 38.939 10.7037 39.7013C10.7037 39.8249 10.7243 39.9279 10.8068 40.0103H15.9779C16.0809 39.8867 16.0809 39.7425 16.1015 39.5777C16.1221 38.8154 16.0603 38.7536 15.298 38.7536C14.4121 38.7536 13.5262 38.7536 12.6403 38.7536C12.1871 38.7536 12.1459 38.7124 12.1459 38.2592C12.1459 38.1973 12.1459 38.1355 12.1459 38.0737C12.1459 37.3939 12.2077 37.3321 12.8876 37.3321C14.8448 37.3321 16.8226 37.3321 18.7798 37.3321C19.4597 37.3321 19.5421 37.2496 19.5215 36.5698C19.5215 36.5286 19.5215 36.4874 19.5215 36.4462C19.5009 36.0753 19.4185 35.9723 19.0476 35.9517C18.6562 35.9311 18.2648 35.9517 17.8733 35.9517C17.6467 35.9517 17.5437 35.8487 17.6261 35.6221C17.7909 35.1688 17.9351 34.7156 18.0793 34.2417C18.1617 33.9945 18.306 33.9121 18.5532 33.8915C19.8923 33.8915 21.2109 33.8915 22.55 33.8915C22.7972 33.8915 22.9415 33.9945 23.0239 34.2417C23.1681 34.695 23.3123 35.1276 23.4771 35.5809C23.5595 35.8281 23.4977 35.9517 23.2299 35.9517C23.0651 35.9517 22.8591 35.9517 22.7972 36.1165C22.6736 36.4462 22.653 36.7964 22.7766 37.126C22.8797 37.4145 23.1887 37.3321 23.4153 37.3321C24.7957 37.3321 26.1554 37.3321 27.5358 37.3321C27.8242 37.3321 28.1126 37.3321 28.401 37.3321C28.8337 37.3527 28.9367 37.4557 28.9573 37.8883C28.9573 37.9707 28.9573 38.0325 28.9573 38.1149C28.9573 38.7536 28.9573 38.7536 28.298 38.7536C24.8163 38.7536 21.3551 38.7536 17.8733 38.7536C17.6879 38.7536 17.5231 38.7536 17.3377 38.7742C17.1934 38.7948 17.0492 38.8566 17.0286 39.0214C16.9874 39.3511 16.905 39.7013 17.111 40.0103H30.2758C30.1934 39.3099 30.2552 38.5888 30.2346 37.8883C30.214 36.714 29.5342 36.0135 28.3598 36.0135C27.3091 36.0135 26.279 36.0135 25.2283 36.0135C25.1047 36.0135 24.9399 36.0753 24.8781 35.8899C24.6514 35.1894 24.4042 34.489 24.1776 33.7473H24.6308C29.1015 33.7473 33.5722 33.7473 38.0429 33.7473C39.3614 33.7473 40.0207 33.088 40.0207 31.7489C40.0207 26.1657 40.0207 20.5825 40.0207 14.9993C39.9795 14.1752 39.9795 14.1958 39.1554 14.1752ZM27.886 24.8059C27.783 25.5064 27.783 25.5064 27.0413 25.5064C26.7941 25.5064 26.7117 25.4446 26.6911 25.1974C26.6911 25.0325 26.6499 24.8471 26.6293 24.6823C26.5674 24.126 26.5674 24.126 27.1443 24.126C27.1855 24.126 27.2473 24.126 27.2885 24.126C27.989 24.126 27.989 24.126 27.886 24.8059ZM26.9177 22.9723C25.6404 22.8487 24.5896 21.7362 24.4866 20.397C24.466 20.088 24.4866 19.7996 24.4866 19.4905C24.4866 19.4905 24.4866 19.4905 24.5072 19.4905C24.5072 19.0991 24.3836 18.6252 24.5484 18.3368C24.7133 18.0484 25.2489 18.0484 25.5785 17.8424C26.3202 17.3891 26.9795 17.4303 27.7006 17.966C28.3598 18.4604 29.1221 18.8313 29.8638 19.2433C30.0286 19.3257 30.0904 19.4287 30.0904 19.6348C30.0698 20.0674 30.111 20.5206 29.9874 20.9533C29.596 22.2924 28.3392 23.1165 26.9177 22.9723ZM31.1823 23.5698C31.0587 23.7346 30.9351 23.7346 30.7703 23.6522C30.4819 23.4874 30.1934 23.3638 29.8432 23.1783C30.9969 22.1688 31.2648 20.8915 31.2442 19.4699C31.2236 18.9137 31.0793 18.6046 30.5849 18.3368C29.39 17.6981 28.2362 16.9977 27.0619 16.2972C26.8353 16.1736 26.6705 16.153 26.4438 16.256C25.4961 16.6474 24.5484 17.0389 23.6007 17.4097C23.4359 17.4715 23.3329 17.5539 23.3329 17.76C23.3535 18.6046 23.3329 19.4287 23.3535 20.2734C23.3741 21.4271 23.848 22.3748 24.7132 23.1783C24.363 23.3432 24.0334 23.508 23.7037 23.6728C23.5595 23.7552 23.4977 23.6934 23.4153 23.5904C23.0445 23.1783 22.6736 22.7869 22.3028 22.3748C22.2204 22.2924 22.1792 22.1894 22.1998 22.0658C22.1998 20.5413 22.1586 18.9961 22.241 17.4715C22.3646 14.9993 24.5278 12.9184 27.0001 12.836C29.6784 12.7536 31.9446 14.5666 32.3155 17.1213C32.4597 18.1514 32.3567 19.2021 32.3773 20.2322C32.3773 20.3558 32.3773 20.4794 32.3773 20.6031C32.3773 21.1387 32.5215 21.7568 32.3361 22.2306C32.0888 22.7457 31.5532 23.1165 31.1823 23.5698ZM11.157 13.6601C11.3424 13.4541 11.7545 13.5983 12.0635 13.5983C12.8052 13.5983 13.5262 13.5983 14.2679 13.5983C15.195 13.5983 16.1221 13.5983 17.0492 13.5983C17.8321 13.5983 18.2854 14.0516 18.2854 14.8138C18.2854 15.1435 18.3884 15.5967 18.2236 15.8027C18.0381 16.0088 17.5849 15.8645 17.2346 15.8645C15.6277 15.8645 14.0207 15.8645 12.3931 15.8645C11.5278 15.8645 11.0746 15.4113 11.0746 14.5666C11.0952 14.2576 10.951 13.8455 11.157 13.6601ZM11.0952 19.0167C11.0746 18.275 11.0952 17.5127 11.0952 16.7298C11.6926 17.0801 12.3107 17.0389 12.9288 17.0389C14.2267 17.0389 15.5453 17.0389 16.8432 17.0389C17.0698 17.0389 17.1522 17.0801 17.1316 17.3273C17.0904 18.0896 17.214 18.8519 17.0492 19.5935C16.699 21.0975 15.3186 22.0658 13.7529 21.9216C12.3107 21.7568 11.1364 20.5 11.0952 19.0167ZM1.84479 25.7742C2.05081 25.7742 2.13322 25.7124 2.11261 25.5064C2.09201 25.0531 2.11261 24.5999 2.11261 24.126C2.11261 19.5523 2.11261 14.958 2.11261 10.3844C2.11261 9.8075 2.29803 9.62208 2.85429 9.62208C3.22513 9.62208 3.61658 9.64268 3.98742 9.62208C4.33765 9.60147 4.39946 9.70448 4.39946 10.0341C4.37886 16.0088 4.39946 21.9628 4.39946 27.9374C4.39946 28.6379 4.39946 28.5967 5.12054 28.6379C5.51198 28.6585 5.55319 28.5349 5.55319 28.1847C5.53258 19.676 5.55318 11.1466 5.53258 2.63792C5.53258 2.30829 5.57379 2.18467 5.94463 2.20528C6.87173 2.24648 7.79883 2.20528 8.72593 2.20528C9.55002 2.20528 9.52941 2.20528 9.55002 1.36059C9.55002 1.11336 9.46761 1.05155 9.22038 1.05155C7.71642 1.07215 6.23306 1.07215 4.7291 1.05155C4.42006 1.05155 4.37886 1.13396 4.37886 1.40179C4.39946 3.62683 4.37886 5.85187 4.39946 8.05631C4.39946 8.42715 4.29645 8.50956 3.96681 8.46835C3.55477 8.44775 3.12212 8.46835 2.71008 8.46835C2.23623 8.46835 1.82418 8.63317 1.47395 8.9628C1.22672 9.18943 1.12371 9.51906 0.979492 9.78689V25.7742C1.26792 25.7124 1.55635 25.7536 1.84479 25.7742ZM11.1364 2.18467C19.0888 2.16407 27.0413 2.18467 34.9938 2.16407C35.3028 2.16407 35.4058 2.20528 35.4058 2.55551C35.3852 6.82017 35.4058 11.0848 35.4058 15.3495V27.8344C35.4058 28.5967 35.4058 28.5761 36.1681 28.5967C36.4977 28.6173 36.5595 28.5143 36.5595 28.2053C36.5595 22.1688 36.5595 16.1324 36.5595 10.0753C36.5595 9.99292 36.5595 9.8899 36.5595 9.8075C36.5389 9.62208 36.6213 9.58087 36.8068 9.58087C37.26 9.60147 37.6926 9.58087 38.1459 9.58087C38.661 9.58087 38.867 9.76629 38.867 10.2813C38.867 10.8994 38.867 11.5175 38.867 12.1561C38.867 13.042 38.867 13.0214 39.7323 13.0214C39.9383 13.0214 40.0207 12.9596 40.0001 12.7536C39.9795 11.9089 40.0001 11.0436 40.0001 10.1989C40.0001 9.18943 39.279 8.46835 38.2901 8.44775C37.8575 8.42715 37.4248 8.42715 36.9922 8.44775C36.6625 8.46835 36.5595 8.38594 36.5801 8.0357C36.6007 5.83127 36.5801 3.64743 36.6007 1.44299C36.6007 1.09276 36.5389 0.989746 36.1681 0.989746C27.9272 1.01035 19.6657 0.989746 11.4248 0.989746C10.7449 0.989746 10.7655 0.989746 10.7243 1.69022C10.6625 2.10227 10.7449 2.18467 11.1364 2.18467ZM20.7164 4.10068C20.531 4.2449 20.428 4.2449 20.2426 4.10068C19.8923 3.79165 19.4803 3.58563 19.0476 3.46201C17.6467 3.02937 16.2045 3.79165 15.8749 5.1926C15.6483 6.18151 15.9573 7.0674 16.6372 7.78848C17.8527 9.04521 19.0888 10.2813 20.325 11.5175C20.4074 11.5999 20.4692 11.6617 20.5928 11.5381C21.8701 10.2195 23.2299 8.98341 24.466 7.60306C24.9193 7.088 25.1459 6.44933 25.1459 6.03729C25.1459 4.43032 24.0952 3.359 22.756 3.3384C21.9732 3.3178 21.3139 3.60623 20.7164 4.10068ZM23.9304 6.20211C23.8274 6.55234 23.6419 6.84078 23.3741 7.1086C22.4676 8.0357 21.5405 8.9422 20.634 9.8693C20.4898 10.0135 20.4074 9.99292 20.2838 9.8693C19.3979 8.9216 18.4914 8.0357 17.5849 7.12921C17.1316 6.67596 16.9462 6.22271 16.9462 5.74886C16.9462 4.90417 17.7085 4.3067 18.5532 4.51273C19.2537 4.67754 19.7687 5.13079 20.2014 5.66645C20.428 5.95488 20.531 5.91368 20.737 5.66645C21.1491 5.13079 21.6641 4.67754 22.344 4.53333C22.859 4.40971 23.3123 4.53333 23.6625 4.90417C24.0334 5.27501 24.0746 5.72826 23.9304 6.20211ZM34.0255 9.04521C34.2109 9.04521 34.2727 9.00401 34.2521 8.81859C34.2315 8.32414 34.2521 7.82968 34.2521 7.33523C34.2521 7.0468 34.2521 6.75837 34.2521 6.46994C34.2521 5.60464 34.2521 5.62525 33.3868 5.62525C33.1808 5.62525 33.119 5.68705 33.119 5.89307C33.1396 6.65536 33.119 7.41764 33.119 8.17992C33.119 9.08642 33.119 9.06582 34.0255 9.04521ZM33.2838 3.3178C33.1396 3.3384 33.119 3.40021 33.119 3.50322C33.119 3.62683 33.119 3.72984 33.119 3.85345C33.119 4.47152 33.119 4.47152 33.7164 4.47152C33.7782 4.47152 33.84 4.47152 33.9018 4.47152C34.1697 4.51273 34.2727 4.43032 34.2521 4.14189C34.2521 3.25599 34.1903 3.19418 33.2838 3.3178ZM13.4644 6.05789C13.5056 6.79957 13.485 6.79957 13.9177 6.79957C14.6182 6.79957 14.6182 6.79957 14.6182 6.34632C14.6182 5.64585 14.6182 5.64585 14.0619 5.64585C13.7941 5.68705 13.4232 5.50163 13.4644 6.05789ZM27.0413 5.64585C26.3408 5.70765 26.3408 5.66645 26.3408 6.07849C26.3408 6.79957 26.3408 6.79957 26.8147 6.79957C27.4946 6.79957 27.4945 6.79957 27.4945 6.07849C27.4739 5.91368 27.577 5.60464 27.0413 5.64585ZM21.6229 36.7552C21.5611 36.0341 21.6023 36.0341 21.1491 36.0341C20.4692 36.0341 20.4692 36.0341 20.4692 36.4874C20.4692 37.1672 20.4692 37.1672 21.0461 37.1672C21.3345 37.1672 21.6847 37.3115 21.6229 36.7552Z" stroke="#6C6C6C" stroke-width="0.6" mask="url(#path-1-outside-1_185_332)"/>
</svg>
