<svg width="43" height="41" viewBox="0 0 43 41" fill="none" xmlns="http://www.w3.org/2000/svg">
<mask id="path-1-outside-1_181_481" maskUnits="userSpaceOnUse" x="0.273926" y="0" width="43" height="41" fill="black">
<rect fill="white" x="0.273926" width="43" height="41"/>
<path d="M41.5743 19.4979C41.4529 18.2447 41.2404 16.9915 40.9064 15.7689C37.8098 5.04026 27.0324 -1.13405 16.255 1.67802C6.54015 4.21498 0.0433472 13.9961 1.47022 24.0217C2.13811 28.6983 4.1418 32.6718 7.51164 35.9424C7.66343 36.0646 7.72415 36.2175 7.81523 36.4009C8.20989 37.379 8.9385 37.9903 9.94035 38.2043C10.335 38.296 10.76 38.296 11.1547 38.2654C11.3976 38.2654 11.4887 38.3265 11.5797 38.5405C12.0048 39.4575 12.7334 39.9465 13.7656 39.9771C14.8281 40.0076 15.8603 40.0076 16.9229 39.9771C18.2283 39.9465 19.2605 38.9378 19.2605 37.6235C19.2605 34.6892 19.2605 31.7549 19.2605 28.8205C19.2605 27.5368 18.2283 26.5281 16.9533 26.4975C15.8907 26.4975 14.7978 26.467 13.7352 26.4975C12.7637 26.5281 12.0655 26.9866 11.6404 27.873C11.519 28.1481 11.3672 28.2398 11.094 28.2092C10.2439 28.1481 9.45461 28.2703 8.75635 28.8511C8.60456 28.9734 8.45276 29.1262 8.27061 29.3096C8.20989 29.2179 8.17953 29.1873 8.14917 29.1262C4.74898 23.3798 5.53831 15.8912 10.0314 10.9089C12.2173 8.49421 14.8585 6.90478 18.0158 6.14064C18.5926 6.01837 18.8355 5.62102 18.7141 5.13196C18.623 4.67347 18.198 4.45951 17.6211 4.58177C16.8925 4.7346 16.1639 4.97913 15.4353 5.25422C9.12066 7.63836 4.71862 13.8127 4.47575 20.5677C4.35431 24.3579 5.3258 27.8119 7.45092 30.9601C7.51164 31.0518 7.63307 31.1741 7.63307 31.2964C7.63307 32.0911 7.63307 32.8552 7.63307 33.7111C1.34878 26.742 0.984473 15.3104 8.51348 7.91346C16.0728 0.485946 28.1253 0.852736 35.199 8.70817C42.2726 16.5636 41.0279 27.5673 35.3811 33.6805L35.3507 33.6499C35.3507 32.9775 35.3507 32.305 35.3507 31.6326C35.3507 31.3575 35.4115 31.1741 35.5633 30.9296C38.1134 27.1088 39.1152 22.8907 38.2348 18.367C36.808 11.1534 32.4363 6.56856 25.3627 4.64291C24.8162 4.49008 24.3912 4.70404 24.2697 5.16253C24.1483 5.65158 24.4215 6.01837 25.0287 6.1712C34.1364 8.40251 39.2367 18.0613 35.9276 26.8643C35.5936 27.7202 35.2293 28.5454 34.7132 29.3401C33.9846 28.4537 33.0435 28.1786 31.9809 28.2398C31.647 28.2703 31.4952 28.1786 31.3434 27.8424C30.9487 26.9866 30.2201 26.5281 29.279 26.5281C28.2164 26.4975 27.1538 26.5281 26.0913 26.5281C24.7858 26.5281 23.7536 27.5673 23.7536 28.8511C23.7536 31.7854 23.7536 34.7197 23.7536 37.6541C23.7536 38.9378 24.7858 39.9771 26.0609 39.9771C27.1538 40.0076 28.2468 40.0076 29.3397 39.9771C30.1594 39.9465 30.8576 39.6103 31.2219 38.8767C31.4952 38.3571 31.7988 38.2348 32.3452 38.2654C33.7417 38.296 34.7436 37.5929 35.2597 36.2786C35.3204 36.0952 35.4418 36.0035 35.5633 35.8812C38.8117 32.6718 40.8153 28.8205 41.5136 24.2662C41.5743 23.8383 41.544 23.4104 41.7261 23.013V22.6157C41.6047 22.5851 41.6654 22.4628 41.6654 22.3711C41.6654 22.2794 41.635 22.1877 41.7261 22.1266V21.8821C41.6047 21.7292 41.6047 21.5764 41.7261 21.393V21.0874C41.6047 20.9345 41.6047 20.7817 41.7261 20.5983V20.3538C41.6654 20.3232 41.635 20.2621 41.6654 20.2009C41.6654 20.1398 41.6654 20.1092 41.6654 20.0481C41.6654 19.987 41.635 19.9259 41.7261 19.8953V19.6508C41.544 19.6813 41.5743 19.5896 41.5743 19.4979ZM12.9762 29.0651C12.9762 28.3926 13.2495 28.1175 13.9477 28.1175C14.8888 28.1175 15.83 28.1175 16.7711 28.1175C17.4086 28.1175 17.7122 28.4232 17.7122 29.0651C17.7122 31.8771 17.7122 34.6586 17.7122 37.4707C17.7122 38.1431 17.4086 38.4182 16.7407 38.4182C15.7996 38.4182 14.8888 38.4182 13.9477 38.4182C13.2495 38.4182 12.9762 38.1431 12.9762 37.4401C12.9762 36.0341 12.9762 34.628 12.9762 33.2526C12.9762 31.8465 12.9762 30.4405 12.9762 29.0651ZM9.18138 31.1741C9.18138 30.4405 9.72784 29.8903 10.4564 29.8292C11.3672 29.7375 11.3672 29.7375 11.3672 30.6545V33.2831C11.3672 34.3224 11.3672 35.3616 11.3672 36.4009C11.3672 36.6454 11.3065 36.7677 11.0333 36.7371C10.8208 36.7065 10.6082 36.7371 10.3957 36.7065C9.69748 36.6454 9.15102 36.0952 9.15102 35.3922C9.18138 33.9556 9.18138 32.5801 9.18138 31.1741ZM29.0361 38.4182C28.095 38.4182 27.1538 38.4182 26.2127 38.4182C25.5752 38.4182 25.2716 38.1126 25.2716 37.4707C25.2716 36.0646 25.2716 34.6586 25.2716 33.2831C25.2716 31.8771 25.2716 30.4711 25.2716 29.0956C25.2716 28.4232 25.5448 28.1481 26.2431 28.1481C27.1842 28.1481 28.1253 28.1481 29.0665 28.1481C29.704 28.1481 30.0076 28.4537 30.0076 29.0956C30.0076 31.9077 30.0076 34.6892 30.0076 37.5012C29.9772 38.1126 29.704 38.4182 29.0361 38.4182ZM33.7417 35.3616C33.7417 36.0952 33.1649 36.6454 32.4059 36.7065C31.5255 36.7677 31.5255 36.7677 31.5255 35.9118V33.2526C31.5255 32.2133 31.5255 31.1741 31.5255 30.1349C31.5255 29.8598 31.5862 29.7986 31.8595 29.7986C32.072 29.8292 32.3149 29.7986 32.5274 29.8292C33.2256 29.9209 33.7417 30.4711 33.7417 31.1741C33.7721 32.5496 33.7721 33.9556 33.7417 35.3616ZM41.635 21.1179V20.6289C41.5743 20.8123 41.5743 20.9651 41.635 21.1179ZM41.635 21.9126V21.4236C41.5743 21.607 41.5743 21.7598 41.635 21.9126ZM41.6047 22.4017H41.635V22.1572C41.5743 22.2183 41.6047 22.31 41.6047 22.4017ZM41.6047 22.4323C41.6047 22.4934 41.5743 22.5851 41.635 22.6462V22.4017C41.635 22.4323 41.6047 22.4323 41.6047 22.4323ZM41.6047 22.4017C41.6047 22.4017 41.5743 22.4017 41.6047 22.4017C41.5743 22.4323 41.6047 22.4323 41.6047 22.4017ZM41.6047 20.1092H41.635V19.9564C41.6047 19.987 41.6047 20.0481 41.6047 20.1092ZM41.6047 20.2621H41.635V20.1092C41.635 20.1398 41.6047 20.1398 41.6047 20.1398C41.6047 20.1704 41.6047 20.2009 41.6047 20.2621ZM41.6047 20.1092C41.5743 20.1092 41.5743 20.1092 41.6047 20.1092C41.5743 20.1092 41.5743 20.1092 41.6047 20.1092ZM41.635 20.4149V20.2621C41.635 20.2926 41.6047 20.2926 41.6047 20.2926C41.6047 20.3232 41.6047 20.3843 41.635 20.4149ZM41.6047 20.2621C41.6047 20.2621 41.5743 20.2621 41.6047 20.2621C41.5743 20.2621 41.5743 20.2926 41.6047 20.2621ZM26.9717 21.3013C26.9717 20.2315 26.9717 19.1617 26.9717 18.0919C26.9413 16.7776 25.9091 15.7383 24.6037 15.7383C23.2983 15.7383 22.2661 16.7776 22.2357 18.0919C22.2357 18.6421 22.2357 19.1617 22.2357 19.7119C22.2357 20.2315 22.2357 20.7817 22.2357 21.3013C22.2661 22.6157 23.2983 23.6549 24.6037 23.6549C25.9091 23.6549 26.9717 22.6157 26.9717 21.3013ZM23.8447 21.2402C23.8447 20.2315 23.8447 19.2228 23.8447 18.1836C23.8447 17.664 24.1787 17.3278 24.6341 17.3278C25.0894 17.3278 25.4234 17.664 25.4234 18.1836C25.4234 18.7032 25.4234 19.2228 25.4234 19.7119C25.4234 20.2009 25.4234 20.7206 25.4234 21.2096C25.4234 21.7292 25.0894 22.0655 24.6341 22.0655C24.1787 22.0655 23.8447 21.7292 23.8447 21.2402ZM13.0066 23.4104C13.4923 23.8994 14.221 23.6855 14.3727 23.0741C14.4638 22.7379 14.2817 22.4628 14.0692 22.2183C13.3405 21.4847 12.6423 20.7511 11.8833 20.0481C11.6404 19.8036 11.6101 19.6508 11.8833 19.4062C12.6423 18.6727 13.3709 17.9391 14.0995 17.1749C14.5853 16.6859 14.4335 16.0134 13.8263 15.7995C13.462 15.6772 13.1888 15.83 12.9459 16.0746C12.3994 16.6247 11.853 17.1749 11.2458 17.8168C11.2458 17.3583 11.2458 16.9915 11.2458 16.6247C11.2458 16.1051 10.9118 15.7689 10.4564 15.7689C10.0011 15.7689 9.66712 16.1051 9.66712 16.6247C9.66712 18.7032 9.66712 20.7817 9.66712 22.8602C9.66712 23.3798 10.0011 23.716 10.4564 23.716C10.9118 23.716 11.2458 23.3798 11.2458 22.8602C11.2458 22.4934 11.2458 22.1266 11.2458 21.6681C11.8833 22.2489 12.4298 22.8296 13.0066 23.4104ZM18.3498 15.7383C17.014 15.7383 15.9818 16.7776 15.9514 18.153C15.9514 18.9172 15.9514 19.6508 15.9514 20.4149C15.9514 21.2096 15.9514 22.0043 15.9514 22.799C15.9514 23.3187 16.2854 23.6855 16.7407 23.6855C17.1961 23.6855 17.4997 23.3187 17.5301 22.8296C17.5301 22.31 17.5301 21.7904 17.5301 21.2708C17.5301 20.5372 17.5301 20.5372 18.289 20.5066C19.6552 20.476 20.7178 19.4368 20.6874 18.0919C20.6874 16.8081 19.6248 15.7689 18.3498 15.7383ZM18.4105 18.8866C18.289 18.9172 18.1373 18.8866 17.9855 18.8866C17.5908 19.0089 17.4694 18.8255 17.5301 18.3976C17.5604 18.2753 17.5301 18.1225 17.5301 18.0002C17.5908 17.5723 17.9247 17.2972 18.3194 17.2972C18.7141 17.2972 19.048 17.6334 19.0784 18.0613C19.1391 18.4893 18.8355 18.856 18.4105 18.8866ZM30.888 20.5066C32.2238 20.476 33.2863 19.4368 33.2863 18.1225C33.2863 16.8081 32.2238 15.7383 30.9487 15.7383C29.6433 15.7383 28.5807 16.7776 28.5807 18.1225C28.5807 18.8866 28.5807 19.6202 28.5807 20.3843C28.5807 21.1791 28.5807 22.0043 28.5807 22.799C28.5807 23.3187 28.9147 23.6549 29.37 23.6549C29.8254 23.6549 30.1594 23.3187 30.1594 22.799C30.1594 22.2794 30.1594 21.7598 30.1594 21.2402C30.129 20.5066 30.129 20.5066 30.888 20.5066ZM30.129 18.4281C30.129 18.3364 30.129 18.2142 30.129 18.1225C30.1594 17.664 30.5237 17.3278 30.9487 17.3583C31.3434 17.3889 31.6773 17.7251 31.7077 18.1225C31.7077 18.5504 31.4041 18.9172 30.9183 18.9477C30.8273 18.9477 30.7058 18.9477 30.554 18.9477C30.1594 19.0394 30.0987 18.7949 30.129 18.4281ZM21.4767 4.15385C21.0517 4.15385 20.7178 4.52064 20.6874 4.918C20.6874 5.34592 21.0213 5.71271 21.4464 5.71271C21.8714 5.74328 22.2661 5.37649 22.2661 4.94857C22.2661 4.52064 21.9018 4.15385 21.4767 4.15385Z"/>
</mask>
<path d="M41.5743 19.4979C41.4529 18.2447 41.2404 16.9915 40.9064 15.7689C37.8098 5.04026 27.0324 -1.13405 16.255 1.67802C6.54015 4.21498 0.0433472 13.9961 1.47022 24.0217C2.13811 28.6983 4.1418 32.6718 7.51164 35.9424C7.66343 36.0646 7.72415 36.2175 7.81523 36.4009C8.20989 37.379 8.9385 37.9903 9.94035 38.2043C10.335 38.296 10.76 38.296 11.1547 38.2654C11.3976 38.2654 11.4887 38.3265 11.5797 38.5405C12.0048 39.4575 12.7334 39.9465 13.7656 39.9771C14.8281 40.0076 15.8603 40.0076 16.9229 39.9771C18.2283 39.9465 19.2605 38.9378 19.2605 37.6235C19.2605 34.6892 19.2605 31.7549 19.2605 28.8205C19.2605 27.5368 18.2283 26.5281 16.9533 26.4975C15.8907 26.4975 14.7978 26.467 13.7352 26.4975C12.7637 26.5281 12.0655 26.9866 11.6404 27.873C11.519 28.1481 11.3672 28.2398 11.094 28.2092C10.2439 28.1481 9.45461 28.2703 8.75635 28.8511C8.60456 28.9734 8.45276 29.1262 8.27061 29.3096C8.20989 29.2179 8.17953 29.1873 8.14917 29.1262C4.74898 23.3798 5.53831 15.8912 10.0314 10.9089C12.2173 8.49421 14.8585 6.90478 18.0158 6.14064C18.5926 6.01837 18.8355 5.62102 18.7141 5.13196C18.623 4.67347 18.198 4.45951 17.6211 4.58177C16.8925 4.7346 16.1639 4.97913 15.4353 5.25422C9.12066 7.63836 4.71862 13.8127 4.47575 20.5677C4.35431 24.3579 5.3258 27.8119 7.45092 30.9601C7.51164 31.0518 7.63307 31.1741 7.63307 31.2964C7.63307 32.0911 7.63307 32.8552 7.63307 33.7111C1.34878 26.742 0.984473 15.3104 8.51348 7.91346C16.0728 0.485946 28.1253 0.852736 35.199 8.70817C42.2726 16.5636 41.0279 27.5673 35.3811 33.6805L35.3507 33.6499C35.3507 32.9775 35.3507 32.305 35.3507 31.6326C35.3507 31.3575 35.4115 31.1741 35.5633 30.9296C38.1134 27.1088 39.1152 22.8907 38.2348 18.367C36.808 11.1534 32.4363 6.56856 25.3627 4.64291C24.8162 4.49008 24.3912 4.70404 24.2697 5.16253C24.1483 5.65158 24.4215 6.01837 25.0287 6.1712C34.1364 8.40251 39.2367 18.0613 35.9276 26.8643C35.5936 27.7202 35.2293 28.5454 34.7132 29.3401C33.9846 28.4537 33.0435 28.1786 31.9809 28.2398C31.647 28.2703 31.4952 28.1786 31.3434 27.8424C30.9487 26.9866 30.2201 26.5281 29.279 26.5281C28.2164 26.4975 27.1538 26.5281 26.0913 26.5281C24.7858 26.5281 23.7536 27.5673 23.7536 28.8511C23.7536 31.7854 23.7536 34.7197 23.7536 37.6541C23.7536 38.9378 24.7858 39.9771 26.0609 39.9771C27.1538 40.0076 28.2468 40.0076 29.3397 39.9771C30.1594 39.9465 30.8576 39.6103 31.2219 38.8767C31.4952 38.3571 31.7988 38.2348 32.3452 38.2654C33.7417 38.296 34.7436 37.5929 35.2597 36.2786C35.3204 36.0952 35.4418 36.0035 35.5633 35.8812C38.8117 32.6718 40.8153 28.8205 41.5136 24.2662C41.5743 23.8383 41.544 23.4104 41.7261 23.013V22.6157C41.6047 22.5851 41.6654 22.4628 41.6654 22.3711C41.6654 22.2794 41.635 22.1877 41.7261 22.1266V21.8821C41.6047 21.7292 41.6047 21.5764 41.7261 21.393V21.0874C41.6047 20.9345 41.6047 20.7817 41.7261 20.5983V20.3538C41.6654 20.3232 41.635 20.2621 41.6654 20.2009C41.6654 20.1398 41.6654 20.1092 41.6654 20.0481C41.6654 19.987 41.635 19.9259 41.7261 19.8953V19.6508C41.544 19.6813 41.5743 19.5896 41.5743 19.4979ZM12.9762 29.0651C12.9762 28.3926 13.2495 28.1175 13.9477 28.1175C14.8888 28.1175 15.83 28.1175 16.7711 28.1175C17.4086 28.1175 17.7122 28.4232 17.7122 29.0651C17.7122 31.8771 17.7122 34.6586 17.7122 37.4707C17.7122 38.1431 17.4086 38.4182 16.7407 38.4182C15.7996 38.4182 14.8888 38.4182 13.9477 38.4182C13.2495 38.4182 12.9762 38.1431 12.9762 37.4401C12.9762 36.0341 12.9762 34.628 12.9762 33.2526C12.9762 31.8465 12.9762 30.4405 12.9762 29.0651ZM9.18138 31.1741C9.18138 30.4405 9.72784 29.8903 10.4564 29.8292C11.3672 29.7375 11.3672 29.7375 11.3672 30.6545V33.2831C11.3672 34.3224 11.3672 35.3616 11.3672 36.4009C11.3672 36.6454 11.3065 36.7677 11.0333 36.7371C10.8208 36.7065 10.6082 36.7371 10.3957 36.7065C9.69748 36.6454 9.15102 36.0952 9.15102 35.3922C9.18138 33.9556 9.18138 32.5801 9.18138 31.1741ZM29.0361 38.4182C28.095 38.4182 27.1538 38.4182 26.2127 38.4182C25.5752 38.4182 25.2716 38.1126 25.2716 37.4707C25.2716 36.0646 25.2716 34.6586 25.2716 33.2831C25.2716 31.8771 25.2716 30.4711 25.2716 29.0956C25.2716 28.4232 25.5448 28.1481 26.2431 28.1481C27.1842 28.1481 28.1253 28.1481 29.0665 28.1481C29.704 28.1481 30.0076 28.4537 30.0076 29.0956C30.0076 31.9077 30.0076 34.6892 30.0076 37.5012C29.9772 38.1126 29.704 38.4182 29.0361 38.4182ZM33.7417 35.3616C33.7417 36.0952 33.1649 36.6454 32.4059 36.7065C31.5255 36.7677 31.5255 36.7677 31.5255 35.9118V33.2526C31.5255 32.2133 31.5255 31.1741 31.5255 30.1349C31.5255 29.8598 31.5862 29.7986 31.8595 29.7986C32.072 29.8292 32.3149 29.7986 32.5274 29.8292C33.2256 29.9209 33.7417 30.4711 33.7417 31.1741C33.7721 32.5496 33.7721 33.9556 33.7417 35.3616ZM41.635 21.1179V20.6289C41.5743 20.8123 41.5743 20.9651 41.635 21.1179ZM41.635 21.9126V21.4236C41.5743 21.607 41.5743 21.7598 41.635 21.9126ZM41.6047 22.4017H41.635V22.1572C41.5743 22.2183 41.6047 22.31 41.6047 22.4017ZM41.6047 22.4323C41.6047 22.4934 41.5743 22.5851 41.635 22.6462V22.4017C41.635 22.4323 41.6047 22.4323 41.6047 22.4323ZM41.6047 22.4017C41.6047 22.4017 41.5743 22.4017 41.6047 22.4017C41.5743 22.4323 41.6047 22.4323 41.6047 22.4017ZM41.6047 20.1092H41.635V19.9564C41.6047 19.987 41.6047 20.0481 41.6047 20.1092ZM41.6047 20.2621H41.635V20.1092C41.635 20.1398 41.6047 20.1398 41.6047 20.1398C41.6047 20.1704 41.6047 20.2009 41.6047 20.2621ZM41.6047 20.1092C41.5743 20.1092 41.5743 20.1092 41.6047 20.1092C41.5743 20.1092 41.5743 20.1092 41.6047 20.1092ZM41.635 20.4149V20.2621C41.635 20.2926 41.6047 20.2926 41.6047 20.2926C41.6047 20.3232 41.6047 20.3843 41.635 20.4149ZM41.6047 20.2621C41.6047 20.2621 41.5743 20.2621 41.6047 20.2621C41.5743 20.2621 41.5743 20.2926 41.6047 20.2621ZM26.9717 21.3013C26.9717 20.2315 26.9717 19.1617 26.9717 18.0919C26.9413 16.7776 25.9091 15.7383 24.6037 15.7383C23.2983 15.7383 22.2661 16.7776 22.2357 18.0919C22.2357 18.6421 22.2357 19.1617 22.2357 19.7119C22.2357 20.2315 22.2357 20.7817 22.2357 21.3013C22.2661 22.6157 23.2983 23.6549 24.6037 23.6549C25.9091 23.6549 26.9717 22.6157 26.9717 21.3013ZM23.8447 21.2402C23.8447 20.2315 23.8447 19.2228 23.8447 18.1836C23.8447 17.664 24.1787 17.3278 24.6341 17.3278C25.0894 17.3278 25.4234 17.664 25.4234 18.1836C25.4234 18.7032 25.4234 19.2228 25.4234 19.7119C25.4234 20.2009 25.4234 20.7206 25.4234 21.2096C25.4234 21.7292 25.0894 22.0655 24.6341 22.0655C24.1787 22.0655 23.8447 21.7292 23.8447 21.2402ZM13.0066 23.4104C13.4923 23.8994 14.221 23.6855 14.3727 23.0741C14.4638 22.7379 14.2817 22.4628 14.0692 22.2183C13.3405 21.4847 12.6423 20.7511 11.8833 20.0481C11.6404 19.8036 11.6101 19.6508 11.8833 19.4062C12.6423 18.6727 13.3709 17.9391 14.0995 17.1749C14.5853 16.6859 14.4335 16.0134 13.8263 15.7995C13.462 15.6772 13.1888 15.83 12.9459 16.0746C12.3994 16.6247 11.853 17.1749 11.2458 17.8168C11.2458 17.3583 11.2458 16.9915 11.2458 16.6247C11.2458 16.1051 10.9118 15.7689 10.4564 15.7689C10.0011 15.7689 9.66712 16.1051 9.66712 16.6247C9.66712 18.7032 9.66712 20.7817 9.66712 22.8602C9.66712 23.3798 10.0011 23.716 10.4564 23.716C10.9118 23.716 11.2458 23.3798 11.2458 22.8602C11.2458 22.4934 11.2458 22.1266 11.2458 21.6681C11.8833 22.2489 12.4298 22.8296 13.0066 23.4104ZM18.3498 15.7383C17.014 15.7383 15.9818 16.7776 15.9514 18.153C15.9514 18.9172 15.9514 19.6508 15.9514 20.4149C15.9514 21.2096 15.9514 22.0043 15.9514 22.799C15.9514 23.3187 16.2854 23.6855 16.7407 23.6855C17.1961 23.6855 17.4997 23.3187 17.5301 22.8296C17.5301 22.31 17.5301 21.7904 17.5301 21.2708C17.5301 20.5372 17.5301 20.5372 18.289 20.5066C19.6552 20.476 20.7178 19.4368 20.6874 18.0919C20.6874 16.8081 19.6248 15.7689 18.3498 15.7383ZM18.4105 18.8866C18.289 18.9172 18.1373 18.8866 17.9855 18.8866C17.5908 19.0089 17.4694 18.8255 17.5301 18.3976C17.5604 18.2753 17.5301 18.1225 17.5301 18.0002C17.5908 17.5723 17.9247 17.2972 18.3194 17.2972C18.7141 17.2972 19.048 17.6334 19.0784 18.0613C19.1391 18.4893 18.8355 18.856 18.4105 18.8866ZM30.888 20.5066C32.2238 20.476 33.2863 19.4368 33.2863 18.1225C33.2863 16.8081 32.2238 15.7383 30.9487 15.7383C29.6433 15.7383 28.5807 16.7776 28.5807 18.1225C28.5807 18.8866 28.5807 19.6202 28.5807 20.3843C28.5807 21.1791 28.5807 22.0043 28.5807 22.799C28.5807 23.3187 28.9147 23.6549 29.37 23.6549C29.8254 23.6549 30.1594 23.3187 30.1594 22.799C30.1594 22.2794 30.1594 21.7598 30.1594 21.2402C30.129 20.5066 30.129 20.5066 30.888 20.5066ZM30.129 18.4281C30.129 18.3364 30.129 18.2142 30.129 18.1225C30.1594 17.664 30.5237 17.3278 30.9487 17.3583C31.3434 17.3889 31.6773 17.7251 31.7077 18.1225C31.7077 18.5504 31.4041 18.9172 30.9183 18.9477C30.8273 18.9477 30.7058 18.9477 30.554 18.9477C30.1594 19.0394 30.0987 18.7949 30.129 18.4281ZM21.4767 4.15385C21.0517 4.15385 20.7178 4.52064 20.6874 4.918C20.6874 5.34592 21.0213 5.71271 21.4464 5.71271C21.8714 5.74328 22.2661 5.37649 22.2661 4.94857C22.2661 4.52064 21.9018 4.15385 21.4767 4.15385Z" fill="#6C6C6C"/>
<path d="M41.5743 19.4979C41.4529 18.2447 41.2404 16.9915 40.9064 15.7689C37.8098 5.04026 27.0324 -1.13405 16.255 1.67802C6.54015 4.21498 0.0433472 13.9961 1.47022 24.0217C2.13811 28.6983 4.1418 32.6718 7.51164 35.9424C7.66343 36.0646 7.72415 36.2175 7.81523 36.4009C8.20989 37.379 8.9385 37.9903 9.94035 38.2043C10.335 38.296 10.76 38.296 11.1547 38.2654C11.3976 38.2654 11.4887 38.3265 11.5797 38.5405C12.0048 39.4575 12.7334 39.9465 13.7656 39.9771C14.8281 40.0076 15.8603 40.0076 16.9229 39.9771C18.2283 39.9465 19.2605 38.9378 19.2605 37.6235C19.2605 34.6892 19.2605 31.7549 19.2605 28.8205C19.2605 27.5368 18.2283 26.5281 16.9533 26.4975C15.8907 26.4975 14.7978 26.467 13.7352 26.4975C12.7637 26.5281 12.0655 26.9866 11.6404 27.873C11.519 28.1481 11.3672 28.2398 11.094 28.2092C10.2439 28.1481 9.45461 28.2703 8.75635 28.8511C8.60456 28.9734 8.45276 29.1262 8.27061 29.3096C8.20989 29.2179 8.17953 29.1873 8.14917 29.1262C4.74898 23.3798 5.53831 15.8912 10.0314 10.9089C12.2173 8.49421 14.8585 6.90478 18.0158 6.14064C18.5926 6.01837 18.8355 5.62102 18.7141 5.13196C18.623 4.67347 18.198 4.45951 17.6211 4.58177C16.8925 4.7346 16.1639 4.97913 15.4353 5.25422C9.12066 7.63836 4.71862 13.8127 4.47575 20.5677C4.35431 24.3579 5.3258 27.8119 7.45092 30.9601C7.51164 31.0518 7.63307 31.1741 7.63307 31.2964C7.63307 32.0911 7.63307 32.8552 7.63307 33.7111C1.34878 26.742 0.984473 15.3104 8.51348 7.91346C16.0728 0.485946 28.1253 0.852736 35.199 8.70817C42.2726 16.5636 41.0279 27.5673 35.3811 33.6805L35.3507 33.6499C35.3507 32.9775 35.3507 32.305 35.3507 31.6326C35.3507 31.3575 35.4115 31.1741 35.5633 30.9296C38.1134 27.1088 39.1152 22.8907 38.2348 18.367C36.808 11.1534 32.4363 6.56856 25.3627 4.64291C24.8162 4.49008 24.3912 4.70404 24.2697 5.16253C24.1483 5.65158 24.4215 6.01837 25.0287 6.1712C34.1364 8.40251 39.2367 18.0613 35.9276 26.8643C35.5936 27.7202 35.2293 28.5454 34.7132 29.3401C33.9846 28.4537 33.0435 28.1786 31.9809 28.2398C31.647 28.2703 31.4952 28.1786 31.3434 27.8424C30.9487 26.9866 30.2201 26.5281 29.279 26.5281C28.2164 26.4975 27.1538 26.5281 26.0913 26.5281C24.7858 26.5281 23.7536 27.5673 23.7536 28.8511C23.7536 31.7854 23.7536 34.7197 23.7536 37.6541C23.7536 38.9378 24.7858 39.9771 26.0609 39.9771C27.1538 40.0076 28.2468 40.0076 29.3397 39.9771C30.1594 39.9465 30.8576 39.6103 31.2219 38.8767C31.4952 38.3571 31.7988 38.2348 32.3452 38.2654C33.7417 38.296 34.7436 37.5929 35.2597 36.2786C35.3204 36.0952 35.4418 36.0035 35.5633 35.8812C38.8117 32.6718 40.8153 28.8205 41.5136 24.2662C41.5743 23.8383 41.544 23.4104 41.7261 23.013V22.6157C41.6047 22.5851 41.6654 22.4628 41.6654 22.3711C41.6654 22.2794 41.635 22.1877 41.7261 22.1266V21.8821C41.6047 21.7292 41.6047 21.5764 41.7261 21.393V21.0874C41.6047 20.9345 41.6047 20.7817 41.7261 20.5983V20.3538C41.6654 20.3232 41.635 20.2621 41.6654 20.2009C41.6654 20.1398 41.6654 20.1092 41.6654 20.0481C41.6654 19.987 41.635 19.9259 41.7261 19.8953V19.6508C41.544 19.6813 41.5743 19.5896 41.5743 19.4979ZM12.9762 29.0651C12.9762 28.3926 13.2495 28.1175 13.9477 28.1175C14.8888 28.1175 15.83 28.1175 16.7711 28.1175C17.4086 28.1175 17.7122 28.4232 17.7122 29.0651C17.7122 31.8771 17.7122 34.6586 17.7122 37.4707C17.7122 38.1431 17.4086 38.4182 16.7407 38.4182C15.7996 38.4182 14.8888 38.4182 13.9477 38.4182C13.2495 38.4182 12.9762 38.1431 12.9762 37.4401C12.9762 36.0341 12.9762 34.628 12.9762 33.2526C12.9762 31.8465 12.9762 30.4405 12.9762 29.0651ZM9.18138 31.1741C9.18138 30.4405 9.72784 29.8903 10.4564 29.8292C11.3672 29.7375 11.3672 29.7375 11.3672 30.6545V33.2831C11.3672 34.3224 11.3672 35.3616 11.3672 36.4009C11.3672 36.6454 11.3065 36.7677 11.0333 36.7371C10.8208 36.7065 10.6082 36.7371 10.3957 36.7065C9.69748 36.6454 9.15102 36.0952 9.15102 35.3922C9.18138 33.9556 9.18138 32.5801 9.18138 31.1741ZM29.0361 38.4182C28.095 38.4182 27.1538 38.4182 26.2127 38.4182C25.5752 38.4182 25.2716 38.1126 25.2716 37.4707C25.2716 36.0646 25.2716 34.6586 25.2716 33.2831C25.2716 31.8771 25.2716 30.4711 25.2716 29.0956C25.2716 28.4232 25.5448 28.1481 26.2431 28.1481C27.1842 28.1481 28.1253 28.1481 29.0665 28.1481C29.704 28.1481 30.0076 28.4537 30.0076 29.0956C30.0076 31.9077 30.0076 34.6892 30.0076 37.5012C29.9772 38.1126 29.704 38.4182 29.0361 38.4182ZM33.7417 35.3616C33.7417 36.0952 33.1649 36.6454 32.4059 36.7065C31.5255 36.7677 31.5255 36.7677 31.5255 35.9118V33.2526C31.5255 32.2133 31.5255 31.1741 31.5255 30.1349C31.5255 29.8598 31.5862 29.7986 31.8595 29.7986C32.072 29.8292 32.3149 29.7986 32.5274 29.8292C33.2256 29.9209 33.7417 30.4711 33.7417 31.1741C33.7721 32.5496 33.7721 33.9556 33.7417 35.3616ZM41.635 21.1179V20.6289C41.5743 20.8123 41.5743 20.9651 41.635 21.1179ZM41.635 21.9126V21.4236C41.5743 21.607 41.5743 21.7598 41.635 21.9126ZM41.6047 22.4017H41.635V22.1572C41.5743 22.2183 41.6047 22.31 41.6047 22.4017ZM41.6047 22.4323C41.6047 22.4934 41.5743 22.5851 41.635 22.6462V22.4017C41.635 22.4323 41.6047 22.4323 41.6047 22.4323ZM41.6047 22.4017C41.6047 22.4017 41.5743 22.4017 41.6047 22.4017C41.5743 22.4323 41.6047 22.4323 41.6047 22.4017ZM41.6047 20.1092H41.635V19.9564C41.6047 19.987 41.6047 20.0481 41.6047 20.1092ZM41.6047 20.2621H41.635V20.1092C41.635 20.1398 41.6047 20.1398 41.6047 20.1398C41.6047 20.1704 41.6047 20.2009 41.6047 20.2621ZM41.6047 20.1092C41.5743 20.1092 41.5743 20.1092 41.6047 20.1092C41.5743 20.1092 41.5743 20.1092 41.6047 20.1092ZM41.635 20.4149V20.2621C41.635 20.2926 41.6047 20.2926 41.6047 20.2926C41.6047 20.3232 41.6047 20.3843 41.635 20.4149ZM41.6047 20.2621C41.6047 20.2621 41.5743 20.2621 41.6047 20.2621C41.5743 20.2621 41.5743 20.2926 41.6047 20.2621ZM26.9717 21.3013C26.9717 20.2315 26.9717 19.1617 26.9717 18.0919C26.9413 16.7776 25.9091 15.7383 24.6037 15.7383C23.2983 15.7383 22.2661 16.7776 22.2357 18.0919C22.2357 18.6421 22.2357 19.1617 22.2357 19.7119C22.2357 20.2315 22.2357 20.7817 22.2357 21.3013C22.2661 22.6157 23.2983 23.6549 24.6037 23.6549C25.9091 23.6549 26.9717 22.6157 26.9717 21.3013ZM23.8447 21.2402C23.8447 20.2315 23.8447 19.2228 23.8447 18.1836C23.8447 17.664 24.1787 17.3278 24.6341 17.3278C25.0894 17.3278 25.4234 17.664 25.4234 18.1836C25.4234 18.7032 25.4234 19.2228 25.4234 19.7119C25.4234 20.2009 25.4234 20.7206 25.4234 21.2096C25.4234 21.7292 25.0894 22.0655 24.6341 22.0655C24.1787 22.0655 23.8447 21.7292 23.8447 21.2402ZM13.0066 23.4104C13.4923 23.8994 14.221 23.6855 14.3727 23.0741C14.4638 22.7379 14.2817 22.4628 14.0692 22.2183C13.3405 21.4847 12.6423 20.7511 11.8833 20.0481C11.6404 19.8036 11.6101 19.6508 11.8833 19.4062C12.6423 18.6727 13.3709 17.9391 14.0995 17.1749C14.5853 16.6859 14.4335 16.0134 13.8263 15.7995C13.462 15.6772 13.1888 15.83 12.9459 16.0746C12.3994 16.6247 11.853 17.1749 11.2458 17.8168C11.2458 17.3583 11.2458 16.9915 11.2458 16.6247C11.2458 16.1051 10.9118 15.7689 10.4564 15.7689C10.0011 15.7689 9.66712 16.1051 9.66712 16.6247C9.66712 18.7032 9.66712 20.7817 9.66712 22.8602C9.66712 23.3798 10.0011 23.716 10.4564 23.716C10.9118 23.716 11.2458 23.3798 11.2458 22.8602C11.2458 22.4934 11.2458 22.1266 11.2458 21.6681C11.8833 22.2489 12.4298 22.8296 13.0066 23.4104ZM18.3498 15.7383C17.014 15.7383 15.9818 16.7776 15.9514 18.153C15.9514 18.9172 15.9514 19.6508 15.9514 20.4149C15.9514 21.2096 15.9514 22.0043 15.9514 22.799C15.9514 23.3187 16.2854 23.6855 16.7407 23.6855C17.1961 23.6855 17.4997 23.3187 17.5301 22.8296C17.5301 22.31 17.5301 21.7904 17.5301 21.2708C17.5301 20.5372 17.5301 20.5372 18.289 20.5066C19.6552 20.476 20.7178 19.4368 20.6874 18.0919C20.6874 16.8081 19.6248 15.7689 18.3498 15.7383ZM18.4105 18.8866C18.289 18.9172 18.1373 18.8866 17.9855 18.8866C17.5908 19.0089 17.4694 18.8255 17.5301 18.3976C17.5604 18.2753 17.5301 18.1225 17.5301 18.0002C17.5908 17.5723 17.9247 17.2972 18.3194 17.2972C18.7141 17.2972 19.048 17.6334 19.0784 18.0613C19.1391 18.4893 18.8355 18.856 18.4105 18.8866ZM30.888 20.5066C32.2238 20.476 33.2863 19.4368 33.2863 18.1225C33.2863 16.8081 32.2238 15.7383 30.9487 15.7383C29.6433 15.7383 28.5807 16.7776 28.5807 18.1225C28.5807 18.8866 28.5807 19.6202 28.5807 20.3843C28.5807 21.1791 28.5807 22.0043 28.5807 22.799C28.5807 23.3187 28.9147 23.6549 29.37 23.6549C29.8254 23.6549 30.1594 23.3187 30.1594 22.799C30.1594 22.2794 30.1594 21.7598 30.1594 21.2402C30.129 20.5066 30.129 20.5066 30.888 20.5066ZM30.129 18.4281C30.129 18.3364 30.129 18.2142 30.129 18.1225C30.1594 17.664 30.5237 17.3278 30.9487 17.3583C31.3434 17.3889 31.6773 17.7251 31.7077 18.1225C31.7077 18.5504 31.4041 18.9172 30.9183 18.9477C30.8273 18.9477 30.7058 18.9477 30.554 18.9477C30.1594 19.0394 30.0987 18.7949 30.129 18.4281ZM21.4767 4.15385C21.0517 4.15385 20.7178 4.52064 20.6874 4.918C20.6874 5.34592 21.0213 5.71271 21.4464 5.71271C21.8714 5.74328 22.2661 5.37649 22.2661 4.94857C22.2661 4.52064 21.9018 4.15385 21.4767 4.15385Z" stroke="#6C6C6C" stroke-width="0.6" mask="url(#path-1-outside-1_181_481)"/>
</svg>
