<svg width="45" height="39" viewBox="0 0 45 39" fill="none" xmlns="http://www.w3.org/2000/svg">
<path d="M14.4477 12.1432C14.4593 12.3977 14.3318 12.5827 14.1116 12.6984C13.8798 12.8256 13.6248 12.8371 13.4278 12.6521C13.0453 12.3052 12.6744 11.9466 12.3267 11.5534C12.0949 11.299 12.1413 10.9868 12.3731 10.7323C12.6049 10.4895 12.8946 10.4432 13.1496 10.6282C13.6016 10.9521 13.9841 11.38 14.3434 11.8079C14.4362 11.9119 14.4593 12.0276 14.4477 12.1432Z" fill="#6C6C6C"/>
<path d="M4.27169 1.97754C4.68894 1.97754 5.87115 3.15716 5.87115 3.5735C5.87115 4.05922 5.3264 4.38304 4.90915 4.10548C4.43395 3.78167 4.0167 3.37689 3.70376 2.89117C3.44878 2.4864 3.79649 1.97754 4.27169 1.97754Z" fill="#6C6C6C"/>
<path d="M9.68421 1.34153C9.68421 1.56126 9.6958 1.781 9.68421 1.98917C9.66103 2.37081 9.41764 2.6368 9.06993 2.6368C8.69904 2.6368 8.44405 2.4402 8.40928 2.08168C8.36292 1.58439 8.36292 1.06397 8.40928 0.566681C8.43246 0.208168 8.68745 0 9.05834 0C9.40605 0 9.66103 0.265993 9.68421 0.647635C9.6958 0.878933 9.68421 1.11023 9.68421 1.34153Z" fill="#6C6C6C"/>
<path d="M9.68417 13.4154C9.68417 13.6467 9.69576 13.878 9.68417 14.1093C9.66099 14.5025 9.4176 14.7454 9.06989 14.7454C8.68741 14.7569 8.44401 14.5488 8.40924 14.1903C8.36288 13.693 8.37447 13.1841 8.40924 12.6753C8.43242 12.3167 8.75695 12.0739 9.10466 12.1201C9.47555 12.1664 9.67258 12.3861 9.68417 12.7562C9.69576 12.9875 9.68417 13.1957 9.68417 13.4154Z" fill="#6C6C6C"/>
<path d="M3.0199 6.74228C3.24011 6.74228 3.44874 6.73071 3.66895 6.74228C4.03984 6.75384 4.26006 6.97358 4.29483 7.33209C4.3296 7.70217 4.12097 7.97972 3.76167 8.00285C3.2517 8.04911 2.71855 8.04911 2.20858 8.00285C1.84928 7.96816 1.65224 7.71373 1.67542 7.33209C1.6986 6.96201 1.90723 6.75384 2.28971 6.73071C2.52151 6.73071 2.7765 6.74228 3.0199 6.74228Z" fill="#6C6C6C"/>
<path d="M15.12 6.74244C15.3402 6.74244 15.5488 6.74244 15.769 6.74244C16.1515 6.75401 16.3717 6.96218 16.4065 7.32069C16.4413 7.6792 16.2442 7.95676 15.8849 8.00302C15.3518 8.08397 14.8186 8.07241 14.2855 8.00302C13.9494 7.95676 13.7523 7.69077 13.7639 7.35538C13.7871 6.99687 13.9841 6.76557 14.3666 6.74244C14.6332 6.73088 14.8766 6.74244 15.12 6.74244Z" fill="#6C6C6C"/>
<path d="M12.8716 4.22129C12.6167 4.19816 12.408 4.11721 12.2805 3.88591C12.1415 3.64305 12.1415 3.40018 12.3269 3.20358C12.6746 2.82194 13.0455 2.4403 13.428 2.10491C13.6598 1.90831 13.9495 1.93144 14.1929 2.11648C14.4363 2.30152 14.5522 2.59064 14.4016 2.84507C14.0654 3.37705 13.6018 3.81652 13.0687 4.17503C13.0107 4.19816 12.9296 4.20973 12.8716 4.22129Z" fill="#6C6C6C"/>
<path d="M5.87105 11.2064C5.87105 11.3799 5.8131 11.5186 5.6972 11.6343C5.38426 11.9465 5.07132 12.2819 4.74679 12.5826C4.48022 12.8255 4.05138 12.8139 3.80798 12.5826C3.55299 12.3397 3.55299 11.9928 3.81957 11.6921C4.13251 11.3567 4.46863 11.0329 4.79315 10.7207C5.00178 10.524 5.25677 10.5009 5.51175 10.6281C5.76674 10.7322 5.88264 10.9404 5.87105 11.2064Z" fill="#6C6C6C"/>
<path d="M43.7364 24.217C41.9631 24.2285 40.1782 24.217 38.4049 24.2285C38.0688 24.2285 37.9992 24.136 38.0108 23.8238C38.034 23.2802 38.034 22.7251 38.0108 22.1816C37.9645 20.308 37.2343 18.7468 35.7855 17.5325C35.4494 17.2549 35.1133 17.2549 34.8467 17.5093C34.5338 17.81 34.5801 18.2264 34.9742 18.5502C35.7391 19.1862 36.2607 19.9842 36.5389 20.9441C36.7475 21.6727 36.7243 22.4244 36.7243 23.1761C36.7243 24.2632 36.7243 24.2517 35.6348 24.2401C35.3683 24.2401 35.2871 24.1592 35.2987 23.8932C35.3103 23.2687 35.3219 22.6557 35.2871 22.0312C35.1828 19.8223 32.9807 18.3536 30.8944 19.0706C29.4688 19.5563 28.6459 20.7938 28.6459 22.4591C28.6459 25.1884 28.6459 27.9178 28.6459 30.6471C28.6459 30.9478 28.5995 31.0634 28.2634 30.994C28.0432 30.9478 27.7882 30.9362 27.5796 30.994C27.2319 31.075 27.2087 30.9246 27.2203 30.6355C27.2319 27.8599 27.2203 25.0843 27.2203 22.3088C27.2203 21.9271 27.2551 21.5571 27.3478 21.1985C27.9157 18.8509 30.0367 17.3127 32.4591 17.5093C32.9922 17.5556 33.3168 17.3359 33.3515 16.9195C33.3863 16.5147 33.085 16.2488 32.5518 16.2141C30.396 16.0637 28.6343 16.8501 27.2435 18.4923C26.9885 18.7815 26.7914 19.1284 26.5596 19.4522C26.5017 19.3482 26.4553 19.2672 26.409 19.1862C25.134 17.0236 22.7117 15.8671 20.2661 16.2372C17.8321 16.6073 15.8618 18.4461 15.2823 20.8747C15.0505 21.8693 15.1548 22.887 15.1432 23.8932C15.1432 24.1592 15.0737 24.2401 14.8071 24.2401C13.8335 24.2285 12.8715 24.2285 11.8979 24.2401C11.4227 24.2401 10.9475 24.217 10.4723 24.2517C9.96234 24.2864 9.68417 24.749 9.8928 25.1769C10.0435 25.4776 10.31 25.5469 10.623 25.5469C11.9906 25.5469 13.3699 25.5585 14.7375 25.5354C15.0621 25.5354 15.1548 25.6163 15.1432 25.9402C15.12 27.5592 15.12 29.1783 15.1432 30.7974C15.1548 31.2369 15.0852 31.5491 14.6448 31.7573C14.3782 31.8845 14.158 32.1158 13.9378 32.324C12.6281 33.5036 10.878 33.5152 9.55668 32.324C7.53997 30.5083 5.16396 30.5199 3.14725 32.3471C2.55614 32.8791 1.87232 33.1682 1.07259 33.2145C0.574205 33.2492 0.284448 33.5036 0.319218 33.9084C0.342399 34.29 0.655337 34.5329 1.11895 34.5098C2.22003 34.4519 3.19361 34.0587 4.00493 33.307C5.51167 31.9308 7.16908 31.9308 8.67582 33.2954C10.4607 34.9145 12.9642 34.9145 14.7607 33.3186C16.279 31.9539 17.9249 31.9539 19.4432 33.2954C21.3092 34.9608 23.7896 34.9377 25.6208 33.2376C27.0117 31.9539 28.785 31.9539 30.1642 33.2376C31.9375 34.903 34.5106 34.9261 36.3187 33.307C37.8602 31.9192 39.4944 31.9192 41.0243 33.3186C41.7893 34.0125 42.6817 34.3825 43.7017 34.4982C44.1189 34.5444 44.4666 34.4635 44.6984 34.0819C44.6984 33.9431 44.6984 33.7927 44.6984 33.6539C44.513 33.3533 44.258 33.2145 43.8871 33.2029C43.0294 33.1682 42.334 32.775 41.6966 32.1852C40.1898 30.7858 38.0224 30.5892 36.2955 31.6532C35.9825 31.8498 35.716 32.0927 35.4494 32.324C34.1281 33.492 32.3548 33.4805 31.0567 32.2893C30.8712 32.1274 30.709 31.9192 30.4887 31.8267C29.944 31.5838 29.886 31.1791 29.8976 30.6471C29.9324 29.0974 29.9208 27.5592 29.8976 26.0095C29.886 25.5932 30.0251 25.5238 30.4076 25.5238C34.8467 25.5354 39.2858 25.5238 43.7133 25.5354C44.1073 25.5354 44.4434 25.466 44.6868 25.1422C44.6868 24.9687 44.6868 24.7952 44.6868 24.6218C44.4666 24.2864 44.1305 24.2054 43.7364 24.217ZM17.8321 30.543C17.8321 30.6933 17.8669 30.8552 17.7858 31.0171C17.4381 30.9593 17.0904 30.9131 16.7542 30.9825C16.4645 31.0403 16.4181 30.9478 16.4181 30.6818C16.4297 28.9355 16.4181 27.1892 16.4181 25.4429C16.4181 24.2979 16.395 23.1646 16.4297 22.0196C16.4877 19.6257 18.3885 17.6597 20.7645 17.4862C23.1405 17.3012 25.3658 19.0012 25.8063 21.3258C25.9685 22.2162 25.8642 23.1067 25.899 24.0088C25.9106 24.1823 25.841 24.2517 25.6788 24.2285C25.6672 24.2285 25.6556 24.2285 25.6324 24.2285C24.4966 24.2864 24.4966 24.2864 24.485 23.153C24.485 22.6442 24.5197 22.1469 24.427 21.638C24.1025 19.8917 22.5958 18.7468 20.7877 18.8971C19.165 19.0243 17.8321 20.4815 17.8206 22.1816C17.8206 24.9571 17.8321 27.7443 17.8321 30.543ZM19.1303 22.1584C19.1534 21.0482 20.0343 20.1924 21.1354 20.1808C22.2365 20.1693 23.1405 21.0019 23.1985 22.1006C23.2332 22.7251 23.1985 23.338 23.21 23.9626C23.21 24.1823 23.1289 24.2285 22.9319 24.217C22.3408 24.2054 21.7497 24.217 21.1586 24.217C20.579 24.217 19.9995 24.2054 19.42 24.217C19.1882 24.2285 19.1187 24.1592 19.1303 23.9279C19.1418 23.338 19.1187 22.7482 19.1303 22.1584ZM25.7135 31.5376C25.3195 31.7226 25.0065 32.0233 24.682 32.3124C23.3491 33.492 21.6222 33.4805 20.3009 32.2893C19.9995 32.0233 19.7098 31.7342 19.3389 31.5607C19.0955 31.445 19.1071 31.26 19.1303 31.0634C19.1534 30.7974 19.3737 30.9246 19.5011 30.9246C20.5095 30.9131 21.5179 30.9131 22.5262 30.9131C23.5346 30.9131 24.5429 30.9131 25.5513 30.9131C25.6672 30.9131 25.8642 30.809 25.8874 31.0518C25.9106 31.2369 25.9453 31.4219 25.7135 31.5376ZM24.879 29.6178C24.0909 29.6178 23.2912 29.6178 22.503 29.6178C21.4947 29.6178 20.4863 29.6062 19.478 29.6178C19.2346 29.6178 19.1303 29.5831 19.1303 29.294C19.1187 28.2184 19.1071 28.2184 20.185 28.2184C21.9699 28.2184 23.7548 28.23 25.5513 28.2069C25.8642 28.2069 25.9338 28.2994 25.9222 28.5885C25.899 29.6178 25.9106 29.6178 24.879 29.6178ZM24.8675 26.9116C23.0941 26.9116 21.3092 26.9 19.5359 26.9232C19.1882 26.9232 19.1071 26.8191 19.1187 26.4837C19.1418 25.5122 19.1187 25.5122 20.1154 25.5122C20.9268 25.5122 21.7381 25.5122 22.5378 25.5122C23.5346 25.5122 24.5313 25.5238 25.5281 25.5122C25.7831 25.5122 25.9106 25.5354 25.9106 25.8592C25.9106 26.9116 25.9222 26.9116 24.8675 26.9116ZM33.6993 24.217C33.1197 24.2054 32.5402 24.217 31.9723 24.217C31.3928 24.217 30.8133 24.2054 30.2453 24.217C29.9904 24.2285 29.9208 24.136 29.9324 23.8932C29.944 23.3265 29.9208 22.7714 29.944 22.2047C29.9788 21.0019 30.848 20.1577 32.0071 20.1693C33.1313 20.1808 33.9658 21.0482 34.0006 22.2394C34.0122 22.8061 33.989 23.3612 34.0122 23.9279C34.0006 24.1592 33.9195 24.2285 33.6993 24.217Z" fill="#6C6C6C"/>
<path d="M43.98 37.6902C43.1339 37.6786 42.4269 37.3317 41.8126 36.7534C39.9582 35.0418 37.4431 35.0418 35.5654 36.7419C35.183 37.0888 34.7773 37.3779 34.2789 37.5283C33.0388 37.8983 31.9609 37.6092 30.9989 36.7303C29.1792 35.0649 26.6641 35.0649 24.8444 36.684C24.4967 36.9963 24.1374 37.2738 23.7086 37.4589C23.3261 37.6323 23.1986 37.9793 23.3493 38.3147C23.5 38.6732 23.8593 38.8004 24.2533 38.6385C24.7749 38.4188 25.2385 38.0949 25.6442 37.7017C25.9223 37.4357 26.2121 37.216 26.5598 37.0657C27.9738 36.4759 29.1792 36.7997 30.2919 37.8174C31.9029 39.2977 34.3369 39.3555 36.0522 38.014C36.2029 37.8983 36.3304 37.7711 36.4695 37.6439C37.756 36.4874 39.5409 36.4527 40.8274 37.6323C41.6272 38.3725 42.5312 38.8467 43.6207 38.9739C44.0611 39.0317 44.4552 38.9854 44.6986 38.5575C44.6986 38.4188 44.6986 38.2684 44.6986 38.1296C44.5363 37.8868 44.3277 37.7017 43.98 37.6902Z" fill="#6C6C6C"/>
<path d="M21.2745 37.4472C20.8805 37.2621 20.5328 37.0077 20.2082 36.7186C18.3654 35.0648 15.8967 35.0648 14.0538 36.6955C12.5239 38.0485 10.8781 38.037 9.37132 36.6608C8.51364 35.8743 7.4937 35.5043 6.38103 35.4811C5.26836 35.4927 4.2716 35.7934 3.48346 36.522C2.73009 37.2159 1.93036 37.69 0.87564 37.7132C0.539522 37.7247 0.330897 37.9792 0.319306 38.3261C0.307716 38.6962 0.516341 38.9275 0.87564 38.9853C1.07268 39.02 1.2813 38.9853 1.47834 38.9622C2.53305 38.835 3.40232 38.3492 4.17887 37.6322C5.4538 36.4642 7.2503 36.4757 8.53682 37.6438C10.5072 39.4248 12.918 39.4363 14.9231 37.6669C16.2791 36.4757 18.0061 36.4757 19.339 37.6785C19.7562 38.0601 20.2082 38.3955 20.7298 38.6152C21.1586 38.8003 21.5295 38.6962 21.6918 38.3492C21.8541 38.0023 21.715 37.6553 21.2745 37.4472Z" fill="#6C6C6C"/>
<path d="M1.01471 25.5123C2.09261 25.5123 3.1821 25.5123 4.25999 25.5123C5.33789 25.5123 6.42738 25.5123 7.50527 25.5123C7.98048 25.5123 8.27023 25.2579 8.27023 24.8763C8.28182 24.4946 7.98048 24.2171 7.51686 24.2171C5.37266 24.2055 3.21687 24.2171 1.07266 24.2171C0.93358 24.2171 0.771316 24.2402 0.655413 24.298C0.388836 24.4368 0.249753 24.6797 0.319294 24.9803C0.400426 25.3504 0.655413 25.5123 1.01471 25.5123Z" fill="#6C6C6C"/>
<path d="M9.0235 4.04768C7.18065 4.05924 5.6855 5.55111 5.69709 7.38994C5.69709 9.21719 7.21542 10.7322 9.03509 10.7322C10.8895 10.7322 12.3847 9.21719 12.3731 7.35524C12.3615 5.50485 10.8664 4.03611 9.0235 4.04768ZM9.04668 9.42536C7.92242 9.43692 6.97202 8.4886 6.98361 7.35524C6.9952 6.23344 7.91083 5.34295 9.03509 5.34295C10.1709 5.34295 11.0634 6.24501 11.0634 7.37837C11.075 8.50017 10.1709 9.41379 9.04668 9.42536Z" fill="#6C6C6C"/>
</svg>
