<svg width="43" height="40" viewBox="0 0 43 40" fill="none" xmlns="http://www.w3.org/2000/svg">
<path d="M12.9763 28.565C12.9763 27.8925 13.2496 27.6174 13.9478 27.6174C14.889 27.6174 15.8301 27.6174 16.7712 27.6174C17.4087 27.6174 17.7123 27.9231 17.7123 28.565C17.7123 31.377 17.7123 34.1585 17.7123 36.9706C17.7123 37.643 17.4087 37.9181 16.7408 37.9181C15.7997 37.9181 14.889 37.9181 13.9478 37.9181C13.2496 37.9181 12.9763 37.643 12.9763 36.94C12.9763 35.534 12.9763 34.128 12.9763 32.7525C12.9763 31.3465 12.9763 29.9404 12.9763 28.565ZM9.18148 30.674C9.18148 29.9404 9.72794 29.3903 10.4566 29.3291C11.3673 29.2374 11.3673 29.2374 11.3673 30.1544V32.7831C11.3673 33.8223 11.3673 34.8615 11.3673 35.9008C11.3673 36.1453 11.3066 36.2676 11.0334 36.237C10.8209 36.2064 10.6084 36.237 10.3958 36.2064C9.69758 36.1453 9.15112 35.5951 9.15112 34.8921C9.18148 33.4555 9.18148 32.0801 9.18148 30.674ZM29.0362 37.9181C28.0951 37.9181 27.1539 37.9181 26.2128 37.9181C25.5753 37.9181 25.2717 37.6125 25.2717 36.9706C25.2717 35.5646 25.2717 34.1585 25.2717 32.7831C25.2717 31.377 25.2717 29.971 25.2717 28.5955C25.2717 27.9231 25.5449 27.648 26.2432 27.648C27.1843 27.648 28.1254 27.648 29.0666 27.648C29.7041 27.648 30.0077 27.9537 30.0077 28.5955C30.0077 31.4076 30.0077 34.1891 30.0077 37.0012C29.9773 37.6125 29.7041 37.9181 29.0362 37.9181ZM33.7418 34.8616C33.7418 35.5951 33.165 36.1453 32.406 36.2064C31.5256 36.2676 31.5256 36.2676 31.5256 35.4117V32.7525C31.5256 31.7133 31.5256 30.674 31.5256 29.6348C31.5256 29.3597 31.5863 29.2986 31.8596 29.2986C32.0721 29.3291 32.315 29.2986 32.5275 29.3291C33.2257 29.4208 33.7418 29.971 33.7418 30.674C33.7722 32.0495 33.7722 33.4555 33.7418 34.8616Z" fill="#A593E0"/>
<mask id="path-2-outside-1_500_8170" maskUnits="userSpaceOnUse" x="0.273926" y="-0.5" width="43" height="41" fill="black">
<rect fill="white" x="0.273926" y="-0.5" width="43" height="41"/>
<path d="M41.5743 18.9979C41.4529 17.7447 41.2404 16.4915 40.9064 15.2689C37.8098 4.54026 27.0324 -1.63405 16.255 1.17802C6.54015 3.71498 0.0433472 13.4961 1.47022 23.5217C2.13811 28.1983 4.1418 32.1718 7.51164 35.4424C7.66343 35.5646 7.72415 35.7175 7.81523 35.9009C8.20989 36.879 8.9385 37.4903 9.94035 37.7043C10.335 37.796 10.76 37.796 11.1547 37.7654C11.3976 37.7654 11.4887 37.8265 11.5797 38.0405C12.0048 38.9575 12.7334 39.4465 13.7656 39.4771C14.8281 39.5076 15.8603 39.5076 16.9229 39.4771C18.2283 39.4465 19.2605 38.4378 19.2605 37.1235C19.2605 34.1892 19.2605 31.2549 19.2605 28.3205C19.2605 27.0368 18.2283 26.0281 16.9533 25.9975C15.8907 25.9975 14.7978 25.967 13.7352 25.9975C12.7637 26.0281 12.0655 26.4866 11.6404 27.373C11.519 27.6481 11.3672 27.7398 11.094 27.7092C10.2439 27.6481 9.45461 27.7703 8.75635 28.3511C8.60456 28.4734 8.45276 28.6262 8.27061 28.8096C8.20989 28.7179 8.17953 28.6873 8.14917 28.6262C4.74898 22.8798 5.53831 15.3912 10.0314 10.4089C12.2173 7.99421 14.8585 6.40478 18.0158 5.64064C18.5926 5.51837 18.8355 5.12102 18.7141 4.63196C18.623 4.17347 18.198 3.95951 17.6211 4.08177C16.8925 4.2346 16.1639 4.47913 15.4353 4.75422C9.12066 7.13836 4.71862 13.3127 4.47575 20.0677C4.35431 23.8579 5.3258 27.3119 7.45092 30.4601C7.51164 30.5518 7.63307 30.6741 7.63307 30.7964C7.63307 31.5911 7.63307 32.3552 7.63307 33.2111C1.34878 26.242 0.984473 14.8104 8.51348 7.41346C16.0728 -0.0140539 28.1253 0.352736 35.199 8.20817C42.2726 16.0636 41.0279 27.0673 35.3811 33.1805L35.3507 33.1499C35.3507 32.4775 35.3507 31.805 35.3507 31.1326C35.3507 30.8575 35.4115 30.6741 35.5633 30.4296C38.1134 26.6088 39.1152 22.3907 38.2348 17.867C36.808 10.6534 32.4363 6.06856 25.3627 4.14291C24.8162 3.99008 24.3912 4.20404 24.2697 4.66253C24.1483 5.15158 24.4215 5.51837 25.0287 5.6712C34.1364 7.90251 39.2367 17.5613 35.9276 26.3643C35.5936 27.2202 35.2293 28.0454 34.7132 28.8401C33.9846 27.9537 33.0435 27.6786 31.9809 27.7398C31.647 27.7703 31.4952 27.6786 31.3434 27.3424C30.9487 26.4866 30.2201 26.0281 29.279 26.0281C28.2164 25.9975 27.1538 26.0281 26.0913 26.0281C24.7858 26.0281 23.7536 27.0673 23.7536 28.3511C23.7536 31.2854 23.7536 34.2197 23.7536 37.1541C23.7536 38.4378 24.7858 39.4771 26.0609 39.4771C27.1538 39.5076 28.2468 39.5076 29.3397 39.4771C30.1594 39.4465 30.8576 39.1103 31.2219 38.3767C31.4952 37.8571 31.7988 37.7348 32.3452 37.7654C33.7417 37.796 34.7436 37.0929 35.2597 35.7786C35.3204 35.5952 35.4418 35.5035 35.5633 35.3812C38.8117 32.1718 40.8153 28.3205 41.5136 23.7662C41.5743 23.3383 41.544 22.9104 41.7261 22.513V22.1157C41.6047 22.0851 41.6654 21.9628 41.6654 21.8711C41.6654 21.7794 41.635 21.6877 41.7261 21.6266V21.3821C41.6047 21.2292 41.6047 21.0764 41.7261 20.893V20.5874C41.6047 20.4345 41.6047 20.2817 41.7261 20.0983V19.8538C41.6654 19.8232 41.635 19.7621 41.6654 19.7009C41.6654 19.6398 41.6654 19.6092 41.6654 19.5481C41.6654 19.487 41.635 19.4259 41.7261 19.3953V19.1508C41.544 19.1813 41.5743 19.0896 41.5743 18.9979ZM12.9762 28.5651C12.9762 27.8926 13.2495 27.6175 13.9477 27.6175C14.8888 27.6175 15.83 27.6175 16.7711 27.6175C17.4086 27.6175 17.7122 27.9232 17.7122 28.5651C17.7122 31.3771 17.7122 34.1586 17.7122 36.9707C17.7122 37.6431 17.4086 37.9182 16.7407 37.9182C15.7996 37.9182 14.8888 37.9182 13.9477 37.9182C13.2495 37.9182 12.9762 37.6431 12.9762 36.9401C12.9762 35.5341 12.9762 34.128 12.9762 32.7526C12.9762 31.3465 12.9762 29.9405 12.9762 28.5651ZM9.18138 30.6741C9.18138 29.9405 9.72784 29.3903 10.4564 29.3292C11.3672 29.2375 11.3672 29.2375 11.3672 30.1545V32.7831C11.3672 33.8224 11.3672 34.8616 11.3672 35.9009C11.3672 36.1454 11.3065 36.2677 11.0333 36.2371C10.8208 36.2065 10.6082 36.2371 10.3957 36.2065C9.69748 36.1454 9.15102 35.5952 9.15102 34.8922C9.18138 33.4556 9.18138 32.0801 9.18138 30.6741ZM29.0361 37.9182C28.095 37.9182 27.1538 37.9182 26.2127 37.9182C25.5752 37.9182 25.2716 37.6126 25.2716 36.9707C25.2716 35.5646 25.2716 34.1586 25.2716 32.7831C25.2716 31.3771 25.2716 29.9711 25.2716 28.5956C25.2716 27.9232 25.5448 27.6481 26.2431 27.6481C27.1842 27.6481 28.1253 27.6481 29.0665 27.6481C29.704 27.6481 30.0076 27.9537 30.0076 28.5956C30.0076 31.4077 30.0076 34.1892 30.0076 37.0012C29.9772 37.6126 29.704 37.9182 29.0361 37.9182ZM33.7417 34.8616C33.7417 35.5952 33.1649 36.1454 32.4059 36.2065C31.5255 36.2677 31.5255 36.2677 31.5255 35.4118V32.7526C31.5255 31.7133 31.5255 30.6741 31.5255 29.6349C31.5255 29.3598 31.5862 29.2986 31.8595 29.2986C32.072 29.3292 32.3149 29.2986 32.5274 29.3292C33.2256 29.4209 33.7417 29.9711 33.7417 30.6741C33.7721 32.0496 33.7721 33.4556 33.7417 34.8616ZM41.635 20.6179V20.1289C41.5743 20.3123 41.5743 20.4651 41.635 20.6179ZM41.635 21.4126V20.9236C41.5743 21.107 41.5743 21.2598 41.635 21.4126ZM41.6047 21.9017H41.635V21.6572C41.5743 21.7183 41.6047 21.81 41.6047 21.9017ZM41.6047 21.9323C41.6047 21.9934 41.5743 22.0851 41.635 22.1462V21.9017C41.635 21.9323 41.6047 21.9323 41.6047 21.9323ZM41.6047 21.9017C41.6047 21.9017 41.5743 21.9017 41.6047 21.9017C41.5743 21.9323 41.6047 21.9323 41.6047 21.9017ZM41.6047 19.6092H41.635V19.4564C41.6047 19.487 41.6047 19.5481 41.6047 19.6092ZM41.6047 19.7621H41.635V19.6092C41.635 19.6398 41.6047 19.6398 41.6047 19.6398C41.6047 19.6704 41.6047 19.7009 41.6047 19.7621ZM41.6047 19.6092C41.5743 19.6092 41.5743 19.6092 41.6047 19.6092C41.5743 19.6092 41.5743 19.6092 41.6047 19.6092ZM41.635 19.9149V19.7621C41.635 19.7926 41.6047 19.7926 41.6047 19.7926C41.6047 19.8232 41.6047 19.8843 41.635 19.9149ZM41.6047 19.7621C41.6047 19.7621 41.5743 19.7621 41.6047 19.7621C41.5743 19.7621 41.5743 19.7926 41.6047 19.7621ZM26.9717 20.8013C26.9717 19.7315 26.9717 18.6617 26.9717 17.5919C26.9413 16.2776 25.9091 15.2383 24.6037 15.2383C23.2983 15.2383 22.2661 16.2776 22.2357 17.5919C22.2357 18.1421 22.2357 18.6617 22.2357 19.2119C22.2357 19.7315 22.2357 20.2817 22.2357 20.8013C22.2661 22.1157 23.2983 23.1549 24.6037 23.1549C25.9091 23.1549 26.9717 22.1157 26.9717 20.8013ZM23.8447 20.7402C23.8447 19.7315 23.8447 18.7228 23.8447 17.6836C23.8447 17.164 24.1787 16.8278 24.6341 16.8278C25.0894 16.8278 25.4234 17.164 25.4234 17.6836C25.4234 18.2032 25.4234 18.7228 25.4234 19.2119C25.4234 19.7009 25.4234 20.2206 25.4234 20.7096C25.4234 21.2292 25.0894 21.5655 24.6341 21.5655C24.1787 21.5655 23.8447 21.2292 23.8447 20.7402ZM13.0066 22.9104C13.4923 23.3994 14.221 23.1855 14.3727 22.5741C14.4638 22.2379 14.2817 21.9628 14.0692 21.7183C13.3405 20.9847 12.6423 20.2511 11.8833 19.5481C11.6404 19.3036 11.6101 19.1508 11.8833 18.9062C12.6423 18.1727 13.3709 17.4391 14.0995 16.6749C14.5853 16.1859 14.4335 15.5134 13.8263 15.2995C13.462 15.1772 13.1888 15.33 12.9459 15.5746C12.3994 16.1247 11.853 16.6749 11.2458 17.3168C11.2458 16.8583 11.2458 16.4915 11.2458 16.1247C11.2458 15.6051 10.9118 15.2689 10.4564 15.2689C10.0011 15.2689 9.66712 15.6051 9.66712 16.1247C9.66712 18.2032 9.66712 20.2817 9.66712 22.3602C9.66712 22.8798 10.0011 23.216 10.4564 23.216C10.9118 23.216 11.2458 22.8798 11.2458 22.3602C11.2458 21.9934 11.2458 21.6266 11.2458 21.1681C11.8833 21.7489 12.4298 22.3296 13.0066 22.9104ZM18.3498 15.2383C17.014 15.2383 15.9818 16.2776 15.9514 17.653C15.9514 18.4172 15.9514 19.1508 15.9514 19.9149C15.9514 20.7096 15.9514 21.5043 15.9514 22.299C15.9514 22.8187 16.2854 23.1855 16.7407 23.1855C17.1961 23.1855 17.4997 22.8187 17.5301 22.3296C17.5301 21.81 17.5301 21.2904 17.5301 20.7708C17.5301 20.0372 17.5301 20.0372 18.289 20.0066C19.6552 19.976 20.7178 18.9368 20.6874 17.5919C20.6874 16.3081 19.6248 15.2689 18.3498 15.2383ZM18.4105 18.3866C18.289 18.4172 18.1373 18.3866 17.9855 18.3866C17.5908 18.5089 17.4694 18.3255 17.5301 17.8976C17.5604 17.7753 17.5301 17.6225 17.5301 17.5002C17.5908 17.0723 17.9247 16.7972 18.3194 16.7972C18.7141 16.7972 19.048 17.1334 19.0784 17.5613C19.1391 17.9893 18.8355 18.356 18.4105 18.3866ZM30.888 20.0066C32.2238 19.976 33.2863 18.9368 33.2863 17.6225C33.2863 16.3081 32.2238 15.2383 30.9487 15.2383C29.6433 15.2383 28.5807 16.2776 28.5807 17.6225C28.5807 18.3866 28.5807 19.1202 28.5807 19.8843C28.5807 20.6791 28.5807 21.5043 28.5807 22.299C28.5807 22.8187 28.9147 23.1549 29.37 23.1549C29.8254 23.1549 30.1594 22.8187 30.1594 22.299C30.1594 21.7794 30.1594 21.2598 30.1594 20.7402C30.129 20.0066 30.129 20.0066 30.888 20.0066ZM30.129 17.9281C30.129 17.8364 30.129 17.7142 30.129 17.6225C30.1594 17.164 30.5237 16.8278 30.9487 16.8583C31.3434 16.8889 31.6773 17.2251 31.7077 17.6225C31.7077 18.0504 31.4041 18.4172 30.9183 18.4477C30.8273 18.4477 30.7058 18.4477 30.554 18.4477C30.1594 18.5394 30.0987 18.2949 30.129 17.9281ZM21.4767 3.65385C21.0517 3.65385 20.7178 4.02064 20.6874 4.418C20.6874 4.84592 21.0213 5.21271 21.4464 5.21271C21.8714 5.24328 22.2661 4.87649 22.2661 4.44857C22.2661 4.02064 21.9018 3.65385 21.4767 3.65385Z"/>
</mask>
<path d="M41.5743 18.9979C41.4529 17.7447 41.2404 16.4915 40.9064 15.2689C37.8098 4.54026 27.0324 -1.63405 16.255 1.17802C6.54015 3.71498 0.0433472 13.4961 1.47022 23.5217C2.13811 28.1983 4.1418 32.1718 7.51164 35.4424C7.66343 35.5646 7.72415 35.7175 7.81523 35.9009C8.20989 36.879 8.9385 37.4903 9.94035 37.7043C10.335 37.796 10.76 37.796 11.1547 37.7654C11.3976 37.7654 11.4887 37.8265 11.5797 38.0405C12.0048 38.9575 12.7334 39.4465 13.7656 39.4771C14.8281 39.5076 15.8603 39.5076 16.9229 39.4771C18.2283 39.4465 19.2605 38.4378 19.2605 37.1235C19.2605 34.1892 19.2605 31.2549 19.2605 28.3205C19.2605 27.0368 18.2283 26.0281 16.9533 25.9975C15.8907 25.9975 14.7978 25.967 13.7352 25.9975C12.7637 26.0281 12.0655 26.4866 11.6404 27.373C11.519 27.6481 11.3672 27.7398 11.094 27.7092C10.2439 27.6481 9.45461 27.7703 8.75635 28.3511C8.60456 28.4734 8.45276 28.6262 8.27061 28.8096C8.20989 28.7179 8.17953 28.6873 8.14917 28.6262C4.74898 22.8798 5.53831 15.3912 10.0314 10.4089C12.2173 7.99421 14.8585 6.40478 18.0158 5.64064C18.5926 5.51837 18.8355 5.12102 18.7141 4.63196C18.623 4.17347 18.198 3.95951 17.6211 4.08177C16.8925 4.2346 16.1639 4.47913 15.4353 4.75422C9.12066 7.13836 4.71862 13.3127 4.47575 20.0677C4.35431 23.8579 5.3258 27.3119 7.45092 30.4601C7.51164 30.5518 7.63307 30.6741 7.63307 30.7964C7.63307 31.5911 7.63307 32.3552 7.63307 33.2111C1.34878 26.242 0.984473 14.8104 8.51348 7.41346C16.0728 -0.0140539 28.1253 0.352736 35.199 8.20817C42.2726 16.0636 41.0279 27.0673 35.3811 33.1805L35.3507 33.1499C35.3507 32.4775 35.3507 31.805 35.3507 31.1326C35.3507 30.8575 35.4115 30.6741 35.5633 30.4296C38.1134 26.6088 39.1152 22.3907 38.2348 17.867C36.808 10.6534 32.4363 6.06856 25.3627 4.14291C24.8162 3.99008 24.3912 4.20404 24.2697 4.66253C24.1483 5.15158 24.4215 5.51837 25.0287 5.6712C34.1364 7.90251 39.2367 17.5613 35.9276 26.3643C35.5936 27.2202 35.2293 28.0454 34.7132 28.8401C33.9846 27.9537 33.0435 27.6786 31.9809 27.7398C31.647 27.7703 31.4952 27.6786 31.3434 27.3424C30.9487 26.4866 30.2201 26.0281 29.279 26.0281C28.2164 25.9975 27.1538 26.0281 26.0913 26.0281C24.7858 26.0281 23.7536 27.0673 23.7536 28.3511C23.7536 31.2854 23.7536 34.2197 23.7536 37.1541C23.7536 38.4378 24.7858 39.4771 26.0609 39.4771C27.1538 39.5076 28.2468 39.5076 29.3397 39.4771C30.1594 39.4465 30.8576 39.1103 31.2219 38.3767C31.4952 37.8571 31.7988 37.7348 32.3452 37.7654C33.7417 37.796 34.7436 37.0929 35.2597 35.7786C35.3204 35.5952 35.4418 35.5035 35.5633 35.3812C38.8117 32.1718 40.8153 28.3205 41.5136 23.7662C41.5743 23.3383 41.544 22.9104 41.7261 22.513V22.1157C41.6047 22.0851 41.6654 21.9628 41.6654 21.8711C41.6654 21.7794 41.635 21.6877 41.7261 21.6266V21.3821C41.6047 21.2292 41.6047 21.0764 41.7261 20.893V20.5874C41.6047 20.4345 41.6047 20.2817 41.7261 20.0983V19.8538C41.6654 19.8232 41.635 19.7621 41.6654 19.7009C41.6654 19.6398 41.6654 19.6092 41.6654 19.5481C41.6654 19.487 41.635 19.4259 41.7261 19.3953V19.1508C41.544 19.1813 41.5743 19.0896 41.5743 18.9979ZM12.9762 28.5651C12.9762 27.8926 13.2495 27.6175 13.9477 27.6175C14.8888 27.6175 15.83 27.6175 16.7711 27.6175C17.4086 27.6175 17.7122 27.9232 17.7122 28.5651C17.7122 31.3771 17.7122 34.1586 17.7122 36.9707C17.7122 37.6431 17.4086 37.9182 16.7407 37.9182C15.7996 37.9182 14.8888 37.9182 13.9477 37.9182C13.2495 37.9182 12.9762 37.6431 12.9762 36.9401C12.9762 35.5341 12.9762 34.128 12.9762 32.7526C12.9762 31.3465 12.9762 29.9405 12.9762 28.5651ZM9.18138 30.6741C9.18138 29.9405 9.72784 29.3903 10.4564 29.3292C11.3672 29.2375 11.3672 29.2375 11.3672 30.1545V32.7831C11.3672 33.8224 11.3672 34.8616 11.3672 35.9009C11.3672 36.1454 11.3065 36.2677 11.0333 36.2371C10.8208 36.2065 10.6082 36.2371 10.3957 36.2065C9.69748 36.1454 9.15102 35.5952 9.15102 34.8922C9.18138 33.4556 9.18138 32.0801 9.18138 30.6741ZM29.0361 37.9182C28.095 37.9182 27.1538 37.9182 26.2127 37.9182C25.5752 37.9182 25.2716 37.6126 25.2716 36.9707C25.2716 35.5646 25.2716 34.1586 25.2716 32.7831C25.2716 31.3771 25.2716 29.9711 25.2716 28.5956C25.2716 27.9232 25.5448 27.6481 26.2431 27.6481C27.1842 27.6481 28.1253 27.6481 29.0665 27.6481C29.704 27.6481 30.0076 27.9537 30.0076 28.5956C30.0076 31.4077 30.0076 34.1892 30.0076 37.0012C29.9772 37.6126 29.704 37.9182 29.0361 37.9182ZM33.7417 34.8616C33.7417 35.5952 33.1649 36.1454 32.4059 36.2065C31.5255 36.2677 31.5255 36.2677 31.5255 35.4118V32.7526C31.5255 31.7133 31.5255 30.6741 31.5255 29.6349C31.5255 29.3598 31.5862 29.2986 31.8595 29.2986C32.072 29.3292 32.3149 29.2986 32.5274 29.3292C33.2256 29.4209 33.7417 29.9711 33.7417 30.6741C33.7721 32.0496 33.7721 33.4556 33.7417 34.8616ZM41.635 20.6179V20.1289C41.5743 20.3123 41.5743 20.4651 41.635 20.6179ZM41.635 21.4126V20.9236C41.5743 21.107 41.5743 21.2598 41.635 21.4126ZM41.6047 21.9017H41.635V21.6572C41.5743 21.7183 41.6047 21.81 41.6047 21.9017ZM41.6047 21.9323C41.6047 21.9934 41.5743 22.0851 41.635 22.1462V21.9017C41.635 21.9323 41.6047 21.9323 41.6047 21.9323ZM41.6047 21.9017C41.6047 21.9017 41.5743 21.9017 41.6047 21.9017C41.5743 21.9323 41.6047 21.9323 41.6047 21.9017ZM41.6047 19.6092H41.635V19.4564C41.6047 19.487 41.6047 19.5481 41.6047 19.6092ZM41.6047 19.7621H41.635V19.6092C41.635 19.6398 41.6047 19.6398 41.6047 19.6398C41.6047 19.6704 41.6047 19.7009 41.6047 19.7621ZM41.6047 19.6092C41.5743 19.6092 41.5743 19.6092 41.6047 19.6092C41.5743 19.6092 41.5743 19.6092 41.6047 19.6092ZM41.635 19.9149V19.7621C41.635 19.7926 41.6047 19.7926 41.6047 19.7926C41.6047 19.8232 41.6047 19.8843 41.635 19.9149ZM41.6047 19.7621C41.6047 19.7621 41.5743 19.7621 41.6047 19.7621C41.5743 19.7621 41.5743 19.7926 41.6047 19.7621ZM26.9717 20.8013C26.9717 19.7315 26.9717 18.6617 26.9717 17.5919C26.9413 16.2776 25.9091 15.2383 24.6037 15.2383C23.2983 15.2383 22.2661 16.2776 22.2357 17.5919C22.2357 18.1421 22.2357 18.6617 22.2357 19.2119C22.2357 19.7315 22.2357 20.2817 22.2357 20.8013C22.2661 22.1157 23.2983 23.1549 24.6037 23.1549C25.9091 23.1549 26.9717 22.1157 26.9717 20.8013ZM23.8447 20.7402C23.8447 19.7315 23.8447 18.7228 23.8447 17.6836C23.8447 17.164 24.1787 16.8278 24.6341 16.8278C25.0894 16.8278 25.4234 17.164 25.4234 17.6836C25.4234 18.2032 25.4234 18.7228 25.4234 19.2119C25.4234 19.7009 25.4234 20.2206 25.4234 20.7096C25.4234 21.2292 25.0894 21.5655 24.6341 21.5655C24.1787 21.5655 23.8447 21.2292 23.8447 20.7402ZM13.0066 22.9104C13.4923 23.3994 14.221 23.1855 14.3727 22.5741C14.4638 22.2379 14.2817 21.9628 14.0692 21.7183C13.3405 20.9847 12.6423 20.2511 11.8833 19.5481C11.6404 19.3036 11.6101 19.1508 11.8833 18.9062C12.6423 18.1727 13.3709 17.4391 14.0995 16.6749C14.5853 16.1859 14.4335 15.5134 13.8263 15.2995C13.462 15.1772 13.1888 15.33 12.9459 15.5746C12.3994 16.1247 11.853 16.6749 11.2458 17.3168C11.2458 16.8583 11.2458 16.4915 11.2458 16.1247C11.2458 15.6051 10.9118 15.2689 10.4564 15.2689C10.0011 15.2689 9.66712 15.6051 9.66712 16.1247C9.66712 18.2032 9.66712 20.2817 9.66712 22.3602C9.66712 22.8798 10.0011 23.216 10.4564 23.216C10.9118 23.216 11.2458 22.8798 11.2458 22.3602C11.2458 21.9934 11.2458 21.6266 11.2458 21.1681C11.8833 21.7489 12.4298 22.3296 13.0066 22.9104ZM18.3498 15.2383C17.014 15.2383 15.9818 16.2776 15.9514 17.653C15.9514 18.4172 15.9514 19.1508 15.9514 19.9149C15.9514 20.7096 15.9514 21.5043 15.9514 22.299C15.9514 22.8187 16.2854 23.1855 16.7407 23.1855C17.1961 23.1855 17.4997 22.8187 17.5301 22.3296C17.5301 21.81 17.5301 21.2904 17.5301 20.7708C17.5301 20.0372 17.5301 20.0372 18.289 20.0066C19.6552 19.976 20.7178 18.9368 20.6874 17.5919C20.6874 16.3081 19.6248 15.2689 18.3498 15.2383ZM18.4105 18.3866C18.289 18.4172 18.1373 18.3866 17.9855 18.3866C17.5908 18.5089 17.4694 18.3255 17.5301 17.8976C17.5604 17.7753 17.5301 17.6225 17.5301 17.5002C17.5908 17.0723 17.9247 16.7972 18.3194 16.7972C18.7141 16.7972 19.048 17.1334 19.0784 17.5613C19.1391 17.9893 18.8355 18.356 18.4105 18.3866ZM30.888 20.0066C32.2238 19.976 33.2863 18.9368 33.2863 17.6225C33.2863 16.3081 32.2238 15.2383 30.9487 15.2383C29.6433 15.2383 28.5807 16.2776 28.5807 17.6225C28.5807 18.3866 28.5807 19.1202 28.5807 19.8843C28.5807 20.6791 28.5807 21.5043 28.5807 22.299C28.5807 22.8187 28.9147 23.1549 29.37 23.1549C29.8254 23.1549 30.1594 22.8187 30.1594 22.299C30.1594 21.7794 30.1594 21.2598 30.1594 20.7402C30.129 20.0066 30.129 20.0066 30.888 20.0066ZM30.129 17.9281C30.129 17.8364 30.129 17.7142 30.129 17.6225C30.1594 17.164 30.5237 16.8278 30.9487 16.8583C31.3434 16.8889 31.6773 17.2251 31.7077 17.6225C31.7077 18.0504 31.4041 18.4172 30.9183 18.4477C30.8273 18.4477 30.7058 18.4477 30.554 18.4477C30.1594 18.5394 30.0987 18.2949 30.129 17.9281ZM21.4767 3.65385C21.0517 3.65385 20.7178 4.02064 20.6874 4.418C20.6874 4.84592 21.0213 5.21271 21.4464 5.21271C21.8714 5.24328 22.2661 4.87649 22.2661 4.44857C22.2661 4.02064 21.9018 3.65385 21.4767 3.65385Z" fill="#6C6C6C"/>
<path d="M41.5743 18.9979C41.4529 17.7447 41.2404 16.4915 40.9064 15.2689C37.8098 4.54026 27.0324 -1.63405 16.255 1.17802C6.54015 3.71498 0.0433472 13.4961 1.47022 23.5217C2.13811 28.1983 4.1418 32.1718 7.51164 35.4424C7.66343 35.5646 7.72415 35.7175 7.81523 35.9009C8.20989 36.879 8.9385 37.4903 9.94035 37.7043C10.335 37.796 10.76 37.796 11.1547 37.7654C11.3976 37.7654 11.4887 37.8265 11.5797 38.0405C12.0048 38.9575 12.7334 39.4465 13.7656 39.4771C14.8281 39.5076 15.8603 39.5076 16.9229 39.4771C18.2283 39.4465 19.2605 38.4378 19.2605 37.1235C19.2605 34.1892 19.2605 31.2549 19.2605 28.3205C19.2605 27.0368 18.2283 26.0281 16.9533 25.9975C15.8907 25.9975 14.7978 25.967 13.7352 25.9975C12.7637 26.0281 12.0655 26.4866 11.6404 27.373C11.519 27.6481 11.3672 27.7398 11.094 27.7092C10.2439 27.6481 9.45461 27.7703 8.75635 28.3511C8.60456 28.4734 8.45276 28.6262 8.27061 28.8096C8.20989 28.7179 8.17953 28.6873 8.14917 28.6262C4.74898 22.8798 5.53831 15.3912 10.0314 10.4089C12.2173 7.99421 14.8585 6.40478 18.0158 5.64064C18.5926 5.51837 18.8355 5.12102 18.7141 4.63196C18.623 4.17347 18.198 3.95951 17.6211 4.08177C16.8925 4.2346 16.1639 4.47913 15.4353 4.75422C9.12066 7.13836 4.71862 13.3127 4.47575 20.0677C4.35431 23.8579 5.3258 27.3119 7.45092 30.4601C7.51164 30.5518 7.63307 30.6741 7.63307 30.7964C7.63307 31.5911 7.63307 32.3552 7.63307 33.2111C1.34878 26.242 0.984473 14.8104 8.51348 7.41346C16.0728 -0.0140539 28.1253 0.352736 35.199 8.20817C42.2726 16.0636 41.0279 27.0673 35.3811 33.1805L35.3507 33.1499C35.3507 32.4775 35.3507 31.805 35.3507 31.1326C35.3507 30.8575 35.4115 30.6741 35.5633 30.4296C38.1134 26.6088 39.1152 22.3907 38.2348 17.867C36.808 10.6534 32.4363 6.06856 25.3627 4.14291C24.8162 3.99008 24.3912 4.20404 24.2697 4.66253C24.1483 5.15158 24.4215 5.51837 25.0287 5.6712C34.1364 7.90251 39.2367 17.5613 35.9276 26.3643C35.5936 27.2202 35.2293 28.0454 34.7132 28.8401C33.9846 27.9537 33.0435 27.6786 31.9809 27.7398C31.647 27.7703 31.4952 27.6786 31.3434 27.3424C30.9487 26.4866 30.2201 26.0281 29.279 26.0281C28.2164 25.9975 27.1538 26.0281 26.0913 26.0281C24.7858 26.0281 23.7536 27.0673 23.7536 28.3511C23.7536 31.2854 23.7536 34.2197 23.7536 37.1541C23.7536 38.4378 24.7858 39.4771 26.0609 39.4771C27.1538 39.5076 28.2468 39.5076 29.3397 39.4771C30.1594 39.4465 30.8576 39.1103 31.2219 38.3767C31.4952 37.8571 31.7988 37.7348 32.3452 37.7654C33.7417 37.796 34.7436 37.0929 35.2597 35.7786C35.3204 35.5952 35.4418 35.5035 35.5633 35.3812C38.8117 32.1718 40.8153 28.3205 41.5136 23.7662C41.5743 23.3383 41.544 22.9104 41.7261 22.513V22.1157C41.6047 22.0851 41.6654 21.9628 41.6654 21.8711C41.6654 21.7794 41.635 21.6877 41.7261 21.6266V21.3821C41.6047 21.2292 41.6047 21.0764 41.7261 20.893V20.5874C41.6047 20.4345 41.6047 20.2817 41.7261 20.0983V19.8538C41.6654 19.8232 41.635 19.7621 41.6654 19.7009C41.6654 19.6398 41.6654 19.6092 41.6654 19.5481C41.6654 19.487 41.635 19.4259 41.7261 19.3953V19.1508C41.544 19.1813 41.5743 19.0896 41.5743 18.9979ZM12.9762 28.5651C12.9762 27.8926 13.2495 27.6175 13.9477 27.6175C14.8888 27.6175 15.83 27.6175 16.7711 27.6175C17.4086 27.6175 17.7122 27.9232 17.7122 28.5651C17.7122 31.3771 17.7122 34.1586 17.7122 36.9707C17.7122 37.6431 17.4086 37.9182 16.7407 37.9182C15.7996 37.9182 14.8888 37.9182 13.9477 37.9182C13.2495 37.9182 12.9762 37.6431 12.9762 36.9401C12.9762 35.5341 12.9762 34.128 12.9762 32.7526C12.9762 31.3465 12.9762 29.9405 12.9762 28.5651ZM9.18138 30.6741C9.18138 29.9405 9.72784 29.3903 10.4564 29.3292C11.3672 29.2375 11.3672 29.2375 11.3672 30.1545V32.7831C11.3672 33.8224 11.3672 34.8616 11.3672 35.9009C11.3672 36.1454 11.3065 36.2677 11.0333 36.2371C10.8208 36.2065 10.6082 36.2371 10.3957 36.2065C9.69748 36.1454 9.15102 35.5952 9.15102 34.8922C9.18138 33.4556 9.18138 32.0801 9.18138 30.6741ZM29.0361 37.9182C28.095 37.9182 27.1538 37.9182 26.2127 37.9182C25.5752 37.9182 25.2716 37.6126 25.2716 36.9707C25.2716 35.5646 25.2716 34.1586 25.2716 32.7831C25.2716 31.3771 25.2716 29.9711 25.2716 28.5956C25.2716 27.9232 25.5448 27.6481 26.2431 27.6481C27.1842 27.6481 28.1253 27.6481 29.0665 27.6481C29.704 27.6481 30.0076 27.9537 30.0076 28.5956C30.0076 31.4077 30.0076 34.1892 30.0076 37.0012C29.9772 37.6126 29.704 37.9182 29.0361 37.9182ZM33.7417 34.8616C33.7417 35.5952 33.1649 36.1454 32.4059 36.2065C31.5255 36.2677 31.5255 36.2677 31.5255 35.4118V32.7526C31.5255 31.7133 31.5255 30.6741 31.5255 29.6349C31.5255 29.3598 31.5862 29.2986 31.8595 29.2986C32.072 29.3292 32.3149 29.2986 32.5274 29.3292C33.2256 29.4209 33.7417 29.9711 33.7417 30.6741C33.7721 32.0496 33.7721 33.4556 33.7417 34.8616ZM41.635 20.6179V20.1289C41.5743 20.3123 41.5743 20.4651 41.635 20.6179ZM41.635 21.4126V20.9236C41.5743 21.107 41.5743 21.2598 41.635 21.4126ZM41.6047 21.9017H41.635V21.6572C41.5743 21.7183 41.6047 21.81 41.6047 21.9017ZM41.6047 21.9323C41.6047 21.9934 41.5743 22.0851 41.635 22.1462V21.9017C41.635 21.9323 41.6047 21.9323 41.6047 21.9323ZM41.6047 21.9017C41.6047 21.9017 41.5743 21.9017 41.6047 21.9017C41.5743 21.9323 41.6047 21.9323 41.6047 21.9017ZM41.6047 19.6092H41.635V19.4564C41.6047 19.487 41.6047 19.5481 41.6047 19.6092ZM41.6047 19.7621H41.635V19.6092C41.635 19.6398 41.6047 19.6398 41.6047 19.6398C41.6047 19.6704 41.6047 19.7009 41.6047 19.7621ZM41.6047 19.6092C41.5743 19.6092 41.5743 19.6092 41.6047 19.6092C41.5743 19.6092 41.5743 19.6092 41.6047 19.6092ZM41.635 19.9149V19.7621C41.635 19.7926 41.6047 19.7926 41.6047 19.7926C41.6047 19.8232 41.6047 19.8843 41.635 19.9149ZM41.6047 19.7621C41.6047 19.7621 41.5743 19.7621 41.6047 19.7621C41.5743 19.7621 41.5743 19.7926 41.6047 19.7621ZM26.9717 20.8013C26.9717 19.7315 26.9717 18.6617 26.9717 17.5919C26.9413 16.2776 25.9091 15.2383 24.6037 15.2383C23.2983 15.2383 22.2661 16.2776 22.2357 17.5919C22.2357 18.1421 22.2357 18.6617 22.2357 19.2119C22.2357 19.7315 22.2357 20.2817 22.2357 20.8013C22.2661 22.1157 23.2983 23.1549 24.6037 23.1549C25.9091 23.1549 26.9717 22.1157 26.9717 20.8013ZM23.8447 20.7402C23.8447 19.7315 23.8447 18.7228 23.8447 17.6836C23.8447 17.164 24.1787 16.8278 24.6341 16.8278C25.0894 16.8278 25.4234 17.164 25.4234 17.6836C25.4234 18.2032 25.4234 18.7228 25.4234 19.2119C25.4234 19.7009 25.4234 20.2206 25.4234 20.7096C25.4234 21.2292 25.0894 21.5655 24.6341 21.5655C24.1787 21.5655 23.8447 21.2292 23.8447 20.7402ZM13.0066 22.9104C13.4923 23.3994 14.221 23.1855 14.3727 22.5741C14.4638 22.2379 14.2817 21.9628 14.0692 21.7183C13.3405 20.9847 12.6423 20.2511 11.8833 19.5481C11.6404 19.3036 11.6101 19.1508 11.8833 18.9062C12.6423 18.1727 13.3709 17.4391 14.0995 16.6749C14.5853 16.1859 14.4335 15.5134 13.8263 15.2995C13.462 15.1772 13.1888 15.33 12.9459 15.5746C12.3994 16.1247 11.853 16.6749 11.2458 17.3168C11.2458 16.8583 11.2458 16.4915 11.2458 16.1247C11.2458 15.6051 10.9118 15.2689 10.4564 15.2689C10.0011 15.2689 9.66712 15.6051 9.66712 16.1247C9.66712 18.2032 9.66712 20.2817 9.66712 22.3602C9.66712 22.8798 10.0011 23.216 10.4564 23.216C10.9118 23.216 11.2458 22.8798 11.2458 22.3602C11.2458 21.9934 11.2458 21.6266 11.2458 21.1681C11.8833 21.7489 12.4298 22.3296 13.0066 22.9104ZM18.3498 15.2383C17.014 15.2383 15.9818 16.2776 15.9514 17.653C15.9514 18.4172 15.9514 19.1508 15.9514 19.9149C15.9514 20.7096 15.9514 21.5043 15.9514 22.299C15.9514 22.8187 16.2854 23.1855 16.7407 23.1855C17.1961 23.1855 17.4997 22.8187 17.5301 22.3296C17.5301 21.81 17.5301 21.2904 17.5301 20.7708C17.5301 20.0372 17.5301 20.0372 18.289 20.0066C19.6552 19.976 20.7178 18.9368 20.6874 17.5919C20.6874 16.3081 19.6248 15.2689 18.3498 15.2383ZM18.4105 18.3866C18.289 18.4172 18.1373 18.3866 17.9855 18.3866C17.5908 18.5089 17.4694 18.3255 17.5301 17.8976C17.5604 17.7753 17.5301 17.6225 17.5301 17.5002C17.5908 17.0723 17.9247 16.7972 18.3194 16.7972C18.7141 16.7972 19.048 17.1334 19.0784 17.5613C19.1391 17.9893 18.8355 18.356 18.4105 18.3866ZM30.888 20.0066C32.2238 19.976 33.2863 18.9368 33.2863 17.6225C33.2863 16.3081 32.2238 15.2383 30.9487 15.2383C29.6433 15.2383 28.5807 16.2776 28.5807 17.6225C28.5807 18.3866 28.5807 19.1202 28.5807 19.8843C28.5807 20.6791 28.5807 21.5043 28.5807 22.299C28.5807 22.8187 28.9147 23.1549 29.37 23.1549C29.8254 23.1549 30.1594 22.8187 30.1594 22.299C30.1594 21.7794 30.1594 21.2598 30.1594 20.7402C30.129 20.0066 30.129 20.0066 30.888 20.0066ZM30.129 17.9281C30.129 17.8364 30.129 17.7142 30.129 17.6225C30.1594 17.164 30.5237 16.8278 30.9487 16.8583C31.3434 16.8889 31.6773 17.2251 31.7077 17.6225C31.7077 18.0504 31.4041 18.4172 30.9183 18.4477C30.8273 18.4477 30.7058 18.4477 30.554 18.4477C30.1594 18.5394 30.0987 18.2949 30.129 17.9281ZM21.4767 3.65385C21.0517 3.65385 20.7178 4.02064 20.6874 4.418C20.6874 4.84592 21.0213 5.21271 21.4464 5.21271C21.8714 5.24328 22.2661 4.87649 22.2661 4.44857C22.2661 4.02064 21.9018 3.65385 21.4767 3.65385Z" stroke="#6C6C6C" stroke-width="0.6" mask="url(#path-2-outside-1_500_8170)"/>
</svg>
