<svg width="45" height="40" viewBox="0 0 45 40" fill="none" xmlns="http://www.w3.org/2000/svg">
<path d="M14.4477 12.6432C14.4593 12.8977 14.3318 13.0827 14.1116 13.1984C13.8798 13.3256 13.6248 13.3371 13.4278 13.1521C13.0453 12.8052 12.6744 12.4466 12.3267 12.0534C12.0949 11.799 12.1413 11.4868 12.3731 11.2323C12.6049 10.9895 12.8946 10.9432 13.1496 11.1282C13.6016 11.4521 13.9841 11.88 14.3434 12.3079C14.4362 12.4119 14.4593 12.5276 14.4477 12.6432Z" fill="#6C6C6C"/>
<path d="M4.27169 2.47754C4.68894 2.47754 5.87115 3.65716 5.87115 4.0735C5.87115 4.55922 5.3264 4.88304 4.90915 4.60548C4.43395 4.28167 4.0167 3.87689 3.70376 3.39117C3.44878 2.9864 3.79649 2.47754 4.27169 2.47754Z" fill="#6C6C6C"/>
<path d="M9.68421 1.84153C9.68421 2.06126 9.6958 2.281 9.68421 2.48917C9.66103 2.87081 9.41764 3.1368 9.06993 3.1368C8.69904 3.1368 8.44405 2.9402 8.40928 2.58168C8.36292 2.08439 8.36292 1.56397 8.40928 1.06668C8.43246 0.708168 8.68745 0.5 9.05834 0.5C9.40605 0.5 9.66103 0.765993 9.68421 1.14764C9.6958 1.37893 9.68421 1.61023 9.68421 1.84153Z" fill="#6C6C6C"/>
<path d="M9.68417 13.9154C9.68417 14.1467 9.69576 14.378 9.68417 14.6093C9.66099 15.0025 9.4176 15.2454 9.06989 15.2454C8.68741 15.2569 8.44401 15.0488 8.40924 14.6903C8.36288 14.193 8.37447 13.6841 8.40924 13.1753C8.43242 12.8167 8.75695 12.5739 9.10466 12.6201C9.47555 12.6664 9.67258 12.8861 9.68417 13.2562C9.69576 13.4875 9.68417 13.6957 9.68417 13.9154Z" fill="#6C6C6C"/>
<path d="M3.0199 7.24228C3.24011 7.24228 3.44874 7.23071 3.66895 7.24228C4.03984 7.25384 4.26006 7.47358 4.29483 7.83209C4.3296 8.20217 4.12097 8.47972 3.76167 8.50285C3.2517 8.54911 2.71855 8.54911 2.20858 8.50285C1.84928 8.46816 1.65224 8.21373 1.67542 7.83209C1.6986 7.46201 1.90723 7.25384 2.28971 7.23071C2.52151 7.23071 2.7765 7.24228 3.0199 7.24228Z" fill="#6C6C6C"/>
<path d="M15.12 7.24244C15.3402 7.24244 15.5488 7.24244 15.769 7.24244C16.1515 7.25401 16.3717 7.46218 16.4065 7.82069C16.4413 8.1792 16.2442 8.45676 15.8849 8.50302C15.3518 8.58397 14.8186 8.57241 14.2855 8.50302C13.9494 8.45676 13.7523 8.19077 13.7639 7.85538C13.7871 7.49687 13.9841 7.26557 14.3666 7.24244C14.6332 7.23088 14.8766 7.24244 15.12 7.24244Z" fill="#6C6C6C"/>
<path d="M12.8716 4.72129C12.6167 4.69816 12.408 4.61721 12.2805 4.38591C12.1415 4.14305 12.1415 3.90018 12.3269 3.70358C12.6746 3.32194 13.0455 2.9403 13.428 2.60491C13.6598 2.40831 13.9495 2.43144 14.1929 2.61648C14.4363 2.80152 14.5522 3.09064 14.4016 3.34507C14.0654 3.87705 13.6018 4.31652 13.0687 4.67503C13.0107 4.69816 12.9296 4.70973 12.8716 4.72129Z" fill="#6C6C6C"/>
<path d="M5.87105 11.7064C5.87105 11.8799 5.8131 12.0186 5.6972 12.1343C5.38426 12.4465 5.07132 12.7819 4.74679 13.0826C4.48022 13.3255 4.05138 13.3139 3.80798 13.0826C3.55299 12.8397 3.55299 12.4928 3.81957 12.1921C4.13251 11.8567 4.46863 11.5329 4.79315 11.2207C5.00178 11.024 5.25677 11.0009 5.51175 11.1281C5.76674 11.2322 5.88264 11.4404 5.87105 11.7064Z" fill="#6C6C6C"/>
<path d="M43.7364 24.717C41.9631 24.7285 40.1782 24.717 38.4049 24.7285C38.0688 24.7285 37.9992 24.636 38.0108 24.3238C38.034 23.7802 38.034 23.2251 38.0108 22.6816C37.9645 20.808 37.2343 19.2468 35.7855 18.0325C35.4494 17.7549 35.1133 17.7549 34.8467 18.0093C34.5338 18.31 34.5801 18.7264 34.9742 19.0502C35.7391 19.6862 36.2607 20.4842 36.5389 21.4441C36.7475 22.1727 36.7243 22.9244 36.7243 23.6761C36.7243 24.7632 36.7243 24.7517 35.6348 24.7401C35.3683 24.7401 35.2871 24.6592 35.2987 24.3932C35.3103 23.7687 35.3219 23.1557 35.2871 22.5312C35.1828 20.3223 32.9807 18.8536 30.8944 19.5706C29.4688 20.0563 28.6459 21.2938 28.6459 22.9591C28.6459 25.6884 28.6459 28.4178 28.6459 31.1471C28.6459 31.4478 28.5995 31.5634 28.2634 31.494C28.0432 31.4478 27.7882 31.4362 27.5796 31.494C27.2319 31.575 27.2087 31.4246 27.2203 31.1355C27.2319 28.3599 27.2203 25.5843 27.2203 22.8088C27.2203 22.4271 27.2551 22.0571 27.3478 21.6985C27.9157 19.3509 30.0367 17.8127 32.4591 18.0093C32.9922 18.0556 33.3168 17.8359 33.3515 17.4195C33.3863 17.0147 33.085 16.7488 32.5518 16.7141C30.396 16.5637 28.6343 17.3501 27.2435 18.9923C26.9885 19.2815 26.7914 19.6284 26.5596 19.9522C26.5017 19.8482 26.4553 19.7672 26.409 19.6862C25.134 17.5236 22.7117 16.3671 20.2661 16.7372C17.8321 17.1073 15.8618 18.9461 15.2823 21.3747C15.0505 22.3693 15.1548 23.387 15.1432 24.3932C15.1432 24.6592 15.0737 24.7401 14.8071 24.7401C13.8335 24.7285 12.8715 24.7285 11.8979 24.7401C11.4227 24.7401 10.9475 24.717 10.4723 24.7517C9.96234 24.7864 9.68417 25.249 9.8928 25.6769C10.0435 25.9776 10.31 26.0469 10.623 26.0469C11.9906 26.0469 13.3699 26.0585 14.7375 26.0354C15.0621 26.0354 15.1548 26.1163 15.1432 26.4402C15.12 28.0592 15.12 29.6783 15.1432 31.2974C15.1548 31.7369 15.0852 32.0491 14.6448 32.2573C14.3782 32.3845 14.158 32.6158 13.9378 32.824C12.6281 34.0036 10.878 34.0152 9.55668 32.824C7.53997 31.0083 5.16396 31.0199 3.14725 32.8471C2.55614 33.3791 1.87232 33.6682 1.07259 33.7145C0.574205 33.7492 0.284448 34.0036 0.319218 34.4084C0.342399 34.79 0.655337 35.0329 1.11895 35.0098C2.22003 34.9519 3.19361 34.5587 4.00493 33.807C5.51167 32.4308 7.16908 32.4308 8.67582 33.7954C10.4607 35.4145 12.9642 35.4145 14.7607 33.8186C16.279 32.4539 17.9249 32.4539 19.4432 33.7954C21.3092 35.4608 23.7896 35.4377 25.6208 33.7376C27.0117 32.4539 28.785 32.4539 30.1642 33.7376C31.9375 35.403 34.5106 35.4261 36.3187 33.807C37.8602 32.4192 39.4944 32.4192 41.0243 33.8186C41.7893 34.5125 42.6817 34.8825 43.7017 34.9982C44.1189 35.0444 44.4666 34.9635 44.6984 34.5819C44.6984 34.4431 44.6984 34.2927 44.6984 34.1539C44.513 33.8533 44.258 33.7145 43.8871 33.7029C43.0294 33.6682 42.334 33.275 41.6966 32.6852C40.1898 31.2858 38.0224 31.0892 36.2955 32.1532C35.9825 32.3498 35.716 32.5927 35.4494 32.824C34.1281 33.992 32.3548 33.9805 31.0567 32.7893C30.8712 32.6274 30.709 32.4192 30.4887 32.3267C29.944 32.0838 29.886 31.6791 29.8976 31.1471C29.9324 29.5974 29.9208 28.0592 29.8976 26.5095C29.886 26.0932 30.0251 26.0238 30.4076 26.0238C34.8467 26.0354 39.2858 26.0238 43.7133 26.0354C44.1073 26.0354 44.4434 25.966 44.6868 25.6422C44.6868 25.4687 44.6868 25.2952 44.6868 25.1218C44.4666 24.7864 44.1305 24.7054 43.7364 24.717ZM17.8321 31.043C17.8321 31.1933 17.8669 31.3552 17.7858 31.5171C17.4381 31.4593 17.0904 31.4131 16.7542 31.4825C16.4645 31.5403 16.4181 31.4478 16.4181 31.1818C16.4297 29.4355 16.4181 27.6892 16.4181 25.9429C16.4181 24.7979 16.395 23.6646 16.4297 22.5196C16.4877 20.1257 18.3885 18.1597 20.7645 17.9862C23.1405 17.8012 25.3658 19.5012 25.8063 21.8258C25.9685 22.7162 25.8642 23.6067 25.899 24.5088C25.9106 24.6823 25.841 24.7517 25.6788 24.7285C25.6672 24.7285 25.6556 24.7285 25.6324 24.7285C24.4966 24.7864 24.4966 24.7864 24.485 23.653C24.485 23.1442 24.5197 22.6469 24.427 22.138C24.1025 20.3917 22.5958 19.2468 20.7877 19.3971C19.165 19.5243 17.8321 20.9815 17.8206 22.6816C17.8206 25.4571 17.8321 28.2443 17.8321 31.043ZM19.1303 22.6584C19.1534 21.5482 20.0343 20.6924 21.1354 20.6808C22.2365 20.6693 23.1405 21.5019 23.1985 22.6006C23.2332 23.2251 23.1985 23.838 23.21 24.4626C23.21 24.6823 23.1289 24.7285 22.9319 24.717C22.3408 24.7054 21.7497 24.717 21.1586 24.717C20.579 24.717 19.9995 24.7054 19.42 24.717C19.1882 24.7285 19.1187 24.6592 19.1303 24.4279C19.1418 23.838 19.1187 23.2482 19.1303 22.6584ZM25.7135 32.0376C25.3195 32.2226 25.0065 32.5233 24.682 32.8124C23.3491 33.992 21.6222 33.9805 20.3009 32.7893C19.9995 32.5233 19.7098 32.2342 19.3389 32.0607C19.0955 31.945 19.1071 31.76 19.1303 31.5634C19.1534 31.2974 19.3737 31.4246 19.5011 31.4246C20.5095 31.4131 21.5179 31.4131 22.5262 31.4131C23.5346 31.4131 24.5429 31.4131 25.5513 31.4131C25.6672 31.4131 25.8642 31.309 25.8874 31.5518C25.9106 31.7369 25.9453 31.9219 25.7135 32.0376ZM24.879 30.1178C24.0909 30.1178 23.2912 30.1178 22.503 30.1178C21.4947 30.1178 20.4863 30.1062 19.478 30.1178C19.2346 30.1178 19.1303 30.0831 19.1303 29.794C19.1187 28.7184 19.1071 28.7184 20.185 28.7184C21.9699 28.7184 23.7548 28.73 25.5513 28.7069C25.8642 28.7069 25.9338 28.7994 25.9222 29.0885C25.899 30.1178 25.9106 30.1178 24.879 30.1178ZM24.8675 27.4116C23.0941 27.4116 21.3092 27.4 19.5359 27.4232C19.1882 27.4232 19.1071 27.3191 19.1187 26.9837C19.1418 26.0122 19.1187 26.0122 20.1154 26.0122C20.9268 26.0122 21.7381 26.0122 22.5378 26.0122C23.5346 26.0122 24.5313 26.0238 25.5281 26.0122C25.7831 26.0122 25.9106 26.0354 25.9106 26.3592C25.9106 27.4116 25.9222 27.4116 24.8675 27.4116ZM33.6993 24.717C33.1197 24.7054 32.5402 24.717 31.9723 24.717C31.3928 24.717 30.8133 24.7054 30.2453 24.717C29.9904 24.7285 29.9208 24.636 29.9324 24.3932C29.944 23.8265 29.9208 23.2714 29.944 22.7047C29.9788 21.5019 30.848 20.6577 32.0071 20.6693C33.1313 20.6808 33.9658 21.5482 34.0006 22.7394C34.0122 23.3061 33.989 23.8612 34.0122 24.4279C34.0006 24.6592 33.9195 24.7285 33.6993 24.717Z" fill="#6C6C6C"/>
<path d="M43.98 38.1902C43.1339 38.1786 42.4269 37.8317 41.8126 37.2534C39.9582 35.5418 37.4431 35.5418 35.5654 37.2419C35.183 37.5888 34.7773 37.8779 34.2789 38.0283C33.0388 38.3983 31.9609 38.1092 30.9989 37.2303C29.1792 35.5649 26.6641 35.5649 24.8444 37.184C24.4967 37.4963 24.1374 37.7738 23.7086 37.9589C23.3261 38.1323 23.1986 38.4793 23.3493 38.8147C23.5 39.1732 23.8593 39.3004 24.2533 39.1385C24.7749 38.9188 25.2385 38.5949 25.6442 38.2017C25.9223 37.9357 26.2121 37.716 26.5598 37.5657C27.9738 36.9759 29.1792 37.2997 30.2919 38.3174C31.9029 39.7977 34.3369 39.8555 36.0522 38.514C36.2029 38.3983 36.3304 38.2711 36.4695 38.1439C37.756 36.9874 39.5409 36.9527 40.8274 38.1323C41.6272 38.8725 42.5312 39.3467 43.6207 39.4739C44.0611 39.5317 44.4552 39.4854 44.6986 39.0575C44.6986 38.9188 44.6986 38.7684 44.6986 38.6296C44.5363 38.3868 44.3277 38.2017 43.98 38.1902Z" fill="#6C6C6C"/>
<path d="M21.2745 37.9472C20.8805 37.7621 20.5328 37.5077 20.2082 37.2186C18.3654 35.5648 15.8967 35.5648 14.0538 37.1955C12.5239 38.5485 10.8781 38.537 9.37132 37.1608C8.51364 36.3743 7.4937 36.0043 6.38103 35.9811C5.26836 35.9927 4.2716 36.2934 3.48346 37.022C2.73009 37.7159 1.93036 38.19 0.87564 38.2132C0.539522 38.2247 0.330897 38.4792 0.319306 38.8261C0.307716 39.1962 0.516341 39.4275 0.87564 39.4853C1.07268 39.52 1.2813 39.4853 1.47834 39.4622C2.53305 39.335 3.40232 38.8492 4.17887 38.1322C5.4538 36.9642 7.2503 36.9757 8.53682 38.1438C10.5072 39.9248 12.918 39.9363 14.9231 38.1669C16.2791 36.9757 18.0061 36.9757 19.339 38.1785C19.7562 38.5601 20.2082 38.8955 20.7298 39.1152C21.1586 39.3003 21.5295 39.1962 21.6918 38.8492C21.8541 38.5023 21.715 38.1553 21.2745 37.9472Z" fill="#6C6C6C"/>
<path d="M1.01471 26.0123C2.09261 26.0123 3.1821 26.0123 4.25999 26.0123C5.33789 26.0123 6.42738 26.0123 7.50527 26.0123C7.98048 26.0123 8.27023 25.7579 8.27023 25.3763C8.28182 24.9946 7.98048 24.7171 7.51686 24.7171C5.37266 24.7055 3.21687 24.7171 1.07266 24.7171C0.93358 24.7171 0.771316 24.7402 0.655413 24.798C0.388836 24.9368 0.249753 25.1797 0.319294 25.4803C0.400426 25.8504 0.655413 26.0123 1.01471 26.0123Z" fill="#6C6C6C"/>
<path d="M9.0235 4.54768C7.18065 4.55924 5.6855 6.05111 5.69709 7.88994C5.69709 9.71719 7.21542 11.2322 9.03509 11.2322C10.8895 11.2322 12.3847 9.71719 12.3731 7.85524C12.3615 6.00485 10.8664 4.53611 9.0235 4.54768ZM9.04668 9.92536C7.92242 9.93692 6.97202 8.9886 6.98361 7.85524C6.9952 6.73344 7.91083 5.84295 9.03509 5.84295C10.1709 5.84295 11.0634 6.74501 11.0634 7.87837C11.075 9.00017 10.1709 9.91379 9.04668 9.92536Z" fill="#6C6C6C"/>
<path fill-rule="evenodd" clip-rule="evenodd" d="M33.3133 17.6025C33.2086 17.8989 32.9075 18.0483 32.4591 18.0093C30.0367 17.8127 27.9156 19.3508 27.3477 21.6985C27.255 22.0571 27.2203 22.427 27.2203 22.8088C27.2203 25.5842 27.2318 28.3599 27.2203 31.1355C27.2125 31.3264 27.22 31.4568 27.326 31.5H27.5518C27.5609 31.498 27.5699 31.4961 27.5794 31.4939C27.7882 31.436 28.043 31.4478 28.2633 31.4939C28.274 31.4961 28.2842 31.498 28.2945 31.5H28.5169C28.6258 31.4622 28.6458 31.3445 28.6458 31.147V22.959C28.6458 21.2937 29.4688 20.0564 30.8944 19.5706C32.9805 18.8535 35.1827 20.3223 35.2869 22.5312C35.3216 23.1497 35.3101 23.7568 35.2987 24.3748V24.3931C35.2869 24.6592 35.3682 24.74 35.6348 24.74C36.1817 24.7458 36.4542 24.7517 36.5897 24.6184C36.7242 24.4863 36.7242 24.2173 36.7242 23.676L36.7247 23.4709C36.7266 22.7876 36.7283 22.1062 36.5389 21.4441C36.2606 20.4841 35.7391 19.6863 34.9742 19.05C34.6324 18.7693 34.5523 18.4187 34.741 18.1345C34.3018 17.8884 33.8216 17.707 33.3133 17.6025ZM17.7938 31.5C17.8475 31.3806 17.8416 31.2617 17.8358 31.1472L17.8336 31.1045L17.8326 31.0779L17.8321 31.043L17.8319 30.3706C17.8316 29.7417 17.8306 29.1135 17.8297 28.4861L17.8262 26.8447V26.8228C17.8245 26.0479 17.8228 25.2739 17.8218 24.501L17.8204 22.6814C17.8321 20.9814 19.1649 19.5242 20.7877 19.397C22.5958 19.2468 24.1024 20.3916 24.4268 22.1379C24.5196 22.6467 24.4849 23.144 24.4849 23.6531C24.4905 24.219 24.4935 24.5024 24.6365 24.637C24.6795 24.6775 24.7352 24.7046 24.8072 24.7219C24.8443 24.7307 24.8858 24.7368 24.9322 24.741C25.0963 24.7559 25.3218 24.7444 25.6324 24.7285H25.6788C25.7186 24.7341 25.7528 24.7341 25.7816 24.7285C25.8062 24.7236 25.827 24.7146 25.8438 24.7012L25.8511 24.6951C25.8597 24.6873 25.867 24.678 25.8731 24.6677C25.8797 24.6567 25.8851 24.6443 25.8892 24.6304C25.8944 24.6128 25.8978 24.5933 25.8992 24.571L25.9 24.5425C25.9002 24.5317 25.8997 24.5205 25.899 24.5088C25.8941 24.3818 25.8919 24.2551 25.8914 24.1284C25.8905 23.946 25.8931 23.7642 25.8958 23.5828C25.9044 22.9949 25.9127 22.4104 25.8062 21.8257C25.3658 19.5012 23.1405 17.801 20.7645 17.9861C18.3885 18.1597 16.4876 20.1257 16.4298 22.5195C16.4195 22.8577 16.4141 23.1951 16.4119 23.532C16.4093 23.915 16.4105 24.2974 16.4127 24.6804C16.4149 25.1003 16.418 25.5208 16.418 25.9429C16.418 26.5249 16.4193 27.1069 16.4205 27.689C16.4232 28.8533 16.4259 30.0173 16.418 31.1816C16.418 31.4478 16.4644 31.5403 16.7542 31.4824C17.0565 31.4202 17.3677 31.4512 17.6802 31.5H17.7938ZM22.503 30.1177H24.879C25.9105 30.1177 25.899 30.1177 25.9222 29.0884C25.9237 29.0535 25.9239 29.0215 25.9227 28.9919C25.9205 28.9424 25.9141 28.9006 25.9024 28.8655C25.8929 28.8376 25.88 28.814 25.8629 28.7942C25.8084 28.7312 25.712 28.7068 25.5511 28.7068C24.2012 28.7241 22.8577 28.7222 21.5159 28.72L20.7965 28.7188L20.1849 28.7185C19.6475 28.7185 19.3809 28.7185 19.2501 28.8518C19.1214 28.9829 19.1241 29.2432 19.1297 29.7598L19.1302 29.7939C19.1302 30.083 19.2344 30.1177 19.4779 30.1177C19.9659 30.1121 20.4542 30.1121 20.9422 30.1133C21.4625 30.1147 21.9827 30.1177 22.503 30.1177Z" fill="#A3DAFF"/>
</svg>
