<svg width="41" height="41" viewBox="0 0 41 41" fill="none" xmlns="http://www.w3.org/2000/svg">
<mask id="path-1-outside-1_278_1999" maskUnits="userSpaceOnUse" x="0.012207" y="0" width="41" height="41" fill="black">
<rect fill="white" x="0.012207" width="41" height="41"/>
<path d="M39.1986 1.01687C39.0475 1.08404 38.8796 1.11763 38.7956 1.28555C38.5773 1.70537 38.2079 1.89009 37.788 2.04122C37.2507 2.24273 36.6965 2.39387 36.1424 2.49462C33.8922 2.94802 31.6084 3.11595 29.3078 3.26708C27.5278 3.38463 25.7309 3.43501 23.9509 3.46859C21.3145 3.50218 18.678 3.53576 16.0416 3.43501C14.6142 3.36784 13.1701 3.35105 11.7427 3.26708C9.99626 3.18312 8.26662 3.03199 6.55377 2.79689C5.41187 2.64576 4.26997 2.44424 3.17845 2.04122C2.77543 1.89009 2.3892 1.68858 2.1709 1.28555C2.08693 1.11763 1.91901 1.08404 1.76787 1.01687H1.39844C0.978622 1.35272 0.911451 1.60461 1.16334 2.0916C1.28089 2.3267 1.46561 2.49462 1.66712 2.64576C2.00297 2.89764 2.37241 3.09916 2.77543 3.2167C3.11128 3.30067 3.16166 3.48539 3.14487 3.78765C3.12808 5.43333 3.14487 7.07901 3.14487 8.72468C3.14487 8.99336 3.21204 9.21167 3.44714 9.32922C3.68223 9.44676 3.91733 9.39639 4.11884 9.24525C4.47149 8.99336 4.84092 8.77506 5.17678 8.50638C5.39508 8.33845 5.49584 8.38883 5.64697 8.57355C6.13396 9.22846 6.63773 9.84979 7.14151 10.5047C7.30944 10.723 7.54454 10.8238 7.81322 10.7398C8.09869 10.6558 8.19945 10.4375 8.21624 10.1521C8.21624 10.0513 8.21624 9.95054 8.21624 9.84979C8.21624 8.10336 8.21624 6.35692 8.21624 4.5937C8.21624 4.32502 8.26662 4.22426 8.55209 4.27464C8.93832 4.34181 9.32455 4.37539 9.72758 4.39219C9.94588 4.40898 10.0466 4.47615 10.1138 4.71125C10.5504 6.22258 11.0206 7.73392 11.474 9.24525C11.7259 10.1017 11.9946 10.9581 12.2465 11.8313C12.3304 12.1168 12.4816 12.3351 12.8174 12.3519C13.1533 12.3519 13.3212 12.1672 13.4052 11.8649C13.422 11.8145 13.4387 11.7641 13.4555 11.7138C14.0937 9.49714 14.7822 7.26372 15.4539 5.01351C15.5378 4.74483 15.6554 4.66087 15.9241 4.67766C16.2599 4.71125 16.6125 4.72804 16.9484 4.71125C17.2171 4.69445 17.301 4.77842 17.301 5.06389C17.2843 6.79353 17.2843 8.53996 17.301 10.2696C17.301 10.9077 17.7377 11.1596 18.2918 10.8406C18.9299 10.4711 19.568 10.1185 20.1894 9.73224C20.4077 9.5979 20.5588 9.5979 20.7771 9.73224C21.432 10.1353 22.1037 10.5215 22.7754 10.9077C23.212 11.1596 23.6319 10.9077 23.6654 10.4207C23.6822 10.32 23.6654 10.2192 23.6654 10.1185C23.6654 8.43921 23.6654 6.74315 23.6654 5.06389C23.6654 4.812 23.7158 4.72804 23.9677 4.74483C24.3372 4.76162 24.7066 4.74483 25.076 4.71125C25.3615 4.67766 25.4455 4.79521 25.5126 5.03031C26.1843 7.26372 26.8728 9.49714 27.5613 11.7306C27.6621 12.0664 27.7628 12.3687 28.1995 12.3687C28.6193 12.3687 28.72 12.0496 28.8208 11.7138C29.5093 9.39639 30.2146 7.06221 30.9031 4.74483C30.9702 4.52653 31.0542 4.42577 31.2725 4.42577C31.6587 4.40898 32.0282 4.37539 32.4144 4.32502C32.7167 4.27464 32.8006 4.3586 32.8006 4.67766C32.7838 6.49126 32.8006 8.30487 32.8006 10.1185C32.8006 10.4207 32.8678 10.6894 33.1869 10.7734C33.4891 10.8741 33.7242 10.723 33.9089 10.4879C34.3456 9.90017 34.8325 9.34601 35.2524 8.74148C35.4707 8.42242 35.6386 8.33845 35.9409 8.62393C36.1927 8.85902 36.495 9.01016 36.7805 9.21167C37.0156 9.3796 37.2675 9.51394 37.5529 9.3628C37.8384 9.21167 37.872 8.94299 37.872 8.64072C37.872 6.99504 37.872 5.34937 37.8552 3.70369C37.8552 3.46859 37.9224 3.35105 38.1575 3.26708C38.9131 2.9984 39.6184 2.64576 39.9879 1.87329V1.4031C39.8535 1.26876 39.736 1.15121 39.6016 1.01687H39.1986ZM7.05755 8.42242C7.02396 8.42242 7.00717 8.43921 6.97359 8.43921C6.67132 8.05298 6.36905 7.66675 6.06678 7.28052C5.76452 6.91108 5.51263 6.87749 5.1264 7.14618C4.85772 7.3309 4.58903 7.51561 4.28677 7.71713V3.6869C5.14319 3.87162 6.01641 4.02275 6.88962 4.12351C7.02396 4.1403 7.05755 4.20747 7.05755 4.32502C7.05755 5.70201 7.05755 7.06221 7.05755 8.42242ZM12.8342 9.71545C12.8174 9.71545 12.7838 9.71545 12.767 9.71545C12.2465 8.0026 11.7427 6.28975 11.2221 4.52653C12.2968 4.57691 13.3212 4.62728 14.3959 4.67766C13.8586 6.37372 13.338 8.03619 12.8342 9.71545ZM22.5236 9.42997C21.9862 9.11091 21.4824 8.85902 21.0122 8.53996C20.626 8.28807 20.3069 8.30487 19.9375 8.53996C19.4673 8.84223 18.9803 9.11091 18.4429 9.42997C18.4429 7.88505 18.4429 6.42409 18.4429 4.94634C18.4429 4.77842 18.4765 4.72804 18.6612 4.72804C19.8871 4.72804 21.113 4.72804 22.3388 4.72804C22.49 4.72804 22.5403 4.77842 22.5403 4.92955C22.5236 6.4073 22.5236 7.88505 22.5236 9.42997ZM28.1827 9.833C27.6285 8.05298 27.1247 6.37372 26.5874 4.67766C27.6621 4.62728 28.6864 4.57691 29.7612 4.52653C29.2406 6.27296 28.7368 7.98581 28.1827 9.833ZM36.6797 7.73392C36.3607 7.51561 36.092 7.3141 35.8065 7.12938C35.4539 6.89429 35.1852 6.94467 34.9165 7.26373C34.5974 7.64996 34.2952 8.05298 33.9929 8.43921C33.8922 8.38883 33.9257 8.32166 33.9257 8.27128C33.9257 6.99504 33.9257 5.7188 33.9257 4.44257C33.9257 4.22426 33.9761 4.1403 34.2112 4.10671C35.034 4.00596 35.8569 3.87162 36.6965 3.6869V7.73392H36.6797ZM37.7209 17.2385C35.3699 17.2721 33.0357 17.2889 30.6848 17.2385C29.4421 17.205 28.5857 18.011 28.5857 19.3208C28.6193 25.9203 28.6025 32.503 28.6025 39.1025C28.6025 39.1865 28.6025 39.2872 28.6025 39.3712C28.6193 39.7742 28.8208 39.9757 29.2238 39.9925C29.5261 40.0093 29.8283 39.9925 30.1306 39.9925C33.1533 39.9925 36.1592 39.9925 39.1818 39.9925C39.4841 39.9925 39.7696 39.9925 39.8871 39.6231C39.8871 37.4736 39.8871 35.3242 39.8871 33.1747C39.7864 32.8389 39.5177 32.7717 39.2322 32.8389C38.9467 32.9061 38.8124 33.1076 38.8124 33.393C38.8124 33.88 38.7956 34.3502 38.8124 34.8372C38.8292 35.1227 38.762 35.1898 38.4597 35.1898C35.6722 35.1731 32.8846 35.1731 30.097 35.1898C29.8115 35.1898 29.7276 35.1227 29.7276 34.8204C29.7444 29.6315 29.7276 24.4594 29.7276 19.2704C29.7276 18.5819 29.9123 18.3972 30.6008 18.3972C33.0357 18.3972 35.4707 18.3972 37.9056 18.3972C38.6277 18.3972 38.7956 18.5819 38.7956 19.304C38.7956 22.9984 38.7956 26.7096 38.7956 30.404C38.7956 30.5215 38.7956 30.6391 38.7956 30.7398C38.8124 31.0253 38.9635 31.2268 39.2322 31.2772C39.5177 31.3275 39.7528 31.2436 39.8535 30.9413C39.8535 26.9783 39.8535 23.032 39.8535 19.0689C39.8535 18.9514 39.8199 18.8338 39.9207 18.7499V18.6659C39.6016 17.5912 38.8292 17.2217 37.7209 17.2385ZM30.0802 36.315C31.4908 36.3317 32.9014 36.315 34.2952 36.315C35.7058 36.315 37.1163 36.315 38.5101 36.315C38.7452 36.315 38.8292 36.3653 38.8292 36.6172C38.8124 37.2553 38.8124 37.9103 38.8292 38.5484C38.8292 38.7499 38.7788 38.8171 38.5605 38.8171C35.7058 38.8171 32.851 38.8171 30.0131 38.8171C29.778 38.8171 29.7612 38.7163 29.7612 38.5316C29.778 37.8935 29.778 37.2721 29.7612 36.634C29.7444 36.3821 29.8115 36.2982 30.0802 36.315ZM39.9207 19.1529C39.9207 22.948 39.9207 26.7264 39.9207 30.5215C39.9207 30.6558 39.9543 30.807 39.8871 30.9413C39.9039 30.9245 39.9375 30.9245 39.9543 30.9245V18.7499C39.8871 18.8674 39.9207 19.0186 39.9207 19.1529ZM39.9207 33.7625C39.9207 35.5761 39.9207 37.3729 39.9207 39.1865C39.9207 39.3208 39.9543 39.472 39.8871 39.6063C39.9039 39.5895 39.9375 39.5895 39.9543 39.5895V33.1915C39.9375 33.1747 39.9039 33.1747 39.8871 33.1579C39.9543 33.3595 39.9207 33.561 39.9207 33.7625ZM39.5849 1.01687C39.7864 1.06725 39.9207 1.1848 39.9711 1.4031C40.0382 1.08404 39.9039 0.949701 39.5849 1.01687ZM10.3657 17.2385C7.91397 17.2721 5.47904 17.2553 3.02732 17.2553C1.7175 17.2385 1.01221 17.9438 1.01221 19.2369C1.01221 22.5282 1.01221 25.8364 1.01221 29.1277C1.01221 32.4694 1.01221 35.828 1.01221 39.1697C1.01221 39.8078 1.18013 39.9757 1.83505 39.9757C5.07602 39.9757 8.3002 39.9757 11.5412 39.9757C12.2297 39.9757 12.3808 39.8246 12.3808 39.1193C12.3808 33.8632 12.3808 28.5904 12.3808 23.3343C12.3808 23.2167 12.3808 23.0992 12.364 22.9984C12.3304 22.6961 12.1457 22.545 11.877 22.5114C11.5916 22.4778 11.39 22.6122 11.2893 22.8809C11.2221 23.032 11.2389 23.1999 11.2389 23.3678C11.2389 27.1966 11.2389 31.0253 11.2389 34.854C11.2389 35.0555 11.2557 35.1898 10.9534 35.1898C8.11548 35.1731 5.27753 35.1731 2.43958 35.1898C2.22128 35.1898 2.1709 35.1395 2.1709 34.9212C2.1709 29.6651 2.1709 24.3922 2.1709 19.1361C2.1709 18.6491 2.40599 18.3972 2.89298 18.3972C5.44546 18.3972 7.99794 18.3972 10.5336 18.3972C11.0038 18.3972 11.2221 18.6323 11.2389 19.1025C11.2389 19.5391 11.2221 19.9925 11.2557 20.4291C11.2725 20.7818 11.5412 21.0001 11.8602 20.9833C12.1625 20.9665 12.3808 20.7482 12.3976 20.4123C12.4144 20.0261 12.3808 19.6567 12.4144 19.2704C12.4648 18.011 11.5412 17.2217 10.3657 17.2385ZM2.42279 36.315C5.26074 36.315 8.09869 36.315 10.9366 36.315C11.1717 36.315 11.2221 36.3821 11.2221 36.6172C11.2053 37.2553 11.2053 37.9103 11.2221 38.5484C11.2221 38.8003 11.1549 38.8338 10.9199 38.8338C9.49248 38.8171 8.0819 38.8338 6.65453 38.8338C5.26074 38.8338 3.86695 38.8171 2.47316 38.8338C2.18769 38.8338 2.12052 38.7499 2.12052 38.4812C2.13731 37.8431 2.13731 37.2218 2.12052 36.5836C2.13731 36.3653 2.22128 36.315 2.42279 36.315ZM25.8653 19.9422C23.5143 20.6642 21.1466 21.3695 18.7956 22.0748C18.2582 22.2427 18.1575 22.3603 18.1575 22.9312C18.1575 26.0715 18.1575 29.2117 18.1575 32.3687V32.8053C17.9895 32.7213 17.872 32.6542 17.7544 32.6038C16.7637 32.1504 15.605 32.3519 14.8325 33.0908C14.0433 33.8464 13.7914 34.9883 14.1944 35.9959C14.5806 36.9867 15.5882 37.6584 16.6461 37.6584C18.1071 37.6584 19.2826 36.4997 19.2826 35.0219C19.2994 32.3015 19.2826 29.5643 19.2826 26.8439C19.2826 26.1386 19.2826 26.1386 19.9711 25.9371C20.6764 25.7188 21.3817 25.5173 22.0702 25.299C22.4396 25.1814 22.6075 24.8792 22.5068 24.5769C22.406 24.2746 22.1037 24.1235 21.7343 24.2075C21.6167 24.2411 21.4992 24.2746 21.3649 24.325C20.6764 24.5265 19.9711 24.7448 19.249 24.9631C19.249 24.4258 19.2658 23.922 19.249 23.435C19.2322 23.1831 19.333 23.0824 19.5681 23.0152C20.8779 22.629 22.1877 22.2259 23.4975 21.8397C24.2028 21.6214 24.9081 21.4031 25.6638 21.1848C25.6638 21.7558 25.6638 22.2931 25.6638 22.8305C25.6638 23.0152 25.5966 23.0656 25.4287 23.116C25.076 23.2167 24.7234 23.3175 24.3707 23.435C23.9845 23.5694 23.7998 23.8548 23.9005 24.1739C24.0013 24.493 24.2868 24.6273 24.673 24.5265C24.9921 24.4426 25.2943 24.3418 25.6134 24.2579V30.5383C25.4623 30.4711 25.3615 30.404 25.244 30.3536C24.1692 29.8498 22.9266 30.1185 22.1373 31.0253C21.3817 31.8817 21.2809 33.1579 21.8854 34.1319C22.5068 35.1395 23.7158 35.6265 24.8409 35.3074C25.9492 35.0051 26.7721 33.9976 26.7721 32.8221C26.7889 28.7583 26.7721 24.7113 26.7721 20.6474C26.8225 19.9422 26.537 19.7406 25.8653 19.9422ZM16.6125 36.55C15.7897 36.5333 15.1348 35.8616 15.1348 35.0387C15.1348 34.2159 15.8065 33.5442 16.6293 33.5274C17.469 33.5106 18.1407 34.1991 18.1407 35.0387C18.1407 35.8783 17.4522 36.55 16.6125 36.55ZM24.1524 34.2663C23.3296 34.2663 22.6747 33.5778 22.6579 32.7549C22.6579 31.9153 23.3464 31.2268 24.186 31.2436C25.0089 31.2604 25.6638 31.9321 25.6638 32.7549C25.6806 33.5946 24.9921 34.2663 24.1524 34.2663ZM6.7049 19.5223C4.87451 19.5055 3.36317 21.0001 3.34638 22.8473C3.32959 24.7113 4.82413 26.2226 6.67132 26.2226C8.51851 26.2226 10.0466 24.7113 10.0298 22.8641C10.0466 21.0337 8.5353 19.5391 6.7049 19.5223ZM6.68811 25.0807C5.46225 25.0807 4.48828 24.1067 4.48828 22.8977C4.47149 21.6718 5.46225 20.6642 6.68811 20.6642C7.89718 20.6642 8.92153 21.6886 8.90474 22.8977C8.88794 24.1067 7.91397 25.0807 6.68811 25.0807ZM6.7049 34.0647C6.92321 34.0647 7.14151 34.048 7.34302 34.0144C9.10625 33.6617 10.2314 32.0496 9.99626 30.2528C9.77795 28.5736 8.23303 27.2805 6.57056 27.3813C4.72338 27.4988 3.36317 28.8926 3.34638 30.8741C3.32959 31.2436 3.46393 31.7642 3.71582 32.2511C3.9845 32.7885 4.28677 32.9732 4.63941 32.7885C4.99206 32.6206 5.02564 32.2847 4.74017 31.7474C4.15243 30.6223 4.63941 29.2285 5.7981 28.7079C6.95679 28.1873 8.33379 28.7751 8.7704 29.9506C9.207 31.1428 8.55209 32.4527 7.32623 32.8389C7.09113 32.9061 6.85604 32.9061 6.62094 32.9564C6.30188 33.0236 6.13396 33.2251 6.13396 33.5274C6.11716 33.8129 6.36905 34.0647 6.7049 34.0647ZM36.3439 15.5089C36.579 15.4249 36.6965 15.2402 36.6965 14.9883C36.6965 14.9547 36.6965 14.9044 36.6797 14.8708C36.3607 14.1151 36.0248 13.3762 35.605 12.6709C35.4539 12.4359 35.1684 12.4023 34.9333 12.5366C34.6814 12.6709 34.5303 12.906 34.6478 13.1747C34.9669 13.9136 35.3195 14.6357 35.689 15.3578C35.8233 15.5593 36.092 15.6097 36.3439 15.5089ZM3.5311 14.9044C3.88374 14.367 4.2196 13.8128 4.57224 13.2755C4.65621 13.1579 4.70658 13.0404 4.72338 12.8725C4.68979 12.6374 4.58903 12.4359 4.32035 12.3351C4.03488 12.2343 3.81657 12.3351 3.66544 12.5702C3.296 13.1411 2.92657 13.7121 2.55713 14.2998C2.33882 14.6525 2.3892 14.9883 2.65788 15.173C2.97694 15.3578 3.296 15.257 3.5311 14.9044ZM22.7251 15.0723C22.7251 14.938 22.6243 14.77 22.4564 14.6693C21.8183 14.2998 21.1969 13.9304 20.542 13.5777C20.2565 13.4266 19.9375 13.5274 19.7864 13.7961C19.6352 14.0815 19.6856 14.367 19.9543 14.5349C20.5924 14.9212 21.2305 15.3074 21.8854 15.66C22.3052 15.8615 22.7251 15.5761 22.7251 15.0723ZM15.9073 19.0018C16.2767 18.5316 16.6461 18.0782 16.982 17.5912C17.1667 17.3225 17.0827 17.0538 16.8309 16.8523C16.5958 16.6676 16.3103 16.6844 16.1088 16.9027C15.7225 17.3561 15.3531 17.8263 15.034 18.3133C14.7989 18.6659 15.0844 19.1529 15.521 19.1697C15.6554 19.1697 15.8233 19.1361 15.9073 19.0018ZM6.7049 31.294C7.00717 31.294 7.25906 31.0421 7.25906 30.7398C7.25906 30.4207 6.99038 30.1521 6.67132 30.1689C6.36905 30.1856 6.11716 30.4375 6.11716 30.7398C6.11716 31.0421 6.38585 31.3108 6.7049 31.294ZM29.3749 15.2066C29.3581 14.9044 29.0727 14.6357 28.7704 14.6525C28.4681 14.6693 28.233 14.938 28.2498 15.2402C28.2666 15.5593 28.5185 15.7944 28.8544 15.7776C29.1398 15.7608 29.3917 15.5089 29.3749 15.2066ZM10.1306 14.7532C10.1306 14.4678 9.86192 14.1991 9.57644 14.1823C9.25738 14.1655 9.00549 14.4342 9.00549 14.7532C9.00549 15.0723 9.24059 15.3074 9.55965 15.3074C9.86192 15.341 10.1306 15.0723 10.1306 14.7532ZM25.7309 37.2385C25.4455 37.2218 25.16 37.4736 25.1432 37.7759C25.1264 38.095 25.3783 38.3637 25.6974 38.3804C26.0164 38.3804 26.2515 38.1621 26.2683 37.8431C26.3019 37.524 26.05 37.2553 25.7309 37.2385ZM19.9207 18.901C19.9207 19.2369 20.1894 19.472 20.5084 19.4552C20.8107 19.4384 21.0458 19.2033 21.0458 18.8842C21.0458 18.5819 20.7939 18.3301 20.4916 18.3301C20.1726 18.3133 19.9207 18.5819 19.9207 18.901ZM30.9367 30.723C30.9534 32.5534 32.448 34.048 34.2784 34.0647C36.1424 34.0647 37.6369 32.5702 37.6369 30.7062C37.6369 28.859 36.1424 27.3645 34.2952 27.3645C32.448 27.3645 30.9199 28.8926 30.9367 30.723ZM36.495 30.7062C36.495 31.9321 35.5042 32.9228 34.2784 32.9228C33.0693 32.9228 32.0786 31.9321 32.0786 30.723C32.0786 29.5139 33.0861 28.4896 34.2952 28.5064C35.5042 28.5232 36.4782 29.4972 36.495 30.7062ZM34.2784 19.5223C32.448 19.5223 30.9367 21.0337 30.9367 22.8641C30.9199 24.6945 32.4144 26.2058 34.2616 26.2226C36.1256 26.2394 37.6369 24.7616 37.6369 22.8977C37.6369 21.0337 36.1256 19.5223 34.2784 19.5223ZM34.2784 25.0807C33.0693 25.0807 32.0786 24.0899 32.0786 22.8977C32.0618 21.6886 33.0861 20.6642 34.2952 20.6642C35.5042 20.6642 36.4782 21.655 36.495 22.8641C36.495 24.0899 35.5042 25.0807 34.2784 25.0807ZM6.7049 22.3099C6.38585 22.2931 6.11716 22.5618 6.11716 22.8809C6.11716 23.1831 6.36905 23.435 6.67132 23.4518C6.99038 23.4686 7.25906 23.1999 7.25906 22.8809C7.25906 22.5618 7.00717 22.3267 6.7049 22.3099ZM34.2616 31.294C34.5807 31.3108 34.8493 31.0589 34.8661 30.7398C34.8661 30.4375 34.5974 30.1521 34.2952 30.1521C33.9929 30.1521 33.741 30.404 33.741 30.7062C33.7074 31.0253 33.9425 31.2772 34.2616 31.294ZM34.312 22.3099C34.0097 22.3099 33.741 22.545 33.741 22.8473C33.7242 23.1663 33.9929 23.435 34.312 23.4518C34.6142 23.4518 34.8661 23.2167 34.8829 22.9144C34.8829 22.5954 34.631 22.3267 34.312 22.3099Z"/>
</mask>
<path d="M39.1986 1.01687C39.0475 1.08404 38.8796 1.11763 38.7956 1.28555C38.5773 1.70537 38.2079 1.89009 37.788 2.04122C37.2507 2.24273 36.6965 2.39387 36.1424 2.49462C33.8922 2.94802 31.6084 3.11595 29.3078 3.26708C27.5278 3.38463 25.7309 3.43501 23.9509 3.46859C21.3145 3.50218 18.678 3.53576 16.0416 3.43501C14.6142 3.36784 13.1701 3.35105 11.7427 3.26708C9.99626 3.18312 8.26662 3.03199 6.55377 2.79689C5.41187 2.64576 4.26997 2.44424 3.17845 2.04122C2.77543 1.89009 2.3892 1.68858 2.1709 1.28555C2.08693 1.11763 1.91901 1.08404 1.76787 1.01687H1.39844C0.978622 1.35272 0.911451 1.60461 1.16334 2.0916C1.28089 2.3267 1.46561 2.49462 1.66712 2.64576C2.00297 2.89764 2.37241 3.09916 2.77543 3.2167C3.11128 3.30067 3.16166 3.48539 3.14487 3.78765C3.12808 5.43333 3.14487 7.07901 3.14487 8.72468C3.14487 8.99336 3.21204 9.21167 3.44714 9.32922C3.68223 9.44676 3.91733 9.39639 4.11884 9.24525C4.47149 8.99336 4.84092 8.77506 5.17678 8.50638C5.39508 8.33845 5.49584 8.38883 5.64697 8.57355C6.13396 9.22846 6.63773 9.84979 7.14151 10.5047C7.30944 10.723 7.54454 10.8238 7.81322 10.7398C8.09869 10.6558 8.19945 10.4375 8.21624 10.1521C8.21624 10.0513 8.21624 9.95054 8.21624 9.84979C8.21624 8.10336 8.21624 6.35692 8.21624 4.5937C8.21624 4.32502 8.26662 4.22426 8.55209 4.27464C8.93832 4.34181 9.32455 4.37539 9.72758 4.39219C9.94588 4.40898 10.0466 4.47615 10.1138 4.71125C10.5504 6.22258 11.0206 7.73392 11.474 9.24525C11.7259 10.1017 11.9946 10.9581 12.2465 11.8313C12.3304 12.1168 12.4816 12.3351 12.8174 12.3519C13.1533 12.3519 13.3212 12.1672 13.4052 11.8649C13.422 11.8145 13.4387 11.7641 13.4555 11.7138C14.0937 9.49714 14.7822 7.26372 15.4539 5.01351C15.5378 4.74483 15.6554 4.66087 15.9241 4.67766C16.2599 4.71125 16.6125 4.72804 16.9484 4.71125C17.2171 4.69445 17.301 4.77842 17.301 5.06389C17.2843 6.79353 17.2843 8.53996 17.301 10.2696C17.301 10.9077 17.7377 11.1596 18.2918 10.8406C18.9299 10.4711 19.568 10.1185 20.1894 9.73224C20.4077 9.5979 20.5588 9.5979 20.7771 9.73224C21.432 10.1353 22.1037 10.5215 22.7754 10.9077C23.212 11.1596 23.6319 10.9077 23.6654 10.4207C23.6822 10.32 23.6654 10.2192 23.6654 10.1185C23.6654 8.43921 23.6654 6.74315 23.6654 5.06389C23.6654 4.812 23.7158 4.72804 23.9677 4.74483C24.3372 4.76162 24.7066 4.74483 25.076 4.71125C25.3615 4.67766 25.4455 4.79521 25.5126 5.03031C26.1843 7.26372 26.8728 9.49714 27.5613 11.7306C27.6621 12.0664 27.7628 12.3687 28.1995 12.3687C28.6193 12.3687 28.72 12.0496 28.8208 11.7138C29.5093 9.39639 30.2146 7.06221 30.9031 4.74483C30.9702 4.52653 31.0542 4.42577 31.2725 4.42577C31.6587 4.40898 32.0282 4.37539 32.4144 4.32502C32.7167 4.27464 32.8006 4.3586 32.8006 4.67766C32.7838 6.49126 32.8006 8.30487 32.8006 10.1185C32.8006 10.4207 32.8678 10.6894 33.1869 10.7734C33.4891 10.8741 33.7242 10.723 33.9089 10.4879C34.3456 9.90017 34.8325 9.34601 35.2524 8.74148C35.4707 8.42242 35.6386 8.33845 35.9409 8.62393C36.1927 8.85902 36.495 9.01016 36.7805 9.21167C37.0156 9.3796 37.2675 9.51394 37.5529 9.3628C37.8384 9.21167 37.872 8.94299 37.872 8.64072C37.872 6.99504 37.872 5.34937 37.8552 3.70369C37.8552 3.46859 37.9224 3.35105 38.1575 3.26708C38.9131 2.9984 39.6184 2.64576 39.9879 1.87329V1.4031C39.8535 1.26876 39.736 1.15121 39.6016 1.01687H39.1986ZM7.05755 8.42242C7.02396 8.42242 7.00717 8.43921 6.97359 8.43921C6.67132 8.05298 6.36905 7.66675 6.06678 7.28052C5.76452 6.91108 5.51263 6.87749 5.1264 7.14618C4.85772 7.3309 4.58903 7.51561 4.28677 7.71713V3.6869C5.14319 3.87162 6.01641 4.02275 6.88962 4.12351C7.02396 4.1403 7.05755 4.20747 7.05755 4.32502C7.05755 5.70201 7.05755 7.06221 7.05755 8.42242ZM12.8342 9.71545C12.8174 9.71545 12.7838 9.71545 12.767 9.71545C12.2465 8.0026 11.7427 6.28975 11.2221 4.52653C12.2968 4.57691 13.3212 4.62728 14.3959 4.67766C13.8586 6.37372 13.338 8.03619 12.8342 9.71545ZM22.5236 9.42997C21.9862 9.11091 21.4824 8.85902 21.0122 8.53996C20.626 8.28807 20.3069 8.30487 19.9375 8.53996C19.4673 8.84223 18.9803 9.11091 18.4429 9.42997C18.4429 7.88505 18.4429 6.42409 18.4429 4.94634C18.4429 4.77842 18.4765 4.72804 18.6612 4.72804C19.8871 4.72804 21.113 4.72804 22.3388 4.72804C22.49 4.72804 22.5403 4.77842 22.5403 4.92955C22.5236 6.4073 22.5236 7.88505 22.5236 9.42997ZM28.1827 9.833C27.6285 8.05298 27.1247 6.37372 26.5874 4.67766C27.6621 4.62728 28.6864 4.57691 29.7612 4.52653C29.2406 6.27296 28.7368 7.98581 28.1827 9.833ZM36.6797 7.73392C36.3607 7.51561 36.092 7.3141 35.8065 7.12938C35.4539 6.89429 35.1852 6.94467 34.9165 7.26373C34.5974 7.64996 34.2952 8.05298 33.9929 8.43921C33.8922 8.38883 33.9257 8.32166 33.9257 8.27128C33.9257 6.99504 33.9257 5.7188 33.9257 4.44257C33.9257 4.22426 33.9761 4.1403 34.2112 4.10671C35.034 4.00596 35.8569 3.87162 36.6965 3.6869V7.73392H36.6797ZM37.7209 17.2385C35.3699 17.2721 33.0357 17.2889 30.6848 17.2385C29.4421 17.205 28.5857 18.011 28.5857 19.3208C28.6193 25.9203 28.6025 32.503 28.6025 39.1025C28.6025 39.1865 28.6025 39.2872 28.6025 39.3712C28.6193 39.7742 28.8208 39.9757 29.2238 39.9925C29.5261 40.0093 29.8283 39.9925 30.1306 39.9925C33.1533 39.9925 36.1592 39.9925 39.1818 39.9925C39.4841 39.9925 39.7696 39.9925 39.8871 39.6231C39.8871 37.4736 39.8871 35.3242 39.8871 33.1747C39.7864 32.8389 39.5177 32.7717 39.2322 32.8389C38.9467 32.9061 38.8124 33.1076 38.8124 33.393C38.8124 33.88 38.7956 34.3502 38.8124 34.8372C38.8292 35.1227 38.762 35.1898 38.4597 35.1898C35.6722 35.1731 32.8846 35.1731 30.097 35.1898C29.8115 35.1898 29.7276 35.1227 29.7276 34.8204C29.7444 29.6315 29.7276 24.4594 29.7276 19.2704C29.7276 18.5819 29.9123 18.3972 30.6008 18.3972C33.0357 18.3972 35.4707 18.3972 37.9056 18.3972C38.6277 18.3972 38.7956 18.5819 38.7956 19.304C38.7956 22.9984 38.7956 26.7096 38.7956 30.404C38.7956 30.5215 38.7956 30.6391 38.7956 30.7398C38.8124 31.0253 38.9635 31.2268 39.2322 31.2772C39.5177 31.3275 39.7528 31.2436 39.8535 30.9413C39.8535 26.9783 39.8535 23.032 39.8535 19.0689C39.8535 18.9514 39.8199 18.8338 39.9207 18.7499V18.6659C39.6016 17.5912 38.8292 17.2217 37.7209 17.2385ZM30.0802 36.315C31.4908 36.3317 32.9014 36.315 34.2952 36.315C35.7058 36.315 37.1163 36.315 38.5101 36.315C38.7452 36.315 38.8292 36.3653 38.8292 36.6172C38.8124 37.2553 38.8124 37.9103 38.8292 38.5484C38.8292 38.7499 38.7788 38.8171 38.5605 38.8171C35.7058 38.8171 32.851 38.8171 30.0131 38.8171C29.778 38.8171 29.7612 38.7163 29.7612 38.5316C29.778 37.8935 29.778 37.2721 29.7612 36.634C29.7444 36.3821 29.8115 36.2982 30.0802 36.315ZM39.9207 19.1529C39.9207 22.948 39.9207 26.7264 39.9207 30.5215C39.9207 30.6558 39.9543 30.807 39.8871 30.9413C39.9039 30.9245 39.9375 30.9245 39.9543 30.9245V18.7499C39.8871 18.8674 39.9207 19.0186 39.9207 19.1529ZM39.9207 33.7625C39.9207 35.5761 39.9207 37.3729 39.9207 39.1865C39.9207 39.3208 39.9543 39.472 39.8871 39.6063C39.9039 39.5895 39.9375 39.5895 39.9543 39.5895V33.1915C39.9375 33.1747 39.9039 33.1747 39.8871 33.1579C39.9543 33.3595 39.9207 33.561 39.9207 33.7625ZM39.5849 1.01687C39.7864 1.06725 39.9207 1.1848 39.9711 1.4031C40.0382 1.08404 39.9039 0.949701 39.5849 1.01687ZM10.3657 17.2385C7.91397 17.2721 5.47904 17.2553 3.02732 17.2553C1.7175 17.2385 1.01221 17.9438 1.01221 19.2369C1.01221 22.5282 1.01221 25.8364 1.01221 29.1277C1.01221 32.4694 1.01221 35.828 1.01221 39.1697C1.01221 39.8078 1.18013 39.9757 1.83505 39.9757C5.07602 39.9757 8.3002 39.9757 11.5412 39.9757C12.2297 39.9757 12.3808 39.8246 12.3808 39.1193C12.3808 33.8632 12.3808 28.5904 12.3808 23.3343C12.3808 23.2167 12.3808 23.0992 12.364 22.9984C12.3304 22.6961 12.1457 22.545 11.877 22.5114C11.5916 22.4778 11.39 22.6122 11.2893 22.8809C11.2221 23.032 11.2389 23.1999 11.2389 23.3678C11.2389 27.1966 11.2389 31.0253 11.2389 34.854C11.2389 35.0555 11.2557 35.1898 10.9534 35.1898C8.11548 35.1731 5.27753 35.1731 2.43958 35.1898C2.22128 35.1898 2.1709 35.1395 2.1709 34.9212C2.1709 29.6651 2.1709 24.3922 2.1709 19.1361C2.1709 18.6491 2.40599 18.3972 2.89298 18.3972C5.44546 18.3972 7.99794 18.3972 10.5336 18.3972C11.0038 18.3972 11.2221 18.6323 11.2389 19.1025C11.2389 19.5391 11.2221 19.9925 11.2557 20.4291C11.2725 20.7818 11.5412 21.0001 11.8602 20.9833C12.1625 20.9665 12.3808 20.7482 12.3976 20.4123C12.4144 20.0261 12.3808 19.6567 12.4144 19.2704C12.4648 18.011 11.5412 17.2217 10.3657 17.2385ZM2.42279 36.315C5.26074 36.315 8.09869 36.315 10.9366 36.315C11.1717 36.315 11.2221 36.3821 11.2221 36.6172C11.2053 37.2553 11.2053 37.9103 11.2221 38.5484C11.2221 38.8003 11.1549 38.8338 10.9199 38.8338C9.49248 38.8171 8.0819 38.8338 6.65453 38.8338C5.26074 38.8338 3.86695 38.8171 2.47316 38.8338C2.18769 38.8338 2.12052 38.7499 2.12052 38.4812C2.13731 37.8431 2.13731 37.2218 2.12052 36.5836C2.13731 36.3653 2.22128 36.315 2.42279 36.315ZM25.8653 19.9422C23.5143 20.6642 21.1466 21.3695 18.7956 22.0748C18.2582 22.2427 18.1575 22.3603 18.1575 22.9312C18.1575 26.0715 18.1575 29.2117 18.1575 32.3687V32.8053C17.9895 32.7213 17.872 32.6542 17.7544 32.6038C16.7637 32.1504 15.605 32.3519 14.8325 33.0908C14.0433 33.8464 13.7914 34.9883 14.1944 35.9959C14.5806 36.9867 15.5882 37.6584 16.6461 37.6584C18.1071 37.6584 19.2826 36.4997 19.2826 35.0219C19.2994 32.3015 19.2826 29.5643 19.2826 26.8439C19.2826 26.1386 19.2826 26.1386 19.9711 25.9371C20.6764 25.7188 21.3817 25.5173 22.0702 25.299C22.4396 25.1814 22.6075 24.8792 22.5068 24.5769C22.406 24.2746 22.1037 24.1235 21.7343 24.2075C21.6167 24.2411 21.4992 24.2746 21.3649 24.325C20.6764 24.5265 19.9711 24.7448 19.249 24.9631C19.249 24.4258 19.2658 23.922 19.249 23.435C19.2322 23.1831 19.333 23.0824 19.5681 23.0152C20.8779 22.629 22.1877 22.2259 23.4975 21.8397C24.2028 21.6214 24.9081 21.4031 25.6638 21.1848C25.6638 21.7558 25.6638 22.2931 25.6638 22.8305C25.6638 23.0152 25.5966 23.0656 25.4287 23.116C25.076 23.2167 24.7234 23.3175 24.3707 23.435C23.9845 23.5694 23.7998 23.8548 23.9005 24.1739C24.0013 24.493 24.2868 24.6273 24.673 24.5265C24.9921 24.4426 25.2943 24.3418 25.6134 24.2579V30.5383C25.4623 30.4711 25.3615 30.404 25.244 30.3536C24.1692 29.8498 22.9266 30.1185 22.1373 31.0253C21.3817 31.8817 21.2809 33.1579 21.8854 34.1319C22.5068 35.1395 23.7158 35.6265 24.8409 35.3074C25.9492 35.0051 26.7721 33.9976 26.7721 32.8221C26.7889 28.7583 26.7721 24.7113 26.7721 20.6474C26.8225 19.9422 26.537 19.7406 25.8653 19.9422ZM16.6125 36.55C15.7897 36.5333 15.1348 35.8616 15.1348 35.0387C15.1348 34.2159 15.8065 33.5442 16.6293 33.5274C17.469 33.5106 18.1407 34.1991 18.1407 35.0387C18.1407 35.8783 17.4522 36.55 16.6125 36.55ZM24.1524 34.2663C23.3296 34.2663 22.6747 33.5778 22.6579 32.7549C22.6579 31.9153 23.3464 31.2268 24.186 31.2436C25.0089 31.2604 25.6638 31.9321 25.6638 32.7549C25.6806 33.5946 24.9921 34.2663 24.1524 34.2663ZM6.7049 19.5223C4.87451 19.5055 3.36317 21.0001 3.34638 22.8473C3.32959 24.7113 4.82413 26.2226 6.67132 26.2226C8.51851 26.2226 10.0466 24.7113 10.0298 22.8641C10.0466 21.0337 8.5353 19.5391 6.7049 19.5223ZM6.68811 25.0807C5.46225 25.0807 4.48828 24.1067 4.48828 22.8977C4.47149 21.6718 5.46225 20.6642 6.68811 20.6642C7.89718 20.6642 8.92153 21.6886 8.90474 22.8977C8.88794 24.1067 7.91397 25.0807 6.68811 25.0807ZM6.7049 34.0647C6.92321 34.0647 7.14151 34.048 7.34302 34.0144C9.10625 33.6617 10.2314 32.0496 9.99626 30.2528C9.77795 28.5736 8.23303 27.2805 6.57056 27.3813C4.72338 27.4988 3.36317 28.8926 3.34638 30.8741C3.32959 31.2436 3.46393 31.7642 3.71582 32.2511C3.9845 32.7885 4.28677 32.9732 4.63941 32.7885C4.99206 32.6206 5.02564 32.2847 4.74017 31.7474C4.15243 30.6223 4.63941 29.2285 5.7981 28.7079C6.95679 28.1873 8.33379 28.7751 8.7704 29.9506C9.207 31.1428 8.55209 32.4527 7.32623 32.8389C7.09113 32.9061 6.85604 32.9061 6.62094 32.9564C6.30188 33.0236 6.13396 33.2251 6.13396 33.5274C6.11716 33.8129 6.36905 34.0647 6.7049 34.0647ZM36.3439 15.5089C36.579 15.4249 36.6965 15.2402 36.6965 14.9883C36.6965 14.9547 36.6965 14.9044 36.6797 14.8708C36.3607 14.1151 36.0248 13.3762 35.605 12.6709C35.4539 12.4359 35.1684 12.4023 34.9333 12.5366C34.6814 12.6709 34.5303 12.906 34.6478 13.1747C34.9669 13.9136 35.3195 14.6357 35.689 15.3578C35.8233 15.5593 36.092 15.6097 36.3439 15.5089ZM3.5311 14.9044C3.88374 14.367 4.2196 13.8128 4.57224 13.2755C4.65621 13.1579 4.70658 13.0404 4.72338 12.8725C4.68979 12.6374 4.58903 12.4359 4.32035 12.3351C4.03488 12.2343 3.81657 12.3351 3.66544 12.5702C3.296 13.1411 2.92657 13.7121 2.55713 14.2998C2.33882 14.6525 2.3892 14.9883 2.65788 15.173C2.97694 15.3578 3.296 15.257 3.5311 14.9044ZM22.7251 15.0723C22.7251 14.938 22.6243 14.77 22.4564 14.6693C21.8183 14.2998 21.1969 13.9304 20.542 13.5777C20.2565 13.4266 19.9375 13.5274 19.7864 13.7961C19.6352 14.0815 19.6856 14.367 19.9543 14.5349C20.5924 14.9212 21.2305 15.3074 21.8854 15.66C22.3052 15.8615 22.7251 15.5761 22.7251 15.0723ZM15.9073 19.0018C16.2767 18.5316 16.6461 18.0782 16.982 17.5912C17.1667 17.3225 17.0827 17.0538 16.8309 16.8523C16.5958 16.6676 16.3103 16.6844 16.1088 16.9027C15.7225 17.3561 15.3531 17.8263 15.034 18.3133C14.7989 18.6659 15.0844 19.1529 15.521 19.1697C15.6554 19.1697 15.8233 19.1361 15.9073 19.0018ZM6.7049 31.294C7.00717 31.294 7.25906 31.0421 7.25906 30.7398C7.25906 30.4207 6.99038 30.1521 6.67132 30.1689C6.36905 30.1856 6.11716 30.4375 6.11716 30.7398C6.11716 31.0421 6.38585 31.3108 6.7049 31.294ZM29.3749 15.2066C29.3581 14.9044 29.0727 14.6357 28.7704 14.6525C28.4681 14.6693 28.233 14.938 28.2498 15.2402C28.2666 15.5593 28.5185 15.7944 28.8544 15.7776C29.1398 15.7608 29.3917 15.5089 29.3749 15.2066ZM10.1306 14.7532C10.1306 14.4678 9.86192 14.1991 9.57644 14.1823C9.25738 14.1655 9.00549 14.4342 9.00549 14.7532C9.00549 15.0723 9.24059 15.3074 9.55965 15.3074C9.86192 15.341 10.1306 15.0723 10.1306 14.7532ZM25.7309 37.2385C25.4455 37.2218 25.16 37.4736 25.1432 37.7759C25.1264 38.095 25.3783 38.3637 25.6974 38.3804C26.0164 38.3804 26.2515 38.1621 26.2683 37.8431C26.3019 37.524 26.05 37.2553 25.7309 37.2385ZM19.9207 18.901C19.9207 19.2369 20.1894 19.472 20.5084 19.4552C20.8107 19.4384 21.0458 19.2033 21.0458 18.8842C21.0458 18.5819 20.7939 18.3301 20.4916 18.3301C20.1726 18.3133 19.9207 18.5819 19.9207 18.901ZM30.9367 30.723C30.9534 32.5534 32.448 34.048 34.2784 34.0647C36.1424 34.0647 37.6369 32.5702 37.6369 30.7062C37.6369 28.859 36.1424 27.3645 34.2952 27.3645C32.448 27.3645 30.9199 28.8926 30.9367 30.723ZM36.495 30.7062C36.495 31.9321 35.5042 32.9228 34.2784 32.9228C33.0693 32.9228 32.0786 31.9321 32.0786 30.723C32.0786 29.5139 33.0861 28.4896 34.2952 28.5064C35.5042 28.5232 36.4782 29.4972 36.495 30.7062ZM34.2784 19.5223C32.448 19.5223 30.9367 21.0337 30.9367 22.8641C30.9199 24.6945 32.4144 26.2058 34.2616 26.2226C36.1256 26.2394 37.6369 24.7616 37.6369 22.8977C37.6369 21.0337 36.1256 19.5223 34.2784 19.5223ZM34.2784 25.0807C33.0693 25.0807 32.0786 24.0899 32.0786 22.8977C32.0618 21.6886 33.0861 20.6642 34.2952 20.6642C35.5042 20.6642 36.4782 21.655 36.495 22.8641C36.495 24.0899 35.5042 25.0807 34.2784 25.0807ZM6.7049 22.3099C6.38585 22.2931 6.11716 22.5618 6.11716 22.8809C6.11716 23.1831 6.36905 23.435 6.67132 23.4518C6.99038 23.4686 7.25906 23.1999 7.25906 22.8809C7.25906 22.5618 7.00717 22.3267 6.7049 22.3099ZM34.2616 31.294C34.5807 31.3108 34.8493 31.0589 34.8661 30.7398C34.8661 30.4375 34.5974 30.1521 34.2952 30.1521C33.9929 30.1521 33.741 30.404 33.741 30.7062C33.7074 31.0253 33.9425 31.2772 34.2616 31.294ZM34.312 22.3099C34.0097 22.3099 33.741 22.545 33.741 22.8473C33.7242 23.1663 33.9929 23.435 34.312 23.4518C34.6142 23.4518 34.8661 23.2167 34.8829 22.9144C34.8829 22.5954 34.631 22.3267 34.312 22.3099Z" fill="#6C6C6C"/>
<path d="M39.1986 1.01687C39.0475 1.08404 38.8796 1.11763 38.7956 1.28555C38.5773 1.70537 38.2079 1.89009 37.788 2.04122C37.2507 2.24273 36.6965 2.39387 36.1424 2.49462C33.8922 2.94802 31.6084 3.11595 29.3078 3.26708C27.5278 3.38463 25.7309 3.43501 23.9509 3.46859C21.3145 3.50218 18.678 3.53576 16.0416 3.43501C14.6142 3.36784 13.1701 3.35105 11.7427 3.26708C9.99626 3.18312 8.26662 3.03199 6.55377 2.79689C5.41187 2.64576 4.26997 2.44424 3.17845 2.04122C2.77543 1.89009 2.3892 1.68858 2.1709 1.28555C2.08693 1.11763 1.91901 1.08404 1.76787 1.01687H1.39844C0.978622 1.35272 0.911451 1.60461 1.16334 2.0916C1.28089 2.3267 1.46561 2.49462 1.66712 2.64576C2.00297 2.89764 2.37241 3.09916 2.77543 3.2167C3.11128 3.30067 3.16166 3.48539 3.14487 3.78765C3.12808 5.43333 3.14487 7.07901 3.14487 8.72468C3.14487 8.99336 3.21204 9.21167 3.44714 9.32922C3.68223 9.44676 3.91733 9.39639 4.11884 9.24525C4.47149 8.99336 4.84092 8.77506 5.17678 8.50638C5.39508 8.33845 5.49584 8.38883 5.64697 8.57355C6.13396 9.22846 6.63773 9.84979 7.14151 10.5047C7.30944 10.723 7.54454 10.8238 7.81322 10.7398C8.09869 10.6558 8.19945 10.4375 8.21624 10.1521C8.21624 10.0513 8.21624 9.95054 8.21624 9.84979C8.21624 8.10336 8.21624 6.35692 8.21624 4.5937C8.21624 4.32502 8.26662 4.22426 8.55209 4.27464C8.93832 4.34181 9.32455 4.37539 9.72758 4.39219C9.94588 4.40898 10.0466 4.47615 10.1138 4.71125C10.5504 6.22258 11.0206 7.73392 11.474 9.24525C11.7259 10.1017 11.9946 10.9581 12.2465 11.8313C12.3304 12.1168 12.4816 12.3351 12.8174 12.3519C13.1533 12.3519 13.3212 12.1672 13.4052 11.8649C13.422 11.8145 13.4387 11.7641 13.4555 11.7138C14.0937 9.49714 14.7822 7.26372 15.4539 5.01351C15.5378 4.74483 15.6554 4.66087 15.9241 4.67766C16.2599 4.71125 16.6125 4.72804 16.9484 4.71125C17.2171 4.69445 17.301 4.77842 17.301 5.06389C17.2843 6.79353 17.2843 8.53996 17.301 10.2696C17.301 10.9077 17.7377 11.1596 18.2918 10.8406C18.9299 10.4711 19.568 10.1185 20.1894 9.73224C20.4077 9.5979 20.5588 9.5979 20.7771 9.73224C21.432 10.1353 22.1037 10.5215 22.7754 10.9077C23.212 11.1596 23.6319 10.9077 23.6654 10.4207C23.6822 10.32 23.6654 10.2192 23.6654 10.1185C23.6654 8.43921 23.6654 6.74315 23.6654 5.06389C23.6654 4.812 23.7158 4.72804 23.9677 4.74483C24.3372 4.76162 24.7066 4.74483 25.076 4.71125C25.3615 4.67766 25.4455 4.79521 25.5126 5.03031C26.1843 7.26372 26.8728 9.49714 27.5613 11.7306C27.6621 12.0664 27.7628 12.3687 28.1995 12.3687C28.6193 12.3687 28.72 12.0496 28.8208 11.7138C29.5093 9.39639 30.2146 7.06221 30.9031 4.74483C30.9702 4.52653 31.0542 4.42577 31.2725 4.42577C31.6587 4.40898 32.0282 4.37539 32.4144 4.32502C32.7167 4.27464 32.8006 4.3586 32.8006 4.67766C32.7838 6.49126 32.8006 8.30487 32.8006 10.1185C32.8006 10.4207 32.8678 10.6894 33.1869 10.7734C33.4891 10.8741 33.7242 10.723 33.9089 10.4879C34.3456 9.90017 34.8325 9.34601 35.2524 8.74148C35.4707 8.42242 35.6386 8.33845 35.9409 8.62393C36.1927 8.85902 36.495 9.01016 36.7805 9.21167C37.0156 9.3796 37.2675 9.51394 37.5529 9.3628C37.8384 9.21167 37.872 8.94299 37.872 8.64072C37.872 6.99504 37.872 5.34937 37.8552 3.70369C37.8552 3.46859 37.9224 3.35105 38.1575 3.26708C38.9131 2.9984 39.6184 2.64576 39.9879 1.87329V1.4031C39.8535 1.26876 39.736 1.15121 39.6016 1.01687H39.1986ZM7.05755 8.42242C7.02396 8.42242 7.00717 8.43921 6.97359 8.43921C6.67132 8.05298 6.36905 7.66675 6.06678 7.28052C5.76452 6.91108 5.51263 6.87749 5.1264 7.14618C4.85772 7.3309 4.58903 7.51561 4.28677 7.71713V3.6869C5.14319 3.87162 6.01641 4.02275 6.88962 4.12351C7.02396 4.1403 7.05755 4.20747 7.05755 4.32502C7.05755 5.70201 7.05755 7.06221 7.05755 8.42242ZM12.8342 9.71545C12.8174 9.71545 12.7838 9.71545 12.767 9.71545C12.2465 8.0026 11.7427 6.28975 11.2221 4.52653C12.2968 4.57691 13.3212 4.62728 14.3959 4.67766C13.8586 6.37372 13.338 8.03619 12.8342 9.71545ZM22.5236 9.42997C21.9862 9.11091 21.4824 8.85902 21.0122 8.53996C20.626 8.28807 20.3069 8.30487 19.9375 8.53996C19.4673 8.84223 18.9803 9.11091 18.4429 9.42997C18.4429 7.88505 18.4429 6.42409 18.4429 4.94634C18.4429 4.77842 18.4765 4.72804 18.6612 4.72804C19.8871 4.72804 21.113 4.72804 22.3388 4.72804C22.49 4.72804 22.5403 4.77842 22.5403 4.92955C22.5236 6.4073 22.5236 7.88505 22.5236 9.42997ZM28.1827 9.833C27.6285 8.05298 27.1247 6.37372 26.5874 4.67766C27.6621 4.62728 28.6864 4.57691 29.7612 4.52653C29.2406 6.27296 28.7368 7.98581 28.1827 9.833ZM36.6797 7.73392C36.3607 7.51561 36.092 7.3141 35.8065 7.12938C35.4539 6.89429 35.1852 6.94467 34.9165 7.26373C34.5974 7.64996 34.2952 8.05298 33.9929 8.43921C33.8922 8.38883 33.9257 8.32166 33.9257 8.27128C33.9257 6.99504 33.9257 5.7188 33.9257 4.44257C33.9257 4.22426 33.9761 4.1403 34.2112 4.10671C35.034 4.00596 35.8569 3.87162 36.6965 3.6869V7.73392H36.6797ZM37.7209 17.2385C35.3699 17.2721 33.0357 17.2889 30.6848 17.2385C29.4421 17.205 28.5857 18.011 28.5857 19.3208C28.6193 25.9203 28.6025 32.503 28.6025 39.1025C28.6025 39.1865 28.6025 39.2872 28.6025 39.3712C28.6193 39.7742 28.8208 39.9757 29.2238 39.9925C29.5261 40.0093 29.8283 39.9925 30.1306 39.9925C33.1533 39.9925 36.1592 39.9925 39.1818 39.9925C39.4841 39.9925 39.7696 39.9925 39.8871 39.6231C39.8871 37.4736 39.8871 35.3242 39.8871 33.1747C39.7864 32.8389 39.5177 32.7717 39.2322 32.8389C38.9467 32.9061 38.8124 33.1076 38.8124 33.393C38.8124 33.88 38.7956 34.3502 38.8124 34.8372C38.8292 35.1227 38.762 35.1898 38.4597 35.1898C35.6722 35.1731 32.8846 35.1731 30.097 35.1898C29.8115 35.1898 29.7276 35.1227 29.7276 34.8204C29.7444 29.6315 29.7276 24.4594 29.7276 19.2704C29.7276 18.5819 29.9123 18.3972 30.6008 18.3972C33.0357 18.3972 35.4707 18.3972 37.9056 18.3972C38.6277 18.3972 38.7956 18.5819 38.7956 19.304C38.7956 22.9984 38.7956 26.7096 38.7956 30.404C38.7956 30.5215 38.7956 30.6391 38.7956 30.7398C38.8124 31.0253 38.9635 31.2268 39.2322 31.2772C39.5177 31.3275 39.7528 31.2436 39.8535 30.9413C39.8535 26.9783 39.8535 23.032 39.8535 19.0689C39.8535 18.9514 39.8199 18.8338 39.9207 18.7499V18.6659C39.6016 17.5912 38.8292 17.2217 37.7209 17.2385ZM30.0802 36.315C31.4908 36.3317 32.9014 36.315 34.2952 36.315C35.7058 36.315 37.1163 36.315 38.5101 36.315C38.7452 36.315 38.8292 36.3653 38.8292 36.6172C38.8124 37.2553 38.8124 37.9103 38.8292 38.5484C38.8292 38.7499 38.7788 38.8171 38.5605 38.8171C35.7058 38.8171 32.851 38.8171 30.0131 38.8171C29.778 38.8171 29.7612 38.7163 29.7612 38.5316C29.778 37.8935 29.778 37.2721 29.7612 36.634C29.7444 36.3821 29.8115 36.2982 30.0802 36.315ZM39.9207 19.1529C39.9207 22.948 39.9207 26.7264 39.9207 30.5215C39.9207 30.6558 39.9543 30.807 39.8871 30.9413C39.9039 30.9245 39.9375 30.9245 39.9543 30.9245V18.7499C39.8871 18.8674 39.9207 19.0186 39.9207 19.1529ZM39.9207 33.7625C39.9207 35.5761 39.9207 37.3729 39.9207 39.1865C39.9207 39.3208 39.9543 39.472 39.8871 39.6063C39.9039 39.5895 39.9375 39.5895 39.9543 39.5895V33.1915C39.9375 33.1747 39.9039 33.1747 39.8871 33.1579C39.9543 33.3595 39.9207 33.561 39.9207 33.7625ZM39.5849 1.01687C39.7864 1.06725 39.9207 1.1848 39.9711 1.4031C40.0382 1.08404 39.9039 0.949701 39.5849 1.01687ZM10.3657 17.2385C7.91397 17.2721 5.47904 17.2553 3.02732 17.2553C1.7175 17.2385 1.01221 17.9438 1.01221 19.2369C1.01221 22.5282 1.01221 25.8364 1.01221 29.1277C1.01221 32.4694 1.01221 35.828 1.01221 39.1697C1.01221 39.8078 1.18013 39.9757 1.83505 39.9757C5.07602 39.9757 8.3002 39.9757 11.5412 39.9757C12.2297 39.9757 12.3808 39.8246 12.3808 39.1193C12.3808 33.8632 12.3808 28.5904 12.3808 23.3343C12.3808 23.2167 12.3808 23.0992 12.364 22.9984C12.3304 22.6961 12.1457 22.545 11.877 22.5114C11.5916 22.4778 11.39 22.6122 11.2893 22.8809C11.2221 23.032 11.2389 23.1999 11.2389 23.3678C11.2389 27.1966 11.2389 31.0253 11.2389 34.854C11.2389 35.0555 11.2557 35.1898 10.9534 35.1898C8.11548 35.1731 5.27753 35.1731 2.43958 35.1898C2.22128 35.1898 2.1709 35.1395 2.1709 34.9212C2.1709 29.6651 2.1709 24.3922 2.1709 19.1361C2.1709 18.6491 2.40599 18.3972 2.89298 18.3972C5.44546 18.3972 7.99794 18.3972 10.5336 18.3972C11.0038 18.3972 11.2221 18.6323 11.2389 19.1025C11.2389 19.5391 11.2221 19.9925 11.2557 20.4291C11.2725 20.7818 11.5412 21.0001 11.8602 20.9833C12.1625 20.9665 12.3808 20.7482 12.3976 20.4123C12.4144 20.0261 12.3808 19.6567 12.4144 19.2704C12.4648 18.011 11.5412 17.2217 10.3657 17.2385ZM2.42279 36.315C5.26074 36.315 8.09869 36.315 10.9366 36.315C11.1717 36.315 11.2221 36.3821 11.2221 36.6172C11.2053 37.2553 11.2053 37.9103 11.2221 38.5484C11.2221 38.8003 11.1549 38.8338 10.9199 38.8338C9.49248 38.8171 8.0819 38.8338 6.65453 38.8338C5.26074 38.8338 3.86695 38.8171 2.47316 38.8338C2.18769 38.8338 2.12052 38.7499 2.12052 38.4812C2.13731 37.8431 2.13731 37.2218 2.12052 36.5836C2.13731 36.3653 2.22128 36.315 2.42279 36.315ZM25.8653 19.9422C23.5143 20.6642 21.1466 21.3695 18.7956 22.0748C18.2582 22.2427 18.1575 22.3603 18.1575 22.9312C18.1575 26.0715 18.1575 29.2117 18.1575 32.3687V32.8053C17.9895 32.7213 17.872 32.6542 17.7544 32.6038C16.7637 32.1504 15.605 32.3519 14.8325 33.0908C14.0433 33.8464 13.7914 34.9883 14.1944 35.9959C14.5806 36.9867 15.5882 37.6584 16.6461 37.6584C18.1071 37.6584 19.2826 36.4997 19.2826 35.0219C19.2994 32.3015 19.2826 29.5643 19.2826 26.8439C19.2826 26.1386 19.2826 26.1386 19.9711 25.9371C20.6764 25.7188 21.3817 25.5173 22.0702 25.299C22.4396 25.1814 22.6075 24.8792 22.5068 24.5769C22.406 24.2746 22.1037 24.1235 21.7343 24.2075C21.6167 24.2411 21.4992 24.2746 21.3649 24.325C20.6764 24.5265 19.9711 24.7448 19.249 24.9631C19.249 24.4258 19.2658 23.922 19.249 23.435C19.2322 23.1831 19.333 23.0824 19.5681 23.0152C20.8779 22.629 22.1877 22.2259 23.4975 21.8397C24.2028 21.6214 24.9081 21.4031 25.6638 21.1848C25.6638 21.7558 25.6638 22.2931 25.6638 22.8305C25.6638 23.0152 25.5966 23.0656 25.4287 23.116C25.076 23.2167 24.7234 23.3175 24.3707 23.435C23.9845 23.5694 23.7998 23.8548 23.9005 24.1739C24.0013 24.493 24.2868 24.6273 24.673 24.5265C24.9921 24.4426 25.2943 24.3418 25.6134 24.2579V30.5383C25.4623 30.4711 25.3615 30.404 25.244 30.3536C24.1692 29.8498 22.9266 30.1185 22.1373 31.0253C21.3817 31.8817 21.2809 33.1579 21.8854 34.1319C22.5068 35.1395 23.7158 35.6265 24.8409 35.3074C25.9492 35.0051 26.7721 33.9976 26.7721 32.8221C26.7889 28.7583 26.7721 24.7113 26.7721 20.6474C26.8225 19.9422 26.537 19.7406 25.8653 19.9422ZM16.6125 36.55C15.7897 36.5333 15.1348 35.8616 15.1348 35.0387C15.1348 34.2159 15.8065 33.5442 16.6293 33.5274C17.469 33.5106 18.1407 34.1991 18.1407 35.0387C18.1407 35.8783 17.4522 36.55 16.6125 36.55ZM24.1524 34.2663C23.3296 34.2663 22.6747 33.5778 22.6579 32.7549C22.6579 31.9153 23.3464 31.2268 24.186 31.2436C25.0089 31.2604 25.6638 31.9321 25.6638 32.7549C25.6806 33.5946 24.9921 34.2663 24.1524 34.2663ZM6.7049 19.5223C4.87451 19.5055 3.36317 21.0001 3.34638 22.8473C3.32959 24.7113 4.82413 26.2226 6.67132 26.2226C8.51851 26.2226 10.0466 24.7113 10.0298 22.8641C10.0466 21.0337 8.5353 19.5391 6.7049 19.5223ZM6.68811 25.0807C5.46225 25.0807 4.48828 24.1067 4.48828 22.8977C4.47149 21.6718 5.46225 20.6642 6.68811 20.6642C7.89718 20.6642 8.92153 21.6886 8.90474 22.8977C8.88794 24.1067 7.91397 25.0807 6.68811 25.0807ZM6.7049 34.0647C6.92321 34.0647 7.14151 34.048 7.34302 34.0144C9.10625 33.6617 10.2314 32.0496 9.99626 30.2528C9.77795 28.5736 8.23303 27.2805 6.57056 27.3813C4.72338 27.4988 3.36317 28.8926 3.34638 30.8741C3.32959 31.2436 3.46393 31.7642 3.71582 32.2511C3.9845 32.7885 4.28677 32.9732 4.63941 32.7885C4.99206 32.6206 5.02564 32.2847 4.74017 31.7474C4.15243 30.6223 4.63941 29.2285 5.7981 28.7079C6.95679 28.1873 8.33379 28.7751 8.7704 29.9506C9.207 31.1428 8.55209 32.4527 7.32623 32.8389C7.09113 32.9061 6.85604 32.9061 6.62094 32.9564C6.30188 33.0236 6.13396 33.2251 6.13396 33.5274C6.11716 33.8129 6.36905 34.0647 6.7049 34.0647ZM36.3439 15.5089C36.579 15.4249 36.6965 15.2402 36.6965 14.9883C36.6965 14.9547 36.6965 14.9044 36.6797 14.8708C36.3607 14.1151 36.0248 13.3762 35.605 12.6709C35.4539 12.4359 35.1684 12.4023 34.9333 12.5366C34.6814 12.6709 34.5303 12.906 34.6478 13.1747C34.9669 13.9136 35.3195 14.6357 35.689 15.3578C35.8233 15.5593 36.092 15.6097 36.3439 15.5089ZM3.5311 14.9044C3.88374 14.367 4.2196 13.8128 4.57224 13.2755C4.65621 13.1579 4.70658 13.0404 4.72338 12.8725C4.68979 12.6374 4.58903 12.4359 4.32035 12.3351C4.03488 12.2343 3.81657 12.3351 3.66544 12.5702C3.296 13.1411 2.92657 13.7121 2.55713 14.2998C2.33882 14.6525 2.3892 14.9883 2.65788 15.173C2.97694 15.3578 3.296 15.257 3.5311 14.9044ZM22.7251 15.0723C22.7251 14.938 22.6243 14.77 22.4564 14.6693C21.8183 14.2998 21.1969 13.9304 20.542 13.5777C20.2565 13.4266 19.9375 13.5274 19.7864 13.7961C19.6352 14.0815 19.6856 14.367 19.9543 14.5349C20.5924 14.9212 21.2305 15.3074 21.8854 15.66C22.3052 15.8615 22.7251 15.5761 22.7251 15.0723ZM15.9073 19.0018C16.2767 18.5316 16.6461 18.0782 16.982 17.5912C17.1667 17.3225 17.0827 17.0538 16.8309 16.8523C16.5958 16.6676 16.3103 16.6844 16.1088 16.9027C15.7225 17.3561 15.3531 17.8263 15.034 18.3133C14.7989 18.6659 15.0844 19.1529 15.521 19.1697C15.6554 19.1697 15.8233 19.1361 15.9073 19.0018ZM6.7049 31.294C7.00717 31.294 7.25906 31.0421 7.25906 30.7398C7.25906 30.4207 6.99038 30.1521 6.67132 30.1689C6.36905 30.1856 6.11716 30.4375 6.11716 30.7398C6.11716 31.0421 6.38585 31.3108 6.7049 31.294ZM29.3749 15.2066C29.3581 14.9044 29.0727 14.6357 28.7704 14.6525C28.4681 14.6693 28.233 14.938 28.2498 15.2402C28.2666 15.5593 28.5185 15.7944 28.8544 15.7776C29.1398 15.7608 29.3917 15.5089 29.3749 15.2066ZM10.1306 14.7532C10.1306 14.4678 9.86192 14.1991 9.57644 14.1823C9.25738 14.1655 9.00549 14.4342 9.00549 14.7532C9.00549 15.0723 9.24059 15.3074 9.55965 15.3074C9.86192 15.341 10.1306 15.0723 10.1306 14.7532ZM25.7309 37.2385C25.4455 37.2218 25.16 37.4736 25.1432 37.7759C25.1264 38.095 25.3783 38.3637 25.6974 38.3804C26.0164 38.3804 26.2515 38.1621 26.2683 37.8431C26.3019 37.524 26.05 37.2553 25.7309 37.2385ZM19.9207 18.901C19.9207 19.2369 20.1894 19.472 20.5084 19.4552C20.8107 19.4384 21.0458 19.2033 21.0458 18.8842C21.0458 18.5819 20.7939 18.3301 20.4916 18.3301C20.1726 18.3133 19.9207 18.5819 19.9207 18.901ZM30.9367 30.723C30.9534 32.5534 32.448 34.048 34.2784 34.0647C36.1424 34.0647 37.6369 32.5702 37.6369 30.7062C37.6369 28.859 36.1424 27.3645 34.2952 27.3645C32.448 27.3645 30.9199 28.8926 30.9367 30.723ZM36.495 30.7062C36.495 31.9321 35.5042 32.9228 34.2784 32.9228C33.0693 32.9228 32.0786 31.9321 32.0786 30.723C32.0786 29.5139 33.0861 28.4896 34.2952 28.5064C35.5042 28.5232 36.4782 29.4972 36.495 30.7062ZM34.2784 19.5223C32.448 19.5223 30.9367 21.0337 30.9367 22.8641C30.9199 24.6945 32.4144 26.2058 34.2616 26.2226C36.1256 26.2394 37.6369 24.7616 37.6369 22.8977C37.6369 21.0337 36.1256 19.5223 34.2784 19.5223ZM34.2784 25.0807C33.0693 25.0807 32.0786 24.0899 32.0786 22.8977C32.0618 21.6886 33.0861 20.6642 34.2952 20.6642C35.5042 20.6642 36.4782 21.655 36.495 22.8641C36.495 24.0899 35.5042 25.0807 34.2784 25.0807ZM6.7049 22.3099C6.38585 22.2931 6.11716 22.5618 6.11716 22.8809C6.11716 23.1831 6.36905 23.435 6.67132 23.4518C6.99038 23.4686 7.25906 23.1999 7.25906 22.8809C7.25906 22.5618 7.00717 22.3267 6.7049 22.3099ZM34.2616 31.294C34.5807 31.3108 34.8493 31.0589 34.8661 30.7398C34.8661 30.4375 34.5974 30.1521 34.2952 30.1521C33.9929 30.1521 33.741 30.404 33.741 30.7062C33.7074 31.0253 33.9425 31.2772 34.2616 31.294ZM34.312 22.3099C34.0097 22.3099 33.741 22.545 33.741 22.8473C33.7242 23.1663 33.9929 23.435 34.312 23.4518C34.6142 23.4518 34.8661 23.2167 34.8829 22.9144C34.8829 22.5954 34.631 22.3267 34.312 22.3099Z" stroke="#6C6C6C" stroke-width="0.6" mask="url(#path-1-outside-1_278_1999)"/>
</svg>
