<svg width="35" height="39" viewBox="0 0 35 39" fill="none" xmlns="http://www.w3.org/2000/svg">
<path d="M34.0686 37.8392C33.8349 33.6606 33.6271 29.5079 33.4194 25.3293C33.2116 21.0991 33.0039 16.869 32.7961 12.6388C32.7961 12.484 32.7442 12.3551 32.6922 12.2519C32.043 11.1686 31.3938 10.0852 30.7186 9.0019C30.5628 8.74396 30.355 8.64079 30.0434 8.64079C29.7058 8.64079 29.3682 8.64079 28.9786 8.64079C29.1085 8.04753 29.2383 7.48007 29.3682 6.91261C29.524 6.21618 29.3941 5.98404 28.7189 5.82928C26.9271 5.41658 25.1611 4.97809 23.3693 4.59118C23.0836 4.5396 23.0057 4.41063 22.9018 4.15269C22.2266 1.98602 20.7723 0.618961 18.5649 0.180469C16.4095 -0.232229 14.5657 0.464199 13.1373 2.14079C12.8776 2.42452 12.6439 2.55349 12.2804 2.57928C10.047 2.83722 7.81363 3.09515 5.58026 3.35309C4.957 3.43047 4.77521 3.68841 4.85312 4.30745C5.00894 5.64872 5.16475 6.9642 5.34654 8.30547C5.37251 8.56341 5.32057 8.69238 5.03491 8.64079C4.67134 8.5892 4.41164 8.76976 4.22986 9.10507C3.60659 10.1368 2.98333 11.1686 2.36007 12.1745C2.28216 12.3293 2.23022 12.4582 2.20425 12.6388C2.0744 15.9404 1.91859 19.242 1.7368 22.5178C1.47711 27.6765 1.19145 32.8352 0.931753 37.9682C0.905784 38.3809 1.00966 38.7162 1.37323 38.9225H33.6271C34.0946 38.6904 34.0946 38.2777 34.0686 37.8392ZM28.6151 10.1626C28.641 10.0079 28.7189 9.95626 28.9007 9.93047C29.472 9.87888 29.9135 9.98206 30.1472 10.6011C30.329 11.0396 30.6407 11.4523 30.9263 11.9166H28.2255C28.3554 11.3233 28.4852 10.7301 28.6151 10.1626ZM27.7581 6.9642C27.9399 7.01579 27.9918 7.06737 27.9399 7.24793C27.5763 8.74396 27.2387 10.2142 26.9011 11.7102C26.8751 11.865 26.7972 11.9424 26.6154 11.9424C25.4728 11.9424 24.3561 11.9424 23.2134 11.9424C22.9797 11.9424 22.9537 11.8392 22.9018 11.6586C22.5382 10.1626 22.1747 8.69237 21.8371 7.22214C21.6553 6.49991 21.4216 6.34515 20.6684 6.52571C20.4347 6.57729 20.201 6.62888 19.8894 6.70626C19.9932 6.24198 20.0971 5.82928 20.175 5.41658C20.201 5.26182 20.3308 5.28761 20.4347 5.31341C22.9018 5.82928 25.3429 6.39674 27.7581 6.9642ZM21.6293 11.9166H15.6304C14.4098 11.9166 13.2152 11.9166 11.9947 11.9166C11.735 11.9166 11.6571 11.8392 11.6051 11.6071C11.5272 11.1944 11.4234 10.7817 11.3195 10.3948C11.2416 10.1626 11.3195 10.0852 11.5532 10.0336C13.6827 9.54357 15.7862 9.02769 17.9157 8.51182C18.7207 8.30547 19.5518 8.12491 20.3568 7.91857C20.5386 7.86698 20.6684 7.84118 20.7204 8.09912C21.006 9.36301 21.3177 10.6011 21.6293 11.9166ZM21.4995 4.15269C21.006 4.04952 20.5646 3.94634 20.1231 3.84317C19.4739 3.68841 19.2142 3.84317 19.0583 4.5138C18.8766 5.28761 18.6948 6.03563 18.513 6.80944C18.461 7.01579 18.0455 7.24793 17.8638 7.19634C17.7339 7.14476 17.7599 7.04158 17.7599 6.93841C17.6041 5.59714 17.4482 4.25587 17.2924 2.9146C17.2145 2.29555 16.9808 2.0892 16.3316 2.14079C15.8901 2.19237 15.4486 2.24396 15.0071 2.29555C16.9548 0.593167 20.4607 1.36698 21.4995 4.15269ZM6.59307 4.56539C9.60551 4.23007 12.6439 3.86896 15.6564 3.50785C15.968 3.48206 16.0459 3.55944 16.0719 3.84317C16.1757 4.95229 16.3056 6.06142 16.4614 7.14476C16.5134 7.48007 16.3575 7.53166 16.1238 7.58325C14.228 8.02174 12.3323 8.48603 10.4625 8.92452C9.89117 9.05349 9.73536 9.33722 9.8652 9.87888C10.021 10.5495 10.1768 11.1944 10.3327 11.8908C9.29388 11.8908 8.28107 11.8908 7.26827 11.8908C7.03455 11.8908 7.08648 11.7102 7.08648 11.5813C6.93067 10.4721 6.80082 9.33722 6.67097 8.22809C6.54113 7.11896 6.41128 6.00983 6.28143 4.9265C6.2295 4.66856 6.33337 4.59118 6.59307 4.56539ZM5.19072 10.0594C5.24266 9.98206 5.2946 9.93047 5.39848 9.93047C5.52832 9.93047 5.52832 10.0336 5.52832 10.111C5.58026 10.6269 5.65817 11.1686 5.71011 11.6844C5.73608 11.8134 5.73608 11.8908 5.55429 11.8908C5.08685 11.8908 4.59343 11.8908 4.07404 11.8908C4.48955 11.2717 4.85312 10.6785 5.19072 10.0594ZM32.3287 37.6329C27.3685 37.6329 22.4084 37.6329 17.4742 37.6329C12.54 37.6329 7.60587 37.6329 2.69767 37.6329C2.38604 37.6329 2.28216 37.5813 2.30813 37.2459C2.51588 33.5575 2.69767 29.869 2.90542 26.1805C3.03527 23.5237 3.19108 20.8412 3.32093 18.1844C3.39884 16.6368 3.47675 15.0892 3.55466 13.5158C3.55466 13.3352 3.60659 13.2321 3.81435 13.2579C3.86629 13.2579 3.9442 13.2579 3.99613 13.2579C13.0075 13.2579 22.0188 13.2579 31.0562 13.2579C31.4197 13.2579 31.5236 13.3352 31.5236 13.6963C31.7054 17.4622 31.9132 21.2281 32.0949 24.994C32.2248 27.6765 32.3546 30.359 32.5105 33.0158C32.5884 34.4086 32.6403 35.8273 32.7442 37.2202C32.7182 37.5555 32.6663 37.6329 32.3287 37.6329ZM22.5123 14.5733C21.6033 14.5475 20.7723 15.1666 20.5386 16.0178C20.2789 16.9206 20.6944 17.8491 21.5514 18.2876C21.7332 18.3908 21.8111 18.4682 21.8111 18.6745C21.7851 19.0872 21.8111 19.4999 21.8111 19.9384C21.8111 20.2995 21.8111 20.6348 21.8111 20.9959C21.7072 23.1884 20.0192 24.9166 17.7858 25.0971C15.7083 25.2777 13.7087 23.7559 13.3191 21.6666C13.1373 20.6864 13.2672 19.7063 13.2152 18.7261C13.2152 18.5198 13.2672 18.3908 13.4749 18.2876C14.306 17.8491 14.6955 16.9463 14.4618 16.0436C14.2281 15.1666 13.423 14.5733 12.5141 14.5733C11.6051 14.5733 10.8261 15.1924 10.6183 16.0952C10.3846 16.9721 10.8001 17.8749 11.6311 18.2876C11.8389 18.3908 11.8908 18.5198 11.8908 18.7261C11.8908 19.6547 11.8389 20.5833 11.9427 21.486C12.2284 24.1428 14.5137 26.3094 17.1626 26.4126C20.0192 26.5416 22.4863 24.6844 23.0576 22.0019C23.2654 20.9444 23.1615 19.861 23.1875 18.7777C23.1875 18.5198 23.2394 18.3908 23.4991 18.2618C24.2782 17.8749 24.6677 16.9721 24.4859 16.1467C24.2003 15.2182 23.4472 14.5733 22.5123 14.5733ZM13.1114 16.8432C12.618 16.4563 12.4102 16.4563 11.9427 16.8432C11.7869 16.5336 11.8648 16.2499 12.1245 16.0436C12.3583 15.863 12.618 15.8372 12.8776 16.0178C13.1633 16.1725 13.2412 16.4563 13.1114 16.8432ZM23.0576 16.8174C22.5642 16.4563 22.3564 16.4563 21.863 16.7916C21.7592 16.4305 21.8371 16.1725 22.0968 15.992C22.3564 15.8114 22.6421 15.8372 22.8758 16.0436C23.1355 16.2499 23.2134 16.5079 23.0576 16.8174Z" fill="#6C6C6C"/>
<path d="M34.0686 37.8392C33.8349 33.6606 33.6271 29.5079 33.4194 25.3293C33.2116 21.0991 33.0039 16.869 32.7961 12.6388C32.7961 12.484 32.7442 12.3551 32.6922 12.2519C32.043 11.1686 31.3938 10.0852 30.7186 9.0019C30.5628 8.74396 30.355 8.64079 30.0434 8.64079C29.7058 8.64079 29.3682 8.64079 28.9786 8.64079C29.1085 8.04753 29.2383 7.48007 29.3682 6.91261C29.524 6.21618 29.3941 5.98404 28.7189 5.82928C26.9271 5.41658 25.1611 4.97809 23.3693 4.59118C23.0836 4.5396 23.0057 4.41063 22.9018 4.15269C22.2266 1.98602 20.7723 0.618961 18.5649 0.180469C16.4095 -0.232229 14.5657 0.464199 13.1373 2.14079C12.8776 2.42452 12.6439 2.55349 12.2804 2.57928C10.047 2.83722 7.81363 3.09515 5.58026 3.35309C4.957 3.43047 4.77521 3.68841 4.85312 4.30745C5.00894 5.64872 5.16475 6.9642 5.34654 8.30547C5.37251 8.56341 5.32057 8.69238 5.03491 8.64079C4.67134 8.5892 4.41164 8.76976 4.22986 9.10507C3.60659 10.1368 2.98333 11.1686 2.36007 12.1745C2.28216 12.3293 2.23022 12.4582 2.20425 12.6388C2.0744 15.9404 1.91859 19.242 1.7368 22.5178C1.47711 27.6765 1.19145 32.8352 0.931753 37.9682C0.905784 38.3809 1.00966 38.7162 1.37323 38.9225H33.6271C34.0946 38.6904 34.0946 38.2777 34.0686 37.8392ZM28.6151 10.1626C28.641 10.0079 28.7189 9.95626 28.9007 9.93047C29.472 9.87888 29.9135 9.98206 30.1472 10.6011C30.329 11.0396 30.6407 11.4523 30.9263 11.9166H28.2255C28.3554 11.3233 28.4852 10.7301 28.6151 10.1626ZM27.7581 6.9642C27.9399 7.01579 27.9918 7.06737 27.9399 7.24793C27.5763 8.74396 27.2387 10.2142 26.9011 11.7102C26.8751 11.865 26.7972 11.9424 26.6154 11.9424C25.4728 11.9424 24.3561 11.9424 23.2134 11.9424C22.9797 11.9424 22.9537 11.8392 22.9018 11.6586C22.5382 10.1626 22.1747 8.69237 21.8371 7.22214C21.6553 6.49991 21.4216 6.34515 20.6684 6.52571C20.4347 6.57729 20.201 6.62888 19.8894 6.70626C19.9932 6.24198 20.0971 5.82928 20.175 5.41658C20.201 5.26182 20.3308 5.28761 20.4347 5.31341C22.9018 5.82928 25.3429 6.39674 27.7581 6.9642ZM21.6293 11.9166H15.6304C14.4098 11.9166 13.2152 11.9166 11.9947 11.9166C11.735 11.9166 11.6571 11.8392 11.6051 11.6071C11.5272 11.1944 11.4234 10.7817 11.3195 10.3948C11.2416 10.1626 11.3195 10.0852 11.5532 10.0336C13.6827 9.54357 15.7862 9.02769 17.9157 8.51182C18.7207 8.30547 19.5518 8.12491 20.3568 7.91857C20.5386 7.86698 20.6684 7.84118 20.7204 8.09912C21.006 9.36301 21.3177 10.6011 21.6293 11.9166ZM21.4995 4.15269C21.006 4.04952 20.5646 3.94634 20.1231 3.84317C19.4739 3.68841 19.2142 3.84317 19.0583 4.5138C18.8766 5.28761 18.6948 6.03563 18.513 6.80944C18.461 7.01579 18.0455 7.24793 17.8638 7.19634C17.7339 7.14476 17.7599 7.04158 17.7599 6.93841C17.6041 5.59714 17.4482 4.25587 17.2924 2.9146C17.2145 2.29555 16.9808 2.0892 16.3316 2.14079C15.8901 2.19237 15.4486 2.24396 15.0071 2.29555C16.9548 0.593167 20.4607 1.36698 21.4995 4.15269ZM6.59307 4.56539C9.60551 4.23007 12.6439 3.86896 15.6564 3.50785C15.968 3.48206 16.0459 3.55944 16.0719 3.84317C16.1757 4.95229 16.3056 6.06142 16.4614 7.14476C16.5134 7.48007 16.3575 7.53166 16.1238 7.58325C14.228 8.02174 12.3323 8.48603 10.4625 8.92452C9.89117 9.05349 9.73536 9.33722 9.8652 9.87888C10.021 10.5495 10.1768 11.1944 10.3327 11.8908C9.29388 11.8908 8.28107 11.8908 7.26827 11.8908C7.03455 11.8908 7.08648 11.7102 7.08648 11.5813C6.93067 10.4721 6.80082 9.33722 6.67097 8.22809C6.54113 7.11896 6.41128 6.00983 6.28143 4.9265C6.2295 4.66856 6.33337 4.59118 6.59307 4.56539ZM5.19072 10.0594C5.24266 9.98206 5.2946 9.93047 5.39848 9.93047C5.52832 9.93047 5.52832 10.0336 5.52832 10.111C5.58026 10.6269 5.65817 11.1686 5.71011 11.6844C5.73608 11.8134 5.73608 11.8908 5.55429 11.8908C5.08685 11.8908 4.59343 11.8908 4.07404 11.8908C4.48955 11.2717 4.85312 10.6785 5.19072 10.0594ZM32.3287 37.6329C27.3685 37.6329 22.4084 37.6329 17.4742 37.6329C12.54 37.6329 7.60587 37.6329 2.69767 37.6329C2.38604 37.6329 2.28216 37.5813 2.30813 37.2459C2.51588 33.5575 2.69767 29.869 2.90542 26.1805C3.03527 23.5237 3.19108 20.8412 3.32093 18.1844C3.39884 16.6368 3.47675 15.0892 3.55466 13.5158C3.55466 13.3352 3.60659 13.2321 3.81435 13.2579C3.86629 13.2579 3.9442 13.2579 3.99613 13.2579C13.0075 13.2579 22.0188 13.2579 31.0562 13.2579C31.4197 13.2579 31.5236 13.3352 31.5236 13.6963C31.7054 17.4622 31.9132 21.2281 32.0949 24.994C32.2248 27.6765 32.3546 30.359 32.5105 33.0158C32.5884 34.4086 32.6403 35.8273 32.7442 37.2202C32.7182 37.5555 32.6663 37.6329 32.3287 37.6329ZM22.5123 14.5733C21.6033 14.5475 20.7723 15.1666 20.5386 16.0178C20.2789 16.9206 20.6944 17.8491 21.5514 18.2876C21.7332 18.3908 21.8111 18.4682 21.8111 18.6745C21.7851 19.0872 21.8111 19.4999 21.8111 19.9384C21.8111 20.2995 21.8111 20.6348 21.8111 20.9959C21.7072 23.1884 20.0192 24.9166 17.7858 25.0971C15.7083 25.2777 13.7087 23.7559 13.3191 21.6666C13.1373 20.6864 13.2672 19.7063 13.2152 18.7261C13.2152 18.5198 13.2672 18.3908 13.4749 18.2876C14.306 17.8491 14.6955 16.9463 14.4618 16.0436C14.2281 15.1666 13.423 14.5733 12.5141 14.5733C11.6051 14.5733 10.8261 15.1924 10.6183 16.0952C10.3846 16.9721 10.8001 17.8749 11.6311 18.2876C11.8389 18.3908 11.8908 18.5198 11.8908 18.7261C11.8908 19.6547 11.8389 20.5833 11.9427 21.486C12.2284 24.1428 14.5137 26.3094 17.1626 26.4126C20.0192 26.5416 22.4863 24.6844 23.0576 22.0019C23.2654 20.9444 23.1615 19.861 23.1875 18.7777C23.1875 18.5198 23.2394 18.3908 23.4991 18.2618C24.2782 17.8749 24.6677 16.9721 24.4859 16.1467C24.2003 15.2182 23.4472 14.5733 22.5123 14.5733ZM13.1114 16.8432C12.618 16.4563 12.4102 16.4563 11.9427 16.8432C11.7869 16.5336 11.8648 16.2499 12.1245 16.0436C12.3583 15.863 12.618 15.8372 12.8776 16.0178C13.1633 16.1725 13.2412 16.4563 13.1114 16.8432ZM23.0576 16.8174C22.5642 16.4563 22.3564 16.4563 21.863 16.7916C21.7592 16.4305 21.8371 16.1725 22.0968 15.992C22.3564 15.8114 22.6421 15.8372 22.8758 16.0436C23.1355 16.2499 23.2134 16.5079 23.0576 16.8174Z" stroke="#6C6C6C" stroke-width="0.8" stroke-miterlimit="10"/>
</svg>
