<svg width="39" height="37" viewBox="0 0 39 37" fill="none" xmlns="http://www.w3.org/2000/svg">
<path d="M37.8653 12.7584C35.6335 12.7584 33.4017 12.7584 31.1699 12.7584C30.8672 12.7584 30.8294 12.6845 30.8294 12.4261C30.8672 11.5399 30.8294 10.6907 30.8294 9.80451C30.8294 9.58297 30.8672 9.4722 31.132 9.43528C33.1369 9.1399 34.7256 7.33067 34.7635 5.37374C34.7635 4.8199 34.4987 4.52451 33.9313 4.52451C32.8343 4.52451 31.7373 4.52451 30.6403 4.52451C30.3755 4.52451 30.262 4.45067 30.1863 4.1922C29.9216 3.26913 29.6189 2.34605 29.3541 1.42297C29.2028 0.869128 28.9759 0.721436 28.3706 0.721436C26.5927 0.721436 24.8149 0.721436 23.037 0.721436C22.3939 0.721436 21.9778 1.27528 22.2426 1.7922C22.3939 2.08759 22.6587 2.19836 22.9992 2.19836C24.5501 2.19836 26.0632 2.19836 27.6141 2.19836C27.8789 2.19836 27.9924 2.2722 28.068 2.53067C28.3328 3.49067 28.6354 4.41374 28.938 5.33682C29.0894 5.85374 29.3163 6.00143 29.8459 6.00143C30.8294 6.00143 31.8129 6.00143 32.8343 6.00143C33.0991 6.00143 33.1369 6.03836 33.0234 6.29682C32.6073 7.33067 31.586 8.0322 30.4511 8.06913C29.9972 8.06913 29.5055 8.06913 29.0515 8.06913C22.3183 8.06913 15.585 8.06913 8.85172 8.06913C7.52776 8.06913 6.58208 7.51528 6.01467 6.37067C5.86336 6.07528 5.93901 6.00143 6.24163 6.00143C7.22514 6.03836 8.17083 6.00143 9.15434 6.00143C9.68392 6.00143 9.91089 5.85374 10.0622 5.33682C10.3648 4.37682 10.6674 3.45374 10.9322 2.49374C11.0079 2.2722 11.1214 2.19836 11.3483 2.19836C12.8992 2.19836 14.4123 2.19836 15.9633 2.19836C16.5307 2.19836 16.8711 1.9399 16.8711 1.49682C16.8711 1.01682 16.5307 0.758359 15.9633 0.758359C14.1854 0.758359 12.4075 0.758359 10.6296 0.758359C10.1 0.758359 9.87306 0.942974 9.68392 1.42297C9.3813 2.38297 9.07868 3.30605 8.81389 4.26605C8.73824 4.48759 8.66258 4.56144 8.39779 4.56144C7.3008 4.56144 6.20381 4.56144 5.10681 4.56144C4.50157 4.56144 4.19896 4.85682 4.23678 5.44759C4.27461 7.40451 5.86336 9.17682 7.83038 9.4722C8.09517 9.50913 8.133 9.6199 8.133 9.84143C8.133 10.7276 8.133 11.5768 8.133 12.463C8.133 12.7214 8.09517 12.7953 7.79256 12.7953C5.59857 12.7953 3.36675 12.7953 1.17277 12.7953C0.416221 12.7953 0.0757751 13.1276 0.15143 13.903C0.416221 16.0076 2.23193 17.7061 4.50157 17.743C5.14464 17.743 5.78771 17.743 6.43077 17.743C6.65773 17.743 6.69556 17.8168 6.69556 18.0014C6.69556 19.2937 6.69556 20.5861 6.69556 21.9153C6.69556 22.1368 6.61991 22.1737 6.43077 22.1737C6.01467 22.1737 5.59857 22.1737 5.18247 22.1737C4.65288 22.1737 4.42592 22.3214 4.27461 22.8384C3.44241 25.386 2.61021 27.9707 1.77801 30.5184C1.28625 32.0322 0.794495 33.583 0.302739 35.0968C0.0379478 35.9091 0.340567 36.3153 1.2106 36.3153C13.391 36.3153 25.5714 36.3153 37.7896 36.3153C38.2436 36.3153 38.584 36.1676 38.811 35.7984C38.811 35.6507 38.811 35.503 38.811 35.3553C38.3949 34.2476 38.0544 33.103 37.6762 31.9584C36.6926 28.9307 35.7091 25.8661 34.7256 22.8384C34.5365 22.2845 34.3474 22.1368 33.7799 22.1368C33.3638 22.1368 32.9856 22.1368 32.5695 22.1368C32.3803 22.1368 32.3047 22.0999 32.3047 21.8784C32.3047 20.5861 32.3047 19.2937 32.3047 17.9645C32.3047 17.7061 32.4182 17.7061 32.6073 17.7061C33.4017 17.7061 34.196 17.7799 35.0282 17.6691C36.9196 17.4107 38.3571 16.0445 38.7353 14.2353C38.7353 14.1614 38.7353 14.0876 38.811 14.0507C38.811 13.7922 38.811 13.5707 38.811 13.3122C38.584 12.8691 38.4327 12.7584 37.8653 12.7584ZM3.93416 34.8384C3.36675 34.8014 2.79934 34.8384 2.23193 34.8384C2.08062 34.8384 1.96714 34.8384 2.0428 34.6168C2.76152 32.4014 3.48024 30.1491 4.19896 27.8968C4.19896 27.8968 4.23678 27.8968 4.27461 27.8968C4.27461 28.4507 4.27461 29.0045 4.27461 29.5214C4.27461 31.183 4.27461 32.8445 4.27461 34.4691C4.27461 34.7645 4.19896 34.8384 3.93416 34.8384ZM34.7256 27.8968C34.7635 27.8968 34.7635 27.8968 34.8013 27.8968C35.52 30.186 36.2766 32.4753 37.0331 34.8384C36.2766 34.8384 35.5957 34.8384 34.8769 34.8384C34.6878 34.8384 34.7635 34.6907 34.7635 34.5799C34.7256 32.3645 34.7256 30.1122 34.7256 27.8968ZM26.5928 11.0968C26.5928 10.6537 26.5928 10.2107 26.5928 9.76759C26.5928 9.58297 26.6306 9.50913 26.8575 9.50913C27.5763 9.50913 28.295 9.50913 29.0515 9.50913C29.2407 9.50913 29.3163 9.54605 29.3163 9.76759C29.3163 10.6907 29.3163 11.5768 29.3163 12.4999C29.3163 12.6845 29.2785 12.7953 29.0515 12.7584C28.3328 12.7584 27.6141 12.7584 26.8575 12.7584C26.5927 12.7584 26.5928 12.6845 26.5928 12.463C26.5928 11.983 26.5928 11.5399 26.5928 11.0968ZM22.3561 9.76759C22.3561 9.58297 22.3939 9.50913 22.6209 9.50913C23.3396 9.50913 24.0583 9.50913 24.8149 9.50913C25.0797 9.50913 25.1175 9.58297 25.0797 9.80451C25.0797 10.2476 25.0797 10.7276 25.0797 11.1707C25.0797 11.6137 25.0418 12.0199 25.0797 12.463C25.0797 12.7214 25.004 12.7953 24.7392 12.7584C24.0583 12.7584 23.3396 12.7584 22.6587 12.7584C22.4317 12.7584 22.3183 12.7214 22.3561 12.463C22.3561 11.5768 22.3561 10.6537 22.3561 9.76759ZM18.3842 9.50913C19.1408 9.50913 19.8595 9.50913 20.616 9.50913C20.8052 9.50913 20.8808 9.58297 20.8808 9.76759C20.8808 10.2476 20.8808 10.6907 20.8808 11.1707C20.8808 11.6137 20.8808 12.0937 20.8808 12.5368C20.8808 12.7214 20.8052 12.7953 20.616 12.7953C19.8595 12.7953 19.1408 12.7953 18.3842 12.7953C18.1951 12.7953 18.1194 12.7214 18.1194 12.5368C18.1194 11.6137 18.1194 10.6907 18.1194 9.76759C18.1194 9.54605 18.1951 9.50913 18.3842 9.50913ZM14.1476 9.50913C14.9041 9.50913 15.6606 9.50913 16.4172 9.50913C16.6063 9.50913 16.6442 9.54605 16.6442 9.73067C16.6442 10.2107 16.6442 10.6537 16.6442 11.1337C16.6442 11.6137 16.6442 12.0568 16.6442 12.5368C16.6442 12.7214 16.6063 12.7584 16.4172 12.7584C15.6606 12.7584 14.9041 12.7584 14.1476 12.7584C13.9584 12.7584 13.9206 12.7214 13.9206 12.5368C13.9206 11.6137 13.9206 10.6907 13.9206 9.73067C13.9206 9.54605 13.9584 9.50913 14.1476 9.50913ZM9.91089 9.50913C10.6674 9.50913 11.424 9.50913 12.1805 9.50913C12.4075 9.50913 12.4075 9.6199 12.4075 9.76759C12.4075 10.2107 12.4075 10.6907 12.4075 11.1337C12.4075 11.6137 12.4075 12.0568 12.4075 12.5368C12.4075 12.7214 12.3697 12.7584 12.1805 12.7584C11.424 12.7584 10.6674 12.7584 9.91089 12.7584C9.72175 12.7584 9.68392 12.7214 9.68392 12.5368C9.68392 11.6137 9.68392 10.6907 9.68392 9.73067C9.68392 9.54605 9.72175 9.50913 9.91089 9.50913ZM22.9613 34.8384C21.8265 34.8384 20.6917 34.8384 19.519 34.8384C18.3464 34.8384 17.2116 34.8384 16.0389 34.8384C15.7741 34.8384 15.6985 34.8014 15.6985 34.543C15.6985 33.4353 15.6985 32.3276 15.6985 31.183C15.6985 29.1153 17.3629 27.4907 19.4434 27.4907C21.5239 27.4907 23.1883 29.1153 23.2261 31.183C23.2261 32.3276 23.2261 33.4353 23.2261 34.5799C23.2639 34.8014 23.1883 34.8384 22.9613 34.8384ZM32.8343 23.6137C33.1369 23.6137 33.2125 23.6507 33.2125 23.983C33.2125 27.4537 33.2125 30.9614 33.2125 34.4322C33.2125 34.7276 33.1747 34.8014 32.8343 34.8014C30.262 34.8014 27.6897 34.8014 25.1175 34.8014C24.8527 34.8014 24.777 34.7645 24.777 34.4691C24.8149 33.3614 24.777 32.2537 24.777 31.146C24.777 28.4507 22.7344 26.2353 20.0486 25.9768C17.3629 25.7184 14.9419 27.4537 14.3367 30.0384C14.261 30.4076 14.2232 30.7768 14.2232 31.146C14.2232 32.2537 14.2232 33.3614 14.2232 34.5061C14.2232 34.7276 14.1475 34.8014 13.9206 34.8014C11.3105 34.8014 8.70041 34.8014 6.09032 34.8014C5.82553 34.8014 5.78771 34.7276 5.78771 34.5061C5.78771 30.9614 5.78771 27.4537 5.78771 23.9091C5.78771 23.6137 5.90119 23.6137 6.12815 23.6137C10.5918 23.6137 15.0554 23.6137 19.5569 23.6137C23.9448 23.6507 28.4085 23.6507 32.8343 23.6137ZM8.17083 19.9214C8.17083 19.2937 8.17083 18.6291 8.17083 18.0014C8.17083 17.8168 8.20866 17.7061 8.43562 17.743C9.3813 17.743 10.327 17.743 11.2727 17.743C11.4618 17.743 11.5375 17.8168 11.4996 18.0014C11.4996 19.3307 11.4996 20.623 11.4996 21.9522C11.4996 22.1368 11.424 22.2107 11.2348 22.2107C10.2892 22.2107 9.34348 22.2107 8.39779 22.2107C8.17083 22.2107 8.133 22.1368 8.17083 21.9522C8.20866 21.2507 8.17083 20.5861 8.17083 19.9214ZM16.3415 21.8784C16.3415 22.063 16.3037 22.1737 16.0767 22.1368C15.1311 22.1368 14.2232 22.1368 13.2775 22.1368C13.0127 22.1368 13.0127 22.063 13.0127 21.8414C13.0127 21.2137 13.0127 20.5491 13.0127 19.9214C13.0127 19.2568 13.0127 18.6291 13.0127 17.9645C13.0127 17.7799 13.0506 17.7061 13.2775 17.7061C14.2232 17.7061 15.1311 17.7061 16.0767 17.7061C16.2659 17.7061 16.3415 17.743 16.3415 17.9645C16.3037 19.2937 16.3415 20.5861 16.3415 21.8784ZM21.1456 21.8784C21.1456 22.063 21.1078 22.1368 20.8808 22.1368C19.9351 22.1368 19.0273 22.1368 18.0816 22.1368C17.8168 22.1368 17.8168 22.0261 17.8168 21.8414C17.8168 21.1768 17.8168 20.5491 17.8168 19.8845C17.8168 19.2568 17.8168 18.5922 17.8168 17.9645C17.8168 17.7799 17.8546 17.7061 18.0816 17.7061C19.0273 17.7061 19.9351 17.7061 20.8808 17.7061C21.07 17.7061 21.1456 17.743 21.1456 17.9645C21.1456 19.2937 21.1456 20.5861 21.1456 21.8784ZM25.9875 19.9214C25.9875 20.5861 25.9875 21.2137 25.9875 21.8784C25.9875 22.0999 25.9497 22.1737 25.7227 22.1737C24.777 22.1737 23.8692 22.1737 22.9235 22.1737C22.6965 22.1737 22.6587 22.0999 22.6587 21.9153C22.6587 20.623 22.6587 19.3307 22.6587 18.0014C22.6587 17.7799 22.7344 17.743 22.9235 17.743C23.8692 17.743 24.777 17.743 25.7227 17.743C25.9497 17.743 25.9875 17.8168 25.9875 18.0014C25.9875 18.6661 25.9875 19.2937 25.9875 19.9214ZM27.4628 18.0014C27.4628 17.8168 27.5006 17.743 27.7276 17.743C28.6733 17.743 29.5811 17.743 30.5268 17.743C30.7916 17.743 30.7916 17.8168 30.7916 18.0384C30.7916 18.703 30.7916 19.3307 30.7916 19.9953C30.7916 20.623 30.7916 21.2507 30.7916 21.8784C30.7916 22.0999 30.7538 22.2107 30.489 22.1737C29.5811 22.1737 28.6733 22.1737 27.7276 22.1737C27.5384 22.1737 27.4628 22.1368 27.4628 21.9153C27.5006 20.623 27.5006 19.2937 27.4628 18.0014ZM37.0331 14.6045C36.5413 15.6384 35.6713 16.1922 34.5365 16.2661C34.423 16.2661 34.3474 16.2661 34.2339 16.2661C24.3988 16.2661 14.6015 16.2661 4.76637 16.2661C3.44241 16.2661 2.49673 15.7122 1.92932 14.5676C1.77801 14.2722 1.85366 14.1984 2.15628 14.1984C7.94386 14.1984 13.7314 14.1984 19.4812 14.1984C25.231 14.1984 30.9807 14.1984 36.7305 14.1984C37.2222 14.1984 37.2222 14.2353 37.0331 14.6045Z" fill="#6C6C6C" stroke="#6C6C6C" stroke-width="0.5" stroke-miterlimit="10"/>
</svg>
