<svg width="40" height="40" viewBox="0 0 40 40" fill="none" xmlns="http://www.w3.org/2000/svg">
<path fill-rule="evenodd" clip-rule="evenodd" d="M39.4999 20.0128C39.5255 30.6433 30.7665 39.4872 20.1534 39.4999C9.33577 39.5255 0.52563 30.8475 0.500056 20.1404C0.474483 9.31842 9.16954 0.525579 19.9361 0.500056C30.7154 0.474532 39.4744 9.21633 39.4999 20.0128ZM33.8991 30.4391C32.7867 29.3161 31.5719 28.3972 30.1781 27.7464C29.9991 27.6698 29.9608 27.5549 29.9608 27.3763C29.9693 26.5345 29.9665 25.6983 29.9636 24.8603C29.9622 24.4406 29.9608 24.0204 29.9608 23.5988C29.9608 23.4457 29.9991 23.3308 30.1014 23.216C32.5054 20.3701 32.825 17.1541 31.7254 13.7085C31.3545 12.5344 30.8431 11.4241 29.9863 10.5053C29.2191 9.70127 28.6565 9.70127 27.8765 10.4797C27.5824 10.786 27.3267 11.1306 27.0454 11.5517C26.7768 10.5946 26.5083 9.72679 26.1247 8.89728C25.7283 8.055 25.2552 7.26377 24.5775 6.62569C23.8614 5.94931 23.35 5.93655 22.6467 6.63845C21.5598 7.69767 20.9588 9.05042 20.4985 10.467C20.37 10.8774 20.2587 11.2992 20.1454 11.7287C20.0896 11.9402 20.0333 12.1538 19.9742 12.3685C19.9339 12.3327 19.8935 12.2984 19.8537 12.2646C19.78 12.2021 19.7082 12.1412 19.6418 12.075C19.1047 11.6155 18.5933 11.6155 18.0562 12.0877C17.532 12.5471 17.1356 13.1087 16.8415 13.734C15.5244 16.4522 15.1408 19.2088 16.3684 22.0802C16.6752 22.8076 17.0844 23.4584 17.6087 24.0455C17.7238 24.1731 17.8133 24.3007 17.8133 24.5049C17.8048 25.1941 17.8075 25.8889 17.8103 26.6184V26.6205C17.8118 26.9978 17.8133 27.3847 17.8133 27.7847C17.4808 27.4529 17.2123 27.1849 16.9565 26.9169C15.8825 25.7683 14.7188 24.7346 13.2356 24.1348C9.87263 22.7821 6.7015 23.1394 3.73495 25.2323C3.70298 25.2578 3.67102 25.2802 3.63905 25.3025C3.60708 25.3248 3.57511 25.3472 3.54315 25.3727C1.59954 20.4339 2.30282 11.8708 9.18215 6.38321C15.9592 0.959471 25.8818 1.44442 32.109 7.49348C38.4001 13.6191 39.1801 23.4712 33.8991 30.4391ZM14.6043 34.4699L14.6035 34.4708C14.1227 34.9727 13.6393 35.4773 13.1461 35.9775L13.3507 36.0796C16.2405 37.2537 19.2327 37.6621 22.3271 37.241C26.2015 36.705 29.5261 35.0459 32.3136 32.3022C32.4926 32.1107 32.5054 32.0214 32.3136 31.8172C28.4008 27.7845 21.9179 27.5293 17.775 31.3067C16.6737 32.3099 15.6439 33.3848 14.6043 34.4699ZM16.4452 29.5331C15.7631 30.2296 15.0682 30.9346 14.3664 31.6465L14.3654 31.6475C13.3573 32.6702 12.3353 33.707 11.3177 34.7527C11.1387 34.9441 11.0236 34.8931 10.8318 34.7782C8.05704 33.0299 5.93442 30.6945 4.42557 27.7848C4.26631 27.4791 4.40049 27.3726 4.5807 27.2295L4.60459 27.2105C7.30261 24.8623 11.4967 24.8368 14.2075 27.2105C14.7845 27.7066 15.2938 28.2705 15.7908 28.8208C16.0097 29.0632 16.2263 29.3029 16.4452 29.5331ZM23.5932 19.6168C21.3555 16.9113 21.3555 12.1129 23.5804 8.76935C25.8308 11.143 25.8309 17.4091 23.5932 19.6168ZM25.9331 20L25.9416 20.0246C26.2708 20.9724 26.5778 21.8562 27.199 22.5268C27.7872 23.1521 27.9406 23.8285 27.8767 24.6453C27.8255 25.2961 27.8511 25.947 27.8767 26.5978C27.8895 26.8786 27.8 26.9168 27.5442 26.853C26.7131 26.6489 25.8564 26.5468 24.9869 26.534C24.7055 26.534 24.6544 26.4319 24.6544 26.1767C24.6672 24.7601 24.6672 23.3436 24.6544 21.927C24.6544 21.7483 24.68 21.5952 24.8206 21.4548C25.2426 21.0464 25.575 20.5743 25.9331 20ZM28.9382 21.3399C27.0457 18.8386 27.327 15.176 28.9254 12.6237C30.4598 15.1122 30.8434 18.6472 28.9382 21.3399ZM19.8977 27.4784V24.4283C19.8977 24.3262 19.9105 24.2497 19.9872 24.1731C20.8695 23.2287 21.4193 22.0929 21.7774 20.804C22.2505 21.2762 22.6341 21.6718 22.5829 22.3992C22.5282 23.3378 22.5386 24.2829 22.549 25.2298C22.5532 25.609 22.5574 25.9886 22.5574 26.3681C22.5574 26.389 22.5579 26.4098 22.5584 26.4304C22.5623 26.5865 22.5659 26.7299 22.34 26.7637C21.5216 26.8914 20.7288 27.1721 19.8977 27.4784ZM18.8365 14.4613C20.2815 16.9499 20.4093 20.102 18.8493 22.1949C17.3788 20.4466 17.3661 16.9243 18.8365 14.4613Z" fill="#6C6C6C"/>
<path fill-rule="evenodd" clip-rule="evenodd" d="M23.5931 19.6165C21.3554 16.911 21.3554 12.1126 23.5803 8.76904C25.8308 11.1427 25.8308 17.4087 23.5931 19.6165ZM28.9381 21.3396C27.0456 18.8383 27.3269 15.1757 28.9253 12.6234C30.4597 15.1119 30.8433 18.6469 28.9381 21.3396ZM18.8365 14.461C20.2814 16.9496 20.4093 20.1017 18.8493 22.1946C17.3788 20.4463 17.366 16.924 18.8365 14.461Z" fill="#CFF09E"/>
</svg>
