<svg width="34" height="34" viewBox="0 0 34 34" fill="none" xmlns="http://www.w3.org/2000/svg">
<path d="M25.5645 11.6887C25.2852 10.9669 24.8825 10.3128 24.379 9.76298C23.875 9.21154 23.2808 8.77332 22.6288 8.47215C21.9526 8.15862 21.2274 7.99814 20.4952 8.00002C19.468 8.00002 18.4658 8.314 17.5948 8.90708C17.3865 9.04895 17.1886 9.20478 17.001 9.37457C16.8135 9.20478 16.6156 9.04895 16.4072 8.90708C15.5363 8.314 14.5341 8.00002 13.5069 8.00002C12.7672 8.00002 12.0505 8.15817 11.3733 8.47215C10.7191 8.77451 10.1294 9.20943 9.6231 9.76298C9.11887 10.3122 8.71608 10.9664 8.43755 11.6887C8.14793 12.44 8 13.2377 8 14.0587C8 14.8332 8.14168 15.6403 8.42297 16.4613C8.65841 17.1474 8.99595 17.8591 9.42725 18.5778C10.1107 19.7151 11.0503 20.9013 12.2171 22.1037C14.1507 24.0969 16.0655 25.4738 16.1468 25.5296L16.6406 25.8831C16.8593 26.039 17.1406 26.039 17.3594 25.8831L17.8532 25.5296C17.9345 25.4715 19.8472 24.0969 21.7828 22.1037C22.9496 20.9013 23.8893 19.7151 24.5727 18.5778C25.004 17.8591 25.3437 17.1474 25.577 16.4613C25.8583 15.6403 26 14.8332 26 14.0587C26.0021 13.2377 25.8541 12.44 25.5645 11.6887V11.6887ZM17.001 24.0434C17.001 24.0434 9.58351 18.7383 9.58351 14.0587C9.58351 11.6887 11.34 9.76763 13.5069 9.76763C15.03 9.76763 16.351 10.7166 17.001 12.1027C17.6511 10.7166 18.9721 9.76763 20.4952 9.76763C22.6621 9.76763 24.4185 11.6887 24.4185 14.0587C24.4185 18.7383 17.001 24.0434 17.001 24.0434Z" fill="#FF7272"/>
<circle cx="17" cy="17" r="16" stroke="#FF7272" stroke-width="2"/>
</svg>
