<svg width="39" height="39" viewBox="0 0 39 39" fill="none" xmlns="http://www.w3.org/2000/svg">
<path fill-rule="evenodd" clip-rule="evenodd" d="M38.9617 19.5128C38.9872 30.1433 30.2454 38.9872 19.6532 38.9999C8.85675 39.0255 0.0639097 30.3475 0.0383862 19.6404C0.0128627 8.81842 8.69085 0.0255792 19.4362 5.57489e-05C30.1944 -0.0254677 38.9362 8.71633 38.9617 19.5128ZM33.3719 29.9391C32.2616 28.8161 31.0492 27.8972 29.6582 27.2464C29.4795 27.1698 29.4413 27.0549 29.4413 26.8763C29.4498 26.0345 29.4469 25.1983 29.4441 24.3603C29.4427 23.9406 29.4413 23.5204 29.4413 23.0988C29.4413 22.9457 29.4795 22.8308 29.5816 22.716C31.9809 19.8701 32.2999 16.6541 31.2024 13.2085C30.8323 12.0344 30.3218 10.9241 29.4668 10.0053C28.7011 9.20127 28.1396 9.20127 27.3611 9.97973C27.0676 10.286 26.8123 10.6306 26.5316 11.0517C26.2636 10.0946 25.9956 9.22679 25.6127 8.39728C25.2171 7.555 24.7449 6.76377 24.0686 6.12569C23.3539 5.44931 22.8434 5.43655 22.1415 6.13845C21.0568 7.19767 20.457 8.55042 19.9976 9.96697C19.8693 10.3774 19.7583 10.7992 19.6452 11.2287L19.6452 11.2287L19.6452 11.2287L19.6452 11.2288L19.6452 11.2288L19.6452 11.2288L19.6451 11.2289L19.6451 11.2289C19.5894 11.4404 19.5333 11.6538 19.4743 11.8685C19.434 11.8327 19.3937 11.7984 19.354 11.7646C19.2805 11.7021 19.2088 11.6412 19.1425 11.575C18.6065 11.1155 18.0961 11.1155 17.5601 11.5877C17.0368 12.0471 16.6412 12.6087 16.3477 13.234C15.0333 15.9522 14.6504 18.7088 15.8755 21.5802C16.1818 22.3076 16.5902 22.9584 17.1134 23.5455C17.2283 23.6731 17.3176 23.8007 17.3176 24.0049C17.3092 24.6941 17.3119 25.3889 17.3147 26.1184V26.1187V26.1191V26.1194V26.1198V26.1201V26.1205V26.1208C17.3161 26.4981 17.3176 26.8847 17.3176 27.2847C16.9858 26.9529 16.7178 26.6849 16.4626 26.4169C15.3906 25.2683 14.2293 24.2346 12.7489 23.6348C9.39256 22.2821 6.22765 22.6394 3.26693 24.7323C3.23502 24.7578 3.20312 24.7802 3.17122 24.8025C3.13931 24.8248 3.10741 24.8472 3.0755 24.8727C1.13572 19.9339 1.83761 11.3708 8.70343 5.88321C15.4672 0.459471 25.3703 0.944417 31.5852 6.99348C37.864 13.1191 38.6425 22.9712 33.3719 29.9391ZM14.1152 33.9697L14.115 33.9699L14.1146 33.9704L14.1142 33.9708L14.1137 33.9712L14.1137 33.9713C13.6338 34.4731 13.1518 34.9773 12.6596 35.4775L12.8638 35.5796C15.748 36.7537 18.7342 37.1621 21.8226 36.741C25.6894 36.205 29.0074 34.5459 31.7895 31.8022C31.9681 31.6107 31.9809 31.5214 31.7895 31.3172C27.8844 27.2845 21.4142 27.0293 17.2794 30.8067C16.1803 31.8099 15.1527 32.8846 14.1152 33.9697ZM15.9522 29.0331C15.2715 29.7296 14.5779 30.4346 13.8775 31.1465L13.8774 31.1466L13.8765 31.1475C12.8704 32.1702 11.8503 33.207 10.8348 34.2527C10.6561 34.4441 10.5413 34.3931 10.3498 34.2782C7.58053 32.5299 5.46208 30.1945 3.9562 27.2848C3.79725 26.9791 3.93116 26.8726 4.11102 26.7295L4.13486 26.7105C6.82759 24.3623 11.0134 24.3368 13.7189 26.7105C14.2948 27.2066 14.803 27.7705 15.2991 28.3208C15.5176 28.5632 15.7337 28.8029 15.9522 29.0331ZM23.0861 19.1168C20.8528 16.4113 20.8528 11.6129 23.0734 8.26935C25.3194 10.643 25.3195 16.9091 23.0861 19.1168ZM25.4215 19.5L25.43 19.5246C25.7586 20.4724 26.0649 21.3562 26.6849 22.0268C27.2719 22.6521 27.4251 23.3285 27.3613 24.1453C27.3102 24.7961 27.3357 25.447 27.3613 26.0978C27.374 26.3786 27.2847 26.4168 27.0295 26.353C26.1999 26.1489 25.3449 26.0468 24.4771 26.034C24.1964 26.034 24.1453 25.9319 24.1453 25.6767C24.1581 24.2601 24.1581 22.8436 24.1453 21.427C24.1453 21.2483 24.1708 21.0952 24.3112 20.9548C24.7323 20.5464 25.0641 20.0743 25.4215 19.5ZM28.4207 20.8399C26.5319 18.3386 26.8127 14.676 28.4079 12.1237C29.9393 14.6122 30.3222 18.1472 28.4207 20.8399ZM19.398 26.9784V23.9283C19.398 23.8262 19.4107 23.7497 19.4873 23.6731C20.3678 22.7287 20.9166 21.5929 21.2739 20.304C21.7461 20.7762 22.129 21.1718 22.0779 21.8992C22.0232 22.8378 22.0336 23.7829 22.0441 24.7298V24.7299C22.0482 25.1091 22.0524 25.4886 22.0524 25.8681C22.0524 25.889 22.0529 25.9098 22.0534 25.9304V25.9304C22.0573 26.0866 22.0609 26.2299 21.8354 26.2637C21.0187 26.3914 20.2275 26.6721 19.398 26.9784ZM18.3389 13.9613C19.781 16.4499 19.9086 19.602 18.3516 21.6949C16.884 19.9466 16.8713 16.4243 18.3389 13.9613Z" fill="#6C6C6C"/>
</svg>
