<svg width="34" height="40" viewBox="0 0 34 40" fill="none" xmlns="http://www.w3.org/2000/svg">
<path d="M27.1092 7.40216C27.291 7.45375 27.343 7.50534 27.291 7.68589C26.9275 9.18192 26.5899 10.6522 26.2523 12.1482C26.2263 12.303 26.1484 12.3803 25.9666 12.3803C24.8239 12.3803 23.7073 12.3803 22.5646 12.3803C22.3309 12.3803 22.3049 12.2772 22.253 12.0966C21.8894 10.6006 21.5258 9.13034 21.1882 7.6601C21.0065 6.93788 20.7727 6.78312 20.0196 6.96367C19.7859 7.01526 19.5522 7.06685 19.2405 7.14423C19.3444 6.67994 19.4483 6.26724 19.5262 5.85454C19.5522 5.69978 19.682 5.72558 19.7859 5.75137C22.253 6.26724 24.6941 6.8347 27.1092 7.40216ZM5.94425 5.00335C8.95669 4.66804 11.9951 4.30692 15.0075 3.94581C15.3192 3.92002 15.3971 3.9974 15.423 4.28113C15.5269 5.39026 15.6568 6.49939 15.8126 7.58272C15.8645 7.91804 15.7087 7.96962 15.475 8.02121C13.5792 8.4597 11.6835 8.92399 9.81368 9.36248C9.24235 9.49145 9.08653 9.77518 9.21638 10.3168C9.3722 10.9875 9.52801 11.6323 9.68383 12.3288C8.64506 12.3288 7.63225 12.3288 6.61945 12.3288C6.38572 12.3288 6.43766 12.1482 6.43766 12.0192C6.28185 10.9101 6.152 9.77518 6.02215 8.66605C5.89231 7.55692 5.76246 6.4478 5.63261 5.36446C5.58067 5.10653 5.68455 5.02915 5.94425 5.00335Z" fill="#FFD400"/>
<path d="M33.5659 38.3458C33.3322 34.1672 33.1245 30.0144 32.9167 25.8359C32.7089 21.6057 32.5012 17.3756 32.2934 13.1454C32.2934 12.9906 32.2415 12.8617 32.1896 12.7585C31.5403 11.6752 30.8911 10.5918 30.2159 9.50849C30.0601 9.25056 29.8523 9.14738 29.5407 9.14738C29.2031 9.14738 28.8655 9.14738 28.4759 9.14738C28.6058 8.55413 28.7356 7.98666 28.8655 7.4192C29.0213 6.72278 28.8915 6.49063 28.2162 6.33587C26.4244 5.92317 24.6585 5.48468 22.8666 5.09778C22.5809 5.04619 22.503 4.91722 22.3991 4.65928C21.7239 2.49262 20.2696 1.12555 18.0622 0.687061C15.9068 0.274362 14.063 0.970791 12.6347 2.64738C12.375 2.93111 12.1412 3.06008 11.7777 3.08587C9.5443 3.34381 7.31094 3.60174 5.07758 3.85968C4.45431 3.93706 4.27253 4.195 4.35044 4.81405C4.50625 6.15532 4.66207 7.47079 4.84385 8.81206C4.86982 9.07 4.81788 9.19897 4.53222 9.14738C4.16865 9.09579 3.90896 9.27635 3.72717 9.61167C3.10391 10.6434 2.48064 11.6752 1.85738 12.6811C1.77947 12.8359 1.72753 12.9648 1.70156 13.1454C1.57172 16.447 1.4159 19.7486 1.23412 23.0244C0.974423 28.1831 0.688761 33.3418 0.429067 38.4748C0.403098 38.8875 0.506975 39.2228 0.870546 39.4291H33.1245C33.5919 39.197 33.5919 38.7843 33.5659 38.3458ZM28.1124 10.6692C28.1383 10.5144 28.2162 10.4629 28.398 10.4371C28.9694 10.3855 29.4108 10.4886 29.6446 11.1077C29.8263 11.5462 30.138 11.9589 30.4236 12.4232H27.7228C27.8527 11.8299 27.9825 11.2367 28.1124 10.6692ZM27.2554 7.47079C27.4372 7.52238 27.4891 7.57397 27.4372 7.75452C27.0736 9.25055 26.736 10.7208 26.3984 12.2168C26.3724 12.3716 26.2945 12.449 26.1127 12.449C24.9701 12.449 23.8534 12.449 22.7108 12.449C22.477 12.449 22.4511 12.3458 22.3991 12.1652C22.0355 10.6692 21.672 9.19897 21.3344 7.72873C21.1526 7.00651 20.9189 6.85174 20.1658 7.0323C19.932 7.08389 19.6983 7.13547 19.3867 7.21286C19.4906 6.74857 19.5944 6.33587 19.6723 5.92317C19.6983 5.76841 19.8282 5.7942 19.932 5.82C22.3991 6.33587 24.8402 6.90333 27.2554 7.47079ZM21.1266 12.4232H15.1277C13.9072 12.4232 12.7126 12.4232 11.492 12.4232C11.2323 12.4232 11.1544 12.3458 11.1025 12.1137C11.0246 11.701 10.9207 11.2883 10.8168 10.9013C10.7389 10.6692 10.8168 10.5918 11.0505 10.5402C13.18 10.0502 15.2835 9.53428 17.413 9.01841C18.2181 8.81206 19.0491 8.63151 19.8541 8.42516C20.0359 8.37357 20.1658 8.34778 20.2177 8.60571C20.5034 9.8696 20.815 11.1077 21.1266 12.4232ZM20.9968 4.65928C20.5034 4.55611 20.0619 4.45293 19.6204 4.34976C18.9712 4.195 18.7115 4.34976 18.5557 5.02039C18.3739 5.7942 18.1921 6.54222 18.0103 7.31603C17.9584 7.52238 17.5429 7.75452 17.3611 7.70293C17.2312 7.65135 17.2572 7.54817 17.2572 7.445C17.1014 6.10373 16.9456 4.76246 16.7897 3.42119C16.7118 2.80214 16.4781 2.59579 15.8289 2.64738C15.3874 2.69897 14.9459 2.75055 14.5044 2.80214C16.4521 1.09976 19.958 1.87357 20.9968 4.65928ZM6.09038 5.07198C9.10282 4.73666 12.1412 4.37555 15.1537 4.01444C15.4653 3.98865 15.5432 4.06603 15.5692 4.34976C15.6731 5.45889 15.8029 6.56801 15.9587 7.65135C16.0107 7.98666 15.8548 8.03825 15.6211 8.08984C13.7254 8.52833 11.8296 8.99262 9.95981 9.43111C9.38849 9.56008 9.23267 9.84381 9.36252 10.3855C9.51833 11.0561 9.67415 11.701 9.82996 12.3974C8.79119 12.3974 7.77839 12.3974 6.76558 12.3974C6.53186 12.3974 6.5838 12.2168 6.5838 12.0879C6.42798 10.9787 6.29814 9.84381 6.16829 8.73468C6.03844 7.62555 5.9086 6.51643 5.77875 5.43309C5.72681 5.17516 5.83069 5.09778 6.09038 5.07198ZM4.68804 10.566C4.73998 10.4886 4.79191 10.4371 4.89579 10.4371C5.02564 10.4371 5.02564 10.5402 5.02564 10.6176C5.07758 11.1335 5.15549 11.6752 5.20742 12.191C5.23339 12.32 5.23339 12.3974 5.05161 12.3974C4.58416 12.3974 4.09074 12.3974 3.57136 12.3974C3.98687 11.7783 4.35044 11.1851 4.68804 10.566ZM31.826 38.1394C26.8658 38.1394 21.9057 38.1394 16.9715 38.1394C12.0374 38.1394 7.10319 38.1394 2.19498 38.1394C1.88335 38.1394 1.77947 38.0879 1.80544 37.7525C2.0132 34.064 2.19498 30.3756 2.40274 26.6871C2.53258 24.0303 2.6884 21.3478 2.81825 18.691C2.89615 17.1434 2.97406 15.5958 3.05197 14.0224C3.05197 13.8418 3.10391 13.7387 3.31166 13.7644C3.3636 13.7644 3.44151 13.7644 3.49345 13.7644C12.5048 13.7644 21.5162 13.7644 30.5535 13.7644C30.9171 13.7644 31.0209 13.8418 31.0209 14.2029C31.2027 17.9688 31.4105 21.7347 31.5923 25.5006C31.7221 28.1831 31.852 30.8656 32.0078 33.5224C32.0857 34.9152 32.1376 36.3339 32.2415 37.7267C32.2155 38.0621 32.1636 38.1394 31.826 38.1394ZM22.0096 15.0799C21.1007 15.0541 20.2696 15.6732 20.0359 16.5244C19.7762 17.4271 20.1917 18.3557 21.0487 18.7942C21.2305 18.8974 21.3084 18.9748 21.3084 19.1811C21.2824 19.5938 21.3084 20.0065 21.3084 20.445C21.3084 20.8061 21.3084 21.1414 21.3084 21.5025C21.2045 23.695 19.5165 25.4232 17.2832 25.6037C15.2056 25.7843 13.206 24.2625 12.8164 22.1732C12.6347 21.193 12.7645 20.2129 12.7126 19.2327C12.7126 19.0263 12.7645 18.8974 12.9723 18.7942C13.8033 18.3557 14.1928 17.4529 13.9591 16.5502C13.7254 15.6732 12.9203 15.0799 12.0114 15.0799C11.1025 15.0799 10.3234 15.699 10.1156 16.6017C9.8819 17.4787 10.2974 18.3815 11.1284 18.7942C11.3362 18.8974 11.3881 19.0263 11.3881 19.2327C11.3881 20.1613 11.3362 21.0898 11.4401 21.9926C11.7257 24.6494 14.011 26.816 16.6599 26.9192C19.5165 27.0482 21.9836 25.191 22.5549 22.5085C22.7627 21.451 22.6588 20.3676 22.6848 19.2843C22.6848 19.0264 22.7367 18.8974 22.9964 18.7684C23.7755 18.3815 24.165 17.4787 23.9832 16.6533C23.6976 15.7248 22.9445 15.0799 22.0096 15.0799ZM12.6087 17.3498C12.1153 16.9629 11.9075 16.9629 11.4401 17.3498C11.2842 17.0402 11.3622 16.7565 11.6218 16.5502C11.8556 16.3696 12.1153 16.3438 12.375 16.5244C12.6606 16.6791 12.7385 16.9629 12.6087 17.3498ZM22.5549 17.324C22.0615 16.9629 21.8538 16.9629 21.3603 17.2982C21.2565 16.9371 21.3344 16.6791 21.5941 16.4986C21.8538 16.318 22.1394 16.3438 22.3731 16.5502C22.6328 16.7565 22.7108 17.0144 22.5549 17.324Z" fill="#6C6C6C"/>
<path d="M33.5659 38.3458C33.3322 34.1672 33.1245 30.0144 32.9167 25.8359C32.7089 21.6057 32.5012 17.3756 32.2934 13.1454C32.2934 12.9906 32.2415 12.8617 32.1896 12.7585C31.5403 11.6752 30.8911 10.5918 30.2159 9.50849C30.0601 9.25055 29.8523 9.14738 29.5407 9.14738C29.2031 9.14738 28.8655 9.14738 28.4759 9.14738C28.6058 8.55413 28.7356 7.98666 28.8655 7.4192C29.0213 6.72278 28.8915 6.49063 28.2162 6.33587C26.4244 5.92317 24.6585 5.48468 22.8666 5.09778C22.5809 5.04619 22.503 4.91722 22.3991 4.65928C21.7239 2.49262 20.2696 1.12555 18.0622 0.687061C15.9068 0.274362 14.063 0.970791 12.6347 2.64738C12.375 2.93111 12.1412 3.06008 11.7777 3.08587C9.5443 3.34381 7.31094 3.60174 5.07758 3.85968C4.45431 3.93706 4.27253 4.195 4.35044 4.81405C4.50625 6.15532 4.66207 7.47079 4.84385 8.81206C4.86982 9.07 4.81788 9.19897 4.53222 9.14738C4.16865 9.09579 3.90896 9.27635 3.72717 9.61167C3.10391 10.6434 2.48064 11.6752 1.85738 12.6811C1.77947 12.8359 1.72753 12.9648 1.70156 13.1454C1.57172 16.447 1.4159 19.7486 1.23412 23.0244C0.974423 28.1831 0.688761 33.3418 0.429067 38.4748C0.403098 38.8875 0.506975 39.2228 0.870546 39.4291H33.1245C33.5919 39.197 33.5919 38.7843 33.5659 38.3458ZM28.1124 10.6692C28.1383 10.5144 28.2162 10.4629 28.398 10.4371C28.9694 10.3855 29.4108 10.4886 29.6446 11.1077C29.8263 11.5462 30.138 11.9589 30.4236 12.4232H27.7228C27.8527 11.8299 27.9825 11.2367 28.1124 10.6692ZM27.2554 7.47079C27.4372 7.52238 27.4891 7.57397 27.4372 7.75452C27.0736 9.25055 26.736 10.7208 26.3984 12.2168C26.3724 12.3716 26.2945 12.449 26.1127 12.449C24.9701 12.449 23.8534 12.449 22.7108 12.449C22.477 12.449 22.4511 12.3458 22.3991 12.1652C22.0355 10.6692 21.672 9.19897 21.3344 7.72873C21.1526 7.00651 20.9189 6.85174 20.1658 7.0323C19.932 7.08389 19.6983 7.13547 19.3867 7.21286C19.4906 6.74857 19.5944 6.33587 19.6723 5.92317C19.6983 5.76841 19.8282 5.7942 19.932 5.82C22.3991 6.33587 24.8402 6.90333 27.2554 7.47079ZM21.1266 12.4232H15.1277C13.9071 12.4232 12.7126 12.4232 11.492 12.4232C11.2323 12.4232 11.1544 12.3458 11.1025 12.1136C11.0246 11.701 10.9207 11.2883 10.8168 10.9013C10.7389 10.6692 10.8168 10.5918 11.0505 10.5402C13.18 10.0502 15.2835 9.53428 17.413 9.01841C18.2181 8.81206 19.0491 8.63151 19.8541 8.42516C20.0359 8.37357 20.1658 8.34778 20.2177 8.60571C20.5034 9.8696 20.815 11.1077 21.1266 12.4232ZM20.9968 4.65928C20.5034 4.55611 20.0619 4.45293 19.6204 4.34976C18.9712 4.195 18.7115 4.34976 18.5557 5.02039C18.3739 5.7942 18.1921 6.54222 18.0103 7.31603C17.9584 7.52238 17.5429 7.75452 17.3611 7.70293C17.2312 7.65135 17.2572 7.54817 17.2572 7.445C17.1014 6.10373 16.9456 4.76246 16.7897 3.42119C16.7118 2.80214 16.4781 2.59579 15.8289 2.64738C15.3874 2.69897 14.9459 2.75055 14.5044 2.80214C16.4521 1.09976 19.958 1.87357 20.9968 4.65928ZM6.09038 5.07198C9.10282 4.73666 12.1412 4.37555 15.1537 4.01444C15.4653 3.98865 15.5432 4.06603 15.5692 4.34976C15.6731 5.45889 15.8029 6.56801 15.9587 7.65135C16.0107 7.98666 15.8548 8.03825 15.6211 8.08984C13.7254 8.52833 11.8296 8.99262 9.95981 9.43111C9.38849 9.56008 9.23267 9.84381 9.36252 10.3855C9.51833 11.0561 9.67415 11.701 9.82996 12.3974C8.79119 12.3974 7.77839 12.3974 6.76558 12.3974C6.53186 12.3974 6.5838 12.2168 6.5838 12.0879C6.42798 10.9787 6.29814 9.84381 6.16829 8.73468C6.03844 7.62555 5.9086 6.51643 5.77875 5.43309C5.72681 5.17516 5.83069 5.09778 6.09038 5.07198ZM4.68804 10.566C4.73998 10.4886 4.79191 10.4371 4.89579 10.4371C5.02564 10.4371 5.02564 10.5402 5.02564 10.6176C5.07758 11.1335 5.15549 11.6752 5.20742 12.191C5.23339 12.32 5.23339 12.3974 5.05161 12.3974C4.58416 12.3974 4.09074 12.3974 3.57136 12.3974C3.98687 11.7783 4.35044 11.1851 4.68804 10.566ZM31.826 38.1394C26.8658 38.1394 21.9057 38.1394 16.9715 38.1394C12.0374 38.1394 7.10318 38.1394 2.19498 38.1394C1.88335 38.1394 1.77947 38.0879 1.80544 37.7525C2.0132 34.064 2.19498 30.3756 2.40274 26.6871C2.53258 24.0303 2.6884 21.3478 2.81825 18.691C2.89615 17.1434 2.97406 15.5958 3.05197 14.0224C3.05197 13.8418 3.10391 13.7387 3.31166 13.7644C3.3636 13.7644 3.44151 13.7644 3.49345 13.7644C12.5048 13.7644 21.5162 13.7644 30.5535 13.7644C30.9171 13.7644 31.0209 13.8418 31.0209 14.2029C31.2027 17.9688 31.4105 21.7347 31.5923 25.5006C31.7221 28.1831 31.852 30.8656 32.0078 33.5224C32.0857 34.9152 32.1376 36.3339 32.2415 37.7267C32.2155 38.0621 32.1636 38.1394 31.826 38.1394ZM22.0096 15.0799C21.1007 15.0541 20.2696 15.6732 20.0359 16.5244C19.7762 17.4271 20.1917 18.3557 21.0487 18.7942C21.2305 18.8974 21.3084 18.9748 21.3084 19.1811C21.2824 19.5938 21.3084 20.0065 21.3084 20.445C21.3084 20.8061 21.3084 21.1414 21.3084 21.5025C21.2045 23.695 19.5165 25.4232 17.2832 25.6037C15.2056 25.7843 13.206 24.2625 12.8164 22.1732C12.6347 21.193 12.7645 20.2129 12.7126 19.2327C12.7126 19.0263 12.7645 18.8974 12.9723 18.7942C13.8033 18.3557 14.1928 17.4529 13.9591 16.5502C13.7254 15.6732 12.9203 15.0799 12.0114 15.0799C11.1025 15.0799 10.3234 15.699 10.1156 16.6017C9.8819 17.4787 10.2974 18.3815 11.1284 18.7942C11.3362 18.8974 11.3881 19.0263 11.3881 19.2327C11.3881 20.1613 11.3362 21.0898 11.4401 21.9926C11.7257 24.6494 14.011 26.816 16.6599 26.9192C19.5165 27.0482 21.9836 25.191 22.5549 22.5085C22.7627 21.451 22.6588 20.3676 22.6848 19.2843C22.6848 19.0263 22.7367 18.8974 22.9964 18.7684C23.7755 18.3815 24.165 17.4787 23.9832 16.6533C23.6976 15.7248 22.9445 15.0799 22.0096 15.0799ZM12.6087 17.3498C12.1153 16.9629 11.9075 16.9629 11.4401 17.3498C11.2842 17.0402 11.3622 16.7565 11.6218 16.5502C11.8556 16.3696 12.1153 16.3438 12.375 16.5244C12.6606 16.6791 12.7385 16.9629 12.6087 17.3498ZM22.5549 17.324C22.0615 16.9629 21.8538 16.9629 21.3603 17.2982C21.2565 16.9371 21.3344 16.6791 21.5941 16.4986C21.8538 16.318 22.1394 16.3438 22.3732 16.5502C22.6328 16.7565 22.7108 17.0144 22.5549 17.324Z" stroke="#6C6C6C" stroke-width="0.8" stroke-miterlimit="10"/>
</svg>
