<svg width="172" height="189" viewBox="0 0 172 189" fill="none" xmlns="http://www.w3.org/2000/svg">
<g clip-path="url(#clip0_15_1364)">
<path d="M100.054 84.2234C96.6153 84.2148 93.1913 83.7751 89.8624 82.9148C86.5162 82.0838 83.3583 80.6269 80.5561 78.6213C77.7033 76.5381 75.3936 73.8013 73.8214 70.6415C72.1093 67.3137 71.2521 63.2226 71.2499 58.3682V50.1522C71.2499 45.1741 72.0766 41.0358 73.7302 37.7373C75.2163 34.6446 77.3903 31.9315 80.0864 29.8047C82.641 27.8295 85.5665 26.3856 88.6898 25.5584C91.6919 24.7377 94.7888 24.3136 97.9014 24.297C101.102 24.293 104.29 24.685 107.394 25.464C110.476 26.2402 113.318 27.7636 115.669 29.8991C118.102 32.0779 120.051 35.1133 121.515 39.0054C122.979 42.8975 123.712 47.9229 123.712 54.0815C123.712 54.8909 123.664 55.8521 123.573 56.9752C123.482 58.0983 123.37 59.0596 123.235 59.869H89.7678V59.9601C89.7678 61.579 90.1057 62.9168 90.7815 63.9736C91.4568 65.022 92.3499 65.9134 93.4004 66.5875C94.4585 67.2711 95.6303 67.7611 96.8606 68.0344C98.0264 68.3054 99.2186 68.4468 100.416 68.456C102.196 68.4856 103.977 68.392 105.744 68.176C107.019 67.9807 108.272 67.668 109.489 67.2418C110.164 66.9922 110.874 66.7291 111.59 66.4492C112.329 66.1632 113.098 65.9597 113.882 65.8421C115.386 65.6393 116.918 65.8323 118.325 66.402C118.99 66.6806 119.592 67.0877 120.098 67.6001C120.604 68.1124 121.003 68.7197 121.272 69.3868C122.27 71.6893 122.284 73.7905 121.316 75.6904C120.347 77.5904 118.742 79.1924 116.5 80.4965C115.587 81.0082 114.633 81.4447 113.648 81.8018C112.363 82.2774 111.052 82.6828 109.722 83.0159C108.182 83.4033 106.62 83.6995 105.045 83.903C103.39 84.1176 101.723 84.2246 100.054 84.2234ZM97.996 39.4203C96.9675 39.4149 95.9435 39.5557 94.9548 39.8385C94.0048 40.1103 93.1266 40.5882 92.3832 41.2382C91.5968 41.9446 90.9602 42.8013 90.5112 43.7576C89.9762 44.974 89.7221 46.295 89.7678 47.6227H105.572C105.668 46.3095 105.493 44.9906 105.059 43.7475C104.702 42.7994 104.144 41.9398 103.423 41.228C102.722 40.5684 101.871 40.0882 100.943 39.8284C99.9848 39.5538 98.9927 39.4164 97.996 39.4203Z" fill="black"/>
<path d="M131.788 50.7829C131.793 50.0153 131.906 49.2522 132.126 48.5165C132.341 47.763 132.695 47.0561 133.17 46.4321C133.662 45.796 134.299 45.2862 135.028 44.9448C135.906 44.5513 136.861 44.3611 137.823 44.3883H164.623C165.584 44.3617 166.538 44.552 167.414 44.9448C168.143 45.2871 168.78 45.7968 169.273 46.4321C169.748 47.0561 170.102 47.763 170.317 48.5165C170.537 49.2522 170.65 50.0153 170.655 50.7829C170.649 51.5637 170.535 52.34 170.317 53.0899C170.099 53.8722 169.732 54.6051 169.236 55.2484C168.735 55.8957 168.102 56.4282 167.377 56.81C166.522 57.2295 165.576 57.4333 164.623 57.4036H137.82C136.854 57.4312 135.896 57.2276 135.025 56.81C134.291 56.4428 133.654 55.9077 133.167 55.2484C132.691 54.5977 132.337 53.8664 132.122 53.0899C131.905 52.3398 131.793 51.5636 131.788 50.7829Z" fill="black"/>
<path d="M1.0881 96.382C1.05089 94.835 1.35186 93.2986 1.97006 91.8795C2.52169 90.6481 3.31444 89.5392 4.30169 88.6181C5.25843 87.7253 6.38757 87.0368 7.62004 86.5945C10.1696 85.6954 12.9508 85.6954 15.5003 86.5945C16.7332 87.0359 17.8625 87.7246 18.8186 88.6181C19.806 89.5399 20.5997 90.6485 21.1536 91.8795C21.7686 93.2995 22.0695 94.8353 22.0356 96.382V120.187L46.4028 90.3786C47.3643 89.1999 48.5436 88.2163 49.8766 87.4815C51.103 86.8073 52.4373 86.3508 53.8201 86.1324C55.1669 85.9233 56.5405 85.9575 57.8751 86.2335C59.1507 86.4816 60.366 86.9741 61.4537 87.6838C62.6171 88.4319 63.6069 89.4197 64.3564 90.581C65.1056 91.7221 65.601 93.0101 65.8094 94.3584C66.0153 95.721 65.9452 97.111 65.6033 98.4461C65.2436 99.8406 64.5289 101.119 63.5285 102.156L43.9293 123.994L72.8618 169.641H48.8021L30.345 139.108L22.0491 148.318V169.641H1.09823L1.0881 96.382Z" fill="black"/>
<path d="M131.947 169.853V120.848C131.916 119.457 132.187 118.077 132.741 116.8C133.235 115.701 133.952 114.716 134.846 113.907C135.721 113.13 136.737 112.529 137.84 112.136C139.25 111.638 140.749 111.443 142.24 111.564C143.731 111.684 145.179 112.117 146.491 112.834C148.087 113.715 149.351 115.092 150.089 116.757C151.794 115.166 153.754 113.872 155.888 112.929C157.978 112.001 160.241 111.524 162.528 111.529C163.262 111.532 163.996 111.579 164.725 111.667C165.485 111.756 166.227 111.961 166.924 112.274C168.685 112.987 170.126 114.314 170.979 116.008C171.894 117.825 172.205 119.885 171.868 121.89C171.635 123.916 170.65 125.781 169.107 127.118C167.618 128.41 165.704 129.108 163.731 129.077C163.055 129.077 162.338 129.061 161.579 129.03C160.862 128.999 160.144 129.015 159.429 129.077C156.812 129.264 154.77 130.042 153.303 131.411C151.836 132.78 151.041 134.647 150.917 137.01V169.867L131.947 169.853Z" fill="black"/>
<path d="M40.834 64.6819C40.865 64.7129 40.8977 64.7421 40.932 64.7696L40.3744 63.7578C40.4387 64.1024 40.5978 64.4224 40.834 64.6819Z" fill="black"/>
<path d="M38.9652 60.9213L38.6915 60.7628L38.8233 60.9989L38.9652 60.9213Z" fill="black"/>
<path d="M37.5494 58.7156C41.6472 61.0427 45.7417 63.3811 49.8327 65.7308C50.5423 66.1422 51.0391 66.122 51.5966 65.6364L51.6338 65.5824L39.4688 51.7037L33.6127 55.4777H35.7348L37.5494 58.7156Z" fill="black"/>
<path d="M56.5708 44.54C56.9864 44.3141 57.3919 44.0746 57.7501 43.8655C57.0337 42.7356 56.3376 41.6462 55.6314 40.5299L53.053 42.3613C54.1749 43.1134 55.2394 43.8318 56.3106 44.54C56.3514 44.5588 56.3957 44.5685 56.4407 44.5685C56.4856 44.5685 56.53 44.5588 56.5708 44.54Z" fill="black"/>
<path d="M50.3497 34.4253C50.2517 34.4626 50.1712 34.5353 50.1243 34.629C50.0774 34.7227 50.0674 34.8305 50.0963 34.9312C50.2551 35.943 50.3869 36.9346 50.5322 37.9397C50.5592 38.1184 50.5964 38.2938 50.6369 38.5096L53.4822 37.1606L51.3466 33.7878C51.0256 34.0003 50.6876 34.233 50.3497 34.4253Z" fill="black"/>
<path d="M43.5508 63.5251C43.0879 63.2586 42.7229 63.0428 42.3478 62.8505C42.2431 62.7975 42.1217 62.7878 42.0099 62.8235C41.928 62.8594 41.854 62.911 41.7921 62.9754C41.7303 63.0399 41.6817 63.1158 41.6492 63.199C41.6167 63.2821 41.601 63.3708 41.6029 63.4601C41.6047 63.5493 41.6242 63.6373 41.6602 63.719C41.6961 63.8007 41.7478 63.8746 41.8124 63.9363C41.8769 63.9981 41.953 64.0466 42.0363 64.079C42.1196 64.1114 42.2085 64.1271 42.2979 64.1253C42.3873 64.1234 42.4755 64.1039 42.5573 64.0681C42.8783 63.923 43.1723 63.7308 43.5508 63.5251Z" fill="black"/>
<path d="M74.7304 83.3195L55.0265 50.3006C58.7037 48.0128 61.8074 44.9151 64.0996 41.2449C66.4222 37.5552 67.5835 33.2257 67.5835 28.2566V27.0154C67.5835 22.3926 66.8063 18.3903 65.2519 15.0086C63.7762 11.7341 61.5573 8.84736 58.7706 6.57677C55.8637 4.26338 52.5106 2.57226 48.9203 1.60877C44.8653 0.506037 40.6775 -0.0341761 36.4748 0.00335495H17.3825C14.2736 0.00335495 11.6829 0.296776 9.61037 0.883628C7.72223 1.36188 6.00102 2.34622 4.63284 3.7302C3.32701 5.15954 2.41531 6.90276 1.98695 8.78927C1.42525 11.2685 1.1643 13.8061 1.20974 16.3475V83.3127H22.4681V60.4963H22.3972C21.8463 60.5165 21.2962 60.44 20.7718 60.2704C19.5891 59.8589 19.1261 58.9483 19.1295 57.7847C19.2005 57.498 19.2681 57.2147 19.339 56.9314C20.6907 54.3479 23.0561 52.7964 25.479 51.3158C26.0332 50.9785 26.6178 50.6784 27.1686 50.3343C27.237 50.2929 27.2951 50.2364 27.3384 50.1692C27.3818 50.102 27.4092 50.0259 27.4186 49.9465C27.3341 48.3377 27.2294 46.7289 27.1246 45.1201C27.1155 45.0637 27.1008 45.0084 27.0807 44.9549C26.1379 45.2348 25.3235 45.0561 24.7153 44.2803C24.5678 44.0884 24.4605 43.8687 24.3999 43.6345C24.3393 43.4003 24.3266 43.1563 24.3626 42.9171C24.3985 42.6778 24.4824 42.4483 24.6092 42.2421C24.736 42.0359 24.9031 41.8574 25.1005 41.7171C25.2154 41.6361 25.337 41.5653 25.4553 41.4911C24.8879 41.5846 24.3138 41.6319 23.7387 41.6328C21.0276 41.6301 18.4246 40.571 16.4843 38.681C14.5441 36.7911 13.4198 34.2197 13.3511 31.5146C13.3511 31.4269 13.3511 31.3392 13.3511 31.2482C13.3511 31.1571 13.3511 31.0694 13.3511 30.9817C13.3345 25.4805 15.5082 20.1981 19.3938 16.2965C23.2794 12.3949 28.5588 10.1937 34.0705 10.1771C39.5822 10.1606 44.8748 12.3301 48.7839 16.2083C52.693 20.0865 54.8984 25.3558 54.915 30.8569C54.8463 28.1257 53.7005 25.5319 51.7268 23.639C49.753 21.746 47.1105 20.7069 44.3735 20.7473C41.6365 20.7877 39.026 21.9045 37.1092 23.8549C35.1924 25.8053 34.1241 28.4318 34.1364 31.1639V31.2482C34.1384 32.9858 33.7038 34.6962 32.8726 36.2229L33.4302 37.4944C33.8807 38.5445 34.3392 39.5945 34.8055 40.6445C34.8624 40.7667 34.9066 40.8944 34.9373 41.0257C34.9581 41.0906 34.9648 41.1592 34.9569 41.2269C34.949 41.2946 34.9267 41.3599 34.8915 41.4183C34.8563 41.4767 34.809 41.527 34.7528 41.5657C34.6966 41.6045 34.6328 41.6308 34.5656 41.6429C34.32 41.6581 34.076 41.5943 33.8695 41.4607C33.7411 41.3865 33.6904 41.1707 33.6194 41.0088C33.1013 39.8306 32.5854 38.6513 32.0717 37.4708C31.0367 38.8547 29.6735 39.9603 28.1046 40.6884V40.7626C28.2803 43.5687 28.4549 46.3793 28.6284 49.1944C28.6284 49.2989 28.6486 49.4035 28.6655 49.5316L35.7077 45.8217C35.434 45.1876 35.1535 44.5603 34.89 43.9296C34.8454 43.8574 34.8171 43.7764 34.8071 43.6923C34.7971 43.6081 34.8055 43.5228 34.8319 43.4422C34.8583 43.3616 34.9019 43.2878 34.9598 43.2257C35.0177 43.1637 35.0884 43.115 35.1671 43.083C35.25 43.0488 35.339 43.0321 35.4287 43.0338C35.5184 43.0356 35.6067 43.0557 35.6882 43.0931C35.7697 43.1304 35.8426 43.1842 35.9024 43.2509C35.9621 43.3176 36.0075 43.396 36.0355 43.481C36.2991 44.0577 36.5458 44.6412 36.8127 45.2483C36.931 45.2011 37.0425 45.164 37.1506 45.1134C41.1516 43.1572 45.1525 41.201 49.1535 39.2449C49.2 39.2306 49.2432 39.2074 49.2806 39.1764C49.318 39.1454 49.3489 39.1074 49.3715 39.0644C49.3942 39.0215 49.408 38.9745 49.4124 38.9261C49.4167 38.8778 49.4114 38.8291 49.3968 38.7828C49.1839 37.3966 49.0014 36.0071 48.7885 34.6209C48.7405 34.4325 48.7614 34.2332 48.8476 34.0588C48.9337 33.8845 49.0793 33.7465 49.2582 33.6698C49.9138 33.3325 50.5491 32.9177 51.1979 32.55C51.2783 32.4832 51.3732 32.4359 51.475 32.4119C51.5769 32.3879 51.6829 32.3878 51.7848 32.4117C51.8867 32.4355 51.9817 32.4827 52.0622 32.5494C52.1427 32.6162 52.2066 32.7007 52.2488 32.7962C54.5534 36.4118 56.8546 40.0285 59.1525 43.6463C59.2179 43.7205 59.2644 43.8094 59.288 43.9054C59.3117 44.0014 59.3117 44.1017 59.2882 44.1978C59.2646 44.2938 59.2181 44.3828 59.1527 44.457C59.0873 44.5313 59.0049 44.5887 58.9125 44.6243C58.2367 45.0358 57.5271 45.4304 56.8411 45.8419C56.7004 45.9295 56.5352 45.9699 56.3699 45.9572C56.2045 45.9444 56.0475 45.8792 55.922 45.7711C54.7156 44.9515 53.5025 44.1488 52.3029 43.3259C52.2238 43.254 52.1208 43.2142 52.0139 43.2142C51.9071 43.2142 51.8041 43.254 51.725 43.3259C48.1048 45.8037 44.4767 48.2849 40.8407 50.7694C40.7292 50.847 40.6244 50.928 40.5028 51.019L44.6051 55.7172L52.8571 65.1372C53.4011 65.7578 53.3572 66.0444 52.6442 66.4627C52.2218 66.7089 51.7791 66.9314 51.3837 67.208C51.1893 67.3552 50.9519 67.4349 50.7079 67.4349C50.4639 67.4349 50.2265 67.3552 50.0321 67.208C48.4101 66.2502 46.7576 65.3395 45.1255 64.3952C45.0291 64.3197 44.9101 64.2787 44.7876 64.2787C44.6651 64.2787 44.5461 64.3197 44.4497 64.3952C44.1117 64.6178 43.7535 64.8168 43.3987 65.0124C43.0157 65.2444 42.567 65.3446 42.1215 65.2977C41.6759 65.2508 41.258 65.0594 40.9319 64.7527L51.2925 83.3026L74.7304 83.3195Z" fill="black"/>
<path d="M40.8103 62.1894C40.8441 62.1456 40.8711 62.1018 40.8982 62.0613C40.2493 61.5588 40.2494 61.5588 39.6141 61.9298L39.4113 62.0478L40.3744 63.7713C40.3287 63.4918 40.3439 63.2058 40.4192 62.9328C40.4944 62.6598 40.6278 62.4062 40.8103 62.1894Z" fill="black"/>
<path d="M31.281 55.4777C31.7203 55.1978 32.1596 54.9179 32.5989 54.6447C39.1241 50.5705 45.4398 46.2129 51.7115 41.798C52.8199 41.0223 53.9147 40.2331 55.0197 39.4371L54.1986 38.1859C54.1006 38.2297 54.0026 38.2702 53.9046 38.3174C51.9852 39.228 50.0625 40.1319 48.16 41.0493C40.7697 44.5974 33.4133 48.2095 26.3069 52.2602C24.623 53.1604 23.0887 54.3152 21.7585 55.6835C21.2938 56.1787 20.9002 56.7361 20.5893 57.3395C20.0757 58.3513 20.6535 59.2215 21.8396 59.2923C22.0491 59.2923 22.2654 59.3125 22.4783 59.2923V55.4541L31.281 55.4777Z" fill="black"/>
<path d="M26.9219 42.0139C26.4927 42.2938 26.1143 42.4995 25.7865 42.766C25.7293 42.814 25.6822 42.8728 25.6479 42.9392C25.6136 43.0055 25.5929 43.0779 25.5869 43.1523C25.581 43.2266 25.5899 43.3014 25.6131 43.3724C25.6363 43.4433 25.6734 43.5089 25.7223 43.5653C25.8063 43.7005 25.9354 43.8017 26.0869 43.8511C26.2384 43.9005 26.4025 43.8948 26.5502 43.8352C26.8442 43.734 27.0807 43.6092 27.0165 43.2213C26.9523 42.8335 26.9557 42.4827 26.9219 42.0139Z" fill="black"/>
<path d="M123.478 124.676C121.981 121.572 119.784 118.856 117.058 116.743C114.461 114.761 111.485 113.331 108.313 112.541C105.211 111.747 102.023 111.339 98.8206 111.327C95.5871 111.335 92.3671 111.743 89.2339 112.541C86.063 113.331 83.0879 114.761 80.492 116.743C77.7764 118.851 75.5975 121.569 74.1324 124.676C72.5103 127.974 71.6993 132.144 71.6993 137.185V145.769C71.6993 150.807 72.5261 154.976 74.1797 158.275C75.6726 161.377 77.8642 164.094 80.5832 166.211C83.1813 168.19 86.1573 169.619 89.3285 170.41C95.5526 172.029 102.089 172.029 108.313 170.41C111.484 169.619 114.46 168.19 117.058 166.211C119.783 164.095 121.98 161.379 123.478 158.275C125.127 154.976 125.953 150.807 125.955 145.769V137.182C125.955 132.143 125.13 127.974 123.478 124.676ZM117.572 140.865C117.586 145.825 115.626 150.587 112.123 154.105C108.619 157.623 103.859 159.607 98.8899 159.622C93.9204 159.637 89.1485 157.681 85.6241 154.184C82.0997 150.687 80.1114 145.936 80.0966 140.976C80.1624 143.436 81.1972 145.771 82.9767 147.475C84.7561 149.179 87.1367 150.114 89.6023 150.078C92.0679 150.041 94.4197 149.036 96.1479 147.281C97.876 145.525 98.8412 143.161 98.8341 140.699V140.625C98.8363 138.167 99.8078 135.809 101.539 134.06C103.269 132.312 105.62 131.314 108.083 131.282C110.545 131.25 112.922 132.187 114.697 133.89C116.473 135.593 117.506 137.925 117.572 140.382C117.572 140.463 117.572 140.541 117.572 140.625C117.572 140.71 117.575 140.774 117.572 140.855V140.865Z" fill="black"/>
<path d="M85.4728 180.484C85.375 180.391 85.2603 180.318 85.1349 180.268C84.9831 180.209 84.8213 180.181 84.6585 180.184C84.5157 180.174 84.3727 180.199 84.2423 180.258C84.1119 180.317 83.9983 180.407 83.9117 180.521C83.7349 180.791 83.6496 181.11 83.6684 181.432V181.955C83.6489 182.277 83.7342 182.598 83.9117 182.869C83.9916 182.978 84.0977 183.067 84.2204 183.126C84.3431 183.185 84.4785 183.212 84.6145 183.206C84.7755 183.21 84.9355 183.18 85.0842 183.118C85.2121 183.061 85.3271 182.978 85.4222 182.875C85.5161 182.768 85.5894 182.645 85.6384 182.511C85.6877 182.369 85.7128 182.22 85.7128 182.069V181.125C85.7138 181.009 85.6919 180.895 85.6486 180.788C85.6126 180.675 85.5527 180.571 85.4728 180.484Z" fill="black"/>
<path d="M89.0041 182.194C88.9479 182.25 88.9041 182.317 88.8756 182.391C88.8471 182.464 88.8344 182.543 88.8385 182.622V182.723C88.838 182.788 88.8523 182.852 88.8804 182.911C88.9086 182.969 88.9497 183.021 89.0007 183.061C89.1383 183.155 89.3039 183.2 89.4704 183.189C89.6438 183.204 89.8184 183.183 89.9838 183.129C90.1492 183.076 90.3021 182.989 90.4335 182.875C90.5231 182.795 90.5826 182.687 90.6024 182.568C90.6219 182.428 90.6309 182.285 90.6295 182.143V182.015H89.5887C89.378 181.997 89.1687 182.061 89.0041 182.194Z" fill="black"/>
<path d="M75.3556 180.43C75.2636 180.341 75.1544 180.272 75.0346 180.228C74.883 180.173 74.7227 180.147 74.5615 180.15C74.4159 180.139 74.2697 180.159 74.1319 180.207C73.9942 180.255 73.8678 180.331 73.7607 180.43C73.6743 180.52 73.6065 180.625 73.5613 180.741C73.516 180.857 73.4942 180.98 73.4971 181.105V181.28H75.5922V181.078C75.5901 180.963 75.5707 180.849 75.5347 180.74C75.5016 180.624 75.44 180.517 75.3556 180.43Z" fill="black"/>
<path d="M100.699 180.201C100.405 180.186 100.117 180.286 99.8952 180.481C99.7831 180.609 99.6986 180.759 99.6469 180.922C99.5952 181.084 99.5773 181.255 99.5944 181.425V181.938C99.59 182.13 99.6186 182.322 99.6789 182.504C99.7277 182.646 99.8073 182.775 99.9121 182.882C100.007 182.977 100.123 183.05 100.25 183.094C100.392 183.14 100.54 183.163 100.689 183.162C100.838 183.163 100.987 183.14 101.129 183.094C101.256 183.05 101.371 182.977 101.467 182.882C101.571 182.775 101.651 182.646 101.7 182.504C101.76 182.322 101.789 182.13 101.784 181.938V181.425C101.801 181.255 101.783 181.084 101.732 180.922C101.68 180.759 101.595 180.609 101.483 180.481C101.267 180.292 100.987 180.192 100.699 180.201Z" fill="black"/>
<path d="M24.0699 180.43C23.973 180.339 23.8577 180.27 23.732 180.228C23.5804 180.173 23.42 180.147 23.2589 180.15C23.1138 180.139 22.968 180.158 22.8307 180.207C22.6934 180.255 22.5676 180.331 22.4614 180.43C22.3739 180.519 22.3052 180.624 22.2594 180.74C22.2135 180.856 22.1914 180.98 22.1944 181.105V181.28H24.2895V181.078C24.287 180.963 24.2688 180.85 24.2354 180.74C24.206 180.625 24.1492 180.519 24.0699 180.43Z" fill="black"/>
<path d="M53.881 180.201C53.5856 180.186 53.2963 180.287 53.0733 180.481C52.9618 180.61 52.8779 180.76 52.8268 180.922C52.7757 181.085 52.7584 181.256 52.776 181.425V181.938C52.7715 182.13 52.8001 182.322 52.8604 182.504C52.9064 182.646 52.9851 182.776 53.0902 182.882C53.1862 182.976 53.3015 183.049 53.4281 183.095C53.7141 183.184 54.0208 183.184 54.3067 183.095C54.4338 183.05 54.5492 182.977 54.6446 182.882C54.7494 182.775 54.829 182.646 54.8778 182.504C54.9368 182.321 54.9653 182.13 54.9623 181.938V181.425C54.9794 181.255 54.9616 181.084 54.9099 180.922C54.8581 180.759 54.7736 180.609 54.6615 180.481C54.4459 180.293 54.1672 180.193 53.881 180.201Z" fill="black"/>
<path d="M118.068 180.201C117.773 180.186 117.483 180.286 117.261 180.481C117.149 180.609 117.064 180.759 117.012 180.922C116.961 181.084 116.943 181.255 116.96 181.425V181.938C116.957 182.13 116.986 182.321 117.044 182.504C117.093 182.646 117.173 182.775 117.278 182.882C117.373 182.977 117.489 183.05 117.616 183.095C117.901 183.185 118.208 183.185 118.494 183.095C118.621 183.05 118.737 182.977 118.832 182.882C118.937 182.776 119.016 182.646 119.062 182.504C119.122 182.322 119.151 182.13 119.146 181.938V181.425C119.164 181.256 119.147 181.085 119.095 180.922C119.044 180.76 118.96 180.61 118.849 180.481C118.633 180.293 118.355 180.193 118.068 180.201Z" fill="black"/>
<path d="M45.2303 180.43C45.1339 180.339 45.0186 180.269 44.8924 180.228C44.7409 180.173 44.5804 180.146 44.4193 180.15C44.2742 180.139 44.1284 180.158 43.9911 180.207C43.8538 180.255 43.728 180.331 43.6218 180.43C43.5343 180.519 43.4656 180.624 43.4198 180.74C43.3739 180.856 43.3518 180.98 43.3548 181.105V181.28H45.4499V181.078C45.4489 180.963 45.4307 180.849 45.3958 180.74C45.3664 180.625 45.3096 180.519 45.2303 180.43Z" fill="black"/>
<path d="M32.8929 182.194C32.8372 182.25 32.7937 182.317 32.7653 182.391C32.7368 182.465 32.7238 182.543 32.7273 182.622V182.724C32.7268 182.788 32.7411 182.852 32.7692 182.911C32.7973 182.969 32.8385 183.021 32.8895 183.061C33.0282 183.155 33.1949 183.201 33.3626 183.189C33.5359 183.203 33.7103 183.183 33.8757 183.129C34.041 183.075 34.194 182.989 34.3256 182.875C34.414 182.794 34.4733 182.686 34.4946 182.568C34.5127 182.427 34.5206 182.285 34.5183 182.143V182.015H33.4808C33.2692 181.998 33.0588 182.062 32.8929 182.194Z" fill="black"/>
<path d="M149.191 180.43C149.094 180.339 148.978 180.27 148.853 180.228C148.701 180.173 148.541 180.147 148.38 180.15C148.234 180.139 148.089 180.158 147.951 180.207C147.814 180.255 147.688 180.331 147.582 180.43C147.495 180.519 147.426 180.624 147.38 180.74C147.334 180.856 147.312 180.98 147.315 181.105V181.28H149.41V181.078C149.408 180.963 149.39 180.85 149.356 180.74C149.327 180.625 149.27 180.519 149.191 180.43Z" fill="black"/>
<path d="M163.383 174.437H7.26523C5.33864 174.438 3.49122 175.202 2.12892 176.562C0.766622 177.921 0.000895461 179.765 0 181.688C0.000895461 183.611 0.766622 185.455 2.12892 186.815C3.49122 188.174 5.33864 188.938 7.26523 188.939H163.383C165.31 188.938 167.157 188.174 168.519 186.815C169.882 185.455 170.647 183.611 170.648 181.688C170.647 179.765 169.882 177.921 168.519 176.562C167.157 175.202 165.31 174.438 163.383 174.437ZM20.2919 183.543C20.1489 183.639 19.9959 183.719 19.8358 183.782C19.6635 183.854 19.4862 183.913 19.3052 183.958C19.1194 184.002 18.9301 184.035 18.7341 184.062C18.5483 184.088 18.3608 184.1 18.1732 184.1C17.809 184.103 17.4462 184.055 17.0952 183.958C16.7798 183.867 16.4865 183.712 16.2336 183.503C15.9837 183.286 15.7872 183.015 15.6591 182.71C15.5119 182.34 15.4418 181.944 15.453 181.546V180.457C15.4432 180.056 15.5121 179.658 15.6557 179.283C15.775 178.972 15.9655 178.693 16.2118 178.468C16.4582 178.243 16.7538 178.079 17.075 177.988C17.4259 177.884 17.7903 177.833 18.1563 177.836C18.5187 177.837 18.8793 177.888 19.2275 177.988C19.5976 178.095 19.9424 178.275 20.2413 178.518L19.6567 179.344C19.4473 179.156 19.1994 179.015 18.9301 178.933C18.682 178.854 18.4233 178.814 18.1631 178.814C17.9433 178.813 17.7242 178.839 17.5109 178.892C17.3191 178.945 17.1437 179.044 17.0006 179.182C16.8432 179.342 16.7272 179.537 16.6627 179.752C16.5731 180.061 16.5321 180.382 16.5411 180.703V181.327C16.5334 181.612 16.5757 181.896 16.6661 182.167C16.7365 182.375 16.8519 182.565 17.004 182.723C17.1559 182.865 17.3386 182.97 17.5379 183.03C17.7576 183.093 17.9852 183.124 18.2138 183.121C18.3914 183.123 18.5689 183.109 18.7443 183.081C18.9037 183.051 19.0599 183.006 19.2106 182.946V181.486H17.9434V180.585H20.2919V183.543ZM25.3269 182.069H22.2113C22.2 182.222 22.2203 182.375 22.2709 182.52C22.3214 182.664 22.4012 182.797 22.5053 182.909C22.7435 183.109 23.0498 183.209 23.3602 183.189C23.6075 183.193 23.8543 183.164 24.0935 183.101C24.3299 183.033 24.5569 182.935 24.7693 182.811L25.2086 183.577C24.9641 183.738 24.6963 183.861 24.4145 183.941C24.0509 184.037 23.6756 184.083 23.2994 184.076C23.0344 184.076 22.7706 184.04 22.5154 183.968C22.2567 183.9 22.0172 183.773 21.8155 183.598C21.6139 183.422 21.4556 183.203 21.353 182.956C21.2213 182.625 21.1592 182.27 21.1705 181.914V181.435C21.1638 181.103 21.2199 180.772 21.3361 180.46C21.4353 180.205 21.5899 179.975 21.7889 179.786C21.983 179.608 22.2136 179.474 22.4648 179.395C22.7331 179.307 23.0138 179.264 23.296 179.266C23.5727 179.265 23.8478 179.308 24.1104 179.395C24.3518 179.473 24.5724 179.604 24.7558 179.779C24.9426 179.957 25.0869 180.175 25.1782 180.417C25.2846 180.701 25.3362 181.003 25.3303 181.307L25.3269 182.069ZM28.5844 184.012C28.4007 184.055 28.2124 184.077 28.0235 184.076C27.7945 184.083 27.566 184.051 27.3477 183.982C27.1835 183.93 27.0356 183.837 26.9185 183.712C26.808 183.587 26.7292 183.438 26.6887 183.277C26.6416 183.086 26.6189 182.89 26.6211 182.693V180.238H25.8777V179.361H26.6211V178.174H27.7092V179.361H28.8852V180.238H27.7092V182.683C27.6991 182.753 27.7047 182.824 27.7258 182.891C27.7468 182.958 27.7827 183.019 27.8309 183.071C27.9298 183.139 28.0487 183.172 28.1688 183.165C28.2754 183.165 28.3818 183.155 28.4864 183.135C28.6023 183.112 28.7155 183.076 28.8244 183.03L28.9933 183.88C28.8622 183.942 28.7252 183.991 28.5844 184.025V184.012ZM35.576 184.012H34.6196L34.6027 183.438C34.5546 183.545 34.4816 183.639 34.3899 183.712C34.2865 183.793 34.1729 183.861 34.0519 183.914C33.9271 183.968 33.7968 184.009 33.6633 184.035C33.3975 184.092 33.1231 184.094 32.8562 184.043C32.5893 183.992 32.3352 183.889 32.1089 183.739C31.9705 183.622 31.861 183.474 31.7889 183.308C31.7168 183.142 31.6841 182.962 31.6933 182.781V182.511C31.6916 182.332 31.7214 182.154 31.7811 181.985C31.8426 181.822 31.945 181.678 32.0785 181.567C32.2387 181.437 32.4239 181.342 32.6226 181.287C32.8923 181.214 33.1711 181.18 33.4504 181.186H34.5149V181.01C34.5262 180.899 34.5143 180.786 34.48 180.679C34.4457 180.572 34.3897 180.474 34.3155 180.39C34.1385 180.248 33.9131 180.18 33.687 180.201C33.2077 180.2 32.7427 180.363 32.3691 180.663L31.8453 179.887C32.0977 179.716 32.3672 179.571 32.6496 179.455C33.2239 179.235 33.8536 179.203 34.4473 179.364C34.6618 179.424 34.8634 179.522 35.042 179.654C35.206 179.777 35.3391 179.937 35.4306 180.12C35.5279 180.314 35.5766 180.53 35.5726 180.747L35.576 184.012ZM41.5807 180.302C41.4995 180.266 41.4145 180.24 41.3273 180.224C41.2156 180.206 41.1025 180.198 40.9894 180.201C40.8496 180.199 40.7107 180.224 40.5805 180.275C40.4538 180.322 40.3386 180.396 40.2426 180.491C40.1483 180.588 40.0737 180.703 40.0229 180.828C39.9707 180.961 39.9443 181.103 39.9452 181.246V184.005H38.8808V179.357H39.8945V180.032C40.0101 179.807 40.1796 179.613 40.3879 179.469C40.6291 179.318 40.9109 179.243 41.1955 179.256C41.3143 179.257 41.4328 179.266 41.5503 179.283C41.6537 179.296 41.7556 179.318 41.8545 179.351L41.5807 180.302ZM46.4907 182.056H43.3717C43.3601 182.209 43.3805 182.362 43.4317 182.507C43.4829 182.651 43.5637 182.784 43.6691 182.895C43.9057 183.096 44.2111 183.196 44.5206 183.175C44.7691 183.18 45.0169 183.151 45.2573 183.088C45.4934 183.019 45.7203 182.921 45.9331 182.798L46.3724 183.563C46.1276 183.724 45.8599 183.847 45.5783 183.928C45.2147 184.024 44.8394 184.069 44.4632 184.062C44.197 184.063 43.9321 184.026 43.6758 183.954C43.4284 183.893 43.1976 183.778 43 183.617C42.787 183.434 42.6213 183.203 42.5168 182.943C42.3879 182.611 42.327 182.256 42.3377 181.901V181.422C42.3299 181.089 42.3849 180.759 42.4999 180.447C42.6003 180.192 42.7548 179.962 42.9527 179.772C43.1473 179.595 43.3778 179.462 43.6285 179.381C43.897 179.294 44.1776 179.251 44.4598 179.253C44.7365 179.251 45.0116 179.294 45.2742 179.381C45.5163 179.46 45.7379 179.591 45.923 179.766C46.1086 179.945 46.2528 180.162 46.3454 180.403C46.4517 180.688 46.5033 180.99 46.4974 181.293L46.4907 182.056ZM50.4511 183.894C50.1011 184.013 49.7328 184.07 49.363 184.062C49.0757 184.082 48.7875 184.041 48.5169 183.943C48.2463 183.845 47.9993 183.692 47.7917 183.492C47.4122 183.062 47.2179 182.5 47.251 181.927V181.347C47.2335 181.065 47.2742 180.782 47.3707 180.515C47.4672 180.249 47.6174 180.005 47.8119 179.799C48.0187 179.609 48.2616 179.462 48.5263 179.367C48.791 179.272 49.072 179.231 49.3528 179.246C49.5487 179.245 49.7444 179.261 49.9374 179.293C50.0929 179.32 50.2455 179.361 50.3936 179.415C50.5199 179.462 50.641 179.522 50.7552 179.594C50.8633 179.661 50.9613 179.728 51.0526 179.796L50.5356 180.572C50.3665 180.432 50.1728 180.326 49.9645 180.258C49.7656 180.201 49.5597 180.173 49.3528 180.174C49.2207 180.174 49.0896 180.196 48.9642 180.238C48.8383 180.28 48.723 180.349 48.6263 180.44C48.5232 180.543 48.4447 180.667 48.3965 180.804C48.3352 180.979 48.3066 181.163 48.3121 181.347V181.911C48.3064 182.112 48.3397 182.312 48.4101 182.501C48.4646 182.644 48.5499 182.773 48.6601 182.879C48.7568 182.967 48.8723 183.033 48.998 183.071C49.1152 183.107 49.2371 183.125 49.3596 183.125C49.6071 183.132 49.8541 183.097 50.0895 183.02C50.282 182.951 50.4631 182.853 50.6268 182.73L51.1337 183.506C50.9341 183.686 50.7026 183.826 50.4511 183.921V183.894ZM56.0605 181.927C56.0661 182.237 56.0133 182.545 55.9051 182.835C55.8098 183.089 55.6599 183.319 55.4658 183.509C55.2718 183.692 55.0416 183.832 54.7899 183.921C54.2075 184.114 53.578 184.114 52.9956 183.921C52.7384 183.837 52.5035 183.696 52.3087 183.508C52.1138 183.321 51.9639 183.092 51.8703 182.838C51.7637 182.548 51.7111 182.24 51.7149 181.931V181.384C51.7102 181.074 51.7629 180.765 51.8703 180.474C51.9665 180.22 52.1164 179.99 52.3096 179.799C52.5038 179.617 52.734 179.477 52.9855 179.388C53.5679 179.194 54.1974 179.194 54.7798 179.388C55.0314 179.476 55.2617 179.616 55.4556 179.799C55.6501 179.989 55.8001 180.219 55.8949 180.474C56.004 180.765 56.0567 181.074 56.0504 181.384L56.0605 181.927ZM63.6738 183.995H62.6093V181.219C62.6134 181.046 62.5906 180.873 62.5418 180.707C62.5045 180.588 62.441 180.48 62.3559 180.39C62.2808 180.315 62.1877 180.262 62.0856 180.234C61.8794 180.174 61.6599 180.174 61.4537 180.234C61.3511 180.265 61.2573 180.319 61.18 180.393C61.0945 180.482 61.0289 180.587 60.9874 180.703C60.932 180.857 60.9056 181.019 60.9096 181.182V183.992H59.8452V181.199C59.8489 181.033 59.8261 180.868 59.7776 180.71C59.7413 180.594 59.6789 180.488 59.5951 180.4C59.5242 180.321 59.433 180.264 59.3315 180.234C59.2219 180.202 59.108 180.186 58.9936 180.187C58.8804 180.183 58.7675 180.201 58.6618 180.242C58.5561 180.283 58.4597 180.344 58.3786 180.423C58.2932 180.521 58.2283 180.635 58.1877 180.759C58.1471 180.882 58.1316 181.012 58.1421 181.142V183.992H57.0776V179.344H58.0914V179.934H58.1218C58.2339 179.722 58.4052 179.546 58.6152 179.428C58.8562 179.3 59.1262 179.237 59.3991 179.243C59.6689 179.238 59.9351 179.305 60.1696 179.438C60.3819 179.549 60.5482 179.73 60.6393 179.951C60.7864 179.731 60.9846 179.549 61.2171 179.422C61.4878 179.293 61.7859 179.231 62.0856 179.243C62.2946 179.242 62.502 179.28 62.6972 179.354C62.89 179.428 63.0642 179.543 63.2075 179.691C63.3551 179.851 63.4699 180.038 63.5454 180.241C63.6376 180.486 63.6824 180.746 63.6772 181.007L63.6738 183.995ZM71.4864 183.995H70.422V181.219C70.426 181.046 70.4032 180.873 70.3544 180.707C70.3186 180.588 70.2548 180.479 70.1686 180.39C70.094 180.315 70.0006 180.261 69.8982 180.234C69.7885 180.203 69.6745 180.188 69.5603 180.191C69.4561 180.192 69.3525 180.208 69.2528 180.238C69.15 180.267 69.056 180.322 68.9791 180.396C68.8914 180.484 68.8244 180.59 68.7831 180.707C68.729 180.86 68.7038 181.023 68.7088 181.186V183.995H67.6443V181.202C67.648 181.037 67.6252 180.872 67.5767 180.713C67.5378 180.599 67.4757 180.493 67.3943 180.403C67.3215 180.325 67.2294 180.268 67.1273 180.238C67.0177 180.205 66.9038 180.189 66.7894 180.191C66.6757 180.187 66.5624 180.205 66.4562 180.246C66.3499 180.286 66.253 180.348 66.171 180.427C66.0856 180.525 66.0207 180.639 65.9801 180.762C65.9395 180.885 65.924 181.016 65.9345 181.145V183.995H64.87V179.347H65.8838V179.938H65.9007C66.0127 179.725 66.1841 179.549 66.394 179.432C66.6337 179.303 66.9027 179.239 67.1746 179.246C67.4454 179.242 67.7125 179.309 67.9484 179.442C68.1607 179.552 68.3271 179.734 68.4182 179.954C68.5645 179.733 68.7629 179.552 68.996 179.425C69.2655 179.296 69.5624 179.235 69.8611 179.246C70.0701 179.245 70.2775 179.283 70.4727 179.357C70.6665 179.431 70.8419 179.546 70.9863 179.695C71.1341 179.854 71.249 180.041 71.3242 180.245C71.4165 180.489 71.4612 180.749 71.456 181.01L71.4864 183.995ZM76.6228 182.056H73.5072C73.4959 182.208 73.5162 182.362 73.5667 182.506C73.6173 182.651 73.6971 182.783 73.8012 182.895C74.039 183.096 74.3455 183.196 74.6561 183.175C74.9034 183.18 75.1501 183.15 75.3894 183.088C75.6255 183.019 75.8524 182.921 76.0652 182.798L76.5045 183.563C76.2597 183.724 75.992 183.847 75.7104 183.928C75.3468 184.024 74.9715 184.069 74.5953 184.062C74.3302 184.063 74.0664 184.026 73.8113 183.954C73.552 183.888 73.3119 183.762 73.1101 183.586C72.9083 183.41 72.7504 183.19 72.6489 182.943C72.5171 182.611 72.455 182.257 72.4664 181.901V181.422C72.458 181.089 72.5142 180.758 72.632 180.447C72.7299 180.191 72.8847 179.96 73.0848 179.772C73.2786 179.594 73.5093 179.461 73.7606 179.381C74.0302 179.294 74.312 179.251 74.5953 179.253C74.8719 179.251 75.147 179.294 75.4097 179.381C75.651 179.459 75.8716 179.591 76.0551 179.766C76.2407 179.945 76.3849 180.162 76.4775 180.403C76.5838 180.688 76.6354 180.99 76.6295 181.293L76.6228 182.056ZM81.6476 183.995H80.5866V181.196C80.5866 180.521 80.2892 180.184 79.6978 180.184C79.5964 180.186 79.4955 180.2 79.3971 180.224C79.2744 180.249 79.1588 180.301 79.0592 180.376C78.944 180.465 78.8524 180.581 78.7922 180.713C78.7116 180.887 78.6744 181.078 78.6841 181.27V184.019H77.6197V179.371H78.6334V179.904H78.6503C78.7968 179.681 79.0078 179.508 79.2552 179.408C79.5024 179.315 79.7647 179.268 80.029 179.27C80.2333 179.269 80.4364 179.301 80.6305 179.364C80.8233 179.425 81.0009 179.526 81.1509 179.661C81.3107 179.811 81.4354 179.994 81.5158 180.197C81.6095 180.451 81.6542 180.72 81.6476 180.99V183.995ZM86.7772 183.995H85.7635V183.445H85.7364C85.6171 183.666 85.4213 183.836 85.1856 183.924C84.9349 184.018 84.6692 184.064 84.4016 184.062C84.1516 184.084 83.9 184.048 83.6658 183.958C83.4316 183.868 83.221 183.726 83.05 183.543C82.7292 183.125 82.5708 182.605 82.6039 182.079V181.263C82.5997 180.974 82.6443 180.687 82.7357 180.413C82.8147 180.179 82.9426 179.964 83.1108 179.782C83.277 179.611 83.4773 179.475 83.6988 179.384C84.0987 179.237 84.5324 179.207 84.9491 179.297C85.0719 179.324 85.1909 179.366 85.3039 179.422C85.392 179.463 85.4739 179.516 85.5472 179.58C85.6005 179.63 85.6481 179.685 85.6891 179.745V177.621H86.7536L86.7772 183.995ZM91.6838 183.995H90.7308L90.714 183.422C90.6645 183.528 90.5904 183.622 90.4977 183.695C90.3953 183.778 90.2815 183.846 90.1598 183.897C90.0351 183.952 89.9048 183.992 89.7712 184.019C89.6437 184.048 89.5133 184.062 89.3826 184.062C88.9665 184.089 88.5543 183.969 88.2167 183.725C88.0793 183.608 87.9707 183.46 87.8993 183.294C87.8278 183.128 87.7954 182.948 87.8045 182.767V182.497C87.8028 182.318 87.8326 182.14 87.8923 181.971C87.9538 181.809 88.0562 181.665 88.1897 181.553C88.3494 181.423 88.5348 181.327 88.7337 181.273C89.0034 181.2 89.2822 181.166 89.5617 181.172H90.6261V180.997C90.6365 180.885 90.6243 180.773 90.59 180.666C90.5557 180.559 90.5002 180.461 90.4267 180.376C90.2497 180.234 90.0243 180.166 89.7982 180.187C89.3189 180.186 88.8539 180.35 88.4803 180.649L87.9565 179.874C88.2082 179.703 88.4765 179.558 88.7574 179.442C89.0899 179.308 89.4463 179.242 89.805 179.25C90.0597 179.247 90.3134 179.281 90.5585 179.351C90.7727 179.411 90.9742 179.509 91.1532 179.641C91.3223 179.768 91.4584 179.933 91.5501 180.123C91.6419 180.313 91.6865 180.523 91.6804 180.734L91.6838 183.995ZM95.1373 183.995C94.9535 184.039 94.7652 184.06 94.5763 184.059C94.3473 184.066 94.1187 184.034 93.9005 183.965C93.7356 183.913 93.5868 183.82 93.468 183.695C93.3586 183.57 93.2809 183.421 93.2416 183.26C93.1945 183.069 93.1718 182.873 93.174 182.676V180.221H92.4306V179.344H93.174V178.157H94.2384V179.344H95.4144V180.221H94.2452V182.666C94.235 182.736 94.2407 182.807 94.2617 182.874C94.2828 182.941 94.3187 183.003 94.3668 183.054C94.4652 183.123 94.5846 183.157 94.7048 183.148C94.8114 183.149 94.9177 183.138 95.0224 183.118C95.1381 183.094 95.2513 183.059 95.3603 183.014L95.5293 183.863C95.4042 183.93 95.2729 183.984 95.1373 184.025V183.995ZM97.4622 183.995H96.3977V179.347H97.4622V183.995ZM97.4892 178.666H96.3741V177.519H97.4892V178.666ZM102.869 181.927C102.883 182.247 102.835 182.567 102.727 182.868C102.632 183.123 102.482 183.353 102.288 183.543C102.094 183.726 101.863 183.866 101.612 183.954C101.029 184.148 100.4 184.148 99.8175 183.954C99.5658 183.866 99.3356 183.726 99.1416 183.543C98.9475 183.353 98.7975 183.123 98.7023 182.868C98.5929 182.579 98.539 182.271 98.5435 181.961V181.415C98.5381 181.104 98.592 180.795 98.7023 180.504C98.7971 180.25 98.9472 180.019 99.1416 179.83C99.3356 179.647 99.5658 179.507 99.8175 179.418C100.4 179.225 101.029 179.225 101.612 179.418C101.863 179.507 102.094 179.647 102.288 179.83C102.482 180.019 102.632 180.25 102.727 180.504C102.836 180.795 102.889 181.104 102.882 181.415L102.869 181.927ZM107.914 183.995H106.85V181.196C106.85 180.521 106.552 180.184 105.961 180.184C105.86 180.186 105.761 180.2 105.663 180.224C105.541 180.248 105.425 180.3 105.326 180.376C105.21 180.465 105.119 180.581 105.059 180.713C104.98 180.888 104.942 181.078 104.95 181.27V184.019H103.886V179.371H104.9V179.904H104.917C105.064 179.682 105.275 179.509 105.521 179.408C105.769 179.315 106.031 179.268 106.295 179.27C106.501 179.269 106.705 179.301 106.9 179.364C107.092 179.425 107.268 179.527 107.417 179.661C107.577 179.811 107.702 179.994 107.782 180.197C107.879 180.45 107.924 180.719 107.917 180.99L107.914 183.995ZM113.895 183.995H112.814V181.59L110.725 177.914H111.935L113.378 180.595L114.797 177.914H115.98L113.895 181.59V183.995ZM120.248 181.927C120.253 182.237 120.201 182.545 120.092 182.835C119.999 183.089 119.849 183.318 119.653 183.506C119.458 183.694 119.222 183.834 118.964 183.917C118.381 184.111 117.752 184.111 117.17 183.917C116.918 183.829 116.687 183.689 116.494 183.506C116.3 183.316 116.15 183.086 116.054 182.831C115.946 182.541 115.893 182.234 115.899 181.924V181.378C115.893 181.067 115.945 180.758 116.054 180.467C116.149 180.213 116.299 179.982 116.494 179.793C116.687 179.609 116.918 179.469 117.17 179.381C117.752 179.188 118.381 179.188 118.964 179.381C119.221 179.464 119.457 179.605 119.652 179.792C119.848 179.979 119.998 180.207 120.092 180.46C120.202 180.751 120.254 181.06 120.248 181.371V181.927ZM125.222 183.995H124.208V183.438H124.191C124.125 183.548 124.039 183.645 123.938 183.725C123.834 183.803 123.72 183.868 123.6 183.917C123.477 183.969 123.349 184.008 123.218 184.032C123.091 184.057 122.962 184.07 122.833 184.069C122.619 184.079 122.404 184.046 122.203 183.972C122.001 183.898 121.817 183.784 121.66 183.637C121.504 183.463 121.384 183.26 121.309 183.038C121.233 182.817 121.203 182.582 121.221 182.349V179.347H122.286V182.123C122.28 182.293 122.303 182.463 122.353 182.626C122.39 182.742 122.453 182.849 122.539 182.936C122.617 183.01 122.712 183.064 122.816 183.094C122.926 183.127 123.04 183.143 123.154 183.142C123.268 183.141 123.382 183.124 123.492 183.091C123.609 183.057 123.716 182.997 123.806 182.916C123.909 182.821 123.992 182.706 124.049 182.578C124.118 182.413 124.15 182.235 124.144 182.056V179.357H125.209L125.222 183.995ZM129.186 180.285C129.104 180.251 129.019 180.225 128.932 180.207C128.821 180.19 128.708 180.182 128.594 180.184C128.455 180.182 128.316 180.207 128.186 180.258C128.059 180.305 127.944 180.379 127.848 180.474C127.753 180.571 127.679 180.686 127.628 180.811C127.573 180.944 127.545 181.086 127.547 181.229V183.988H126.483V179.341H127.496V180.015C127.611 179.789 127.78 179.595 127.99 179.452C128.231 179.301 128.513 179.227 128.797 179.239C128.91 179.241 129.023 179.25 129.135 179.266C129.239 179.279 129.34 179.301 129.439 179.334L129.186 180.285ZM135.877 183.995L134.035 181.381L133.467 181.995V183.995H132.386V177.924H133.477V180.707L135.877 177.924H137.127L134.761 180.605L137.245 184.005L135.877 183.995ZM141.824 181.927C141.828 182.237 141.775 182.544 141.669 182.835C141.575 183.089 141.425 183.318 141.229 183.506C141.034 183.694 140.798 183.834 140.54 183.917C140.252 184.017 139.949 184.066 139.644 184.062C139.339 184.068 139.034 184.018 138.746 183.917C138.494 183.829 138.263 183.689 138.07 183.506C137.876 183.316 137.726 183.086 137.63 182.831C137.522 182.541 137.469 182.234 137.475 181.924V181.378C137.469 181.067 137.521 180.758 137.63 180.467C137.725 180.213 137.875 179.982 138.07 179.793C138.263 179.609 138.494 179.469 138.746 179.381C139.034 179.28 139.339 179.231 139.644 179.236C139.949 179.232 140.252 179.281 140.54 179.381C140.797 179.464 141.033 179.605 141.228 179.792C141.424 179.979 141.574 180.207 141.669 180.46C141.776 180.752 141.829 181.061 141.824 181.371V181.927ZM145.541 180.302C145.459 180.267 145.375 180.241 145.288 180.224C145.176 180.206 145.063 180.199 144.95 180.201C144.809 180.199 144.669 180.224 144.537 180.275C144.411 180.323 144.296 180.396 144.2 180.491C144.104 180.587 144.03 180.702 143.98 180.828C143.925 180.96 143.897 181.103 143.899 181.246V184.005H142.834V179.357H143.848V180.032C143.962 179.805 144.132 179.611 144.341 179.469C144.583 179.317 144.864 179.243 145.149 179.256C145.268 179.257 145.386 179.266 145.504 179.283C145.607 179.296 145.709 179.318 145.808 179.351L145.541 180.302ZM150.448 182.056H147.332C147.321 182.208 147.341 182.362 147.392 182.506C147.442 182.651 147.522 182.783 147.626 182.895C147.864 183.095 148.17 183.196 148.481 183.175C148.728 183.18 148.975 183.15 149.214 183.088C149.451 183.019 149.678 182.922 149.89 182.798L150.329 183.563C150.085 183.724 149.817 183.847 149.535 183.928C149.172 184.024 148.796 184.069 148.42 184.062C148.155 184.063 147.891 184.026 147.636 183.954C147.377 183.888 147.137 183.762 146.935 183.586C146.733 183.41 146.575 183.19 146.474 182.943C146.342 182.611 146.28 182.257 146.291 181.901V181.422C146.284 181.089 146.341 180.758 146.457 180.447C146.556 180.191 146.711 179.961 146.91 179.772C147.104 179.594 147.334 179.461 147.585 179.381C147.854 179.294 148.135 179.251 148.417 179.253C148.693 179.251 148.968 179.294 149.231 179.381C149.472 179.459 149.693 179.591 149.877 179.766C150.063 179.944 150.208 180.162 150.299 180.403C150.405 180.688 150.457 180.99 150.451 181.293L150.448 182.056ZM155.094 183.995H154.141V183.422C154.09 183.528 154.017 183.621 153.925 183.695C153.822 183.778 153.709 183.846 153.587 183.897C153.462 183.952 153.332 183.992 153.198 184.019C153.071 184.048 152.94 184.062 152.81 184.062C152.394 184.089 151.981 183.969 151.644 183.725C151.506 183.608 151.397 183.461 151.325 183.294C151.254 183.128 151.222 182.948 151.232 182.767V182.497C151.228 182.318 151.258 182.14 151.319 181.971C151.38 181.809 151.481 181.665 151.613 181.553C151.774 181.423 151.961 181.328 152.161 181.273C152.43 181.2 152.709 181.166 152.989 181.172H154.053V180.997C154.064 180.885 154.051 180.773 154.017 180.666C153.983 180.559 153.927 180.461 153.854 180.376C153.677 180.234 153.451 180.166 153.225 180.187C152.746 180.185 152.28 180.348 151.907 180.649L151.384 179.874C151.635 179.703 151.904 179.558 152.185 179.442C152.517 179.308 152.873 179.242 153.232 179.25C153.487 179.248 153.74 179.282 153.986 179.351C154.2 179.411 154.401 179.509 154.58 179.641C154.744 179.765 154.876 179.924 154.969 180.106C155.064 180.302 155.111 180.517 155.107 180.734L155.094 183.995Z" fill="black"/>
<path d="M139.644 180.201C139.349 180.186 139.059 180.286 138.837 180.481C138.725 180.609 138.64 180.759 138.588 180.922C138.537 181.084 138.519 181.255 138.536 181.425V181.938C138.533 182.13 138.562 182.321 138.621 182.504C138.669 182.646 138.749 182.775 138.854 182.882C138.949 182.977 139.065 183.05 139.192 183.095C139.334 183.14 139.482 183.163 139.631 183.162C139.78 183.163 139.928 183.14 140.07 183.095C140.197 183.049 140.312 182.976 140.408 182.882C140.513 182.776 140.592 182.646 140.638 182.504C140.698 182.322 140.727 182.13 140.722 181.938V181.425C140.74 181.255 140.723 181.084 140.671 180.921C140.619 180.759 140.534 180.609 140.422 180.481C140.207 180.293 139.93 180.193 139.644 180.201Z" fill="black"/>
<path d="M152.401 182.194C152.345 182.25 152.301 182.317 152.272 182.391C152.244 182.464 152.231 182.543 152.235 182.622V182.723C152.235 182.788 152.249 182.852 152.276 182.91C152.304 182.968 152.344 183.02 152.394 183.061C152.533 183.155 152.7 183.2 152.867 183.189C153.041 183.203 153.215 183.183 153.38 183.129C153.546 183.075 153.699 182.989 153.83 182.875C153.919 182.794 153.978 182.686 153.999 182.568C154.019 182.428 154.028 182.285 154.026 182.143V182.015H152.985C152.775 181.997 152.565 182.061 152.401 182.194Z" fill="black"/>
</g>
<defs>
<clipPath id="clip0_15_1364">
<rect width="172" height="188.939" fill="white"/>
</clipPath>
</defs>
</svg>
