<svg width="29" height="25" viewBox="0 0 29 25" fill="none" xmlns="http://www.w3.org/2000/svg">
<path d="M14.5065 0C7.03145 0 0.962891 4.77932 0.962891 10.6786C0.962891 14.4942 3.50231 17.841 7.30493 19.7293C7.09656 20.4456 5.97662 24.3263 5.92452 24.6389C5.92452 24.6389 5.89848 24.8733 6.04173 24.9514C6.18498 25.0426 6.3673 24.9775 6.3673 24.9775C6.79704 24.9124 11.3029 21.7478 12.0842 21.2009C12.8656 21.3051 13.673 21.3702 14.4934 21.3702C21.9684 21.3702 28.037 16.5909 28.037 10.6916C28.05 4.77932 21.9815 0 14.5065 0Z" fill="black"/>
<path d="M7.01821 14.403C6.58846 14.403 6.23685 14.0644 6.23685 13.6607V9.01165H5.01272C4.596 9.01165 4.24438 8.67306 4.24438 8.24331C4.24438 7.82659 4.58297 7.47498 5.01272 7.47498H9.01068C9.4274 7.47498 9.77902 7.81356 9.77902 8.24331C9.77902 8.66004 9.44043 9.01165 9.01068 9.01165H7.78655V13.6477C7.79957 14.0775 7.44796 14.403 7.01821 14.403Z" fill="#FFE812"/>
<path d="M13.8684 14.39C13.5428 14.39 13.2954 14.2598 13.2172 14.0384L12.8265 13.0227H10.4434L10.0527 14.0384C9.97458 14.2468 9.72715 14.377 9.40159 14.377C9.23229 14.377 9.063 14.338 8.90672 14.2728C8.68534 14.1687 8.49 13.8952 8.72441 13.1659L10.5997 8.25637C10.7299 7.87872 11.1336 7.50106 11.6415 7.48804C12.1494 7.50106 12.5531 7.87872 12.6833 8.25637L14.5455 13.1789C14.7799 13.9212 14.5716 14.1947 14.3632 14.2859C14.22 14.364 14.0377 14.39 13.8684 14.39ZM12.4228 11.6553L11.6415 9.44144L10.8601 11.6553H12.4228Z" fill="#FFE812"/>
<path d="M15.8085 14.2989C15.3918 14.2989 15.0532 13.9733 15.0532 13.5826V8.2694C15.0532 7.83965 15.4048 7.48804 15.8476 7.48804C16.2904 7.48804 16.642 7.83965 16.642 8.2694V12.8534H18.3089C18.7256 12.8534 19.0642 13.1789 19.0642 13.5696C19.0642 13.9603 18.7256 14.2859 18.3089 14.2859H15.8085V14.2989Z" fill="#FFE812"/>
<path d="M20.1454 14.39C19.7156 14.39 19.364 14.0384 19.364 13.6087V8.2694C19.364 7.83965 19.7156 7.48804 20.1454 7.48804C20.5751 7.48804 20.9267 7.83965 20.9267 8.2694V9.94932L23.1015 7.77454C23.2187 7.65733 23.362 7.60524 23.5313 7.60524C23.7266 7.60524 23.9219 7.68338 24.0652 7.83965C24.2084 7.9829 24.2866 8.15219 24.2996 8.33451C24.3126 8.51683 24.2475 8.68612 24.1303 8.81635L22.3462 10.6005L24.2736 13.1529C24.4038 13.3222 24.4559 13.5306 24.4298 13.7259C24.4038 13.9343 24.2996 14.1166 24.1303 14.2468C24.0001 14.351 23.8308 14.4031 23.6615 14.4031C23.4141 14.4031 23.1927 14.2859 23.0364 14.0905L21.2002 11.6683L20.9267 11.9418V13.6478C20.9267 14.0515 20.5751 14.39 20.1454 14.39Z" fill="#FFE812"/>
</svg>
