<svg width="91" height="91" viewBox="0 0 91 91" fill="none" xmlns="http://www.w3.org/2000/svg">
<g filter="url(#filter0_d_154_222)">
<circle cx="45.5" cy="41.5" r="27.5" fill="url(#paint0_linear_154_222)" fill-opacity="0.6"/>
</g>
<path d="M38.0376 52.8125H53.5626" stroke="white" stroke-width="2" stroke-linecap="round" stroke-linejoin="round"/>
<path d="M45.8001 42.4625C47.7055 42.4625 49.2501 40.9179 49.2501 39.0125C49.2501 37.1071 47.7055 35.5625 45.8001 35.5625C43.8947 35.5625 42.3501 37.1071 42.3501 39.0125C42.3501 40.9179 43.8947 42.4625 45.8001 42.4625Z" stroke="white" stroke-width="2" stroke-linecap="round" stroke-linejoin="round"/>
<path d="M54.425 39.0125C54.425 46.775 45.8 52.8125 45.8 52.8125C45.8 52.8125 37.175 46.775 37.175 39.0125C37.175 36.725 38.0838 34.5312 39.7013 32.9137C41.3188 31.2962 43.5126 30.3875 45.8 30.3875C48.0875 30.3875 50.2813 31.2962 51.8988 32.9137C53.5163 34.5312 54.425 36.725 54.425 39.0125V39.0125Z" stroke="white" stroke-width="2" stroke-linecap="round" stroke-linejoin="round"/>
<defs>
<filter id="filter0_d_154_222" x="0" y="0" width="91" height="91" filterUnits="userSpaceOnUse" color-interpolation-filters="sRGB">
<feFlood flood-opacity="0" result="BackgroundImageFix"/>
<feColorMatrix in="SourceAlpha" type="matrix" values="0 0 0 0 0 0 0 0 0 0 0 0 0 0 0 0 0 0 127 0" result="hardAlpha"/>
<feOffset dy="4"/>
<feGaussianBlur stdDeviation="9"/>
<feComposite in2="hardAlpha" operator="out"/>
<feColorMatrix type="matrix" values="0 0 0 0 0 0 0 0 0 0 0 0 0 0 0 0 0 0 0.22 0"/>
<feBlend mode="normal" in2="BackgroundImageFix" result="effect1_dropShadow_154_222"/>
<feBlend mode="normal" in="SourceGraphic" in2="effect1_dropShadow_154_222" result="shape"/>
</filter>
<linearGradient id="paint0_linear_154_222" x1="26.5" y1="20" x2="63.5" y2="63.5" gradientUnits="userSpaceOnUse">
<stop offset="0.135033" stop-color="#FF4444"/>
<stop offset="0.660734" stop-color="#3A58F5" stop-opacity="0.97"/>
</linearGradient>
</defs>
</svg>
