<svg width="34" height="34" viewBox="0 0 34 34" fill="none" xmlns="http://www.w3.org/2000/svg">
<mask id="mask0_180_353" style="mask-type:alpha" maskUnits="userSpaceOnUse" x="8" y="10" width="18" height="16">
<path fill-rule="evenodd" clip-rule="evenodd" d="M8.1875 14.8762C8.1875 12.1964 10.3794 10.0405 13.0625 10.0405C14.476 10.0405 15.6719 10.7969 16.4449 11.4375C16.652 11.6091 16.838 11.7802 17 11.9395C17.162 11.7802 17.348 11.6091 17.5551 11.4375C18.328 10.7969 19.524 10.0405 20.9375 10.0405C23.6206 10.0405 25.8125 12.1964 25.8125 14.8762C25.8125 15.881 25.6102 17.5139 24.4948 19.4488C23.3826 21.3784 21.3919 23.5573 17.8942 25.7076L17.8905 25.7098C17.6222 25.8731 17.3141 25.9594 17 25.9594C16.6859 25.9594 16.3778 25.8731 16.1095 25.7098L16.1058 25.7076C12.6081 23.5573 10.6174 21.3784 9.50515 19.4488C8.38982 17.5139 8.1875 15.881 8.1875 14.8762ZM17.751 13.9017C17.574 14.1385 17.2957 14.278 17 14.278C16.7047 14.278 16.4266 14.1389 16.2496 13.9025C16.2494 13.9022 16.2492 13.9019 16.249 13.9017L16.2492 13.902L16.2496 13.9025L16.2497 13.9026L16.25 13.9031C16.2501 13.9031 16.2497 13.9026 16.2489 13.9016L16.2394 13.8892C16.2298 13.8769 16.214 13.8568 16.1922 13.83C16.1486 13.7763 16.0815 13.6962 15.9936 13.5984C15.8167 13.4018 15.5612 13.1404 15.2483 12.8811C14.5961 12.3405 13.8233 11.9155 13.0625 11.9155C11.397 11.9155 10.0625 13.2498 10.0625 14.8762C10.0625 15.6093 10.2047 16.9079 11.1296 18.5124C12.0493 20.1079 13.7716 22.0555 17 24.0561C20.2284 22.0555 21.9507 20.1079 22.8704 18.5124C23.7953 16.9079 23.9375 15.6093 23.9375 14.8762C23.9375 13.2498 22.603 11.9155 20.9375 11.9155C20.1767 11.9155 19.4039 12.3405 18.7516 12.8811C18.4388 13.1404 18.1833 13.4018 18.0064 13.5984C17.9185 13.6962 17.8514 13.7763 17.8078 13.83C17.786 13.8568 17.7702 13.8769 17.7606 13.8892L17.7511 13.9016C17.7506 13.9023 17.7502 13.9027 17.7501 13.9029L17.7503 13.9026L17.7508 13.902L17.751 13.9017Z" fill="#006FFD"/>
</mask>
<g mask="url(#mask0_180_353)">
<rect x="8" y="9" width="18" height="18" fill="#FF7272"/>
</g>
<circle cx="17" cy="17" r="16" stroke="#FF7272" stroke-width="2"/>
</svg>
