<svg width="94" height="23" viewBox="0 0 94 23" fill="none" xmlns="http://www.w3.org/2000/svg">
<path d="M27.3476 22.9999C26.4137 22.9976 25.4838 22.8782 24.5797 22.6444C23.6709 22.4187 22.8132 22.0229 22.0522 21.478C21.2774 20.9121 20.6501 20.1686 20.2231 19.3102C19.7575 18.4061 19.5247 17.2947 19.5247 15.9759V13.7439C19.5247 12.3915 19.7492 11.2673 20.1983 10.3711C20.6019 9.53098 21.1924 8.7939 21.9246 8.21611C22.6184 7.67952 23.4129 7.28726 24.2612 7.06254C25.0767 6.83825 25.9181 6.72181 26.7639 6.71619C27.6331 6.71511 28.499 6.8216 29.3419 7.03322C30.179 7.24409 30.951 7.65795 31.5895 8.2381C32.2503 8.83 32.7795 9.65464 33.1772 10.712C33.5749 11.7694 33.7738 13.1346 33.7738 14.8077C33.7738 15.0276 33.7612 15.2896 33.7362 15.5938C33.7111 15.898 33.6805 16.1601 33.6444 16.38H24.554V16.4047C24.554 16.8445 24.6458 17.208 24.8293 17.4951C25.0127 17.7799 25.2553 18.022 25.5406 18.2052C25.8279 18.3909 26.1462 18.524 26.4804 18.5982C26.7979 18.6743 27.123 18.7149 27.4495 18.7192C27.9331 18.7272 28.4167 18.7018 28.8968 18.6431C29.2429 18.5901 29.5833 18.5051 29.9137 18.3893C30.0972 18.3215 30.29 18.2501 30.4845 18.174C30.6852 18.0963 30.8939 18.041 31.1068 18.0091C31.5155 17.954 31.9315 18.0064 32.3136 18.1612C32.4941 18.2369 32.6577 18.3475 32.7951 18.4867C32.9324 18.6258 33.0408 18.7908 33.1139 18.9721C33.385 19.5976 33.3889 20.1684 33.1258 20.6846C32.8628 21.2007 32.4268 21.6344 31.818 21.9856C31.5699 22.1246 31.3109 22.2432 31.0435 22.3402C30.6942 22.4695 30.3382 22.5796 29.977 22.6701C29.5587 22.7753 29.1346 22.8558 28.7068 22.9111C28.2562 22.9701 27.8022 22.9998 27.3476 22.9999ZM26.7887 10.8284C26.5094 10.8269 26.2313 10.8652 25.9627 10.942C25.7047 11.0158 25.4662 11.1457 25.2643 11.3222C25.0505 11.5143 24.8776 11.7474 24.7559 12.0076C24.6098 12.3385 24.5404 12.6981 24.5531 13.0595H28.8454C28.8716 12.703 28.8241 12.345 28.7059 12.0076C28.6094 11.7497 28.4579 11.5158 28.2617 11.3222C28.0712 11.143 27.8401 11.0126 27.5881 10.942C27.3284 10.8665 27.0592 10.8283 26.7887 10.8284Z" fill="black"/>
<path d="M35.1841 13.7966C35.1854 13.5881 35.2163 13.3808 35.2759 13.1809C35.3343 12.9762 35.4305 12.7842 35.5594 12.6147C35.6932 12.4418 35.8662 12.3033 36.0642 12.2106C36.3026 12.1037 36.562 12.052 36.8232 12.0594H44.1019C44.3628 12.0522 44.6219 12.1039 44.86 12.2106C45.0579 12.3036 45.2308 12.4421 45.3648 12.6147C45.4937 12.7842 45.5899 12.9762 45.6484 13.1809C45.7079 13.3808 45.7388 13.5881 45.7401 13.7966C45.7385 14.0088 45.7076 14.2196 45.6484 14.4234C45.5892 14.6359 45.4895 14.835 45.3547 15.0098C45.2188 15.1856 45.0466 15.3303 44.8499 15.434C44.6177 15.5484 44.3608 15.6038 44.1019 15.5952H36.8223C36.56 15.6032 36.2996 15.5479 36.0633 15.434C35.8639 15.3342 35.691 15.1889 35.5585 15.0098C35.4293 14.833 35.3333 14.6343 35.2749 14.4234C35.216 14.2196 35.1855 14.0087 35.1841 13.7966Z" fill="black"/>
<path d="M47.0768 2.96265C47.0667 2.54239 47.1485 2.12497 47.3164 1.73945C47.4664 1.40503 47.6817 1.10382 47.9496 0.853428C48.2097 0.611208 48.5163 0.424184 48.8509 0.303673C49.5433 0.0594201 50.2987 0.0594201 50.9911 0.303673C51.3258 0.423953 51.6324 0.611004 51.8923 0.853428C52.1603 1.10403 52.3758 1.40517 52.5265 1.73945C52.6935 2.12524 52.7752 2.54247 52.766 2.96265V9.42961L59.384 1.33446C59.6451 1.01423 59.9654 0.747038 60.3275 0.547398C60.6605 0.364243 61.0229 0.240233 61.3985 0.180895C61.7643 0.124085 62.1373 0.133396 62.4998 0.208383C62.8462 0.275764 63.1763 0.409563 63.4717 0.602375C63.7877 0.805608 64.0565 1.07397 64.26 1.38944C64.4635 1.69943 64.5981 2.04936 64.6547 2.41565C64.7106 2.78614 64.6915 3.16405 64.5987 3.52707C64.502 3.90816 64.3078 4.25765 64.0352 4.54137L58.7122 10.4696L66.5664 22.8665H60.0319L55.0191 14.5753L52.766 17.0776V22.8665H47.0759L47.0768 2.96265Z" fill="black"/>
<path d="M11.264 17.5725C11.2724 17.5809 11.2813 17.5888 11.2906 17.5963L11.1392 17.3214C11.1566 17.415 11.1998 17.502 11.264 17.5725Z" fill="black"/>
<path d="M10.7565 16.5509L10.6821 16.5078L10.7179 16.572L10.7565 16.5509Z" fill="black"/>
<path d="M10.372 15.9517C11.4849 16.5839 12.5969 17.2191 13.708 17.8575C13.9008 17.9693 14.0357 17.9638 14.1871 17.8318L14.1972 17.8181C13.0959 16.5628 11.9946 15.3057 10.8933 14.0468L9.30371 15.072H9.88006L10.372 15.9517Z" fill="black"/>
<path d="M15.5379 12.1007C15.6508 12.0393 15.7609 11.9742 15.8582 11.9174C15.6636 11.6105 15.4746 11.3145 15.2828 11.0112L14.5825 11.5088C14.8872 11.7131 15.1763 11.9082 15.4672 12.1007C15.4783 12.1058 15.4904 12.1084 15.5026 12.1084C15.5148 12.1084 15.5268 12.1058 15.5379 12.1007Z" fill="black"/>
<path d="M13.8484 9.35274C13.8218 9.36288 13.7999 9.38263 13.7872 9.40808C13.7744 9.43353 13.7717 9.46282 13.7795 9.49018C13.8227 9.76505 13.8585 10.0344 13.8979 10.3075C13.9053 10.356 13.9154 10.4037 13.9264 10.4623L14.6991 10.0958L14.1191 9.17957C14.0319 9.23729 13.9402 9.30051 13.8484 9.35274Z" fill="black"/>
<path d="M12.0017 17.2582C11.876 17.1859 11.7769 17.1272 11.675 17.075C11.6611 17.0675 11.6457 17.0629 11.63 17.0615C11.6142 17.0601 11.5983 17.0619 11.5832 17.0667C11.561 17.0765 11.5409 17.0905 11.5241 17.108C11.5073 17.1255 11.4941 17.1461 11.4853 17.1687C11.4765 17.1913 11.4722 17.2154 11.4727 17.2397C11.4732 17.2639 11.4785 17.2878 11.4883 17.31C11.498 17.3322 11.5121 17.3523 11.5296 17.3691C11.5471 17.3858 11.5678 17.399 11.5904 17.4078C11.613 17.4166 11.6372 17.4209 11.6615 17.4204C11.6857 17.4199 11.7097 17.4146 11.7319 17.4048C11.8191 17.3664 11.899 17.3178 12.0017 17.2582Z" fill="black"/>
<path d="M20.47 22.6321L15.1185 13.6619C16.1172 13.0404 16.9602 12.1988 17.5827 11.2018C18.2135 10.2018 18.5289 9.02687 18.5289 7.67691V7.33973C18.5289 6.08384 18.3178 4.99655 17.8957 4.07785C17.4949 3.18828 16.8922 2.40405 16.1354 1.7872C15.3452 1.15806 14.4335 0.69831 13.4574 0.436636C12.3561 0.137059 11.2187 -0.00969909 10.0773 0.000496903H4.89469C4.05035 0.000496903 3.34673 0.0802114 2.78384 0.23964C2.27071 0.369413 1.8029 0.636836 1.43106 1.01296C1.07641 1.40127 0.828796 1.87484 0.712458 2.38735C0.559903 3.06087 0.489033 3.75027 0.501373 4.44069V22.6321H6.275V16.4373H6.25572C6.10611 16.4427 5.9567 16.422 5.81428 16.3759C5.49306 16.2641 5.36733 16.0167 5.36825 15.7006C5.38752 15.6227 5.40588 15.5457 5.42515 15.4688C5.79225 14.7669 6.43469 14.3454 7.09272 13.9432C7.24323 13.8516 7.402 13.77 7.5516 13.6766C7.57019 13.6653 7.58597 13.65 7.59774 13.6317C7.6095 13.6135 7.61695 13.5928 7.61951 13.5712C7.59657 13.1341 7.56812 12.6971 7.53967 12.26C7.53708 12.2447 7.53308 12.2297 7.52774 12.2151C7.27168 12.2912 7.0505 12.2426 6.8853 12.0319C6.84524 11.9797 6.81611 11.9201 6.79966 11.8564C6.7832 11.7928 6.77975 11.7265 6.78951 11.6615C6.79928 11.5965 6.82206 11.5342 6.85649 11.4782C6.89092 11.4222 6.93631 11.3736 6.98993 11.3355C7.02113 11.3135 7.05417 11.2943 7.08171 11.2741C6.9276 11.2995 6.77168 11.3124 6.61548 11.3126C5.87916 11.3119 5.17222 11.0242 4.64525 10.5107C4.11829 9.9973 3.81295 9.29873 3.79429 8.56385C3.79429 8.54003 3.79429 8.5162 3.79429 8.49146C3.79429 8.46673 3.79429 8.4429 3.79429 8.41908C3.78979 6.92459 4.38013 5.48952 5.43544 4.42958C6.49075 3.36963 7.92459 2.77163 9.42153 2.76714C10.9185 2.76264 12.3559 3.35202 13.4176 4.4056C14.4793 5.45919 15.0782 6.89069 15.0827 8.38518C15.0641 7.6432 14.7529 6.93854 14.2168 6.42429C13.6808 5.91003 12.9631 5.62774 12.2197 5.63872C11.4764 5.6497 10.7674 5.95308 10.2468 6.48294C9.72623 7.0128 9.43609 7.72635 9.43943 8.46856V8.49146C9.43996 8.96352 9.32195 9.42817 9.09619 9.84295L9.24762 10.1884C9.36999 10.4742 9.49449 10.7595 9.62115 11.0442C9.63661 11.0774 9.6486 11.112 9.65694 11.1477C9.66259 11.1653 9.6644 11.184 9.66226 11.2024C9.66012 11.2208 9.65407 11.2385 9.64451 11.2544C9.63495 11.2702 9.62211 11.2839 9.60684 11.2944C9.59158 11.3049 9.57424 11.3121 9.55598 11.3154C9.48928 11.3195 9.42301 11.3022 9.36693 11.2659C9.33205 11.2457 9.31828 11.1871 9.29901 11.1431C9.15829 10.8236 9.01818 10.5036 8.87868 10.1829C8.59753 10.5586 8.22729 10.8586 7.80123 11.0561V11.0762C7.84895 11.8386 7.89637 12.6021 7.94348 13.3669C7.94348 13.3953 7.94899 13.4237 7.95358 13.4585L9.86619 12.4506C9.79185 12.2784 9.71567 12.1079 9.64409 11.9366C9.63199 11.917 9.62431 11.895 9.62158 11.8721C9.61886 11.8493 9.62116 11.8261 9.62832 11.8042C9.63548 11.7823 9.64734 11.7622 9.66306 11.7454C9.67878 11.7285 9.69798 11.7153 9.71935 11.7066C9.74187 11.6975 9.76604 11.693 9.79035 11.6936C9.81466 11.6941 9.8386 11.6996 9.8607 11.7097C9.8828 11.7199 9.90259 11.7344 9.91884 11.7525C9.9351 11.7705 9.94747 11.7917 9.95521 11.8147C10.0268 11.9714 10.0938 12.1299 10.1663 12.2949C10.1984 12.282 10.2287 12.2719 10.2581 12.2582C11.3447 11.7268 12.4313 11.1953 13.518 10.6639C13.5306 10.66 13.5423 10.6537 13.5525 10.6453C13.5626 10.6369 13.571 10.6266 13.5772 10.6149C13.5833 10.6032 13.5871 10.5905 13.5883 10.5773C13.5894 10.5642 13.588 10.551 13.584 10.5384C13.5262 10.1618 13.4767 9.7843 13.4188 9.40772C13.4058 9.35654 13.4115 9.3024 13.4349 9.25503C13.4583 9.20766 13.4978 9.17018 13.5464 9.14934C13.7244 9.05313 13.897 8.94501 14.0732 8.84514C14.095 8.82698 14.1208 8.81413 14.1485 8.80761C14.1761 8.80108 14.2049 8.80106 14.2326 8.80755C14.2603 8.81403 14.2861 8.82685 14.3079 8.84498C14.3298 8.86311 14.3472 8.88606 14.3586 8.91203C14.9845 9.89426 15.6095 10.8768 16.2336 11.8596C16.2514 11.8798 16.264 11.9039 16.2704 11.93C16.2768 11.9561 16.2769 11.9834 16.2705 12.0095C16.2641 12.0356 16.2514 12.0597 16.2337 12.0799C16.2159 12.1001 16.1935 12.1157 16.1684 12.1253C15.9849 12.2371 15.7922 12.3443 15.6059 12.4561C15.5676 12.4799 15.5228 12.4909 15.4779 12.4874C15.433 12.484 15.3903 12.4663 15.3562 12.4369C15.0286 12.2142 14.6991 11.9962 14.3733 11.7726C14.3519 11.7529 14.3239 11.7419 14.2948 11.7419C14.2657 11.7419 14.2377 11.7529 14.2164 11.7726C13.2325 12.4506 12.2478 13.1274 11.2621 13.803C11.2318 13.8241 11.2034 13.8461 11.1703 13.8708L12.2882 15.1353L14.5293 17.6944C14.6771 17.863 14.6651 17.9418 14.4715 18.0545C14.3568 18.1213 14.2366 18.1818 14.1292 18.2569C14.0764 18.2971 14.0119 18.3188 13.9456 18.3188C13.8793 18.3188 13.8148 18.2971 13.7621 18.2569C13.3215 17.9967 12.8728 17.7493 12.4295 17.4928C12.4033 17.4723 12.371 17.4611 12.3377 17.4611C12.3044 17.4611 12.2721 17.4723 12.2459 17.4928C12.1542 17.5533 12.0569 17.6073 11.9605 17.6605C11.8565 17.7235 11.7346 17.7507 11.6136 17.738C11.4926 17.7252 11.3791 17.6732 11.2905 17.5899L14.1044 22.6293L20.47 22.6321Z" fill="black"/>
<path d="M11.2575 16.8954C11.2651 16.8839 11.2722 16.872 11.2786 16.8597C11.1024 16.7232 11.1024 16.7232 10.9298 16.824L10.8748 16.856L11.1363 17.3242C11.1244 17.2483 11.1291 17.1706 11.15 17.0966C11.1709 17.0226 11.2075 16.954 11.2575 16.8954Z" fill="black"/>
<path d="M8.66949 15.072C8.7888 14.996 8.90811 14.9199 9.02742 14.8457C10.7996 13.7389 12.5149 12.5551 14.2183 11.3557C14.5193 11.145 14.8166 10.9306 15.1168 10.7143L14.8937 10.3744C14.8671 10.3863 14.8405 10.3973 14.8139 10.4101C14.2926 10.6575 13.7704 10.9031 13.2537 11.1523C11.2429 12.1189 9.24493 13.103 7.31488 14.2025C6.85755 14.4471 6.44085 14.7608 6.07958 15.1325C5.95377 15.2654 5.84691 15.4149 5.76203 15.5769C5.62253 15.8518 5.77947 16.0882 6.1016 16.1074C6.15938 16.1106 6.21729 16.1106 6.27506 16.1074V15.072H8.66949Z" fill="black"/>
<path d="M7.48561 11.4143C7.36906 11.4904 7.26627 11.5462 7.17725 11.6186C7.1617 11.6317 7.14891 11.6477 7.1396 11.6657C7.1303 11.6837 7.12467 11.7034 7.12305 11.7236C7.12143 11.7438 7.12384 11.7641 7.13015 11.7834C7.13646 11.8026 7.14654 11.8204 7.15981 11.8358C7.18262 11.8725 7.21769 11.9 7.25883 11.9134C7.29997 11.9268 7.34454 11.9253 7.38466 11.9091C7.4645 11.8816 7.52875 11.8477 7.51131 11.7423C7.49387 11.637 7.49479 11.5453 7.48561 11.4143Z" fill="black"/>
<path d="M80.3172 10.013C79.9106 9.16979 79.3137 8.43214 78.5735 7.85799C77.8681 7.31955 77.0598 6.93101 76.1983 6.71633C75.3559 6.50061 74.49 6.38982 73.6203 6.38647C72.7421 6.38879 71.8676 6.49958 71.0166 6.71633C70.1555 6.93103 69.3474 7.31957 68.6424 7.85799C67.9049 8.43068 67.3131 9.16903 66.9152 10.013C66.4747 10.9091 66.2544 12.0419 66.2544 13.4114V15.7442C66.2544 17.1131 66.4789 18.2456 66.928 19.1417C67.3335 19.9846 67.9287 20.7225 68.6672 21.2977C69.3728 21.8355 70.1811 22.2237 71.0423 22.4384C72.7328 22.8782 74.5079 22.8782 76.1983 22.4384C77.0596 22.2237 77.8679 21.8355 78.5735 21.2977C79.3136 20.723 79.9104 19.9851 80.3172 19.1417C80.7651 18.2462 80.9893 17.1137 80.9899 15.7442V13.4114C80.9899 12.0419 80.7657 10.9091 80.3172 10.013ZM78.713 14.4111C78.7171 15.7589 78.1848 17.0532 77.2331 18.0092C76.2814 18.9652 74.9883 19.5045 73.6382 19.5087C72.2882 19.5128 70.9918 18.9813 70.0342 18.0312C69.0767 17.081 68.5364 15.7901 68.5323 14.4422C68.5502 15.1106 68.8312 15.745 69.3145 16.2079C69.7978 16.6707 70.4443 16.9248 71.1139 16.9149C71.7836 16.905 72.4223 16.632 72.8917 16.1551C73.361 15.6781 73.6232 15.0357 73.6212 14.3671V14.3469C73.6218 13.6792 73.8857 13.0385 74.3558 12.5635C74.8259 12.0884 75.4644 11.8173 76.1332 11.8086C76.8019 11.7999 77.4473 12.0544 77.9296 12.5171C78.4118 12.9798 78.6923 13.6134 78.7102 14.281C78.7102 14.3029 78.7102 14.324 78.7102 14.3469C78.7102 14.3698 78.7139 14.3872 78.713 14.4083V14.4111Z" fill="black"/>
<path d="M93.2198 7.63123C92.9879 7.17108 92.5966 6.81065 92.1185 6.61693C91.929 6.53175 91.7275 6.47612 91.5211 6.452C91.3231 6.42794 91.1239 6.4154 90.9245 6.41444C90.3033 6.41312 89.6888 6.54269 89.1211 6.79469C88.5416 7.051 88.0093 7.40253 87.5462 7.83464C87.3456 7.3825 87.0023 7.00828 86.5688 6.76903C86.2126 6.57415 85.8192 6.45653 85.4144 6.42384C85.0095 6.39116 84.6023 6.44416 84.2194 6.57936C83.9197 6.68602 83.6435 6.84969 83.4062 7.06132C83.1631 7.28063 82.9684 7.54804 82.8345 7.84655C82.6841 8.19325 82.6105 8.56832 82.6188 8.94606V19.2925H87.7748V13.3368C87.809 12.6948 88.025 12.1878 88.4227 11.8158C88.8204 11.4438 89.375 11.2324 90.0866 11.1817C90.2807 11.1649 90.4757 11.1606 90.6703 11.1689C90.874 11.1775 91.0689 11.1817 91.2549 11.1817C91.7907 11.19 92.3107 11.0004 92.7151 10.6494C93.1341 10.2862 93.4016 9.77952 93.4649 9.22918C93.5553 8.68407 93.4695 8.12436 93.2198 7.63123Z" fill="black" stroke="black" stroke-miterlimit="10"/>
<path d="M82.6355 22.2702V21.5106H87.7951V22.2885L82.6355 22.2702Z" fill="#E83B18" stroke="#E83B18" stroke-width="1.2" stroke-miterlimit="10"/>
<path d="M82.6355 21.5143V20.7538H87.7951V21.5326L82.6355 21.5143Z" fill="#1100D0" stroke="#1100D0" stroke-width="1.2" stroke-miterlimit="10"/>
<path d="M82.6355 20.6897V19.9292H87.7951V20.708L82.6355 20.6897Z" fill="#FFCC00" stroke="#FFCC00" stroke-width="1.2" stroke-miterlimit="10"/>
<path d="M82.6355 19.8651V19.1046H87.7951V19.8834L82.6355 19.8651Z" fill="white" stroke="white" stroke-width="1.2" stroke-miterlimit="10"/>
</svg>
