<svg width="20" height="21" viewBox="0 0 20 21" fill="none" xmlns="http://www.w3.org/2000/svg">
<mask id="mask0_155_228" style="mask-type:alpha" maskUnits="userSpaceOnUse" x="0" y="0" width="20" height="21">
<path fill-rule="evenodd" clip-rule="evenodd" d="M8.03383 0.916626C3.83029 0.916626 0.416748 4.29712 0.416748 8.47441C0.416748 12.6517 3.83029 16.0322 8.03383 16.0322C9.60102 16.0322 11.0588 15.5622 12.2704 14.7562L17.2397 19.6845C17.7758 20.2162 18.6437 20.2162 19.1799 19.6845C19.7179 19.1508 19.7179 18.2842 19.1799 17.7506L14.2424 12.8539C15.129 11.6185 15.6509 10.1066 15.6509 8.47441C15.6509 4.29712 12.2374 0.916626 8.03383 0.916626ZM3.16404 8.47441C3.16404 5.81218 5.34107 3.64815 8.03383 3.64815C10.7266 3.64815 12.9036 5.81218 12.9036 8.47441C12.9036 11.1366 10.7266 13.3007 8.03383 13.3007C5.34107 13.3007 3.16404 11.1366 3.16404 8.47441Z" fill="#006FFD"/>
</mask>
<g mask="url(#mask0_155_228)">
<rect y="0.5" width="20" height="20" fill="#2F3036"/>
</g>
</svg>
