<svg width="13" height="14" viewBox="0 0 13 14" fill="none" xmlns="http://www.w3.org/2000/svg">
<g clip-path="url(#clip0_168_790)">
<mask id="mask0_168_790" style="mask-type:alpha" maskUnits="userSpaceOnUse" x="0" y="0" width="13" height="13">
<path d="M12.5799 4.87147L8.68273 4.30508L6.94059 0.773222C6.89301 0.676522 6.81472 0.598241 6.71802 0.550658C6.47551 0.430934 6.1808 0.530704 6.05954 0.773222L4.31741 4.30508L0.420238 4.87147C0.312793 4.88681 0.214558 4.93747 0.139347 5.01421C0.0484208 5.10767 -0.00168367 5.2334 4.32018e-05 5.36378C0.00177007 5.49416 0.055187 5.61852 0.148556 5.70953L2.96821 8.45858L2.30205 12.3404C2.28643 12.4307 2.29642 12.5236 2.3309 12.6085C2.36537 12.6934 2.42295 12.7669 2.49709 12.8208C2.57124 12.8746 2.65899 12.9066 2.7504 12.9132C2.84181 12.9197 2.93322 12.9005 3.01426 12.8577L6.50007 11.025L9.98588 12.8577C10.081 12.9083 10.1916 12.9252 10.2975 12.9068C10.5645 12.8607 10.7441 12.6075 10.6981 12.3404L10.0319 8.45858L12.8516 5.70953C12.9283 5.63432 12.979 5.53609 12.9943 5.42864C13.0358 5.16003 12.8485 4.91137 12.5799 4.87147Z" fill="#006FFD"/>
</mask>
<g mask="url(#mask0_168_790)">
<rect y="0.5" width="13" height="13" fill="#FDB600"/>
</g>
</g>
<defs>
<clipPath id="clip0_168_790">
<rect width="13" height="13" fill="white" transform="translate(0 0.5)"/>
</clipPath>
</defs>
</svg>
