<svg width="18" height="21" viewBox="0 0 18 21" fill="none" xmlns="http://www.w3.org/2000/svg">
<path d="M13.6541 14.3539L13.8155 14.5162L13.9786 14.3539C14.1702 14.1624 14.3975 14.0105 14.6478 13.9068C14.898 13.8032 15.1662 13.7498 15.4371 13.7498C15.7079 13.7498 15.9761 13.8032 16.2263 13.9068C16.4766 14.0105 16.7039 14.1624 16.8955 14.3539C17.087 14.5454 17.2389 14.7728 17.3426 15.023C17.4462 15.2733 17.4996 15.5415 17.4996 15.8123C17.4996 16.0832 17.4462 16.3514 17.3426 16.6016C17.2389 16.8519 17.087 17.0792 16.8955 17.2708L13.8155 20.3498L10.7373 17.2708C10.3505 16.884 10.1332 16.3594 10.1332 15.8123C10.1332 15.2653 10.3505 14.7407 10.7373 14.3539C11.1241 13.9671 11.6487 13.7498 12.1957 13.7498C12.7427 13.7498 13.2673 13.9671 13.6541 14.3539ZM8.29989 12.8332V14.6665C6.8412 14.6665 5.44225 15.246 4.4108 16.2774C3.37935 17.3089 2.79989 18.7078 2.79989 20.1665H0.966553C0.966575 18.2613 1.70808 16.4309 3.03407 15.0628C4.36005 13.6947 6.16642 12.8964 8.07072 12.8368L8.29989 12.8332ZM8.29989 0.916504C11.3386 0.916504 13.7999 3.37775 13.7999 6.4165C13.8004 7.83966 13.2491 9.20756 12.2618 10.2326C11.2746 11.2576 9.9283 11.8599 8.50614 11.9128L8.29989 11.9165C5.26114 11.9165 2.79989 9.45525 2.79989 6.4165C2.79938 4.99335 3.35071 3.62544 4.33797 2.60041C5.32522 1.57538 6.67147 0.973082 8.09364 0.920171L8.29989 0.916504ZM8.29989 2.74984C6.27405 2.74984 4.63322 4.39067 4.63322 6.4165C4.63322 8.44234 6.27405 10.0832 8.29989 10.0832C10.3257 10.0832 11.9666 8.44234 11.9666 6.4165C11.9666 4.39067 10.3257 2.74984 8.29989 2.74984Z" fill="#D4D6DD"/>
</svg>
