<svg width="30" height="30" viewBox="0 0 30 30" fill="none" xmlns="http://www.w3.org/2000/svg">
<path d="M17.7122 9.94751L17.712 9.94751C17.223 9.94667 16.7405 10.06 16.303 10.2783C15.8655 10.4967 15.4849 10.8142 15.1917 11.2055L14.7921 11.7386L14.3919 11.2061C13.9945 10.6774 13.441 10.2871 12.8096 10.0903C12.1782 9.89352 11.5009 9.90029 10.8735 10.1096C10.2462 10.319 9.70057 10.7203 9.31387 11.2568C8.9272 11.7933 8.71901 12.4378 8.71875 13.0991L17.7122 9.94751ZM17.7122 9.94751C18.548 9.94846 19.3492 10.2809 19.9401 10.8718C20.531 11.4627 20.8634 12.2639 20.8644 13.0996C20.8642 14.7566 19.9026 16.5453 17.8258 18.4145C16.8908 19.2526 15.8742 19.9949 14.7913 20.6305M17.7122 9.94751L14.7913 20.6305M14.7913 20.6305C14.6335 20.5416 13.1136 19.6702 11.6278 18.3026C10.0968 16.8933 8.71883 15.0637 8.71875 13.0992L14.7913 20.6305Z" fill="#FF7272" stroke="#FF7272"/>
<circle cx="14.7115" cy="15.2115" r="13.7115" stroke="#FF7272" stroke-width="2"/>
</svg>
