<svg width="220" height="220" viewBox="0 0 220 220" fill="none" xmlns="http://www.w3.org/2000/svg">
<rect width="220" height="220" fill="#D9D9D9"/>
<path fill-rule="evenodd" clip-rule="evenodd" d="M71.1562 93C68.3085 93 66 95.3085 66 98.1562V122.219C66 125.066 68.3085 127.375 71.1562 127.375H105.531C108.379 127.375 110.688 125.066 110.688 122.219V98.1562C110.688 95.3085 108.379 93 105.531 93H71.1562ZM69.4375 98.1562C69.4375 97.207 70.207 96.4375 71.1562 96.4375H105.531C106.48 96.4375 107.25 97.207 107.25 98.1562V122.219C107.25 123.168 106.48 123.938 105.531 123.938H71.1562C70.207 123.938 69.4375 123.168 69.4375 122.219V98.1562Z" fill="#5F5F5F"/>
<path d="M74.8563 118.787C75.4808 113.944 78.5485 108.469 81.6162 108.469C83.335 108.469 84.1944 109.328 85.0537 110.188C85.9131 111.047 86.7725 111.906 88.4912 111.906C90.21 111.906 91.0694 109.758 91.9287 107.609C92.7881 105.461 93.6475 103.312 95.3662 103.312C98.5277 103.312 101.689 112.035 102.177 118.785C102.245 119.731 101.472 120.5 100.522 120.5H76.46C75.5108 120.5 74.7349 119.728 74.8563 118.787Z" fill="#5F5F5F"/>
<line x1="69.3" y1="123.9" x2="106.9" y2="95.7" stroke="#5F5F5F" stroke-width="3" stroke-linecap="round"/>
<path d="M131.143 115.385C130.907 115.977 130.235 116.265 129.644 116.028C129.052 115.792 128.764 115.12 129.001 114.528C129.506 113.266 131.171 110.342 134.687 110.342C138.204 110.342 139.869 113.266 140.374 114.528C140.611 115.12 140.323 115.792 139.731 116.028C139.14 116.265 138.468 115.977 138.232 115.385C137.813 114.34 136.709 112.649 134.687 112.649C132.666 112.649 131.562 114.34 131.143 115.385Z" fill="#5F5F5F"/>
<path d="M132.38 104.572C132.38 105.847 131.347 106.88 130.072 106.88C128.798 106.88 127.764 105.847 127.764 104.572C127.764 103.298 128.798 102.265 130.072 102.265C131.347 102.265 132.38 103.298 132.38 104.572Z" fill="#5F5F5F"/>
<path d="M139.303 106.88C140.577 106.88 141.611 105.847 141.611 104.572C141.611 103.298 140.577 102.265 139.303 102.265C138.028 102.265 136.995 103.298 136.995 104.572C136.995 105.847 138.028 106.88 139.303 106.88Z" fill="#5F5F5F"/>
<circle cx="137.688" cy="110.188" r="14.4" stroke="#5F5F5F" stroke-width="3.2"/>
<path d="M143.522 106.361L143.173 111.113C143.15 112.514 143.551 114.715 145.853 114.014C148.155 113.313 147.261 111.262 146.461 110.112L143.522 106.361Z" fill="#5F5F5F"/>
</svg>
